<svg xmlns="http://www.w3.org/2000/svg" xmlns:xlink="http://www.w3.org/1999/xlink" width="60" height="53.98" viewBox="0 0 60 53.98"><defs><style>.cls-1{fill:none;}.cls-2{fill:#2684ff;}.cls-3{fill:url(#New_Gradient_Swatch_8);}</style><linearGradient id="New_Gradient_Swatch_8" x1="61.55" y1="23.09" x2="31.72" y2="46.37" gradientUnits="userSpaceOnUse"><stop offset="0.18" stop-color="#0052cc"/><stop offset="1" stop-color="#2684ff"/></linearGradient></defs><title>bitbucket-icon-gradient-blue</title><g id="Layer_2" data-name="Layer 2"><g id="Logos"><polygon class="cls-1" points="23.76 35.82 36.3 35.82 39.33 18.14 20.41 18.14 23.76 35.82"/><path class="cls-2" d="M1.92,0A1.91,1.91,0,0,0,0,2.23L8.16,51.79A2.62,2.62,0,0,0,10.72,54H49.89a1.92,1.92,0,0,0,1.9-1.61L60,2.25A1.92,1.92,0,0,0,58.08,0ZM36.3,35.82H23.76L20.42,18.14H39.33Z"/><path class="cls-3" d="M57.38,18.14H39.33l-3,17.68H23.76L9,53.35a2.61,2.61,0,0,0,1.68.63H49.89a1.92,1.92,0,0,0,1.9-1.61Z"/></g></g></svg>