<svg xmlns="http://www.w3.org/2000/svg" xmlns:xlink="http://www.w3.org/1999/xlink" viewBox="0 0 81 81" fill="#fff" fill-rule="evenodd" stroke="#000" stroke-linecap="round" stroke-linejoin="round"><use xlink:href="#A" x=".5" y=".5"/><symbol id="A" overflow="visible"><g stroke="none"><g fill-rule="nonzero"><path d="M17.821 64.868c-6.618 0-11.983-5.365-11.983-11.983s5.365-11.983 11.983-11.983 11.983 5.365 11.983 11.983-5.365 11.983-11.983 11.983zm14.499-1.598c4.31-6.266 4.134-14.585-.437-20.663s-12.515-8.556-19.731-6.154S.062 45.6.046 53.205c-.061.891-.061 1.785 0 2.676.081.593.201 1.18.359 1.758l.24.839c.353 1.092.808 2.149 1.358 3.156.808 1.475 1.831 2.821 3.036 3.994l.599.599 1.318 1.078c.909.684 1.886 1.273 2.916 1.758 5.798 2.975 12.762 2.53 18.134-1.158L39.71 79.608a1.32 1.32 0 0 0 1.877 0l2.636-2.596a1.32 1.32 0 0 0 0-1.877z" fill="#4285f4"/><path d="M39.191 58.238a21.61 21.61 0 0 0 .799-6.031c-.24-12.153-10.254-21.828-22.408-21.649-2.617.031-5.21.504-7.669 1.398V15.298c0-.657.261-1.287.725-1.751s1.094-.725 1.751-.725h64.668c1.374 0 2.495 1.102 2.516 2.476v40.622c0 1.39-1.127 2.516-2.516 2.516z" fill="#aecbfa"/></g><path d="M54.288 12.822V6.911H36.554v5.912h-5.952V3.475c.022-1.374 1.142-2.477 2.516-2.476h24.605c.657 0 1.287.261 1.751.725s.725 1.094.725 1.751v9.347z" fill="#669df6"/><path d="M54.289 12.822l5.912-1.877v1.877h-5.912zm-23.727 0l5.952-2.157v2.157h-5.952z" fill="#4285f4"/></g></symbol></svg>