<svg xmlns="http://www.w3.org/2000/svg" xmlns:xlink="http://www.w3.org/1999/xlink" viewBox="0 0 81 45" fill="#fff" fill-rule="evenodd" stroke="#000" stroke-linecap="round" stroke-linejoin="round"><use xlink:href="#A" x=".5" y=".5"/><symbol id="A" overflow="visible"><g stroke="none"><path d="M78.515 0H28.869c-.348 0-.681.141-.923.39s-.373.587-.362.934v8.669c0 .341.135.667.376.908s.567.376.908.376h49.646c.374.059.755-.05 1.041-.297s.449-.609.444-.987V1.324a1.28 1.28 0 0 0-.348-.92C79.417.156 79.096.01 78.756 0zm-44.71 8.589a2.81 2.81 0 0 1-2.809-2.809 2.81 2.81 0 0 1 2.809-2.809 2.81 2.81 0 0 1 2.809 2.809h0a2.81 2.81 0 0 1-2.809 2.809zm44.709 7.625H28.868c-.341 0-.667.135-.908.376s-.376.568-.376.908v8.629c0 .341.135.667.376.908s.567.376.908.376h49.646c.341 0 .667-.135.908-.376s.376-.568.376-.908v-8.629c0-.341-.135-.667-.376-.908s-.567-.376-.908-.376zm-44.709 8.589a2.81 2.81 0 1 1 2.809-2.809h0a2.81 2.81 0 0 1-2.809 2.809zm44.91 7.505H29.109c-.341 0-.667.135-.908.376s-.376.568-.376.908v8.669a1.28 1.28 0 0 0 .362.934c.242.249.575.39.923.39h49.606c.348 0 .681-.141.923-.39s.373-.587.362-.934v-8.669c0-.341-.135-.667-.376-.908s-.568-.376-.908-.376zm-44.709 8.549a2.85 2.85 0 0 1-2.809-2.85 2.85 2.85 0 0 1 5.659 0 2.85 2.85 0 0 1-2.85 2.85z" fill="#4285f4" fill-rule="nonzero"/><use xlink:href="#C" fill="#669df6" fill-rule="nonzero"/><path d="M18.755 25.044H3.424a3.29 3.29 0 0 1-.843-6.502h16.054c1.795-.321 3.511.874 3.833 2.669s-.874 3.511-2.669 3.833z" fill="#aecbfa" fill-rule="nonzero"/><use xlink:href="#C" y="23.639" fill="#669df6" fill-rule="nonzero"/></g></symbol><defs ><path id="C" d="M18.754 13.204h-8.549a3.26 3.26 0 0 1-3.652-2.809 3.26 3.26 0 0 1 2.809-3.652h9.391c1.784-.288 3.464.925 3.753 2.709s-.925 3.464-2.709 3.753z"/></defs></svg>