<svg width="81" height="80" xmlns="http://www.w3.org/2000/svg" xmlns:xlink="http://www.w3.org/1999/xlink" overflow="hidden"><defs><clipPath id="clip0"><rect x="313" y="124" width="81" height="80"/></clipPath><clipPath id="clip1"><rect x="314" y="124" width="80" height="80"/></clipPath><clipPath id="clip2"><rect x="314" y="124" width="80" height="80"/></clipPath><clipPath id="clip3"><rect x="314" y="124" width="80" height="80"/></clipPath><linearGradient x1="314" y1="204" x2="394" y2="124" gradientUnits="userSpaceOnUse" spreadMethod="pad" id="fill4"><stop offset="0" stop-color="#BD0816" stop-opacity="1"/><stop offset="1" stop-color="#FF5252" stop-opacity="1"/></linearGradient></defs><g clip-path="url(#clip0)" transform="translate(-313 -124)"><g clip-path="url(#clip1)"><g clip-path="url(#clip2)"><g clip-path="url(#clip3)"><path d="M314 124 394 124 394 204 314 204Z" fill="url(#fill4)" fill-rule="evenodd"/><path d="M376.707 176.293 375.293 177.707 378.586 181 368 181 368 183 378.586 183 375.293 186.293 376.707 187.707 381.707 182.707C382.098 182.316 382.098 181.684 381.707 181.293L376.707 176.293ZM350 183 360.586 183 357.293 186.293 358.707 187.707 363.707 182.707C364.098 182.316 364.098 181.684 363.707 181.293L358.707 176.293 357.293 177.707 360.586 181 350 181 350 183ZM340.707 187.707 345.707 182.707C346.098 182.316 346.098 181.684 345.707 181.293L340.707 176.293 339.293 177.707 342.586 181 332 181 332 183 342.586 183 339.293 186.293 340.707 187.707ZM332 170 350 170 350 168 332 168 332 170ZM332 159 350 159 350 157 332 157 332 159ZM356 159 362 159 362 156 356 156 356 159ZM363 154C363.553 154 364 154.448 364 155L364 160C364 160.552 363.553 161 363 161L355 161C354.447 161 354 160.552 354 160L354 155C354 154.448 354.447 154 355 154L363 154ZM356 171 380 171 380 168 356 168 356 171ZM382 167 382 172C382 172.552 381.553 173 381 173L355 173C354.447 173 354 172.552 354 172L354 167C354 166.448 354.447 166 355 166L381 166C381.553 166 382 166.448 382 167ZM361 145 366.586 145 361 139.414 361 145ZM368 187 370 187 370 191C370 191.552 369.553 192 369 192L327 192C326.447 192 326 191.552 326 191L326 137C326 136.448 326.447 136 327 136L360 136C360.266 136 360.52 136.105 360.707 136.293L369.707 145.293C369.895 145.481 370 145.735 370 146L370 163 368 163 368 147 360 147C359.447 147 359 146.552 359 146L359 138 328 138 328 190 368 190 368 187ZM341 152C340.744 152 340.488 151.902 340.293 151.707L336.293 147.707 337.707 146.293 341 149.586 348.293 142.293 349.707 143.707 341.707 151.707C341.512 151.902 341.256 152 341 152Z" fill="#FFFFFF" fill-rule="evenodd" fill-opacity="1"/></g></g></g></g></svg>