<svg xmlns="http://www.w3.org/2000/svg" viewBox="0 0 213.2 24.7"><path d="M30.9 18.1c-.1 0-.7-.4-1.6-.4-1.2 0-2.1.9-2.1 2s.8 2 2.1 2c.9 0 1.5-.4 1.6-.4v2c-.2.1-.9.3-1.7.3-2.1 0-4-1.5-4-3.9 0-2.2 1.7-3.9 4-3.9.9 0 1.5.2 1.7.3v2zm-19.7 0c-.1 0-.7-.4-1.6-.4-1.2 0-2.1.9-2.1 2s.8 2 2.1 2c.9 0 1.5-.4 1.6-.4v2c-.2.1-.9.3-1.7.3-2.1 0-4-1.5-4-3.9 0-2.2 1.7-3.9 4-3.9.9 0 1.5.2 1.7.3v2zm29.7 1.6c0 2.1-1.7 3.9-4 3.9s-4-1.7-4-3.9c0-2.1 1.7-3.9 4-3.9 2.3.1 4 1.8 4 3.9m-4-1.9c-1.1 0-2 .9-2 2s.8 2 2 2c1.1 0 2-.9 2-2s-.9-2-2-2m-14-.1s-.8-.2-1.5-.2c-.8 0-1.2.3-1.2.6 0 .5.6.6.9.7l.5.2c1.2.4 1.8 1.2 1.8 2.1 0 1.9-1.7 2.5-3.1 2.5-1 0-1.9-.2-2-.2v-1.7c.2 0 1 .3 1.8.3.9 0 1.4-.3 1.4-.7 0-.4-.4-.6-.8-.7-.1 0-.3-.1-.4-.1-1.1-.3-1.9-1-1.9-2.2 0-1.4 1-2.3 2.8-2.3.9 0 1.8.2 1.8.2l-.1 1.5zM3.5 7.9c0-.5-.5-.9-1-.9s-.9.4-.9.9v2c0 .5.4.9.9.9s.9-.4.9-.9l.1-2zm5.1-2.6c0-.5-.4-.9-.9-.9s-.9.4-.9.9v4.6c0 .5.4.9.9.9s.9-.4.9-.9V5.3zm5.2-3.5c0-.5-.4-.9-.9-.9s-.9.4-.9.9v10c0 .5.4.9.9.9s.9-.4.9-.9v-10zm5.1 3.5c0-.5-.4-.9-.9-.9s-.9.4-.9.9v4.6c0 .5.4.9.9.9s.9-.4.9-.9V5.3zm5.2 2.6c0-.5-.4-.9-.9-.9s-.9.4-.9.9v2c0 .5.4.9.9.9s.9-.4.9-.9v-2zm5.2-2.6c0-.5-.4-.9-.9-.9s-.9.4-.9.9v4.6c0 .5.4.9.9.9s.9-.4.9-.9V5.3zm5.1-3.5c0-.5-.4-.9-.9-.9s-.9.4-.9.9v10c0 .5.4.9.9.9s.9-.4.9-.9v-10zm5.2 3.5c0-.5-.4-.9-.9-.9s-.9.4-.9.9v4.6c0 .5.4.9.9.9s.9-.4.9-.9V5.3zm5.1 2.6c0-.5-.4-.9-.9-.9s-.9.4-.9.9v2c0 .5.4.9.9.9s.9-.4.9-.9v-2zM13.8 16h1.9v7.5h-1.9zM70 17.6h1.3c-.4 3.3-3 6-7 6-4.6 0-7.7-3.4-7.7-8.8 0-5.9 3.4-9.1 7.7-9.1 3.7 0 6.5 2.1 7 5.5H70C69.4 8.5 67.3 7 64.3 7 60.7 7 58 9.8 58 14.9c0 4.8 2.7 7.6 6.4 7.6 3 0 5.2-1.8 5.6-4.9zM73.9 8V6.2h1.5V8h-1.5zm.2 15.3V11h1.3v12.4h-1.3v-.1zm8.2-6c-2.5-.4-4-1.5-4-3.4s1.5-3.3 4.5-3.3c2.6 0 4.5 1.3 4.8 3.4h-1.3c-.2-1.4-1.6-2.4-3.5-2.4-2.2 0-3.1 1-3.1 2.1 0 1.4.8 2 3.4 2.5 3.2.6 4.6 1.6 4.6 3.7 0 2-1.8 3.7-4.9 3.7-2.9 0-4.7-1.5-5-3.6h1.3c.2 1.6 1.5 2.6 3.7 2.6 2.3 0 3.5-1.2 3.5-2.6 0-1.5-1.2-2.2-4-2.7zm18 2.4c-.4 2.3-2.4 4-5.1 4-3.1 0-5.5-2.2-5.5-6.4 0-4.4 2.4-6.6 5.5-6.6 2.6 0 4.6 1.5 5 3.8h-1.4c-.3-1.6-1.7-2.7-3.6-2.7-2.4 0-4.2 1.8-4.2 5.6 0 3.6 1.9 5.3 4.2 5.3 1.9 0 3.4-1.2 3.7-2.9h1.4v-.1zm7.7-9.1c3.3 0 5.7 2.2 5.7 6.5s-2.4 6.5-5.7 6.5c-3.2 0-5.7-2.3-5.7-6.5 0-4.3 2.4-6.5 5.7-6.5zm0 12c2.5 0 4.4-1.9 4.4-5.5 0-3.7-1.8-5.5-4.4-5.5-2.5 0-4.4 1.9-4.4 5.5s1.9 5.5 4.4 5.5zm15.4-4.9V6.2h1.3v11.6c0 2.8 2.2 4.8 5.2 4.8s5.2-2 5.2-4.8V6.2h1.3v11.5c0 3.4-2.5 6-6.5 6-4.1 0-6.5-2.7-6.5-6zm16.4 5.6V11h1.1l.1 1.9c.8-1.6 2.4-2.3 3.8-2.3 1.9 0 3.2.9 3.7 2.4.8-1.7 2.5-2.4 4-2.4 2.5 0 4 1.5 4 4.2v8.5h-1.3v-8.4c0-2.2-1.1-3.2-3-3.2-2 0-3.5 1.8-3.5 4v7.7h-1.3V15c0-2.2-1-3.2-2.9-3.2-2 0-3.5 1.7-3.5 3.9v7.7h-1.2v-.1zm19.9 0V6.2h1.3v7.1c.8-1.5 2.3-2.7 4.4-2.7 3.1 0 5.2 2.1 5.2 6.4 0 4.4-2.3 6.7-5.3 6.7-2 0-3.5-1.1-4.3-2.6l-.2 2.3h-1.1v-.1zm5.4-11.6c-2.1 0-4.2 1.5-4.2 5.4 0 3.6 1.7 5.4 4.2 5.4 2.4 0 4.2-1.8 4.2-5.6-.1-3.6-1.8-5.2-4.2-5.2zm8.1 11.6V11h1l.2 2.4c.7-1.9 1.9-2.7 3.5-2.7.5 0 1 .1 1.3.2V12c-.4-.1-.9-.2-1.4-.2-1.8 0-3.4 1.8-3.4 4.7v6.8h-1.2zm17.8-3.4c-.6 2.3-2.5 3.7-5.1 3.7-3.4 0-5.9-2.3-5.9-6.5s2.4-6.5 5.6-6.5c3.2 0 5.6 2.1 5.6 6.8h-9.9c.1 3.5 2.1 5.1 4.6 5.1 1.9 0 3.3-1 3.8-2.6h1.3zm-9.7-3.5h8.6c-.2-3.2-2-4.7-4.3-4.7-2.2-.1-4.1 1.6-4.3 4.7zm13.9 6.9h-1.3V6.2h1.3v17.1zm4.6 0h-1.3V6.2h1.3v17.1zm3-9.1c.2-2.1 2.1-3.6 4.8-3.6 2.8 0 4.6 1.5 4.6 4.1v8.7h-1l-.2-2c-.8 1.3-2.2 2.4-4.4 2.4-2.4 0-4.1-1.3-4.1-3.5 0-2.1 1.3-3.4 4.8-4l3.7-.6v-1.1c0-1.8-1.3-2.9-3.4-2.9-2 0-3.2 1-3.4 2.5h-1.4zm8.1 4.7v-2.3l-3.3.6c-2.9.5-3.8 1.4-3.8 2.9 0 1.7 1.3 2.5 3.1 2.5 2 0 4-1.5 4-3.7z" fill="#0d274d"/></svg>