<svg width="82" height="80" xmlns="http://www.w3.org/2000/svg" xmlns:xlink="http://www.w3.org/1999/xlink" overflow="hidden"><defs><clipPath id="clip0"><rect x="550" y="124" width="82" height="80"/></clipPath><clipPath id="clip1"><rect x="551" y="124" width="80" height="80"/></clipPath><clipPath id="clip2"><rect x="551" y="124" width="80" height="80"/></clipPath><clipPath id="clip3"><rect x="551" y="124" width="80" height="80"/></clipPath><linearGradient x1="551" y1="204" x2="631" y2="124" gradientUnits="userSpaceOnUse" spreadMethod="pad" id="fill4"><stop offset="0" stop-color="#BD0816" stop-opacity="1"/><stop offset="1" stop-color="#FF5252" stop-opacity="1"/></linearGradient></defs><g clip-path="url(#clip0)" transform="translate(-550 -124)"><g clip-path="url(#clip1)"><g clip-path="url(#clip2)"><g clip-path="url(#clip3)"><path d="M551 124 631 124 631 204 551 204Z" fill="url(#fill4)" fill-rule="evenodd"/><path d="M617 182.005 608 182.005 605 182.005 605 176.005 614 176.005 617 176.005 617 182.005ZM607 190.005 595 190.005 595 184.005 604 184.005 607 184.005 607 190.005ZM585.591 187.991C581.422 187.991 577.595 185.888 575.354 182.366 573.565 179.556 573.534 175.929 575.275 172.895L575.33 172.797C577.422 169.622 576.672 165.211 576.004 162.778 577.923 163.764 579.661 166.275 580.278 167.382 580.47 167.724 580.85 167.923 581.231 167.893 581.622 167.862 581.958 167.607 582.092 167.239 584.009 161.973 582.723 158.085 581.314 155.756 582.568 156.189 584.1 156.841 585.616 157.797 590.231 160.707 592.571 164.959 592.571 170.434 592.571 170.706 592.683 170.967 592.88 171.156 593.076 171.344 593.341 171.44 593.614 171.433 594.808 171.381 596.963 170.464 597.96 167.561 597.985 167.697 598 167.845 598 168.005L598 174.005 589 174.005C588.447 174.005 588 174.453 588 175.005L588 183.005C588 183.557 588.447 184.005 589 184.005L593 184.005 593 185.555C591.271 187.102 588.605 187.991 585.591 187.991ZM569.168 170.248C567.267 168.96 565 166.522 565 162.221 565 156.265 569.144 154.312 571.613 153.678 572.076 153.559 572.391 153.128 572.362 152.651L572.265 151.012C572.265 146.267 575.533 141.161 579.706 139.388 586.925 136.324 592.041 140.353 593.904 142.229 595.423 143.756 596.607 145.708 597.425 148.028 597.548 148.378 597.854 148.63 598.221 148.685 598.584 148.74 598.954 148.587 599.173 148.289 600.409 146.611 602.541 145.912 604.47 146.545 606.64 147.258 607.891 149.375 607.91 152.358L607.904 152.395C607.828 152.93 608.191 153.43 608.725 153.522 610.606 153.846 616.745 155.437 616.745 162.304 616.745 164.505 616.158 166.332 615 167.762L615 167.005C615 166.453 614.553 166.005 614 166.005L599.494 166.005C598.876 164.885 597.902 164.408 597.843 164.38 597.55 164.247 597.21 164.264 596.932 164.422 596.653 164.582 596.468 164.866 596.435 165.186 596.188 167.534 595.266 168.587 594.524 169.057 594.049 162.151 590.028 158.198 586.622 156.067 582.752 153.646 578.925 153.04 578.764 153.015 578.317 152.945 577.882 153.187 577.699 153.6 577.517 154.013 577.635 154.498 577.985 154.782 578.172 154.934 582.139 158.249 580.794 164.55 579.457 162.774 577.156 160.371 574.495 160.371 574.163 160.371 573.854 160.536 573.667 160.811 573.481 161.086 573.443 161.435 573.567 161.743 573.591 161.803 575.785 167.4 574 171.083L574 171.005 571.635 171.005C570.753 171.005 569.9 170.743 569.168 170.248ZM604 174.005 600 174.005 600 168.005 613 168.005 613 174.005 604 174.005ZM603 182.005 594 182.005 590 182.005 590 176.005 599 176.005 603 176.005 603 182.005ZM618 174.005 615 174.005 615 170.532C617.446 168.615 618.745 165.777 618.745 162.304 618.745 154.719 612.747 152.395 609.89 151.72 609.684 148.193 607.924 145.575 605.094 144.645 602.877 143.917 600.482 144.414 598.722 145.875 597.852 143.912 596.712 142.216 595.322 140.818 590.842 136.312 584.713 135.088 578.925 137.547 573.987 139.644 570.265 145.433 570.267 151.071L570.319 151.974C567.624 152.86 563 155.38 563 162.221 563 167.672 566.162 170.627 568.047 171.904 569.111 172.624 570.353 173.005 571.635 173.005L572.999 173.005C571.475 176.439 571.691 180.336 573.666 183.44 576.276 187.542 580.734 189.991 585.591 189.991 588.41 189.991 591.002 189.298 593 188.052L593 191.005C593 191.557 593.447 192.005 594 192.005L608 192.005C608.553 192.005 609 191.557 609 191.005L609 184.005 618 184.005C618.553 184.005 619 183.557 619 183.005L619 175.005C619 174.453 618.553 174.005 618 174.005Z" fill="#FFFFFF" fill-rule="evenodd" fill-opacity="1"/></g></g></g></g></svg>