<svg width="82" height="80" xmlns="http://www.w3.org/2000/svg" xmlns:xlink="http://www.w3.org/1999/xlink" overflow="hidden"><defs><clipPath id="clip0"><rect x="550" y="124" width="82" height="80"/></clipPath><clipPath id="clip1"><rect x="551" y="124" width="80" height="80"/></clipPath><clipPath id="clip2"><rect x="551" y="124" width="80" height="80"/></clipPath><clipPath id="clip3"><rect x="551" y="124" width="80" height="80"/></clipPath><linearGradient x1="551" y1="204" x2="631" y2="124" gradientUnits="userSpaceOnUse" spreadMethod="pad" id="fill4"><stop offset="0" stop-color="#055F4E" stop-opacity="1"/><stop offset="1" stop-color="#56C0A7" stop-opacity="1"/></linearGradient></defs><g clip-path="url(#clip0)" transform="translate(-550 -124)"><g clip-path="url(#clip1)"><g clip-path="url(#clip2)"><g clip-path="url(#clip3)"><path d="M551 124 631 124 631 204 551 204Z" fill="url(#fill4)" fill-rule="evenodd"/><path d="M619 190 619 192 564 192C563.447 192 563 191.552 563 191L563 136 565 136 565 190 619 190ZM567.852 187.524 566.148 186.476 574.148 173.476C574.512 172.884 575.488 172.884 575.852 173.476L582.444 184.188 587.977 150.153C588.054 149.68 588.457 149.328 588.937 149.314 588.946 149.314 588.955 149.314 588.964 149.314 589.433 149.314 589.84 149.64 589.94 150.1L597.586 185 603.293 179.293C603.501 179.085 603.791 178.981 604.082 179.003 604.375 179.028 604.643 179.18 604.813 179.419L609.128 185.458 612.293 182.293 613.707 183.707 609.707 187.707C609.499 187.915 609.206 188.023 608.918 187.997 608.625 187.972 608.357 187.82 608.187 187.581L603.872 181.542 597.707 187.707C597.448 187.965 597.068 188.063 596.719 187.959 596.368 187.857 596.102 187.571 596.023 187.214L589.109 155.651 583.987 187.161C583.92 187.573 583.604 187.9 583.194 187.981 583.129 187.994 583.064 188 583 188 582.657 188 582.333 187.824 582.148 187.524L575 175.908 567.852 187.524ZM599.929 153.689C599.185 147.362 593.631 142.987 587.316 143.734 584.248 144.095 581.536 145.589 579.679 147.941 577.822 150.293 576.999 153.278 577.36 156.346 577.804 160.111 579.918 163.276 583.16 165.032L582.209 166.791C578.386 164.722 575.895 161 575.374 156.58 574.95 152.981 575.922 149.473 578.109 146.702 580.297 143.931 583.483 142.171 587.082 141.748 594.514 140.876 601.04 146.014 601.915 153.456 602.532 158.702 600.177 163.651 595.769 166.371L594.718 164.668C598.458 162.362 600.454 158.155 599.929 153.689ZM616.366 173.43C617.378 174.228 617.058 175.722 616.219 176.785 615.415 177.803 614.068 178.517 613.019 177.688L601.287 168.205C602.507 167.03 603.547 165.692 604.393 164.239L616.366 173.43ZM580.323 171.298 581.231 169.516C576.401 167.053 573.136 162.344 572.497 156.918 571.449 148.015 577.84 139.918 586.744 138.871 595.647 137.819 603.742 144.214 604.791 153.117 605.586 159.871 602.072 166.46 596.047 169.513L596.951 171.297C597.947 170.792 598.874 170.192 599.741 169.527L611.771 179.251C612.453 179.79 613.24 180.051 614.047 180.051 615.369 180.051 616.742 179.35 617.789 178.024 619.458 175.909 619.379 173.259 617.595 171.851L605.328 162.435C606.628 159.499 607.169 156.209 606.777 152.884 605.601 142.884 596.502 135.71 586.51 136.884 576.511 138.061 569.334 147.153 570.511 157.152 571.228 163.243 574.896 168.531 580.323 171.298Z" fill="#FFFFFF" fill-rule="evenodd" fill-opacity="1"/></g></g></g></g></svg>