<svg width="82" height="80" xmlns="http://www.w3.org/2000/svg" xmlns:xlink="http://www.w3.org/1999/xlink" overflow="hidden"><defs><clipPath id="clip0"><rect x="790" y="124" width="82" height="80"/></clipPath><clipPath id="clip1"><rect x="791" y="124" width="80" height="80"/></clipPath><clipPath id="clip2"><rect x="791" y="124" width="80" height="80"/></clipPath><clipPath id="clip3"><rect x="791" y="124" width="80" height="80"/></clipPath><linearGradient x1="791" y1="204" x2="871" y2="124" gradientUnits="userSpaceOnUse" spreadMethod="pad" id="fill4"><stop offset="0" stop-color="#BD0816" stop-opacity="1"/><stop offset="1" stop-color="#FF5252" stop-opacity="1"/></linearGradient></defs><g clip-path="url(#clip0)" transform="translate(-790 -124)"><g clip-path="url(#clip1)"><g clip-path="url(#clip2)"><g clip-path="url(#clip3)"><path d="M791 124 871 124 871 204 791 204Z" fill="url(#fill4)" fill-rule="evenodd"/><path d="M835.836 175.639C835.928 176.089 836.19 176.476 836.574 176.729 836.957 176.983 837.415 177.072 837.867 176.978 838.317 176.886 838.704 176.624 838.957 176.241 839.21 175.857 839.299 175.397 839.206 174.947 839.114 174.497 838.852 174.11 838.468 173.857 838.184 173.669 837.857 173.572 837.524 173.572 837.408 173.572 837.292 173.584 837.175 173.608 836.725 173.7 836.338 173.962 836.085 174.346 835.832 174.729 835.743 175.189 835.836 175.639ZM850.422 169.008 838.77 161.324 828 169.605 828 187.692 834.662 177.649C834.28 177.186 834 176.645 833.876 176.041 833.677 175.068 833.868 174.075 834.415 173.245 834.962 172.415 835.8 171.848 836.773 171.648 837.746 171.449 838.74 171.64 839.569 172.187 840.398 172.734 840.966 173.572 841.166 174.545 841.365 175.518 841.174 176.512 840.627 177.341 840.08 178.171 839.242 178.738 838.269 178.938 838.018 178.99 837.765 179.015 837.514 179.015 837.098 179.015 836.69 178.937 836.298 178.8L829.648 188.826 846.584 181.79 850.422 169.008ZM852.486 169.284C852.465 169.31 852.433 169.321 852.409 169.345L848.363 182.819C848.276 183.106 848.066 183.34 847.789 183.455L827.384 191.931C827.261 191.983 827.13 192.008 827 192.008L803 192.008 803 190.008 826 190.008 826 169.112C826 168.802 826.145 168.509 826.391 168.319L838.057 159.349 838.064 159.359 844.573 146.549 846.357 147.455 840.085 159.795 851.498 167.321 857.439 159.929 858.997 161.181 852.486 169.284ZM851.718 136.906 849.935 136 845.506 144.714 847.289 145.62 851.718 136.906ZM815.943 157.03 815.944 157.03C816.218 157.03 816.48 156.918 816.668 156.72L825.389 147.554 823.94 146.175 815.942 154.58 812.302 150.762 810.855 152.141 815.22 156.72C815.408 156.918 815.67 157.03 815.943 157.03ZM805 151.508C805 152.622 805.792 153.589 806.884 153.807 807.255 153.881 807.552 154.158 807.652 154.521 807.901 155.422 808.259 156.284 808.714 157.082 808.896 157.399 808.889 157.789 808.698 158.101 808.464 158.481 808.346 158.89 808.346 159.316 808.346 160.609 809.399 161.662 810.692 161.662 811.118 161.662 811.526 161.543 811.908 161.309 812.068 161.211 812.249 161.162 812.431 161.162 812.602 161.162 812.773 161.206 812.927 161.294 813.727 161.75 814.587 162.108 815.486 162.356 815.851 162.456 816.128 162.753 816.201 163.124 816.419 164.216 817.386 165.008 818.5 165.008 819.614 165.008 820.581 164.216 820.799 163.124 820.872 162.753 821.149 162.456 821.514 162.356 822.413 162.108 823.273 161.75 824.073 161.294 824.391 161.112 824.78 161.118 825.092 161.309 825.474 161.543 825.882 161.662 826.308 161.662 827.602 161.662 828.654 160.609 828.654 159.316 828.654 158.89 828.536 158.481 828.302 158.101 828.111 157.789 828.105 157.399 828.286 157.082 828.741 156.284 829.099 155.422 829.348 154.521 829.448 154.158 829.745 153.881 830.116 153.807 831.208 153.589 832 152.622 832 151.508 832 150.394 831.208 149.427 830.116 149.209 829.745 149.135 829.448 148.859 829.348 148.495 829.099 147.595 828.741 146.733 828.286 145.934 828.105 145.618 828.111 145.227 828.302 144.915 828.536 144.535 828.654 144.126 828.654 143.701 828.654 142.407 827.602 141.354 826.308 141.354 825.882 141.354 825.474 141.473 825.092 141.707 824.78 141.897 824.391 141.903 824.073 141.722 823.273 141.266 822.413 140.909 821.514 140.66 821.149 140.56 820.872 140.263 820.799 139.892 820.581 138.801 819.614 138.008 818.5 138.008 817.386 138.008 816.419 138.801 816.201 139.892 816.128 140.263 815.851 140.56 815.486 140.66 814.587 140.909 813.727 141.266 812.927 141.722 812.608 141.903 812.219 141.897 811.908 141.707 811.526 141.473 811.118 141.354 810.692 141.354 809.399 141.354 808.346 142.407 808.346 143.701 808.346 144.126 808.464 144.535 808.698 144.915 808.889 145.227 808.896 145.618 808.714 145.934 808.259 146.733 807.901 147.595 807.652 148.495 807.552 148.859 807.255 149.135 806.884 149.209 805.792 149.427 805 150.394 805 151.508ZM803 151.508C803 149.655 804.183 148.022 805.889 147.414 806.11 146.728 806.387 146.064 806.714 145.429 806.472 144.881 806.346 144.293 806.346 143.701 806.346 141.304 808.296 139.354 810.692 139.354 811.284 139.354 811.872 139.48 812.42 139.722 813.056 139.394 813.721 139.118 814.407 138.896 815.014 137.191 816.647 136.008 818.5 136.008 820.354 136.008 821.986 137.191 822.593 138.896 823.279 139.118 823.944 139.394 824.58 139.722 825.128 139.48 825.716 139.354 826.308 139.354 828.704 139.354 830.654 141.304 830.654 143.701 830.654 144.293 830.528 144.881 830.286 145.429 830.613 146.064 830.89 146.728 831.111 147.414 832.817 148.022 834 149.655 834 151.508 834 153.361 832.817 154.994 831.111 155.602 830.89 156.288 830.613 156.952 830.286 157.588 830.528 158.136 830.654 158.723 830.654 159.316 830.654 161.712 828.704 163.662 826.308 163.662 825.716 163.662 825.128 163.536 824.58 163.294 823.944 163.622 823.279 163.898 822.593 164.12 821.986 165.825 820.354 167.008 818.5 167.008 816.647 167.008 815.014 165.825 814.407 164.12 813.721 163.898 813.056 163.622 812.42 163.294 811.872 163.536 811.284 163.662 810.692 163.662 808.296 163.662 806.346 161.712 806.346 159.316 806.346 158.723 806.472 158.136 806.714 157.588 806.387 156.952 806.11 156.288 805.889 155.602 804.183 154.994 803 153.361 803 151.508ZM813 165.008 813 176.833 817.712 172.122C818.103 171.731 818.735 171.732 819.126 172.121L824.047 177.035 822.633 178.451 818.419 174.243 812.707 179.954C812.516 180.146 812.26 180.247 812 180.247 811.871 180.247 811.741 180.222 811.617 180.171 811.243 180.016 811 179.652 811 179.247L811 165.008 813 165.008Z" fill="#FFFFFF" fill-rule="evenodd" fill-opacity="1"/></g></g></g></g></svg>