<svg width="81" height="80" xmlns="http://www.w3.org/2000/svg" xmlns:xlink="http://www.w3.org/1999/xlink" overflow="hidden"><defs><clipPath id="clip0"><rect x="313" y="124" width="81" height="80"/></clipPath><clipPath id="clip1"><rect x="314" y="124" width="80" height="80"/></clipPath><clipPath id="clip2"><rect x="314" y="124" width="80" height="80"/></clipPath><clipPath id="clip3"><rect x="314" y="124" width="80" height="80"/></clipPath><linearGradient x1="314" y1="204" x2="394" y2="124" gradientUnits="userSpaceOnUse" spreadMethod="pad" id="fill4"><stop offset="0" stop-color="#BD0816" stop-opacity="1"/><stop offset="1" stop-color="#FF5252" stop-opacity="1"/></linearGradient></defs><g clip-path="url(#clip0)" transform="translate(-313 -124)"><g clip-path="url(#clip1)"><g clip-path="url(#clip2)"><g clip-path="url(#clip3)"><path d="M314 124 394 124 394 204 314 204Z" fill="url(#fill4)" fill-rule="evenodd"/><path d="M366.278 160.463C365.175 160.463 364.278 159.568 364.278 158.468 364.278 157.367 365.175 156.473 366.278 156.473 367.381 156.473 368.278 157.367 368.278 158.468 368.278 159.568 367.381 160.463 366.278 160.463M357.278 170.439C356.175 170.439 355.278 169.544 355.278 168.444 355.278 167.344 356.175 166.449 357.278 166.449 358.381 166.449 359.278 167.344 359.278 168.444 359.278 169.544 358.381 170.439 357.278 170.439M349.278 158.468C348.175 158.468 347.278 157.573 347.278 156.473 347.278 155.372 348.175 154.477 349.278 154.477 350.381 154.477 351.278 155.372 351.278 156.473 351.278 157.573 350.381 158.468 349.278 158.468M339.278 168.444C338.175 168.444 337.278 167.549 337.278 166.449 337.278 165.348 338.175 164.453 339.278 164.453 340.381 164.453 341.278 165.348 341.278 166.449 341.278 167.549 340.381 168.444 339.278 168.444M366.278 154.477C364.072 154.477 362.278 156.267 362.278 158.468 362.278 159.525 362.7 160.482 363.376 161.196L359.741 165.323C359.06 164.787 358.212 164.453 357.278 164.453 356.871 164.453 356.485 164.532 356.114 164.646L352.382 158.96C352.933 158.275 353.278 157.417 353.278 156.473 353.278 154.272 351.484 152.482 349.278 152.482 347.072 152.482 345.278 154.272 345.278 156.473 345.278 157.341 345.565 158.139 346.04 158.796L341.596 163.208C340.94 162.741 340.144 162.458 339.278 162.458 337.072 162.458 335.278 164.248 335.278 166.449 335.278 168.65 337.072 170.439 339.278 170.439 341.484 170.439 343.278 168.65 343.278 166.449 343.278 165.838 343.129 165.265 342.882 164.747L347.586 160.075C348.101 160.317 348.671 160.463 349.278 160.463 349.81 160.463 350.316 160.354 350.782 160.166L354.403 165.682C353.71 166.4 353.278 167.37 353.278 168.444 353.278 170.645 355.072 172.435 357.278 172.435 359.484 172.435 361.278 170.645 361.278 168.444 361.278 167.912 361.169 167.406 360.978 166.942L365.099 162.262C365.474 162.377 365.865 162.458 366.278 162.458 368.484 162.458 370.278 160.669 370.278 158.468 370.278 156.267 368.484 154.477 366.278 154.477M372.71 174.43 363.568 174.43C363.356 174.43 363.15 174.497 362.979 174.621L347.278 186.041 347.278 175.427C347.278 174.877 346.831 174.43 346.278 174.43L335.001 174.43C333.989 174.429 333.19 174.235 332.559 173.837 330.479 172.527 328 170.007 328 165.438 328 159.342 332.251 157.343 334.786 156.694 335.249 156.575 335.563 156.145 335.535 155.668L335.434 153.995C335.434 149.141 338.786 143.919 343.064 142.107 344.989 141.292 346.768 140.967 348.381 140.967 352.966 140.967 356.205 143.592 357.619 145.012 359.174 146.573 360.389 148.567 361.227 150.942 361.35 151.29 361.657 151.542 362.023 151.596 362.392 151.649 362.756 151.498 362.975 151.201 364.247 149.48 366.437 148.762 368.423 149.413 370.652 150.144 371.938 152.31 371.96 155.363L371.954 155.396C371.87 155.935 372.234 156.442 372.772 156.534 374.703 156.867 381 158.495 381 165.523 381 173.691 372.976 174.407 372.71 174.43M373.94 154.737C373.734 151.138 371.938 148.466 369.047 147.518 366.778 146.774 364.323 147.286 362.523 148.789 361.632 146.775 360.464 145.036 359.037 143.605 354.46 139.011 348.196 137.765 342.283 140.27 337.238 142.407 333.434 148.308 333.436 154.054L333.492 154.994C330.742 155.891 326 158.455 326 165.438 326 171.205 329.44 174.233 331.491 175.524 332.451 176.129 333.598 176.424 335 176.425L345.278 176.425 345.278 188.002C345.278 188.379 345.489 188.722 345.825 188.892 345.967 188.965 346.123 189 346.278 189 346.486 189 346.693 188.936 346.867 188.81L363.894 176.425 372.783 176.423C372.884 176.415 383 175.562 383 165.523 383 157.782 376.851 155.42 373.94 154.737" fill="#FFFFFF" fill-rule="evenodd" fill-opacity="1"/></g></g></g></g></svg>