<svg width="81" height="80" xmlns="http://www.w3.org/2000/svg" xmlns:xlink="http://www.w3.org/1999/xlink" overflow="hidden"><defs><clipPath id="clip0"><rect x="313" y="124" width="81" height="80"/></clipPath><clipPath id="clip1"><rect x="314" y="124" width="80" height="80"/></clipPath><clipPath id="clip2"><rect x="314" y="124" width="80" height="80"/></clipPath><clipPath id="clip3"><rect x="314" y="124" width="80" height="80"/></clipPath><linearGradient x1="314" y1="204" x2="394" y2="124" gradientUnits="userSpaceOnUse" spreadMethod="pad" id="fill4"><stop offset="0" stop-color="#055F4E" stop-opacity="1"/><stop offset="1" stop-color="#56C0A7" stop-opacity="1"/></linearGradient></defs><g clip-path="url(#clip0)" transform="translate(-313 -124)"><g clip-path="url(#clip1)"><g clip-path="url(#clip2)"><g clip-path="url(#clip3)"><path d="M314 124 394 124 394 204 314 204Z" fill="url(#fill4)" fill-rule="evenodd"/><path d="M349.888 186.588C349.916 186.1 349.587 185.663 349.111 185.556 346.665 185.002 344.347 184.041 342.22 182.697 341.807 182.436 341.265 182.509 340.94 182.877L338.66 185.431 332.57 179.339 335.123 177.062C335.488 176.737 335.564 176.195 335.303 175.782 333.962 173.657 333.003 171.339 332.452 168.892 332.345 168.414 331.897 168.088 331.42 168.112L328 168.308 328 159.692 331.428 159.888C331.889 159.903 332.351 159.588 332.46 159.11 333.013 156.671 333.975 154.357 335.317 152.232 335.577 151.818 335.501 151.277 335.137 150.952L332.57 148.661 338.661 142.569 340.95 145.135C341.276 145.5 341.818 145.576 342.23 145.315 344.352 143.977 346.666 143.019 349.11 142.467 349.587 142.359 349.916 141.923 349.888 141.435L349.693 138 358.308 138 358.113 141.438C358.084 141.925 358.413 142.361 358.89 142.469 361.33 143.022 363.644 143.981 365.766 145.319 366.176 145.579 366.72 145.505 367.045 145.14L369.339 142.569 375.431 148.661 372.867 150.948C372.503 151.273 372.427 151.815 372.688 152.228 374.029 154.349 374.989 156.665 375.542 159.11 375.65 159.588 376.119 159.903 376.575 159.888L380 159.692 380 168.308 376.577 168.112C376.119 168.085 375.654 168.413 375.545 168.891 374.994 171.335 374.034 173.652 372.694 175.778 372.433 176.192 372.509 176.733 372.873 177.058L375.431 179.339 369.34 185.431 367.065 182.881C366.738 182.514 366.197 182.442 365.784 182.701 363.661 184.043 361.342 185.005 358.89 185.558 358.413 185.666 358.084 186.103 358.113 186.591L358.308 190 349.693 190 349.888 186.588ZM360.093 191.687C360.283 191.486 360.38 191.217 360.365 190.943L360.157 187.307C362.253 186.755 364.255 185.926 366.126 184.833L368.552 187.552C368.735 187.758 368.994 187.879 369.27 187.886 369.535 187.899 369.811 187.789 370.005 187.594L377.594 180.005C377.788 179.811 377.895 179.545 377.887 179.27 377.879 178.994 377.758 178.735 377.553 178.552L374.825 176.119C375.917 174.247 376.745 172.248 377.295 170.157L380.944 170.365C381.213 170.376 381.488 170.282 381.687 170.093 381.887 169.904 382 169.641 382 169.366L382 158.634C382 158.359 381.887 158.096 381.687 157.907 381.488 157.718 381.214 157.618 380.944 157.635L377.291 157.843C376.74 155.753 375.911 153.755 374.821 151.886L377.553 149.449C377.758 149.266 377.879 149.006 377.887 148.731 377.895 148.456 377.788 148.19 377.594 147.996L370.005 140.407C369.811 140.212 369.533 140.108 369.27 140.114 368.994 140.122 368.736 140.243 368.552 140.448L366.107 143.188C364.239 142.099 362.243 141.272 360.157 140.721L360.365 137.057C360.38 136.782 360.283 136.513 360.093 136.314 359.905 136.113 359.642 136 359.367 136L348.634 136C348.359 136 348.096 136.113 347.908 136.314 347.718 136.513 347.62 136.782 347.636 137.057L347.844 140.718C345.754 141.268 343.758 142.094 341.889 143.183L339.449 140.448C339.266 140.243 339.006 140.122 338.731 140.114 338.472 140.11 338.19 140.212 337.995 140.407L330.407 147.996C330.212 148.19 330.106 148.456 330.114 148.731 330.121 149.006 330.242 149.266 330.448 149.449L333.184 151.89C332.092 153.761 331.263 155.757 330.712 157.844L327.057 157.635C326.785 157.617 326.513 157.718 326.314 157.907 326.114 158.096 326 158.359 326 158.634L326 169.366C326 169.641 326.114 169.904 326.314 170.093 326.513 170.282 326.786 170.377 327.057 170.365L330.702 170.157C331.252 172.251 332.079 174.251 333.171 176.123L330.448 178.552C330.242 178.735 330.121 178.994 330.114 179.27 330.106 179.545 330.212 179.811 330.407 180.005L337.995 187.594C338.19 187.789 338.469 187.897 338.731 187.886 339.006 187.879 339.266 187.758 339.449 187.552L341.878 184.829C343.751 185.922 345.752 186.753 347.844 187.304L347.636 190.943C347.62 191.218 347.718 191.486 347.908 191.687 348.096 191.887 348.359 192 348.634 192L359.367 192C359.642 192 359.905 191.887 360.093 191.687ZM351.985 169.788 362.146 159.627 360.732 158.213 351.278 167.667 347.269 163.658 345.855 165.072 350.571 169.788C350.766 169.983 351.022 170.081 351.278 170.081 351.534 170.081 351.789 169.983 351.985 169.788ZM374.101 163.161 370.364 165.156C370.975 156.545 364.762 148.824 356.095 147.71 349.077 146.807 342.297 150.474 339.217 156.834L341.016 157.706C343.723 152.121 349.68 148.9 355.839 149.693 363.361 150.66 368.782 157.292 368.392 164.745L365.712 162.102 364.308 163.526 368.997 168.152 375.042 164.925 374.101 163.161ZM368.784 171.166C366.014 176.884 360.249 180.426 354.016 180.426 353.317 180.426 352.614 180.382 351.906 180.291 343.239 179.176 337.026 171.455 337.637 162.844L333.9 164.839 332.958 163.075 339.003 159.848 343.693 164.475 342.288 165.899 339.609 163.255C339.219 170.709 344.64 177.34 352.161 178.307 358.306 179.098 364.279 175.88 366.984 170.294L368.784 171.166Z" fill="#FFFFFF" fill-rule="evenodd" fill-opacity="1"/></g></g></g></g></svg>