<svg xmlns="http://www.w3.org/2000/svg" xmlns:xlink="http://www.w3.org/1999/xlink" viewBox="0 0 81 61" fill="#fff" fill-rule="evenodd" stroke="#000" stroke-linecap="round" stroke-linejoin="round"><use xlink:href="#A" x=".5" y=".5"/><symbol id="A" overflow="visible"><g stroke="none" fill-rule="nonzero"><path d="M51.436 3.353a21.92 21.92 0 0 0-28.238 4.24 21.24 21.24 0 0 0-5.36 14.399 21.96 21.96 0 0 0 9.639 18.118l-.68 1.12-2.24.64c-3.56 6.239-4.88 7.999-8.239 13.919l5.919 3.4c3.4-5.999 4.68-7.759 8.199-13.919l-.64-2.44.56-1.04c10.501 4.963 23.051.889 28.635-9.295S61.266 9.54 51.436 3.353zM43.757 36.55a15.16 15.16 0 0 1-17.147-22.151 15.16 15.16 0 0 1 27.786 3.553h0c2.17 8.07-2.583 16.378-10.639 18.598z" fill="#4285f4"/><path d="M.2 16.712l.52-4.28h4.72v1.4H2.08v1.8a2.72 2.72 0 0 1 3.16.44 3.12 3.12 0 0 1 .68 2.12 3.08 3.08 0 0 1-.36 1.44 2.12 2.12 0 0 1-.96 1 2.6 2.6 0 0 1-1.52.36 2.92 2.92 0 0 1-1.44-.32 2.64 2.64 0 0 1-1.04-.84 2.52 2.52 0 0 1-.6-1.28h1.68a1.08 1.08 0 0 0 .36.8 1 1 0 0 0 .8.28.92.92 0 0 0 .88-.4 1.72 1.72 0 0 0 .28-1.16 1.48 1.48 0 0 0-.36-1.08 1.32 1.32 0 0 0-1-.4 1.64 1.64 0 0 0-.96.32h0z" fill="#669df6"/><path d="M13.799 20.871h-1.8v-6.439l-2.04.6v-1.44l3.52-1.24h0zM4 32.23H2.36v-6.439l-2 .6v-1.36L4 23.791h0z" fill="#aecbfa"/><path d="M15.438 28.751a4.52 4.52 0 0 1-.72 2.68 2.96 2.96 0 0 1-4 0h0a4 4 0 0 1-.76-2.6v-1.56a4.24 4.24 0 0 1 .72-2.68 2.92 2.92 0 0 1 4 0h0a4.32 4.32 0 0 1 .76 2.6zm-1.68-1.72a3.32 3.32 0 0 0-.28-1.44 1 1 0 0 0-.92-.48.96.96 0 0 0-.88.44 3 3 0 0 0-.28 1.44v2.04a3.4 3.4 0 0 0 .28 1.56.92.92 0 0 0 .92.48.92.92 0 0 0 .88-.48 3.08 3.08 0 0 0 .28-1.48z" fill="#669df6"/><path d="M68.514 20.551h-1.64v-6.479l-2.04.64v-1.36l3.52-1.28h0z" fill="#aecbfa"/><path d="M74.474 16.392l.52-4.28h4.72v1.48h-3.36l-.36 1.72a2.6 2.6 0 0 1 1.24-.32 2.52 2.52 0 0 1 1.92.76 2.96 2.96 0 0 1 .68 2.08 3.24 3.24 0 0 1-.36 1.48 2.4 2.4 0 0 1-1 1 3.16 3.16 0 0 1-1.52.36 3.4 3.4 0 0 1-1.4-.32 2.48 2.48 0 0 1-1.04-.88 2.32 2.32 0 0 1-.4-1.28h1.88a1.4 1.4 0 0 0 .4.84 1.16 1.16 0 0 0 .8.28 1.04 1.04 0 0 0 .88-.4 1.76 1.76 0 0 0 .24-1.32 1.64 1.64 0 0 0-.36-1.12 1.36 1.36 0 0 0-1-.36 1.36 1.36 0 0 0-.96.28h0zm-4.32 12.359a4.52 4.52 0 0 1-.72 2.68 2.96 2.96 0 0 1-4 0h0a4 4 0 0 1-.76-2.6v-1.56a4.24 4.24 0 0 1 .72-2.68 2.92 2.92 0 0 1 4 0h0a4.32 4.32 0 0 1 .76 2.6zm-1.68-1.72a3.32 3.32 0 0 0-.28-1.52 1 1 0 0 0-.92-.48.96.96 0 0 0-.88.44 3 3 0 0 0-.28 1.44v2.04a3.4 3.4 0 0 0 .28 1.56.92.92 0 0 0 .92.48.92.92 0 0 0 .88-.48 3.6 3.6 0 0 0 .28-1.48z" fill="#669df6"/><path d="M74.474 28.071l.52-4.28h4.72v1.4h-3.36l-.2 1.8a2.6 2.6 0 0 1 1.24-.32 2.52 2.52 0 0 1 1.92.76 3.12 3.12 0 0 1 .68 2.16 3.08 3.08 0 0 1-.36 1.44 2.04 2.04 0 0 1-1 1 2.76 2.76 0 0 1-1.52.36 2.88 2.88 0 0 1-1.4-.32 2.36 2.36 0 0 1-1.04-.84 2.52 2.52 0 0 1-.4-1.28h1.72a1.28 1.28 0 0 0 .4.8 1 1 0 0 0 .8.28.92.92 0 0 0 .88-.4 1.72 1.72 0 0 0 .32-1.16 1.48 1.48 0 0 0-.36-1.08 1.24 1.24 0 0 0-1-.4 1.4 1.4 0 0 0-.96.32h0z" fill="#aecbfa"/><path d="M30.917 30.03v-3.76a3.44 3.44 0 0 1 1.4-2.48 9.72 9.72 0 0 1 3.32-1.72 11.48 11.48 0 0 1 9.679 1.12 4.2 4.2 0 0 1 1.08.8 3.6 3.6 0 0 1 1.2 3v3.04zm8.32-10.439a4.32 4.32 0 1 1 4.32-4.279h0a4.36 4.36 0 0 1-4.32 4.28z" fill="#669df6"/></g></symbol></svg>