<svg xmlns="http://www.w3.org/2000/svg" xmlns:xlink="http://www.w3.org/1999/xlink" viewBox="0 0 81 68" fill="#fff" fill-rule="evenodd" stroke="#000" stroke-linecap="round" stroke-linejoin="round"><use xlink:href="#A" x=".5" y=".5"/><symbol id="A" overflow="visible"><g stroke="none"><path d="M.04 13.223h26.559v6.68H.04zm36.639 33.319H0v6.68h0 36.679v-6.68zM10.04 29.902H0v6.64h16.72 23.279l-6.68-6.64H10.04z" fill="#669df6" fill-rule="nonzero"/><path d="M39.999 21.543a1.68 1.68 0 0 1 1.68-1.44 1.64 1.64 0 0 1 1.64 1.44v36.719a8.36 8.36 0 0 0 10.44 8 8.64 8.64 0 0 0 6.24-8.44V8.263a1.6 1.6 0 0 1 .76-1.6 1.64 1.64 0 0 1 1.8 0 1.6 1.6 0 0 1 .76 1.6v36.639a8.28 8.28 0 0 0 3.24 6.56 8 8 0 0 0 7.2 1.48 8.64 8.64 0 0 0 6.24-8.48v-11.2h-6.68v11.68a1.6 1.6 0 0 1-.76 1.6 1.64 1.64 0 0 1-1.8 0 1.6 1.6 0 0 1-.76-1.6V8.263a8.36 8.36 0 0 0-3.274-6.539A8.36 8.36 0 0 0 59.558.263a8.64 8.64 0 0 0-6.24 8.52v49.479a1.6 1.6 0 0 1-.76 1.6 1.64 1.64 0 0 1-1.8 0 1.6 1.6 0 0 1-.76-1.6V21.583a8.28 8.28 0 0 0-16.44-1.44 9.6 9.6 0 0 0-.2 1.84v8l6.64 6.56v-15z" fill="#4285f4" fill-rule="nonzero"/></g></symbol></svg>