<svg width="82" height="80" xmlns="http://www.w3.org/2000/svg" xmlns:xlink="http://www.w3.org/1999/xlink" overflow="hidden"><defs><clipPath id="clip0"><rect x="550" y="124" width="82" height="80"/></clipPath><clipPath id="clip1"><rect x="551" y="124" width="80" height="80"/></clipPath><clipPath id="clip2"><rect x="551" y="124" width="80" height="80"/></clipPath><clipPath id="clip3"><rect x="551" y="124" width="80" height="80"/></clipPath><linearGradient x1="551" y1="204" x2="631" y2="124" gradientUnits="userSpaceOnUse" spreadMethod="pad" id="fill4"><stop offset="0" stop-color="#BD0816" stop-opacity="1"/><stop offset="1" stop-color="#FF5252" stop-opacity="1"/></linearGradient></defs><g clip-path="url(#clip0)" transform="translate(-550 -124)"><g clip-path="url(#clip1)"><g clip-path="url(#clip2)"><g clip-path="url(#clip3)"><path d="M551 124 631 124 631 204 551 204Z" fill="url(#fill4)" fill-rule="evenodd"/><path d="M600.214 175.395 601.224 177.121 597.116 179.525 596.107 177.8 600.214 175.395ZM581.37 175.362 585.515 177.703 584.53 179.444 580.386 177.103 581.37 175.362ZM600.214 152.15 596.107 149.744 597.116 148.019 601.224 150.423 600.214 152.15ZM581.37 152.182 580.386 150.44 584.53 148.1 585.515 149.841 581.37 152.182ZM606 165.951 608 165.951 608 162.001 606 162.001 606 165.951ZM574 165.951 576 165.951 576 162.001 574 162.001 574 165.951ZM613 176.928 591.029 189.841 569 176.928 569 151.072 591.029 138.159 613 151.072 613 176.928ZM614.507 149.637 591.537 136.137C591.225 135.954 590.837 135.954 590.525 136.137L567.494 149.637C567.189 149.816 567 150.144 567 150.499L567 177.5C567 177.855 567.189 178.184 567.494 178.363L590.525 191.863C590.681 191.955 590.856 192 591.03 192 591.205 192 591.381 191.955 591.537 191.863L614.507 178.363C614.813 178.183 615 177.855 615 177.5L615 150.499C615 150.145 614.813 149.817 614.507 149.637ZM575.213 174.813C574.169 174.813 573.319 173.964 573.319 172.921 573.319 171.877 574.169 171.028 575.213 171.028 576.257 171.028 577.106 171.877 577.106 172.921 577.106 173.964 576.257 174.813 575.213 174.813ZM575.213 169.028C573.067 169.028 571.319 170.774 571.319 172.921 571.319 175.067 573.067 176.813 575.213 176.813 577.36 176.813 579.106 175.067 579.106 172.921 579.106 170.774 577.36 169.028 575.213 169.028ZM606.624 174.813C605.58 174.813 604.732 173.964 604.732 172.921 604.732 171.877 605.58 171.028 606.624 171.028 607.668 171.028 608.518 171.877 608.518 172.921 608.518 173.964 607.668 174.813 606.624 174.813ZM606.624 169.028C604.478 169.028 602.732 170.774 602.732 172.921 602.732 175.067 604.478 176.813 606.624 176.813 608.771 176.813 610.518 175.067 610.518 172.921 610.518 170.774 608.771 169.028 606.624 169.028ZM592.812 145.715C592.812 146.758 591.963 147.607 590.919 147.607 589.875 147.607 589.026 146.758 589.026 145.715 589.026 144.671 589.875 143.822 590.919 143.822 591.963 143.822 592.812 144.671 592.812 145.715ZM587.026 145.715C587.026 147.861 588.773 149.607 590.919 149.607 593.066 149.607 594.812 147.861 594.812 145.715 594.812 143.568 593.066 141.822 590.919 141.822 588.773 141.822 587.026 143.568 587.026 145.715ZM606.624 152.891C607.668 152.891 608.518 153.74 608.518 154.785 608.518 155.829 607.668 156.678 606.624 156.678 605.58 156.678 604.732 155.829 604.732 154.785 604.732 153.74 605.58 152.891 606.624 152.891ZM590.919 165.78C589.875 165.78 589.026 164.931 589.026 163.887 589.026 162.844 589.875 161.995 590.919 161.995 591.963 161.995 592.812 162.844 592.812 163.887 592.812 164.931 591.963 165.78 590.919 165.78ZM592.812 181.987C592.812 183.031 591.963 183.88 590.919 183.88 589.875 183.88 589.026 183.031 589.026 181.987 589.026 180.943 589.875 180.094 590.919 180.094 591.963 180.094 592.812 180.943 592.812 181.987ZM575.213 156.678C574.169 156.678 573.319 155.829 573.319 154.785 573.319 153.74 574.169 152.891 575.213 152.891 576.257 152.891 577.106 153.74 577.106 154.785 577.106 155.829 576.257 156.678 575.213 156.678ZM593.526 161.016C592.834 160.388 591.925 159.995 590.919 159.995 589.861 159.995 588.902 160.421 588.2 161.109L578.969 155.753C579.049 155.441 579.106 155.12 579.106 154.785 579.106 152.639 577.36 150.891 575.213 150.891 573.067 150.891 571.319 152.639 571.319 154.785 571.319 156.932 573.067 158.678 575.213 158.678 576.304 158.678 577.287 158.223 577.994 157.499L587.189 162.833C587.093 163.171 587.026 163.52 587.026 163.887 587.026 165.727 588.313 167.264 590.03 167.668L590.03 178.206C588.313 178.61 587.026 180.147 587.026 181.987 587.026 184.133 588.773 185.88 590.919 185.88 593.066 185.88 594.812 184.133 594.812 181.987 594.812 180.229 593.633 178.757 592.03 178.275L592.03 167.599C593.633 167.117 594.812 165.645 594.812 163.887 594.812 163.471 594.729 163.078 594.608 162.702L603.763 157.402C604.475 158.18 605.488 158.678 606.624 158.678 608.771 158.678 610.518 156.932 610.518 154.785 610.518 152.639 608.771 150.891 606.624 150.891 604.478 150.891 602.732 152.639 602.732 154.785 602.732 155.076 602.77 155.357 602.83 155.63L593.526 161.016Z" fill="#FFFFFF" fill-rule="evenodd" fill-opacity="1"/></g></g></g></g></svg>