<svg width="50" height="50" xmlns="http://www.w3.org/2000/svg" xmlns:xlink="http://www.w3.org/1999/xlink" overflow="hidden"><defs><clipPath id="clip0"><rect x="278" y="518" width="50" height="50"/></clipPath><clipPath id="clip1"><rect x="279" y="519" width="48" height="48"/></clipPath><clipPath id="clip2"><rect x="279" y="519" width="48" height="48"/></clipPath><clipPath id="clip3"><rect x="279" y="519" width="48" height="48"/></clipPath></defs><g clip-path="url(#clip0)" transform="translate(-278 -518)"><g clip-path="url(#clip1)"><g clip-path="url(#clip2)"><g clip-path="url(#clip3)"><path d="M320.8 553.55C320.194 553.55 319.7 553.057 319.7 552.45 319.7 551.844 320.194 551.35 320.8 551.35 321.406 551.35 321.901 551.844 321.901 552.45 321.901 553.057 321.406 553.55 320.8 553.55ZM320.8 549.35C319.091 549.35 317.7 550.741 317.7 552.45 317.7 553.32 318.063 554.104 318.642 554.668 315.105 559.9 309.311 563 302.95 563 297.811 563 292.999 560.976 289.404 557.301L287.974 558.699C291.949 562.762 297.268 565 302.95 565 310.091 565 316.584 561.464 320.474 555.517 320.583 555.529 320.688 555.55 320.8 555.55 322.51 555.55 323.901 554.159 323.901 552.45 323.901 550.741 322.51 549.35 320.8 549.35ZM285.101 553.55C284.494 553.55 284 553.057 284 552.45 284 551.844 284.494 551.35 285.101 551.35 285.707 551.35 286.2 551.844 286.2 552.45 286.2 553.057 285.707 553.55 285.101 553.55ZM285.101 549.35C284.99 549.35 284.885 549.372 284.777 549.383 284.272 547.658 284 545.871 284 544.05 284 536.19 288.944 529.056 296.301 526.3L295.6 524.426C287.465 527.475 282 535.361 282 544.05 282 546.162 282.33 548.234 282.946 550.229 282.365 550.793 282 551.579 282 552.45 282 554.159 283.391 555.55 285.101 555.55 286.81 555.55 288.2 554.159 288.2 552.45 288.2 550.741 286.81 549.35 285.101 549.35ZM302.95 523C303.557 523 304.05 523.494 304.05 524.1 304.05 524.707 303.557 525.2 302.95 525.2 302.344 525.2 301.851 524.707 301.851 524.1 301.851 523.494 302.344 523 302.95 523ZM302.95 527.2C304.221 527.2 305.314 526.43 305.791 525.333 315.033 526.715 321.901 534.595 321.901 544.05 321.901 544.667 321.87 545.29 321.811 545.903L323.801 546.097C323.867 545.42 323.901 544.731 323.901 544.05 323.901 533.547 316.236 524.803 305.943 523.335 305.6 521.997 304.394 521 302.95 521 301.241 521 299.851 522.391 299.851 524.1 299.851 525.81 301.241 527.2 302.95 527.2ZM311.95 535.146 311.95 552.955C311.95 553.706 310.503 554.76 307.326 555.3 307.283 555.307 307.229 555.315 307.166 555.323 306.235 555.445 303.341 555.642 302.971 555.649 301.471 555.556 299.091 555.388 298.573 555.3 295.398 554.76 293.95 553.706 293.95 552.955L293.95 535.146C293.95 534.178 296.958 532.45 302.95 532.45 308.943 532.45 311.95 534.178 311.95 535.146ZM291.95 535.146 291.95 552.955C291.95 555.019 294.242 556.593 298.238 557.272 299.062 557.412 302.516 557.65 302.95 557.65 303.385 557.65 306.839 557.412 307.661 557.272 311.658 556.593 313.95 555.019 313.95 552.955L313.95 535.146C313.95 532.381 309.427 530.45 302.95 530.45 296.474 530.45 291.95 532.381 291.95 535.146ZM302.292 543.417C302.461 543.241 302.689 543.142 302.933 543.137 302.939 543.137 302.946 543.137 302.951 543.137 303.188 543.137 303.412 543.227 303.583 543.392 303.759 543.561 303.859 543.788 303.863 544.032 303.868 544.276 303.778 544.507 303.609 544.683 303.44 544.859 303.212 544.959 302.968 544.963 302.741 545.001 302.492 544.878 302.318 544.709 302.142 544.54 302.042 544.312 302.037 544.069 302.032 543.824 302.123 543.593 302.292 543.417ZM300.037 544.107C300.053 544.885 300.37 545.611 300.931 546.15 301.495 546.693 302.223 546.962 302.949 546.962 303.715 546.962 304.479 546.663 305.05 546.069 305.589 545.508 305.878 544.771 305.863 543.993 305.848 543.215 305.53 542.489 304.97 541.95 303.811 540.837 301.964 540.873 300.851 542.031 300.312 542.592 300.023 543.329 300.037 544.107ZM303.49 540.504C303.768 540.503 304.031 540.386 304.22 540.182L305.231 539.086 306.943 540.332 306.203 541.648C306.068 541.89 306.038 542.177 306.122 542.442L306.436 543.425C306.522 543.694 306.716 543.913 306.972 544.03L308.346 544.662 307.691 546.676 306.204 546.378C305.931 546.322 305.644 546.385 305.417 546.551L304.581 547.163C304.357 547.327 304.211 547.577 304.179 547.854L304.004 549.349 301.886 549.347 301.713 547.864C301.681 547.59 301.537 547.341 301.315 547.176L300.469 546.55C300.241 546.383 299.954 546.316 299.678 546.374L298.206 546.668 297.554 544.653 298.935 544.019C299.189 543.903 299.382 543.686 299.469 543.421L299.786 542.447C299.872 542.181 299.844 541.891 299.707 541.648L298.964 540.325 300.679 539.082 301.697 540.188C301.888 540.395 302.122 540.503 302.439 540.51L303.49 540.504ZM301.547 537.073C301.203 536.698 300.634 536.644 300.225 536.941L297.07 539.229C296.658 539.528 296.536 540.086 296.784 540.529L297.748 542.244 297.702 542.384 295.911 543.206C295.45 543.418 295.221 543.941 295.377 544.423L296.578 548.132C296.735 548.614 297.225 548.9 297.726 548.804L299.636 548.422 299.777 548.526 300.002 550.462C300.061 550.966 300.488 551.346 300.994 551.346L304.893 551.35 304.894 551.35C305.401 551.35 305.828 550.97 305.887 550.467L306.114 548.519 306.243 548.425 308.17 548.812C308.66 548.912 309.159 548.623 309.318 548.141L310.524 544.434C310.681 543.951 310.451 543.428 309.989 543.216L308.207 542.397 308.16 542.249 309.122 540.536C309.37 540.094 309.248 539.536 308.839 539.238L305.688 536.945C305.277 536.646 304.707 536.702 304.363 537.075L303.044 538.507 302.869 538.508 301.547 537.073Z" fill="#3F8624" fill-rule="evenodd" fill-opacity="1"/></g></g></g></g></svg>