<svg xmlns="http://www.w3.org/2000/svg" xmlns:xlink="http://www.w3.org/1999/xlink" viewBox="0 0 69.063 85" fill="#fff" fill-rule="evenodd" stroke="#000" stroke-linecap="round" stroke-linejoin="round"><use xlink:href="#A" x="2.031" y="2.5"/><symbol id="A" overflow="visible"><g stroke="none"><path d="M0 63.468l4.16 2.175 1.683-.4.316-30.236-1.999-.097-4.16.419v28.14z" fill="#9d5025"/><path d="M11.638 63.848L4.16 65.643V34.909l7.478.361v28.578z" fill="#f58534"/><path d="M8.071 67.583l7.134 3.687 4.619-1.502V22.199l-4.619-.897-7.134 2.185v44.097z" fill="#9d5025"/><path d="M27.417 67.291l-12.212 3.98V21.302l12.212 2.39v43.599z" fill="#f58534"/><path d="M54.404 22.794v34.528l8.186 1.307V21.302l-8.186 1.492z" fill="#9d5025"/><path d="M35.45 20.796l1.664-10.514 23.707 8.876v5.579l-6.293.907-19.078-4.848z" fill="#6b3b19"/><path d="M33.241 59.868l6.876 8.349 20.704-7.169v-5.696l-6.35-.907-21.23 5.423z" fill="#fcbf92"/><path d="M20.914 74.128l11.571 5.852 6.847-3.492 2.257-71.856L32.485 0 20.914 5.901v68.227z" fill="#9d5025"/><path d="M32.486.02v79.981L65 63.419V16.601zm28.335 55.333l-18.591 5.696V19.108l18.6 5.647z" fill="#f58534"/></g></symbol></svg>