<?xml version="1.0" encoding="utf-8"?>
<!-- Generator: Adobe Illustrator 26.3.1, SVG Export Plug-In . SVG Version: 6.00 Build 0)  -->
<svg version="1.1" id="Editable" xmlns="http://www.w3.org/2000/svg" xmlns:xlink="http://www.w3.org/1999/xlink" x="0px" y="0px"
	 viewBox="0 0 574.2 130" style="enable-background:new 0 0 574.2 130;" xml:space="preserve">
<style type="text/css">
	.st0{fill:#041E42;}
</style>
<g>
	<path class="st0" d="M128.5,68.6l-16.9-50.2c-1.3-4-4.8-7-8.9-7.8L49.9,0.2c-4-0.8-8.3,0.6-11.1,3.7L3,44.1
		c-2.8,3.2-3.7,7.6-2.4,11.6l16.9,50.2c1.3,4,4.8,7,8.9,7.8l52.8,10.3c0.7,0.1,1.5,0.2,2.2,0.2c3.4,0,6.6-1.4,8.8-3.9l35.8-40.1
		C128.9,77,129.8,72.6,128.5,68.6 M121.7,76.2l-35.8,40.1c-1.4,1.5-3.5,2.2-5.5,1.8l-52.8-10.3c-2.1-0.4-3.7-1.9-4.4-3.8L6.3,53.8
		c-0.7-2-0.2-4.2,1.2-5.7L43.3,7.9C44.4,6.7,46,6,47.6,6c0.4,0,0.7,0,1.1,0.1l52.8,10.3c2.1,0.4,3.7,1.9,4.4,3.9l16.9,50.2
		C123.5,72.4,123.1,74.6,121.7,76.2"/>
	<g>
		<path class="st0" d="M175.6,35.4c-0.2,0.2-0.5,0.4-0.9,0.4h-10.4c-0.3,0-0.5,0.2-0.5,0.5v24.5c0,2.6,0.6,4.5,1.7,5.6
			s2.9,1.7,5.4,1.7h3.1c0.3,0,0.6,0.1,0.9,0.4c0.2,0.2,0.4,0.5,0.4,0.9V77c0,0.8-0.4,1.2-1.2,1.3l-5.3,0.1c-5.4,0-9.4-0.9-12-2.8
			c-2.6-1.8-4-5.3-4.1-10.4v-29c0-0.3-0.2-0.5-0.5-0.5h-5.8c-0.3,0-0.6-0.1-0.9-0.4c-0.2-0.2-0.4-0.5-0.4-0.9v-7.1
			c0-0.3,0.1-0.6,0.4-0.9c0.2-0.2,0.5-0.4,0.9-0.4h5.8c0.3,0,0.5-0.2,0.5-0.5V13.7c0-0.3,0.1-0.6,0.4-0.9c0.2-0.2,0.5-0.4,0.9-0.4
			h8.9c0.3,0,0.6,0.1,0.9,0.4c0.2,0.2,0.4,0.5,0.4,0.9v11.9c0,0.3,0.2,0.5,0.5,0.5h10.4c0.3,0,0.6,0.1,0.9,0.4
			c0.2,0.2,0.4,0.5,0.4,0.9v7.1C176,34.8,175.9,35.1,175.6,35.4L175.6,35.4z"/>
		<path class="st0" d="M226.4,52l-0.1,3.2c0,0.8-0.4,1.2-1.2,1.2h-31.9c-0.3,0-0.5,0.2-0.5,0.5c0.2,2.2,0.5,3.8,0.9,4.6
			c1.6,4.9,5.6,7.4,11.9,7.4c4.6,0,8.3-1.9,11-5.7c0.3-0.4,0.6-0.6,1-0.6c0.3,0,0.5,0.1,0.7,0.3l6.3,5.2c0.6,0.5,0.7,1,0.3,1.6
			c-2.1,3-4.9,5.3-8.4,6.9c-3.5,1.6-7.4,2.4-11.7,2.4c-5.3,0-9.8-1.2-13.5-3.6s-6.4-5.7-8.1-10c-1.6-3.7-2.3-8.8-2.3-15.3
			c0-3.9,0.4-7.1,1.2-9.6c1.4-4.8,3.9-8.5,7.7-11.2s8.3-4.1,13.6-4.1c13.4,0,20.9,7,22.6,21C226.2,48,226.4,49.9,226.4,52L226.4,52z
			 M197.1,37.4c-1.7,1.3-2.8,3-3.5,5.2c-0.4,1.2-0.7,2.7-0.8,4.5c-0.1,0.3,0,0.5,0.4,0.5h20.7c0.3,0,0.5-0.2,0.5-0.5
			c-0.1-1.7-0.3-3-0.6-3.9c-0.6-2.4-1.8-4.3-3.6-5.7c-1.8-1.4-4.1-2-6.8-2C200.8,35.5,198.7,36.1,197.1,37.4L197.1,37.4z"/>
		<path class="st0" d="M270.9,30.2c3.3,3.3,4.9,7.7,4.9,13.3V77c0,0.3-0.1,0.6-0.4,0.9c-0.2,0.2-0.5,0.4-0.9,0.4h-9.4
			c-0.3,0-0.6-0.1-0.9-0.4S264,77.3,264,77V46c0-3.1-0.9-5.7-2.6-7.6s-4.1-2.9-7-2.9c-2.9,0-5.3,1-7.1,2.8c-1.8,1.9-2.7,4.4-2.7,7.5
			V77c0,0.3-0.1,0.6-0.4,0.9c-0.2,0.2-0.5,0.4-0.9,0.4H234c-0.3,0-0.6-0.1-0.9-0.4s-0.4-0.5-0.4-0.9V27.4c0-0.3,0.1-0.6,0.4-0.9
			c0.2-0.2,0.5-0.4,0.9-0.4h9.4c0.3,0,0.6,0.1,0.9,0.4s0.4,0.5,0.4,0.9v3.3c0,0.2,0.1,0.3,0.2,0.4c0.1,0.1,0.2,0,0.3-0.2
			c2.8-3.7,7-5.5,12.6-5.5C263.3,25.3,267.6,27,270.9,30.2L270.9,30.2z"/>
		<path class="st0" d="M315,27.6c3.3,1.5,5.8,3.5,7.5,6.2c1.8,2.6,2.6,5.6,2.6,8.9V77c0,0.3-0.1,0.6-0.4,0.9
			c-0.2,0.2-0.5,0.4-0.9,0.4h-9.4c-0.3,0-0.6-0.1-0.9-0.4s-0.4-0.5-0.4-0.9v-3.3c0-0.2-0.1-0.3-0.2-0.4c-0.1,0-0.3,0-0.4,0.2
			c-3.3,3.7-8.1,5.5-14.5,5.5c-5.1,0-9.3-1.3-12.6-3.9c-3.3-2.6-4.9-6.4-4.9-11.5s1.9-9.4,5.5-12.4c3.7-2.9,8.9-4.4,15.6-4.4h10.9
			c0.3,0,0.5-0.2,0.5-0.5v-2.4c0-2.7-0.8-4.7-2.3-6.2s-3.9-2.2-7-2.2c-2.6,0-4.7,0.5-6.3,1.4c-1.6,0.9-2.6,2.2-3,3.8
			c-0.2,0.8-0.7,1.2-1.4,1l-9.9-1.2c-0.3-0.1-0.6-0.2-0.9-0.4c-0.2-0.2-0.3-0.4-0.2-0.7c0.5-4.1,2.8-7.5,6.7-10.2
			c3.9-2.7,8.8-4,14.7-4C307.9,25.3,311.7,26.1,315,27.6L315,27.6z M309.8,67c2.4-1.8,3.6-4,3.6-6.7v-4.8c0-0.3-0.2-0.5-0.5-0.5
			h-8.5c-3.6,0-6.4,0.7-8.5,2s-3.1,3.3-3.1,5.8c0,2.2,0.8,3.9,2.4,5c1.6,1.2,3.6,1.8,6.2,1.8C304.5,69.6,307.4,68.8,309.8,67
			L309.8,67z"/>
		<path class="st0" d="M378.2,52c0,4.8-0.6,9.1-1.9,12.7c-1.5,4.5-3.9,8-7.2,10.5c-3.3,2.5-7.4,3.8-12.2,3.8s-8.7-1.8-11.7-5.4
			c-0.1-0.2-0.3-0.3-0.4-0.2s-0.2,0.2-0.2,0.4V77c0,0.3-0.1,0.6-0.4,0.9s-0.5,0.4-0.9,0.4h-9.4c-0.3,0-0.6-0.1-0.9-0.4
			s-0.4-0.5-0.4-0.9V8.1c0-0.3,0.1-0.6,0.4-0.9c0.2-0.2,0.5-0.4,0.9-0.4h9.4c0.3,0,0.6,0.1,0.9,0.4s0.4,0.5,0.4,0.9v22.1
			c0,0.2,0.1,0.3,0.2,0.4s0.3,0,0.4-0.1c2.9-3.5,6.8-5.2,11.6-5.2s9.2,1.3,12.5,3.8c3.3,2.5,5.7,6,7.3,10.5
			C377.6,43.4,378.2,47.5,378.2,52L378.2,52z M366.1,52.2c0-5.3-1-9.4-3.1-12.4c-1.8-2.8-4.5-4.3-8.1-4.3c-3.3,0-5.9,1.5-7.6,4.5
			c-1.7,2.8-2.5,6.8-2.5,12.1s0.8,9.2,2.3,11.8c1.8,3.3,4.4,4.9,7.9,4.9c1.9,0,3.6-0.4,5.1-1.3s2.7-2.1,3.6-3.6
			C365.3,61.1,366.1,57.2,366.1,52.2L366.1,52.2z"/>
		<path class="st0" d="M385.5,77.8c-0.2-0.2-0.4-0.5-0.4-0.9V8.1c0-0.3,0.1-0.6,0.4-0.9c0.2-0.2,0.5-0.4,0.9-0.4h9.4
			c0.3,0,0.6,0.1,0.9,0.4s0.4,0.5,0.4,0.9V77c0,0.3-0.1,0.6-0.4,0.9c-0.2,0.2-0.5,0.4-0.9,0.4h-9.4C386,78.2,385.7,78.1,385.5,77.8z
			"/>
		<path class="st0" d="M449.4,52l-0.1,3.2c0,0.8-0.4,1.2-1.2,1.2h-31.9c-0.3,0-0.5,0.2-0.5,0.5c0.2,2.2,0.5,3.8,0.9,4.6
			c1.6,4.9,5.6,7.4,11.9,7.4c4.6,0,8.3-1.9,11-5.7c0.3-0.4,0.6-0.6,1-0.6c0.3,0,0.5,0.1,0.7,0.3l6.3,5.2c0.6,0.5,0.7,1,0.3,1.6
			c-2.1,3-4.9,5.3-8.4,6.9c-3.5,1.6-7.4,2.4-11.7,2.4c-5.3,0-9.8-1.2-13.5-3.6s-6.4-5.7-8.1-10c-1.6-3.7-2.3-8.8-2.3-15.3
			c0-3.9,0.4-7.1,1.2-9.6c1.4-4.8,3.9-8.5,7.7-11.2s8.3-4.1,13.6-4.1c13.4,0,20.9,7,22.6,21C449.3,48,449.4,49.9,449.4,52L449.4,52z
			 M420.1,37.4c-1.7,1.3-2.8,3-3.5,5.2c-0.4,1.2-0.7,2.7-0.8,4.5c-0.1,0.3,0,0.5,0.4,0.5h20.7c0.3,0,0.5-0.2,0.5-0.5
			c-0.1-1.7-0.3-3-0.6-3.9c-0.6-2.4-1.8-4.3-3.6-5.7s-4.1-2-6.8-2C423.9,35.5,421.8,36.1,420.1,37.4L420.1,37.4z"/>
		<path class="st0" d="M457.9,76.4c-1.4-1.4-2-3.1-2-5.2s0.7-3.8,2-5.2s3.1-2,5.2-2s3.8,0.7,5.1,2s2,3.1,2,5.2s-0.7,3.8-2,5.2
			s-3.1,2-5.1,2S459.2,77.7,457.9,76.4L457.9,76.4z"/>
		<path class="st0" d="M487.6,74.9c-3.8-2.7-6.5-6.5-8.1-11.3c-1.2-3.7-1.7-7.5-1.7-11.6c0-4.3,0.5-8.2,1.6-11.6
			c1.6-4.8,4.3-8.4,8.2-11.1c3.9-2.7,8.5-4,14-4s9.6,1.3,13.4,4s6.4,6.3,8,11c1.2,3.3,1.8,7.1,1.8,11.6s-0.6,8.2-1.7,11.6
			c-1.6,4.8-4.2,8.6-8,11.4s-8.3,4.1-13.5,4.1S491.4,77.7,487.6,74.9L487.6,74.9z M507.8,66.7c1.8-1.4,3.1-3.4,3.9-6
			c0.7-2.2,1-5.1,1-8.6c0-3.7-0.3-6.5-1-8.6c-0.8-2.6-2-4.6-3.9-6s-4.1-2.1-6.7-2.1s-4.7,0.7-6.5,2.1s-3.2,3.4-4,6
			c-0.7,2.4-1,5.2-1,8.6s0.3,6.2,1,8.6c0.8,2.6,2,4.6,3.9,6s4.1,2.1,6.8,2.1C503.9,68.8,506,68.1,507.8,66.7z"/>
		<path class="st0" d="M558.8,35.4c-0.2,0.2-0.5,0.4-0.9,0.4h-10.4c-0.3,0-0.5,0.2-0.5,0.5v24.5c0,2.6,0.6,4.5,1.7,5.6
			s2.9,1.7,5.3,1.7h3.1c0.3,0,0.6,0.1,0.9,0.4s0.4,0.5,0.4,0.9V77c0,0.8-0.4,1.2-1.2,1.3l-5.3,0.1c-5.4,0-9.4-0.9-12-2.8
			s-4-5.3-4.1-10.4v-29c0-0.3-0.2-0.5-0.5-0.5h-5.8c-0.3,0-0.6-0.1-0.9-0.4s-0.4-0.5-0.4-0.9v-7.1c0-0.3,0.1-0.6,0.4-0.9
			c0.2-0.2,0.5-0.4,0.9-0.4h5.8c0.3,0,0.5-0.2,0.5-0.5V13.7c0-0.3,0.1-0.6,0.4-0.9c0.2-0.2,0.5-0.4,0.9-0.4h8.9
			c0.3,0,0.6,0.1,0.9,0.4s0.4,0.5,0.4,0.9v11.9c0,0.3,0.2,0.5,0.5,0.5h10.4c0.3,0,0.6,0.1,0.9,0.4s0.4,0.5,0.4,0.9v7.1
			C559.2,34.8,559,35.1,558.8,35.4L558.8,35.4z"/>
	</g>
	<g>
		<path class="st0" d="M150.2,121c-1.3-1-2.2-2.3-2.7-3.9c-0.3-1.1-0.4-2.7-0.4-4.9s0.1-3.9,0.4-4.9c0.5-1.6,1.4-2.9,2.7-3.9
			c1.3-1,2.9-1.4,4.8-1.4s3.4,0.5,4.8,1.5s2.2,2.3,2.7,3.9c0.2,0.6,0.3,1.3,0.3,2c0.1,0.8,0.1,1.7,0.1,2.9s0,2.2-0.1,2.9
			c-0.1,0.7-0.2,1.4-0.3,2c-0.4,1.6-1.3,2.9-2.7,3.9s-2.9,1.5-4.8,1.5S151.5,121.9,150.2,121L150.2,121z M158.5,119.4
			c1-0.8,1.6-1.8,1.9-3.1c0.2-0.7,0.3-2.1,0.3-4.2s-0.1-3.5-0.2-4.2c-0.3-1.3-0.9-2.3-1.9-3.1s-2.2-1.2-3.6-1.2s-2.6,0.4-3.6,1.2
			c-1,0.8-1.6,1.8-1.9,3.1c-0.2,0.8-0.3,2.2-0.3,4.2s0.1,3.4,0.3,4.2c0.3,1.3,0.9,2.3,1.9,3.1c1,0.8,2.2,1.1,3.6,1.1
			S157.5,120.2,158.5,119.4z"/>
		<path class="st0" d="M182.6,109.2c0.1,0.8,0.1,1.7,0.1,2.9s0,2.2-0.1,2.9s-0.2,1.4-0.3,2c-0.4,1.6-1.2,2.9-2.5,3.9
			s-2.8,1.4-4.6,1.4c-1.2,0-2.2-0.2-3.1-0.7s-1.6-1.1-2.2-2c-0.1-0.1-0.1-0.1-0.1-0.1c0,0-0.1,0.1-0.1,0.1v9.6
			c0,0.3-0.1,0.4-0.4,0.4H168c-0.3,0-0.4-0.1-0.4-0.4v-26.9c0-0.3,0.1-0.4,0.4-0.4h1.3c0.3,0,0.4,0.1,0.4,0.4v1.9
			c0,0.1,0,0.1,0.1,0.1s0.1,0,0.1-0.1c0.6-0.9,1.3-1.5,2.2-2c0.9-0.5,1.9-0.7,3.1-0.7c1.8,0,3.3,0.5,4.5,1.4
			c1.2,0.9,2.1,2.2,2.5,3.8C182.4,107.8,182.6,108.4,182.6,109.2L182.6,109.2z M180.1,116.8c0.2-0.5,0.4-1,0.4-1.7s0.1-1.6,0.1-3
			s0-2.4-0.1-3s-0.2-1.2-0.4-1.7c-0.3-1.1-0.9-2-1.8-2.7s-2-1-3.3-1s-2.3,0.3-3.1,1.1c-0.8,0.7-1.4,1.6-1.7,2.7
			c-0.2,0.5-0.3,1-0.4,1.7c-0.1,0.6-0.1,1.6-0.1,3s0,2.4,0.1,3c0.1,0.6,0.2,1.2,0.4,1.7c0.3,1.1,0.9,2,1.7,2.6c0.8,0.7,1.9,1,3.1,1
			s2.2-0.3,3.1-0.9s1.5-1.4,1.8-2.4L180.1,116.8L180.1,116.8z"/>
		<path class="st0" d="M197.8,119.7c0.9-0.6,1.6-1.4,2.1-2.4c0.1-0.2,0.3-0.3,0.5-0.2l1,0.5c0.2,0.1,0.3,0.3,0.2,0.5
			c-0.6,1.3-1.5,2.3-2.8,3.1s-2.7,1.1-4.4,1.1c-1.8,0-3.4-0.4-4.7-1.3s-2.2-2.1-2.6-3.7c-0.2-0.7-0.4-1.4-0.4-2.2
			c-0.1-0.8-0.1-1.8-0.1-3.1s0-2.3,0.1-2.9s0.1-1.3,0.3-1.8c0.4-1.7,1.3-3,2.6-4c1.3-1,2.9-1.5,4.8-1.5c2.2,0,3.9,0.6,5.2,1.7
			s2.1,2.7,2.4,4.6c0.1,0.5,0.1,1.1,0.2,1.8s0,1.5,0,2.5c0,0.3-0.1,0.4-0.4,0.4h-12.9c-0.1,0-0.2,0.1-0.2,0.2c0,1.7,0.1,2.8,0.2,3.4
			c0.3,1.3,0.9,2.3,2,3.1s2.3,1.1,3.9,1.1C195.9,120.6,196.9,120.3,197.8,119.7L197.8,119.7z M188.6,110.9c0,0.1,0.1,0.2,0.2,0.2h11
			c0.1,0,0.2-0.1,0.2-0.2c0-1.3-0.1-2.3-0.2-3c-0.3-1.3-0.9-2.3-1.9-3.1s-2.2-1.2-3.6-1.2s-2.6,0.4-3.6,1.1c-0.9,0.8-1.6,1.7-1.8,3
			C188.8,108.4,188.7,109.4,188.6,110.9L188.6,110.9z"/>
		<path class="st0" d="M216.2,102.5c0.2,0.1,0.3,0.2,0.2,0.5l-0.4,1.3c-0.1,0.3-0.2,0.3-0.5,0.2c-0.5-0.2-1.2-0.3-2-0.3
			c-1.5,0-2.7,0.6-3.6,1.7c-1,1.1-1.4,2.4-1.4,4v11.8c0,0.3-0.1,0.4-0.4,0.4h-1.3c-0.3,0-0.4-0.1-0.4-0.4v-19.1
			c0-0.3,0.1-0.4,0.4-0.4h1.3c0.3,0,0.4,0.1,0.4,0.4v2.7c0,0.1,0,0.1,0.1,0.1c0,0,0.1,0,0.1-0.1c0.6-1,1.3-1.8,2.1-2.4
			c0.9-0.6,1.9-0.9,3.1-0.9C214.8,102,215.6,102.2,216.2,102.5L216.2,102.5z"/>
		<path class="st0" d="M230.7,103.7c1.2,1.2,1.8,2.8,1.8,4.8v13.2c0,0.3-0.1,0.4-0.4,0.4h-1.3c-0.3,0-0.4-0.1-0.4-0.4v-1.9
			c0-0.1,0-0.1-0.1-0.1s-0.1,0-0.1,0c-0.7,0.9-1.6,1.5-2.7,2c-1.1,0.4-2.3,0.7-3.6,0.7c-1.8,0-3.4-0.5-4.6-1.4s-1.9-2.3-1.9-4.2
			s0.7-3.5,2.2-4.6c1.5-1.1,3.4-1.7,6-1.7h4.7c0.1,0,0.2-0.1,0.2-0.2v-1.8c0-1.5-0.4-2.7-1.2-3.5c-0.8-0.9-2.1-1.3-3.8-1.3
			c-1.3,0-2.5,0.3-3.3,0.8s-1.4,1.3-1.6,2.2c-0.1,0.3-0.2,0.4-0.5,0.4l-1.4-0.2c-0.3-0.1-0.4-0.2-0.4-0.3c0.2-1.4,1-2.6,2.3-3.4
			s2.9-1.3,4.9-1.3C227.8,101.9,229.5,102.5,230.7,103.7L230.7,103.7z M228.6,119.4c1.2-0.8,1.8-1.9,1.8-3.4v-3.6
			c0-0.1,0-0.2-0.2-0.2h-4.5c-1.9,0-3.4,0.4-4.5,1.2c-1.1,0.8-1.7,1.9-1.7,3.3c0,1.3,0.5,2.3,1.3,2.9c0.9,0.7,2,1,3.4,1
			C226,120.6,227.4,120.2,228.6,119.4L228.6,119.4z"/>
		<path class="st0" d="M245,104h-4.6c-0.1,0-0.2,0.1-0.2,0.2v12.5c0,1.3,0.3,2.3,0.9,2.8c0.6,0.5,1.6,0.8,2.9,0.8h0.9
			c0.3,0,0.4,0.1,0.4,0.4v1.1c0,0.3-0.1,0.4-0.4,0.4l-1.2,0c-1.8,0-3.2-0.4-4.2-1.1c-0.9-0.7-1.4-2-1.4-3.9v-13c0-0.1,0-0.2-0.2-0.2
			h-2.4c-0.3,0-0.4-0.1-0.4-0.4v-1c0-0.3,0.1-0.4,0.4-0.4h2.4c0.1,0,0.2-0.1,0.2-0.2v-4.5c0-0.3,0.1-0.4,0.4-0.4h1.3
			c0.3,0,0.4,0.1,0.4,0.4v4.5c0,0.1,0,0.2,0.2,0.2h4.6c0.3,0,0.4,0.1,0.4,0.4v1C245.4,103.8,245.2,104,245,104L245,104z"/>
		<path class="st0" d="M249.7,97.7c-0.4-0.4-0.5-0.8-0.5-1.4s0.2-1.1,0.5-1.4c0.4-0.4,0.8-0.6,1.4-0.6s1,0.2,1.4,0.6
			c0.4,0.4,0.5,0.8,0.5,1.4s-0.2,1.1-0.5,1.4s-0.8,0.6-1.4,0.6S250.1,98,249.7,97.7z M250,121.7v-19.1c0-0.3,0.1-0.4,0.4-0.4h1.3
			c0.3,0,0.4,0.1,0.4,0.4v19.1c0,0.3-0.1,0.4-0.4,0.4h-1.3C250.2,122.1,250,122,250,121.7z"/>
		<path class="st0" d="M260.4,121c-1.3-1-2.2-2.3-2.7-3.9c-0.3-1.1-0.4-2.7-0.4-4.9s0.1-3.9,0.4-4.9c0.5-1.6,1.4-2.9,2.7-3.9
			s2.9-1.4,4.8-1.4s3.4,0.5,4.8,1.5s2.2,2.3,2.7,3.9c0.2,0.6,0.3,1.3,0.3,2c0,0.8,0.1,1.7,0.1,2.9s0,2.2-0.1,2.9
			c0,0.7-0.2,1.4-0.3,2c-0.5,1.6-1.3,2.9-2.7,3.9s-2.9,1.5-4.8,1.5S261.7,121.9,260.4,121L260.4,121z M268.7,119.4
			c1-0.8,1.6-1.8,1.9-3.1c0.2-0.7,0.3-2.1,0.3-4.2s-0.1-3.5-0.2-4.2c-0.3-1.3-0.9-2.3-1.9-3.1c-1-0.8-2.2-1.2-3.6-1.2
			s-2.6,0.4-3.6,1.2c-1,0.8-1.6,1.8-1.9,3.1c-0.2,0.8-0.3,2.2-0.3,4.2s0.1,3.4,0.3,4.2c0.3,1.3,0.9,2.3,1.9,3.1
			c1,0.8,2.2,1.1,3.6,1.1S267.7,120.2,268.7,119.4L268.7,119.4z"/>
		<path class="st0" d="M290.2,103.8c1.2,1.2,1.9,2.9,1.9,4.9v13c0,0.3-0.1,0.4-0.4,0.4h-1.3c-0.3,0-0.4-0.1-0.4-0.4v-12.6
			c0-1.6-0.5-2.8-1.4-3.8s-2.2-1.5-3.7-1.5s-2.9,0.5-3.8,1.4s-1.5,2.2-1.5,3.8v12.7c0,0.3-0.1,0.4-0.4,0.4h-1.3
			c-0.3,0-0.4-0.1-0.4-0.4v-19.1c0-0.3,0.1-0.4,0.4-0.4h1.3c0.3,0,0.4,0.1,0.4,0.4v1.9c0,0.1,0,0.1,0.1,0.1c0,0,0.1,0,0.1-0.1
			c0.6-0.9,1.3-1.5,2.3-2s2-0.7,3.3-0.7C287.3,102,289,102.6,290.2,103.8L290.2,103.8z"/>
		<path class="st0" d="M308.8,103.7c1.2,1.2,1.8,2.8,1.8,4.8v13.2c0,0.3-0.1,0.4-0.4,0.4H309c-0.3,0-0.4-0.1-0.4-0.4v-1.9
			c0-0.1,0-0.1-0.1-0.1s-0.1,0-0.1,0c-0.7,0.9-1.6,1.5-2.7,2c-1.1,0.4-2.3,0.7-3.6,0.7c-1.8,0-3.4-0.5-4.6-1.4s-1.9-2.3-1.9-4.2
			s0.7-3.5,2.2-4.6c1.5-1.1,3.4-1.7,6-1.7h4.7c0.1,0,0.2-0.1,0.2-0.2v-1.8c0-1.5-0.4-2.7-1.2-3.5c-0.8-0.9-2.1-1.3-3.8-1.3
			c-1.3,0-2.5,0.3-3.3,0.8s-1.4,1.3-1.6,2.2c-0.1,0.3-0.2,0.4-0.5,0.4l-1.4-0.2c-0.3-0.1-0.4-0.2-0.4-0.3c0.2-1.4,1-2.6,2.3-3.4
			s2.9-1.3,4.9-1.3C305.9,101.9,307.6,102.5,308.8,103.7L308.8,103.7z M306.7,119.4c1.2-0.8,1.8-1.9,1.8-3.4v-3.6
			c0-0.1,0-0.2-0.2-0.2h-4.5c-1.9,0-3.4,0.4-4.5,1.2c-1.1,0.8-1.7,1.9-1.7,3.3c0,1.3,0.5,2.3,1.3,2.9c0.9,0.7,2,1,3.4,1
			C304.1,120.6,305.5,120.2,306.7,119.4L306.7,119.4z"/>
		<path class="st0" d="M315.2,121.7V94.9c0-0.3,0.1-0.4,0.4-0.4h1.3c0.3,0,0.4,0.1,0.4,0.4v26.9c0,0.3-0.1,0.4-0.4,0.4h-1.3
			C315.3,122.1,315.2,122,315.2,121.7z"/>
		<path class="st0" d="M336.4,104h-4.6c-0.1,0-0.2,0.1-0.2,0.2v12.5c0,1.3,0.3,2.3,0.9,2.8c0.6,0.5,1.6,0.8,2.9,0.8h0.9
			c0.3,0,0.4,0.1,0.4,0.4v1.1c0,0.3-0.1,0.4-0.4,0.4l-1.2,0c-1.8,0-3.2-0.4-4.2-1.1c-0.9-0.7-1.4-2-1.4-3.9v-13c0-0.1,0-0.2-0.2-0.2
			h-2.4c-0.3,0-0.4-0.1-0.4-0.4v-1c0-0.3,0.1-0.4,0.4-0.4h2.4c0.1,0,0.2-0.1,0.2-0.2v-4.5c0-0.3,0.1-0.4,0.4-0.4h1.3
			c0.3,0,0.4,0.1,0.4,0.4v4.5c0,0.1,0,0.2,0.2,0.2h4.6c0.3,0,0.4,0.1,0.4,0.4v1C336.8,103.8,336.7,104,336.4,104L336.4,104z"/>
		<path class="st0" d="M351.6,119.7c0.9-0.6,1.6-1.4,2.1-2.4c0.1-0.2,0.3-0.3,0.5-0.2l1,0.5c0.2,0.1,0.3,0.3,0.2,0.5
			c-0.6,1.3-1.5,2.3-2.8,3.1c-1.2,0.8-2.7,1.1-4.4,1.1c-1.8,0-3.4-0.4-4.7-1.3s-2.2-2.1-2.6-3.7c-0.2-0.7-0.4-1.4-0.4-2.2
			c-0.1-0.8-0.1-1.8-0.1-3.1s0-2.3,0.1-2.9s0.1-1.3,0.3-1.8c0.4-1.7,1.3-3,2.6-4s2.9-1.5,4.8-1.5c2.2,0,3.9,0.6,5.2,1.7
			c1.3,1.1,2.1,2.7,2.4,4.6c0.1,0.5,0.1,1.1,0.2,1.8s0,1.5,0,2.5c0,0.3-0.1,0.4-0.4,0.4h-12.9c-0.1,0-0.2,0.1-0.2,0.2
			c0,1.7,0.1,2.8,0.2,3.4c0.3,1.3,0.9,2.3,2,3.1c1,0.8,2.3,1.1,3.9,1.1C349.7,120.6,350.7,120.3,351.6,119.7L351.6,119.7z
			 M342.4,110.9c0,0.1,0,0.2,0.2,0.2h11c0.1,0,0.2-0.1,0.2-0.2c0-1.3-0.1-2.3-0.2-3c-0.3-1.3-0.9-2.3-1.9-3.1s-2.2-1.2-3.6-1.2
			s-2.6,0.4-3.5,1.1c-1,0.8-1.5,1.7-1.8,3C342.6,108.4,342.5,109.4,342.4,110.9L342.4,110.9z"/>
		<path class="st0" d="M362.6,121c-1.3-1-2.2-2.3-2.6-3.9c-0.3-1.3-0.5-2.9-0.5-4.9s0.2-3.6,0.5-4.9c0.4-1.6,1.3-2.9,2.6-3.9
			s2.9-1.5,4.8-1.5s3.5,0.5,4.8,1.4s2.2,2.1,2.6,3.6c0.1,0.4,0.2,0.7,0.2,1.1v0.1c0,0.2-0.1,0.3-0.4,0.4l-1.3,0.2h-0.1
			c-0.2,0-0.3-0.1-0.4-0.4l-0.1-0.6c-0.2-1.1-0.9-2-1.9-2.8c-1-0.8-2.2-1.1-3.6-1.1s-2.6,0.4-3.6,1.2c-1,0.8-1.6,1.8-1.8,3
			c-0.2,1-0.4,2.4-0.4,4.2s0.1,3.2,0.4,4.2c0.3,1.3,0.9,2.3,1.8,3.1s2.2,1.1,3.6,1.1s2.6-0.4,3.6-1.1s1.6-1.7,1.8-2.8l0-0.2
			c0-0.3,0.2-0.4,0.5-0.4l1.2,0.2c0.3,0.1,0.4,0.2,0.4,0.4l-0.2,0.7c-0.4,1.5-1.2,2.7-2.6,3.6c-1.4,0.9-3,1.4-4.8,1.4
			S363.9,122,362.6,121L362.6,121z"/>
		<path class="st0" d="M391.6,103.8c1.2,1.2,1.9,2.9,1.9,4.9v13c0,0.3-0.1,0.4-0.4,0.4h-1.3c-0.3,0-0.4-0.1-0.4-0.4v-12.6
			c0-1.6-0.5-2.8-1.4-3.8s-2.2-1.5-3.7-1.5s-2.9,0.5-3.8,1.4s-1.5,2.2-1.5,3.8v12.7c0,0.3-0.1,0.4-0.4,0.4h-1.3
			c-0.3,0-0.4-0.1-0.4-0.4V94.9c0-0.3,0.1-0.4,0.4-0.4h1.3c0.3,0,0.4,0.1,0.4,0.4v9.7c0,0.1,0,0.1,0.1,0.1c0,0,0.1,0,0.1-0.1
			c0.6-0.9,1.3-1.5,2.3-2s2-0.7,3.3-0.7C388.7,102,390.3,102.6,391.6,103.8L391.6,103.8z"/>
		<path class="st0" d="M411,103.8c1.2,1.2,1.9,2.9,1.9,4.9v13c0,0.3-0.1,0.4-0.4,0.4h-1.3c-0.3,0-0.4-0.1-0.4-0.4v-12.6
			c0-1.6-0.5-2.8-1.4-3.8s-2.2-1.5-3.7-1.5s-2.9,0.5-3.8,1.4s-1.5,2.2-1.5,3.8v12.7c0,0.3-0.1,0.4-0.4,0.4h-1.3
			c-0.3,0-0.4-0.1-0.4-0.4v-19.1c0-0.3,0.1-0.4,0.4-0.4h1.3c0.3,0,0.4,0.1,0.4,0.4v1.9c0,0.1,0,0.1,0.1,0.1c0,0,0.1,0,0.1-0.1
			c0.6-0.9,1.3-1.5,2.3-2s2-0.7,3.3-0.7C408.2,102,409.8,102.6,411,103.8L411,103.8z"/>
		<path class="st0" d="M420.2,121c-1.3-1-2.2-2.3-2.7-3.9c-0.3-1.1-0.4-2.7-0.4-4.9s0.1-3.9,0.4-4.9c0.5-1.6,1.4-2.9,2.7-3.9
			s2.9-1.4,4.8-1.4s3.4,0.5,4.8,1.5s2.2,2.3,2.7,3.9c0.2,0.6,0.3,1.3,0.3,2c0,0.8,0.1,1.7,0.1,2.9s0,2.2-0.1,2.9
			c0,0.7-0.2,1.4-0.3,2c-0.5,1.6-1.3,2.9-2.7,3.9s-2.9,1.5-4.8,1.5S421.5,121.9,420.2,121L420.2,121z M428.5,119.4
			c1-0.8,1.6-1.8,1.9-3.1c0.2-0.7,0.3-2.1,0.3-4.2s-0.1-3.5-0.2-4.2c-0.3-1.3-0.9-2.3-1.9-3.1c-1-0.8-2.2-1.2-3.6-1.2
			s-2.6,0.4-3.6,1.2c-1,0.8-1.6,1.8-1.9,3.1c-0.2,0.8-0.3,2.2-0.3,4.2s0.1,3.4,0.3,4.2c0.3,1.3,0.9,2.3,1.9,3.1
			c1,0.8,2.2,1.1,3.6,1.1S427.5,120.2,428.5,119.4L428.5,119.4z"/>
		<path class="st0" d="M437.3,121.7V94.9c0-0.3,0.1-0.4,0.4-0.4h1.3c0.3,0,0.4,0.1,0.4,0.4v26.9c0,0.3-0.1,0.4-0.4,0.4h-1.3
			C437.4,122.1,437.3,122,437.3,121.7z"/>
		<path class="st0" d="M447,121c-1.3-1-2.2-2.3-2.7-3.9c-0.3-1.1-0.4-2.7-0.4-4.9s0.1-3.9,0.4-4.9c0.5-1.6,1.4-2.9,2.7-3.9
			c1.3-1,2.9-1.4,4.8-1.4s3.4,0.5,4.8,1.5c1.3,1,2.2,2.3,2.7,3.9c0.2,0.6,0.3,1.3,0.3,2c0,0.8,0.1,1.7,0.1,2.9s0,2.2-0.1,2.9
			c0,0.7-0.2,1.4-0.3,2c-0.5,1.6-1.3,2.9-2.7,3.9c-1.3,1-2.9,1.5-4.8,1.5S448.3,121.9,447,121L447,121z M455.3,119.4
			c1-0.8,1.6-1.8,1.9-3.1c0.2-0.7,0.3-2.1,0.3-4.2s-0.1-3.5-0.2-4.2c-0.3-1.3-0.9-2.3-1.9-3.1s-2.2-1.2-3.6-1.2s-2.6,0.4-3.6,1.2
			s-1.6,1.8-1.9,3.1c-0.2,0.8-0.3,2.2-0.3,4.2s0.1,3.4,0.3,4.2c0.3,1.3,0.9,2.3,1.9,3.1s2.2,1.1,3.6,1.1S454.3,120.2,455.3,119.4
			L455.3,119.4z"/>
		<path class="st0" d="M476.8,102.2h1.3c0.3,0,0.4,0.1,0.4,0.4v19.1c0,3-0.9,5.1-2.7,6.5c-1.8,1.3-4.3,1.9-7.6,1.8
			c-0.3,0-0.4-0.2-0.4-0.4l0-1.1c0-0.3,0.1-0.4,0.4-0.4c2.8,0.1,4.9-0.4,6.2-1.4s2-2.7,2-5v-2c0-0.1,0-0.1-0.1-0.1s-0.1,0-0.1,0.1
			c-1.2,1.8-3,2.7-5.4,2.7c-1.7,0-3.2-0.5-4.5-1.4c-1.3-0.9-2.1-2.2-2.6-3.9c-0.3-1.1-0.4-2.7-0.4-4.9c0-2.3,0.2-4,0.5-5.1
			c0.4-1.6,1.2-2.8,2.5-3.8c1.2-1,2.7-1.4,4.5-1.4c2.4,0,4.2,0.9,5.5,2.7c0,0.1,0.1,0.1,0.1,0s0.1-0.1,0.1-0.1v-1.9
			C476.4,102.4,476.5,102.2,476.8,102.2L476.8,102.2z M476.3,114.9c0-0.6,0-1.5,0-2.7s0-2.1,0-2.7c0-0.6-0.1-1.1-0.2-1.5
			c-0.2-1.2-0.8-2.2-1.7-3s-2-1.2-3.4-1.2s-2.5,0.4-3.5,1.2c-0.9,0.8-1.6,1.8-1.9,3c-0.2,0.8-0.4,2.2-0.4,4.2s0.1,3.3,0.4,4.2
			c0.3,1.2,0.9,2.2,1.9,3c1,0.8,2.1,1.2,3.5,1.2s2.6-0.4,3.5-1.2c0.9-0.8,1.4-1.8,1.6-3C476.3,115.9,476.3,115.4,476.3,114.9z"/>
		<path class="st0" d="M481.9,129.6v-1c0-0.3,0.1-0.4,0.4-0.4h0.2c1,0,1.8-0.2,2.3-0.5s1-0.9,1.5-1.7c0.4-0.8,0.9-2.1,1.4-3.8
			c0-0.1,0-0.2,0-0.2l-6.8-19.4l0-0.2c0-0.2,0.1-0.3,0.4-0.3h1.3c0.2,0,0.4,0.1,0.5,0.3l5.6,16.7c0,0.1,0.1,0.1,0.1,0.1
			s0.1,0,0.1-0.1l5.5-16.8c0.1-0.2,0.2-0.3,0.5-0.3h1.3c0.3,0,0.4,0.2,0.3,0.4l-7.5,21.5c-0.6,1.7-1.2,3-1.7,3.8
			c-0.5,0.8-1.2,1.4-1.9,1.7c-0.7,0.3-1.7,0.4-3,0.4h-0.3C482,130,481.9,129.9,481.9,129.6L481.9,129.6z"/>
	</g>
</g>
<path class="st0" d="M562.8,11.8v-0.4c0-0.1,0.1-0.2,0.2-0.2h4.5c0.1,0,0.2,0.1,0.2,0.2v0.4c0,0.1-0.1,0.2-0.2,0.2h-1.8
	c0,0-0.1,0-0.1,0.1v5.8c0,0.1-0.1,0.2-0.2,0.2h-0.5c-0.1,0-0.2-0.1-0.2-0.2v-5.8c0,0,0-0.1-0.1-0.1H563
	C562.9,12,562.8,11.9,562.8,11.8L562.8,11.8z M573.5,11.2h0.5c0.1,0,0.2,0.1,0.2,0.2v6.4c0,0.1-0.1,0.2-0.2,0.2h-0.5
	c-0.1,0-0.2-0.1-0.2-0.2v-5c0,0,0-0.1,0-0.1c0,0,0,0-0.1,0l-1.3,2c0,0.1-0.1,0.1-0.2,0.1h-0.1c-0.1,0-0.2,0-0.2-0.1l-1.3-2
	c0,0,0,0-0.1,0c0,0,0,0,0,0.1v5c0,0.1-0.1,0.2-0.2,0.2h-0.5c-0.1,0-0.2-0.1-0.2-0.2v-6.4c0-0.1,0.1-0.2,0.2-0.2h0.5
	c0.1,0,0.2,0,0.2,0.1l1.6,2.4c0,0,0,0,0.1,0s0,0,0.1,0l1.6-2.4C573.3,11.3,573.4,11.2,573.5,11.2z"/>
</svg>
