<?xml version="1.0" encoding="utf-8"?>
<!-- Generator: Adobe Illustrator 26.3.1, SVG Export Plug-In . SVG Version: 6.00 Build 0)  -->
<svg version="1.1" id="Editable" xmlns="http://www.w3.org/2000/svg" xmlns:xlink="http://www.w3.org/1999/xlink" x="0px" y="0px"
	 viewBox="0 0 647.3 130" style="enable-background:new 0 0 647.3 130;" xml:space="preserve">
<style type="text/css">
	.st0{fill:#001446;}
	.st1{fill:#FFFFFF;}
</style>
<g>
	<path class="st0" d="M128.5,68.6l-16.9-50.2c-1.3-4-4.8-7-8.9-7.8L49.9,0.2c-4-0.8-8.3,0.6-11.1,3.7L3,44.1
		c-2.8,3.2-3.7,7.6-2.4,11.6l16.9,50.2c1.3,4,4.8,7,8.9,7.8L79.2,124c0.7,0.1,1.5,0.2,2.2,0.2c3.4,0,6.6-1.4,8.8-3.9L126,80.2
		C128.9,77,129.8,72.6,128.5,68.6 M121.7,76.2l-35.8,40.1c-1.4,1.5-3.5,2.2-5.5,1.8l-52.8-10.3c-2-0.4-3.7-1.9-4.4-3.8L6.3,53.8
		c-0.7-2-0.2-4.2,1.2-5.7L43.3,7.9C44.4,6.7,46,6,47.6,6c0.4,0,0.7,0,1.1,0.1l52.8,10.3c2.1,0.4,3.7,1.9,4.4,3.9l16.9,50.2
		C123.5,72.4,123.1,74.6,121.7,76.2"/>
	<g>
		<path class="st0" d="M176.6,35.4c-0.2,0.2-0.5,0.4-0.9,0.4h-10.4c-0.3,0-0.5,0.2-0.5,0.5v24.5c0,2.6,0.6,4.5,1.7,5.6
			s2.9,1.7,5.4,1.7h3.1c0.3,0,0.6,0.1,0.9,0.4c0.2,0.2,0.4,0.5,0.4,0.9V77c0,0.8-0.4,1.2-1.2,1.3l-5.3,0.1c-5.4,0-9.4-0.9-12-2.8
			c-2.6-1.8-4-5.3-4.1-10.4v-29c0-0.3-0.2-0.5-0.5-0.5h-5.8c-0.3,0-0.6-0.1-0.9-0.4c-0.2-0.2-0.4-0.5-0.4-0.9v-7.1
			c0-0.3,0.1-0.6,0.4-0.9c0.2-0.2,0.5-0.4,0.9-0.4h5.8c0.3,0,0.5-0.2,0.5-0.5V13.7c0-0.3,0.1-0.6,0.4-0.9c0.2-0.2,0.5-0.4,0.9-0.4
			h8.9c0.3,0,0.6,0.1,0.9,0.4c0.2,0.2,0.4,0.5,0.4,0.9v11.9c0,0.3,0.2,0.5,0.5,0.5h10.4c0.3,0,0.6,0.1,0.9,0.4
			c0.2,0.2,0.4,0.5,0.4,0.9v7.1C177,34.8,176.8,35.1,176.6,35.4L176.6,35.4z"/>
		<path class="st0" d="M227.4,52l-0.1,3.2c0,0.8-0.4,1.2-1.2,1.2h-31.9c-0.3,0-0.5,0.2-0.5,0.5c0.2,2.2,0.5,3.8,0.9,4.6
			c1.6,4.9,5.6,7.4,11.9,7.4c4.6,0,8.3-1.9,11-5.7c0.3-0.4,0.6-0.6,1-0.6c0.3,0,0.5,0.1,0.7,0.3l6.3,5.2c0.6,0.5,0.7,1,0.3,1.6
			c-2.1,3-4.9,5.3-8.4,6.9S210,79,205.7,79c-5.3,0-9.8-1.2-13.5-3.6s-6.4-5.7-8.1-10c-1.6-3.7-2.3-8.8-2.3-15.3
			c0-3.9,0.4-7.1,1.2-9.6c1.4-4.8,3.9-8.5,7.7-11.2s8.3-4.1,13.6-4.1c13.4,0,20.9,7,22.6,21C227.2,48,227.4,49.9,227.4,52L227.4,52z
			 M198.1,37.4c-1.7,1.3-2.8,3-3.5,5.2c-0.4,1.2-0.7,2.6-0.8,4.5c-0.1,0.3,0,0.5,0.4,0.5h20.7c0.3,0,0.5-0.2,0.5-0.5
			c-0.1-1.7-0.3-3-0.6-3.9c-0.6-2.4-1.8-4.3-3.6-5.7s-4.1-2-6.8-2C201.9,35.5,199.8,36.1,198.1,37.4L198.1,37.4z"/>
		<path class="st0" d="M271.9,30.2c3.3,3.3,4.9,7.7,4.9,13.3V77c0,0.3-0.1,0.6-0.4,0.9c-0.2,0.2-0.5,0.4-0.9,0.4h-9.4
			c-0.3,0-0.6-0.1-0.9-0.4S265,77.3,265,77V46c0-3.1-0.9-5.7-2.6-7.6s-4.1-2.9-7-2.9s-5.3,1-7.1,2.8c-1.8,1.9-2.7,4.4-2.7,7.5V77
			c0,0.3-0.1,0.6-0.4,0.9c-0.2,0.2-0.5,0.4-0.9,0.4H235c-0.3,0-0.6-0.1-0.9-0.4c-0.2-0.2-0.4-0.5-0.4-0.9V27.4
			c0-0.3,0.1-0.6,0.4-0.9s0.5-0.4,0.9-0.4h9.4c0.3,0,0.6,0.1,0.9,0.4s0.4,0.5,0.4,0.9v3.3c0,0.2,0.1,0.3,0.2,0.4
			c0.1,0.1,0.2,0,0.3-0.2c2.8-3.7,7-5.5,12.6-5.5C264.4,25.3,268.6,27,271.9,30.2L271.9,30.2z"/>
		<path class="st0" d="M316,27.6c3.3,1.5,5.8,3.5,7.5,6.2c1.8,2.6,2.6,5.6,2.6,8.9V77c0,0.3-0.1,0.6-0.4,0.9
			c-0.2,0.2-0.5,0.4-0.9,0.4h-9.4c-0.3,0-0.6-0.1-0.9-0.4s-0.4-0.5-0.4-0.9v-3.3c0-0.2-0.1-0.3-0.2-0.4c-0.1,0-0.3,0-0.4,0.2
			c-3.3,3.7-8.1,5.5-14.5,5.5c-5.1,0-9.3-1.3-12.6-3.9c-3.3-2.6-4.9-6.4-4.9-11.5s1.9-9.4,5.5-12.4c3.7-2.9,8.9-4.4,15.6-4.4h10.9
			c0.3,0,0.5-0.2,0.5-0.5v-2.5c0-2.7-0.8-4.7-2.3-6.2s-3.9-2.2-7-2.2c-2.6,0-4.7,0.5-6.3,1.4c-1.6,0.9-2.6,2.2-3,3.8
			c-0.2,0.8-0.7,1.2-1.4,1l-9.9-1.2c-0.3-0.1-0.6-0.2-0.9-0.4c-0.2-0.2-0.3-0.4-0.2-0.7c0.5-4.1,2.8-7.5,6.7-10.2
			c3.9-2.7,8.8-4,14.7-4C309,25.3,312.7,26.1,316,27.6L316,27.6z M310.8,67c2.4-1.8,3.6-4,3.6-6.7v-4.8c0-0.3-0.2-0.5-0.5-0.5h-8.6
			c-3.6,0-6.4,0.7-8.5,2c-2.1,1.4-3.1,3.3-3.1,5.8c0,2.2,0.8,3.9,2.4,5c1.6,1.2,3.6,1.8,6.2,1.8C305.5,69.6,308.4,68.8,310.8,67
			L310.8,67z"/>
		<path class="st0" d="M379.2,52c0,4.8-0.6,9.1-1.9,12.7c-1.5,4.5-3.9,8-7.2,10.5c-3.3,2.5-7.4,3.8-12.2,3.8s-8.7-1.8-11.7-5.4
			c-0.1-0.2-0.3-0.3-0.4-0.2s-0.2,0.2-0.2,0.4V77c0,0.3-0.1,0.6-0.4,0.9c-0.2,0.2-0.5,0.4-0.9,0.4h-9.4c-0.3,0-0.6-0.1-0.9-0.4
			s-0.4-0.5-0.4-0.9V8.1c0-0.3,0.1-0.6,0.4-0.9s0.5-0.4,0.9-0.4h9.4c0.3,0,0.6,0.1,0.9,0.4s0.4,0.5,0.4,0.9v22.1
			c0,0.2,0.1,0.3,0.2,0.4s0.3,0,0.4-0.1c2.9-3.5,6.8-5.2,11.6-5.2s9.2,1.3,12.5,3.8s5.7,6,7.3,10.5C378.6,43.4,379.2,47.5,379.2,52
			L379.2,52z M367.1,52.2c0-5.3-1-9.4-3.1-12.4c-1.8-2.8-4.5-4.3-8.1-4.3c-3.3,0-5.9,1.5-7.6,4.5c-1.7,2.8-2.5,6.8-2.5,12.1
			s0.8,9.2,2.3,11.8c1.8,3.3,4.4,4.9,7.9,4.9c1.9,0,3.6-0.4,5.1-1.3s2.7-2.1,3.6-3.6C366.3,61.1,367.1,57.2,367.1,52.2L367.1,52.2z"
			/>
		<path class="st0" d="M386.5,77.8c-0.2-0.2-0.4-0.5-0.4-0.9V8.1c0-0.3,0.1-0.6,0.4-0.9c0.2-0.2,0.5-0.4,0.9-0.4h9.4
			c0.3,0,0.6,0.1,0.9,0.4s0.4,0.5,0.4,0.9V77c0,0.3-0.1,0.6-0.4,0.9c-0.2,0.2-0.5,0.4-0.9,0.4h-9.4C387,78.2,386.8,78.1,386.5,77.8z
			"/>
		<path class="st0" d="M450.4,52l-0.1,3.2c0,0.8-0.4,1.2-1.2,1.2h-31.9c-0.3,0-0.5,0.2-0.5,0.5c0.2,2.2,0.5,3.8,0.9,4.6
			c1.6,4.9,5.6,7.4,11.9,7.4c4.6,0,8.3-1.9,11-5.7c0.3-0.4,0.6-0.6,1-0.6c0.3,0,0.5,0.1,0.7,0.3l6.3,5.2c0.6,0.5,0.7,1,0.3,1.6
			c-2.1,3-4.9,5.3-8.4,6.9S433,79,428.7,79c-5.3,0-9.8-1.2-13.5-3.6s-6.4-5.7-8.1-10c-1.6-3.7-2.3-8.8-2.3-15.3
			c0-3.9,0.4-7.1,1.2-9.6c1.4-4.8,3.9-8.5,7.7-11.2s8.3-4.1,13.6-4.1c13.4,0,20.9,7,22.6,21C450.3,48,450.4,49.9,450.4,52L450.4,52z
			 M421.1,37.4c-1.7,1.3-2.8,3-3.5,5.2c-0.4,1.2-0.7,2.6-0.8,4.5c-0.1,0.3,0,0.5,0.4,0.5h20.7c0.3,0,0.5-0.2,0.5-0.5
			c-0.1-1.7-0.3-3-0.6-3.9c-0.6-2.4-1.8-4.3-3.6-5.7s-4.1-2-6.8-2C424.9,35.5,422.8,36.1,421.1,37.4L421.1,37.4z"/>
		<path class="st0" d="M458.9,76.4c-1.4-1.4-2-3.1-2-5.2s0.7-3.8,2-5.2s3.1-2,5.2-2s3.8,0.7,5.1,2s2,3.1,2,5.2s-0.7,3.8-2,5.2
			c-1.4,1.4-3.1,2-5.1,2S460.2,77.7,458.9,76.4z"/>
		<path class="st0" d="M511.4,27.6c3.3,1.5,5.8,3.5,7.5,6.2c1.8,2.6,2.7,5.6,2.7,8.9V77c0,0.3-0.1,0.6-0.4,0.9
			c-0.2,0.2-0.5,0.4-0.9,0.4H511c-0.3,0-0.6-0.1-0.9-0.4s-0.4-0.5-0.4-0.9v-3.3c0-0.2-0.1-0.3-0.2-0.4c-0.1,0-0.3,0-0.4,0.2
			c-3.3,3.7-8.2,5.5-14.5,5.5c-5.1,0-9.3-1.3-12.6-3.9c-3.3-2.6-4.9-6.4-4.9-11.5s1.9-9.4,5.5-12.4c3.7-2.9,8.9-4.4,15.6-4.4h10.9
			c0.3,0,0.5-0.2,0.5-0.5v-2.5c0-2.7-0.8-4.7-2.3-6.2s-3.9-2.2-7-2.2c-2.6,0-4.7,0.5-6.3,1.4c-1.6,0.9-2.6,2.2-3,3.8
			c-0.2,0.8-0.7,1.2-1.4,1l-9.9-1.2c-0.3-0.1-0.6-0.2-0.9-0.4c-0.2-0.2-0.3-0.4-0.2-0.7c0.5-4.1,2.8-7.5,6.7-10.2
			c3.9-2.7,8.8-4,14.7-4C504.4,25.3,508.2,26.1,511.4,27.6L511.4,27.6z M506.2,67c2.4-1.8,3.6-4,3.6-6.7v-4.8c0-0.3-0.2-0.5-0.5-0.5
			h-8.6c-3.6,0-6.4,0.7-8.5,2c-2.1,1.4-3.1,3.3-3.1,5.8c0,2.2,0.8,3.9,2.4,5c1.6,1.2,3.6,1.8,6.2,1.8C501,69.6,503.8,68.8,506.2,67
			L506.2,67z"/>
		<path class="st0" d="M537.2,76.9c-3.2-1.3-5.7-3-7.5-5.2S527,67,527,64.3v-0.9c0-0.3,0.1-0.6,0.4-0.9c0.2-0.2,0.5-0.4,0.9-0.4h9
			c0.3,0,0.6,0.1,0.9,0.4s0.4,0.5,0.4,0.9v0.2c0,1.7,0.9,3.2,2.8,4.4s4.2,1.9,7.1,1.9s4.9-0.6,6.6-1.7s2.5-2.5,2.5-4.2
			c0-1.6-0.7-2.7-2.1-3.5s-3.7-1.6-6.8-2.5l-3.9-1.2c-3.5-1-6.4-2.1-8.8-3.3c-2.4-1.2-4.4-2.7-6-4.7s-2.4-4.6-2.4-7.7
			c0-4.8,1.9-8.5,5.6-11.4s8.7-4.2,14.8-4.2c4.1,0,7.8,0.7,10.9,2c3.1,1.3,5.5,3.2,7.2,5.5s2.5,5,2.5,8c0,0.3-0.1,0.6-0.4,0.9
			c-0.2,0.2-0.5,0.4-0.9,0.4h-8.7c-0.3,0-0.6-0.1-0.9-0.4s-0.4-0.5-0.4-0.9c0-1.8-0.9-3.2-2.6-4.4s-4.1-1.8-7.1-1.8
			c-2.7,0-4.8,0.5-6.5,1.5s-2.5,2.4-2.5,4.1c0,1.6,0.8,2.9,2.4,3.7s4.3,1.8,8,2.8l2.2,0.6c3.6,1.1,6.6,2.2,9.1,3.3
			c2.4,1.1,4.5,2.7,6.2,4.7s2.5,4.6,2.5,7.8c0,4.8-1.9,8.6-5.7,11.4s-8.9,4.1-15.2,4.1C544.1,78.8,540.4,78.2,537.2,76.9z"/>
		<path class="st0" d="M642.9,30.1c3,3.2,4.4,7.5,4.4,13.2V77c0,0.3-0.1,0.6-0.4,0.9c-0.2,0.2-0.5,0.4-0.9,0.4h-9.3
			c-0.3,0-0.6-0.1-0.9-0.4s-0.4-0.5-0.4-0.9V45.7c0-3.1-0.8-5.6-2.5-7.4c-1.7-1.8-3.9-2.8-6.7-2.8s-5.1,0.9-6.8,2.8
			c-1.8,1.8-2.7,4.3-2.7,7.3V77c0,0.3-0.1,0.6-0.4,0.9c-0.2,0.2-0.5,0.4-0.9,0.4h-9.3c-0.3,0-0.6-0.1-0.9-0.4s-0.4-0.5-0.4-0.9V45.7
			c0-3.1-0.8-5.6-2.5-7.4c-1.7-1.8-3.9-2.8-6.7-2.8c-2.6,0-4.7,0.8-6.4,2.2c-1.7,1.5-2.6,3.5-2.9,6.1v33.1c0,0.3-0.1,0.6-0.4,0.9
			c-0.2,0.2-0.5,0.4-0.9,0.4h-9.4c-0.3,0-0.6-0.1-0.9-0.4s-0.4-0.5-0.4-0.9V27.4c0-0.3,0.1-0.6,0.4-0.9s0.5-0.4,0.9-0.4h9.4
			c0.3,0,0.6,0.1,0.9,0.4s0.4,0.5,0.4,0.9v3.4c0,0.2,0.1,0.3,0.2,0.4c0.1,0.1,0.3,0,0.4-0.2c1.5-1.9,3.3-3.3,5.5-4.2
			s4.7-1.4,7.4-1.4c3.3,0,6.2,0.7,8.8,2s4.5,3.3,5.8,5.9c0.2,0.3,0.4,0.3,0.7,0c1.5-2.7,3.6-4.7,6.2-6s5.6-1.9,8.9-1.9
			C635.8,25.3,639.9,26.9,642.9,30.1L642.9,30.1z"/>
	</g>
	<g>
		<path class="st0" d="M159.6,103.7c1.2,1.2,1.8,2.8,1.8,4.8v13.2c0,0.3-0.1,0.4-0.4,0.4h-1.3c-0.3,0-0.4-0.1-0.4-0.4v-1.9
			c0-0.1,0-0.1-0.1-0.1s-0.1,0-0.1,0c-0.7,0.9-1.6,1.5-2.7,2c-1.1,0.4-2.3,0.7-3.6,0.7c-1.8,0-3.4-0.5-4.6-1.4s-1.9-2.3-1.9-4.2
			s0.7-3.5,2.2-4.6s3.4-1.7,6-1.7h4.7c0.1,0,0.2-0.1,0.2-0.2v-1.8c0-1.5-0.4-2.7-1.2-3.5c-0.8-0.9-2.1-1.3-3.8-1.3
			c-1.3,0-2.4,0.3-3.3,0.8c-0.9,0.6-1.4,1.3-1.6,2.2c-0.1,0.3-0.2,0.4-0.5,0.4l-1.4-0.2c-0.3-0.1-0.4-0.2-0.4-0.3
			c0.2-1.4,1-2.6,2.3-3.4s2.9-1.3,4.9-1.3C156.7,101.9,158.4,102.5,159.6,103.7L159.6,103.7z M157.5,119.4c1.2-0.8,1.8-1.9,1.8-3.4
			v-3.6c0-0.1-0.1-0.2-0.2-0.2h-4.5c-1.9,0-3.4,0.4-4.5,1.2c-1.1,0.8-1.7,1.9-1.7,3.3c0,1.3,0.4,2.3,1.3,2.9s2,1,3.4,1
			C154.9,120.6,156.3,120.2,157.5,119.4L157.5,119.4z"/>
		<path class="st0" d="M173.9,104h-4.6c-0.1,0-0.2,0.1-0.2,0.2v12.5c0,1.3,0.3,2.3,0.9,2.8c0.6,0.5,1.6,0.8,2.9,0.8h0.9
			c0.3,0,0.4,0.1,0.4,0.4v1.1c0,0.3-0.1,0.4-0.4,0.4h-1.2c-1.8,0-3.2-0.4-4.2-1.1s-1.4-2-1.4-3.9v-13c0-0.1-0.1-0.2-0.2-0.2h-2.4
			c-0.3,0-0.4-0.1-0.4-0.4v-1c0-0.3,0.1-0.4,0.4-0.4h2.4c0.1,0,0.2-0.1,0.2-0.2v-4.5c0-0.3,0.1-0.4,0.4-0.4h1.3
			c0.3,0,0.4,0.1,0.4,0.4v4.5c0,0.1,0.1,0.2,0.2,0.2h4.6c0.3,0,0.4,0.1,0.4,0.4v1C174.3,103.8,174.2,104,173.9,104L173.9,104z"/>
		<path class="st0" d="M186.3,104h-4.6c-0.1,0-0.2,0.1-0.2,0.2v12.5c0,1.3,0.3,2.3,0.9,2.8c0.6,0.5,1.6,0.8,2.9,0.8h0.9
			c0.3,0,0.4,0.1,0.4,0.4v1.1c0,0.3-0.1,0.4-0.4,0.4H185c-1.8,0-3.2-0.4-4.2-1.1c-0.9-0.7-1.4-2-1.4-3.9v-13c0-0.1-0.1-0.2-0.2-0.2
			H177c-0.3,0-0.4-0.1-0.4-0.4v-1c0-0.3,0.1-0.4,0.4-0.4h2.4c0.1,0,0.2-0.1,0.2-0.2v-4.5c0-0.3,0.1-0.4,0.4-0.4h1.3
			c0.3,0,0.4,0.1,0.4,0.4v4.5c0,0.1,0.1,0.2,0.2,0.2h4.6c0.3,0,0.4,0.1,0.4,0.4v1C186.7,103.8,186.6,104,186.3,104L186.3,104z"/>
		<path class="st0" d="M202.8,103.7c1.2,1.2,1.8,2.8,1.8,4.8v13.2c0,0.3-0.1,0.4-0.4,0.4h-1.3c-0.3,0-0.4-0.1-0.4-0.4v-1.9
			c0-0.1,0-0.1-0.1-0.1s-0.1,0-0.1,0c-0.7,0.9-1.6,1.5-2.7,2s-2.3,0.7-3.6,0.7c-1.8,0-3.4-0.5-4.6-1.4s-1.9-2.3-1.9-4.2
			s0.7-3.5,2.2-4.6c1.4-1.1,3.4-1.7,6-1.7h4.7c0.1,0,0.2-0.1,0.2-0.2v-1.8c0-1.5-0.4-2.7-1.2-3.5c-0.8-0.9-2.1-1.3-3.8-1.3
			c-1.3,0-2.4,0.3-3.3,0.8s-1.4,1.3-1.6,2.2c-0.1,0.3-0.2,0.4-0.5,0.4l-1.4-0.2c-0.3-0.1-0.4-0.2-0.4-0.3c0.2-1.4,1-2.6,2.3-3.4
			s2.9-1.3,4.9-1.3C199.8,101.9,201.6,102.5,202.8,103.7L202.8,103.7z M200.7,119.4c1.2-0.8,1.8-1.9,1.8-3.4v-3.6
			c0-0.1-0.1-0.2-0.2-0.2h-4.5c-1.9,0-3.4,0.4-4.5,1.2c-1.1,0.8-1.7,1.9-1.7,3.3c0,1.3,0.4,2.3,1.3,2.9s2,1,3.4,1
			C198,120.6,199.4,120.2,200.7,119.4L200.7,119.4z"/>
		<path class="st0" d="M211.6,121c-1.3-1-2.2-2.3-2.6-3.9c-0.3-1.3-0.5-2.9-0.5-4.9s0.2-3.6,0.5-4.9c0.4-1.6,1.3-2.9,2.6-3.9
			s2.9-1.5,4.8-1.5s3.5,0.5,4.8,1.4s2.2,2.1,2.6,3.6c0.1,0.4,0.2,0.7,0.2,1.1v0.1c0,0.2-0.1,0.3-0.4,0.4l-1.3,0.2h-0.1
			c-0.2,0-0.3-0.1-0.4-0.4l-0.1-0.6c-0.2-1.1-0.9-2-1.9-2.8s-2.2-1.1-3.6-1.1s-2.6,0.4-3.6,1.2c-1,0.8-1.6,1.8-1.8,3
			c-0.2,1-0.4,2.4-0.4,4.2s0.1,3.2,0.4,4.2c0.3,1.3,0.9,2.3,1.8,3.1c1,0.8,2.2,1.1,3.6,1.1s2.6-0.4,3.6-1.1s1.6-1.7,1.8-2.8v-0.2
			c0.1-0.3,0.2-0.4,0.5-0.4l1.2,0.2c0.3,0.1,0.4,0.2,0.4,0.4l-0.2,0.7c-0.4,1.5-1.2,2.7-2.6,3.6c-1.4,0.9-3,1.4-4.8,1.4
			S212.9,122,211.6,121L211.6,121z"/>
		<path class="st0" d="M227.8,121.7V94.9c0-0.3,0.1-0.4,0.4-0.4h1.3c0.3,0,0.4,0.1,0.4,0.4v16.9c0,0.1,0,0.1,0.1,0.1s0.1,0,0.1,0
			l9.1-9.4c0.1-0.1,0.3-0.2,0.5-0.2h1.6c0.2,0,0.3,0.1,0.3,0.1c0,0.1,0,0.2-0.1,0.3l-5,5.4c-0.1,0.1-0.1,0.1,0,0.2l6.1,13.4v0.2
			c0,0.2-0.1,0.3-0.4,0.3h-1.4c-0.2,0-0.4-0.1-0.4-0.3l-5.4-12.1c-0.1-0.1-0.1-0.1-0.2,0l-4.8,5c-0.1,0.1-0.1,0.1-0.1,0.2v6.9
			c0,0.3-0.1,0.4-0.4,0.4h-1.3C227.9,122.1,227.8,122,227.8,121.7L227.8,121.7z"/>
		<path class="st0" d="M254.1,121.6c-1.1-0.5-1.9-1.1-2.5-1.9s-0.9-1.7-0.9-2.6v-0.5c0-0.3,0.1-0.4,0.4-0.4h1.2
			c0.3,0,0.4,0.1,0.4,0.4v0.4c0,1,0.5,1.8,1.5,2.5s2.2,1.1,3.7,1.1s2.7-0.4,3.6-1.1s1.4-1.6,1.4-2.6c0-0.7-0.2-1.3-0.7-1.8
			s-1-0.8-1.7-1.1c-0.6-0.2-1.6-0.6-2.9-1c-1.5-0.4-2.7-0.9-3.6-1.3c-0.9-0.4-1.6-1-2.3-1.7c-0.6-0.7-0.9-1.6-0.9-2.8
			c0-1.6,0.6-2.9,1.9-3.8s3-1.4,5-1.4c1.4,0,2.6,0.2,3.7,0.7s1.9,1.1,2.5,1.9s0.9,1.7,0.9,2.7v0.1c0,0.3-0.1,0.4-0.4,0.4h-1.2
			c-0.3,0-0.4-0.1-0.4-0.4v-0.1c0-1-0.5-1.8-1.4-2.5s-2.2-1-3.7-1s-2.7,0.3-3.6,0.9c-0.9,0.6-1.3,1.5-1.3,2.5s0.4,1.8,1.2,2.2
			s2.1,1,3.9,1.5c1.5,0.4,2.8,0.9,3.6,1.3c0.9,0.4,1.7,1,2.4,1.7s1,1.7,1,2.8c0,1.7-0.6,3-1.9,4s-3,1.5-5.1,1.5
			C256.4,122.3,255.2,122.1,254.1,121.6L254.1,121.6z"/>
		<path class="st0" d="M281.3,102.2h1.3c0.3,0,0.4,0.1,0.4,0.4v19.1c0,0.3-0.1,0.4-0.4,0.4h-1.3c-0.3,0-0.4-0.1-0.4-0.4v-1.9
			c0-0.1,0-0.1-0.1-0.1c0,0-0.1,0-0.1,0.1c-0.5,0.9-1.3,1.5-2.2,2c-0.9,0.4-2,0.7-3.3,0.7c-2,0-3.6-0.6-4.9-1.7s-1.9-2.8-1.9-4.8
			v-13.3c0-0.3,0.1-0.4,0.4-0.4h1.3c0.3,0,0.4,0.1,0.4,0.4v12.7c0,1.6,0.5,2.8,1.4,3.8s2.2,1.4,3.7,1.4s2.9-0.5,3.9-1.4
			s1.5-2.2,1.5-3.8v-12.7C280.9,102.3,281.1,102.2,281.3,102.2L281.3,102.2z"/>
		<path class="st0" d="M297.9,102.5c0.2,0.1,0.3,0.2,0.2,0.5l-0.4,1.3c-0.1,0.3-0.2,0.3-0.5,0.2c-0.5-0.2-1.2-0.3-2-0.3
			c-1.5,0-2.7,0.6-3.6,1.7c-1,1.1-1.4,2.4-1.4,4v11.8c0,0.3-0.1,0.4-0.4,0.4h-1.3c-0.3,0-0.4-0.1-0.4-0.4v-19.1
			c0-0.3,0.1-0.4,0.4-0.4h1.3c0.3,0,0.4,0.1,0.4,0.4v2.7c0,0.1,0,0.1,0.1,0.1c0,0,0.1,0,0.1-0.1c0.5-1,1.3-1.8,2.1-2.4
			s1.9-0.9,3.1-0.9C296.5,102,297.3,102.2,297.9,102.5L297.9,102.5z"/>
		<path class="st0" d="M304.7,97.4c-0.6,0.7-0.9,1.9-0.9,3.6v1c0,0.1,0,0.2,0.2,0.2h4.6c0.3,0,0.4,0.1,0.4,0.4v1.1
			c0,0.3-0.1,0.4-0.4,0.4H304c-0.1,0-0.2,0.1-0.2,0.2v17.4c0,0.3-0.1,0.4-0.4,0.4h-1.3c-0.3,0-0.4-0.1-0.4-0.4v-17.4
			c0-0.1,0-0.2-0.2-0.2H299c-0.3,0-0.4-0.1-0.4-0.4v-1.1c0-0.3,0.1-0.4,0.4-0.4h2.6c0.1,0,0.2-0.1,0.2-0.2v-1c0-1.6,0.2-2.8,0.5-3.7
			s1-1.6,1.8-2.1c0.9-0.5,2.1-0.7,3.6-0.7h1c0.3,0,0.4,0.1,0.4,0.4V96c0,0.3-0.1,0.4-0.4,0.4h-0.9C306.3,96.3,305.2,96.7,304.7,97.4
			L304.7,97.4z"/>
		<path class="st0" d="M324.5,103.7c1.2,1.2,1.8,2.8,1.8,4.8v13.2c0,0.3-0.1,0.4-0.4,0.4h-1.3c-0.3,0-0.4-0.1-0.4-0.4v-1.9
			c0-0.1,0-0.1-0.1-0.1s-0.1,0-0.1,0c-0.7,0.9-1.6,1.5-2.7,2s-2.3,0.7-3.6,0.7c-1.8,0-3.4-0.5-4.6-1.4s-1.9-2.3-1.9-4.2
			s0.7-3.5,2.2-4.6s3.4-1.7,6-1.7h4.7c0.1,0,0.2-0.1,0.2-0.2v-1.8c0-1.5-0.4-2.7-1.2-3.5c-0.8-0.9-2.1-1.3-3.8-1.3
			c-1.3,0-2.5,0.3-3.3,0.8s-1.4,1.3-1.6,2.2c-0.1,0.3-0.2,0.4-0.5,0.4l-1.4-0.2c-0.3-0.1-0.4-0.2-0.4-0.3c0.2-1.4,1-2.6,2.3-3.4
			s2.9-1.3,4.9-1.3C321.6,101.9,323.3,102.5,324.5,103.7L324.5,103.7z M322.4,119.4c1.2-0.8,1.8-1.9,1.8-3.4v-3.6
			c0-0.1,0-0.2-0.2-0.2h-4.5c-1.9,0-3.4,0.4-4.5,1.2c-1.1,0.8-1.7,1.9-1.7,3.3c0,1.3,0.5,2.3,1.3,2.9c0.9,0.7,2,1,3.4,1
			C319.7,120.6,321.2,120.2,322.4,119.4L322.4,119.4z"/>
		<path class="st0" d="M333.3,121c-1.3-1-2.2-2.3-2.6-3.9c-0.3-1.3-0.5-2.9-0.5-4.9s0.2-3.6,0.5-4.9c0.4-1.6,1.3-2.9,2.6-3.9
			c1.3-1,2.9-1.5,4.8-1.5s3.5,0.5,4.8,1.4s2.2,2.1,2.6,3.6c0.1,0.4,0.2,0.7,0.2,1.1v0.1c0,0.2-0.1,0.3-0.4,0.4l-1.3,0.2h-0.1
			c-0.2,0-0.3-0.1-0.4-0.4l-0.1-0.6c-0.2-1.1-0.9-2-1.9-2.8s-2.2-1.1-3.6-1.1s-2.6,0.4-3.6,1.2c-1,0.8-1.6,1.8-1.8,3
			c-0.2,1-0.4,2.4-0.4,4.2s0.1,3.2,0.4,4.2c0.3,1.3,0.9,2.3,1.8,3.1s2.2,1.1,3.6,1.1s2.6-0.4,3.6-1.1s1.6-1.7,1.8-2.8v-0.2
			c0-0.3,0.2-0.4,0.5-0.4l1.2,0.2c0.3,0.1,0.4,0.2,0.4,0.4l-0.2,0.7c-0.4,1.5-1.2,2.7-2.6,3.6s-3,1.4-4.8,1.4S334.6,122,333.3,121
			L333.3,121z"/>
		<path class="st0" d="M360.1,119.7c0.9-0.6,1.6-1.4,2.1-2.4c0.1-0.2,0.3-0.3,0.5-0.2l1,0.5c0.2,0.1,0.3,0.3,0.2,0.5
			c-0.6,1.3-1.5,2.3-2.8,3.1s-2.7,1.1-4.4,1.1c-1.8,0-3.4-0.4-4.7-1.3s-2.2-2.1-2.6-3.7c-0.2-0.7-0.4-1.4-0.4-2.2s-0.1-1.8-0.1-3.1
			s0-2.3,0.1-2.9c0-0.7,0.1-1.3,0.3-1.8c0.4-1.7,1.3-3,2.6-4c1.3-1,2.9-1.5,4.8-1.5c2.2,0,3.9,0.6,5.2,1.7s2.1,2.7,2.4,4.6
			c0.1,0.5,0.1,1.1,0.2,1.8s0,1.5,0,2.5c0,0.3-0.1,0.4-0.4,0.4h-12.9c-0.1,0-0.2,0.1-0.2,0.2c0,1.7,0.1,2.8,0.2,3.4
			c0.3,1.3,0.9,2.3,2,3.1c1,0.8,2.3,1.1,3.9,1.1C358.2,120.6,359.2,120.3,360.1,119.7L360.1,119.7z M350.9,110.9
			c0,0.1,0,0.2,0.2,0.2h11c0.1,0,0.2-0.1,0.2-0.2c0-1.3-0.1-2.3-0.2-3c-0.3-1.3-0.9-2.3-1.9-3.1c-1-0.8-2.2-1.2-3.6-1.2
			s-2.6,0.4-3.5,1.1c-1,0.8-1.5,1.8-1.8,3C351.1,108.4,351,109.4,350.9,110.9L350.9,110.9z"/>
		<path class="st0" d="M399.2,103.7c1.2,1.2,1.7,2.8,1.7,4.8v13.3c0,0.3-0.1,0.4-0.4,0.4h-1.3c-0.3,0-0.4-0.1-0.4-0.4v-12.9
			c0-1.6-0.5-2.8-1.4-3.7c-0.9-0.9-2.1-1.4-3.5-1.4c-1.5,0-2.8,0.4-3.7,1.3s-1.4,2.1-1.4,3.6v13c0,0.3-0.1,0.4-0.4,0.4h-1.3
			c-0.3,0-0.4-0.1-0.4-0.4v-12.9c0-1.6-0.5-2.8-1.3-3.7c-0.9-0.9-2.1-1.4-3.5-1.4c-1.5,0-2.8,0.4-3.7,1.3s-1.4,2.1-1.4,3.6v13
			c0,0.3-0.1,0.4-0.4,0.4h-1.3c-0.3,0-0.4-0.1-0.4-0.4v-19.1c0-0.3,0.1-0.4,0.4-0.4h1.3c0.3,0,0.4,0.1,0.4,0.4v1.8
			c0,0.1,0,0.1,0.1,0.1h0.1c0.5-0.8,1.3-1.5,2.2-1.9c0.9-0.4,2-0.6,3.2-0.6c1.4,0,2.5,0.3,3.5,0.9s1.7,1.4,2.2,2.5
			c0,0.1,0.1,0.1,0.2,0c0.5-1.1,1.4-2,2.4-2.6s2.3-0.9,3.7-0.9C396.6,101.9,398.1,102.5,399.2,103.7L399.2,103.7z"/>
		<path class="st0" d="M417.7,103.7c1.2,1.2,1.8,2.8,1.8,4.8v13.2c0,0.3-0.1,0.4-0.4,0.4h-1.3c-0.3,0-0.4-0.1-0.4-0.4v-1.9
			c0-0.1,0-0.1-0.1-0.1s-0.1,0-0.1,0c-0.7,0.9-1.6,1.5-2.7,2s-2.3,0.7-3.6,0.7c-1.8,0-3.4-0.5-4.6-1.4s-1.9-2.3-1.9-4.2
			s0.7-3.5,2.2-4.6s3.4-1.7,6-1.7h4.7c0.1,0,0.2-0.1,0.2-0.2v-1.8c0-1.5-0.4-2.7-1.2-3.5c-0.8-0.9-2.1-1.3-3.8-1.3
			c-1.3,0-2.5,0.3-3.3,0.8s-1.4,1.3-1.6,2.2c-0.1,0.3-0.2,0.4-0.5,0.4l-1.4-0.2c-0.3-0.1-0.4-0.2-0.4-0.3c0.2-1.4,1-2.6,2.3-3.4
			s2.9-1.3,4.9-1.3C414.7,101.9,416.5,102.5,417.7,103.7L417.7,103.7z M415.6,119.4c1.2-0.8,1.8-1.9,1.8-3.4v-3.6
			c0-0.1,0-0.2-0.2-0.2h-4.5c-1.9,0-3.4,0.4-4.5,1.2c-1.1,0.8-1.7,1.9-1.7,3.3c0,1.3,0.5,2.3,1.3,2.9c0.9,0.7,2,1,3.4,1
			C412.9,120.6,414.4,120.2,415.6,119.4L415.6,119.4z"/>
		<path class="st0" d="M436.8,103.8c1.2,1.2,1.9,2.9,1.9,4.9v13c0,0.3-0.1,0.4-0.4,0.4H437c-0.3,0-0.4-0.1-0.4-0.4v-12.6
			c0-1.6-0.5-2.8-1.4-3.8s-2.2-1.5-3.7-1.5s-2.9,0.5-3.8,1.4s-1.5,2.2-1.5,3.8v12.7c0,0.3-0.1,0.4-0.4,0.4h-1.3
			c-0.3,0-0.4-0.1-0.4-0.4v-19.1c0-0.3,0.1-0.4,0.4-0.4h1.3c0.3,0,0.4,0.1,0.4,0.4v1.9c0,0.1,0,0.1,0.1,0.1c0,0,0.1,0,0.1-0.1
			c0.6-0.9,1.3-1.5,2.3-2s2-0.7,3.3-0.7C433.9,102,435.6,102.6,436.8,103.8L436.8,103.8z"/>
		<path class="st0" d="M455.4,103.7c1.2,1.2,1.8,2.8,1.8,4.8v13.2c0,0.3-0.1,0.4-0.4,0.4h-1.3c-0.3,0-0.4-0.1-0.4-0.4v-1.9
			c0-0.1,0-0.1-0.1-0.1s-0.1,0-0.1,0c-0.7,0.9-1.6,1.5-2.7,2s-2.3,0.7-3.6,0.7c-1.8,0-3.4-0.5-4.6-1.4s-1.9-2.3-1.9-4.2
			s0.7-3.5,2.2-4.6s3.4-1.7,6-1.7h4.7c0.1,0,0.2-0.1,0.2-0.2v-1.8c0-1.5-0.4-2.7-1.2-3.5c-0.8-0.9-2.1-1.3-3.8-1.3
			c-1.3,0-2.5,0.3-3.3,0.8s-1.4,1.3-1.6,2.2c-0.1,0.3-0.2,0.4-0.5,0.4l-1.4-0.2c-0.3-0.1-0.4-0.2-0.4-0.3c0.2-1.4,1-2.6,2.3-3.4
			s2.9-1.3,4.9-1.3C452.5,101.9,454.2,102.5,455.4,103.7L455.4,103.7z M453.3,119.4c1.2-0.8,1.8-1.9,1.8-3.4v-3.6
			c0-0.1,0-0.2-0.2-0.2h-4.5c-1.9,0-3.4,0.4-4.5,1.2c-1.1,0.8-1.7,1.9-1.7,3.3c0,1.3,0.5,2.3,1.3,2.9c0.9,0.7,2,1,3.4,1
			C450.6,120.6,452.1,120.2,453.3,119.4L453.3,119.4z"/>
		<path class="st0" d="M474.5,102.2h1.3c0.3,0,0.4,0.1,0.4,0.4v19.1c0,3-0.9,5.1-2.7,6.5c-1.8,1.3-4.3,1.9-7.6,1.8
			c-0.3,0-0.4-0.2-0.4-0.4v-1.1c0-0.3,0.1-0.4,0.4-0.4c2.8,0.1,4.9-0.4,6.2-1.4s2-2.7,2-5v-2c0-0.1,0-0.1-0.1-0.1c0,0-0.1,0-0.1,0.1
			c-1.2,1.8-3,2.7-5.4,2.7c-1.7,0-3.2-0.5-4.5-1.4s-2.1-2.2-2.6-3.9c-0.3-1.1-0.4-2.7-0.4-4.9c0-2.3,0.2-4,0.5-5.1
			c0.4-1.6,1.2-2.8,2.5-3.8s2.7-1.4,4.5-1.4c2.4,0,4.2,0.9,5.5,2.7c0,0.1,0.1,0.1,0.1,0s0.1-0.1,0.1-0.1v-1.9
			C474.1,102.4,474.2,102.2,474.5,102.2L474.5,102.2z M474.1,114.9c0-0.6,0-1.5,0-2.7s0-2.1,0-2.7s-0.1-1.1-0.2-1.5
			c-0.2-1.2-0.8-2.2-1.7-3s-2-1.2-3.4-1.2s-2.5,0.4-3.5,1.2c-0.9,0.8-1.6,1.8-1.9,3c-0.2,0.8-0.4,2.2-0.4,4.2s0.1,3.3,0.4,4.2
			c0.3,1.2,0.9,2.2,1.9,3s2.1,1.2,3.5,1.2s2.6-0.4,3.5-1.2c0.9-0.8,1.4-1.8,1.6-3C474,115.9,474,115.4,474.1,114.9L474.1,114.9z"/>
		<path class="st0" d="M491.6,119.7c0.9-0.6,1.6-1.4,2.1-2.4c0.1-0.2,0.3-0.3,0.5-0.2l1,0.5c0.2,0.1,0.3,0.3,0.2,0.5
			c-0.6,1.3-1.5,2.3-2.8,3.1s-2.7,1.1-4.4,1.1c-1.8,0-3.4-0.4-4.7-1.3s-2.2-2.1-2.6-3.7c-0.2-0.7-0.4-1.4-0.4-2.2s-0.1-1.8-0.1-3.1
			s0-2.3,0.1-2.9c0-0.7,0.1-1.3,0.3-1.8c0.4-1.7,1.3-3,2.6-4c1.3-1,2.9-1.5,4.8-1.5c2.2,0,3.9,0.6,5.2,1.7s2.1,2.7,2.4,4.6
			c0.1,0.5,0.1,1.1,0.2,1.8s0,1.5,0,2.5c0,0.3-0.1,0.4-0.4,0.4h-12.9c-0.1,0-0.2,0.1-0.2,0.2c0,1.7,0.1,2.8,0.2,3.4
			c0.3,1.3,0.9,2.3,2,3.1c1,0.8,2.3,1.1,3.9,1.1C489.6,120.6,490.7,120.3,491.6,119.7L491.6,119.7z M482.4,110.9
			c0,0.1,0,0.2,0.2,0.2h11c0.1,0,0.2-0.1,0.2-0.2c0-1.3-0.1-2.3-0.2-3c-0.3-1.3-0.9-2.3-1.9-3.1c-1-0.8-2.2-1.2-3.6-1.2
			s-2.6,0.4-3.5,1.1c-1,0.8-1.5,1.8-1.8,3C482.5,108.4,482.5,109.4,482.4,110.9L482.4,110.9z"/>
		<path class="st0" d="M524.5,103.7c1.2,1.2,1.7,2.8,1.7,4.8v13.3c0,0.3-0.1,0.4-0.4,0.4h-1.3c-0.3,0-0.4-0.1-0.4-0.4v-12.9
			c0-1.6-0.5-2.8-1.4-3.7c-0.9-0.9-2.1-1.4-3.5-1.4c-1.5,0-2.8,0.4-3.7,1.3s-1.4,2.1-1.4,3.6v13c0,0.3-0.1,0.4-0.4,0.4h-1.3
			c-0.3,0-0.4-0.1-0.4-0.4v-12.9c0-1.6-0.5-2.8-1.3-3.7c-0.9-0.9-2.1-1.4-3.5-1.4c-1.5,0-2.8,0.4-3.7,1.3s-1.4,2.1-1.4,3.6v13
			c0,0.3-0.1,0.4-0.4,0.4h-1.3c-0.3,0-0.4-0.1-0.4-0.4v-19.1c0-0.3,0.1-0.4,0.4-0.4h1.3c0.3,0,0.4,0.1,0.4,0.4v1.8
			c0,0.1,0,0.1,0.1,0.1h0.1c0.5-0.8,1.3-1.5,2.2-1.9c0.9-0.4,2-0.6,3.2-0.6c1.4,0,2.5,0.3,3.5,0.9s1.7,1.4,2.2,2.5
			c0,0.1,0.1,0.1,0.2,0c0.5-1.1,1.4-2,2.4-2.6s2.3-0.9,3.7-0.9C521.9,101.9,523.4,102.5,524.5,103.7L524.5,103.7z"/>
		<path class="st0" d="M541.7,119.7c0.9-0.6,1.6-1.4,2.1-2.4c0.1-0.2,0.3-0.3,0.5-0.2l1,0.5c0.2,0.1,0.3,0.3,0.2,0.5
			c-0.6,1.3-1.5,2.3-2.8,3.1s-2.7,1.1-4.4,1.1c-1.8,0-3.4-0.4-4.7-1.3s-2.2-2.1-2.7-3.7c-0.2-0.7-0.4-1.4-0.4-2.2s-0.1-1.8-0.1-3.1
			s0-2.3,0.1-2.9c0-0.7,0.1-1.3,0.3-1.8c0.4-1.7,1.3-3,2.6-4s2.9-1.5,4.8-1.5c2.2,0,3.9,0.6,5.2,1.7s2.1,2.7,2.4,4.6
			c0.1,0.5,0.1,1.1,0.2,1.8c0,0.7,0,1.5,0,2.5c0,0.3-0.1,0.4-0.4,0.4h-12.9c-0.1,0-0.2,0.1-0.2,0.2c0,1.7,0.1,2.8,0.2,3.4
			c0.3,1.3,0.9,2.3,2,3.1c1,0.8,2.3,1.1,3.8,1.1C539.8,120.6,540.8,120.3,541.7,119.7L541.7,119.7z M532.5,110.9
			c0,0.1,0,0.2,0.2,0.2h11c0.1,0,0.2-0.1,0.2-0.2c0-1.3-0.1-2.3-0.2-3c-0.3-1.3-0.9-2.3-1.9-3.1c-1-0.8-2.2-1.2-3.6-1.2
			s-2.6,0.4-3.5,1.1c-1,0.8-1.5,1.8-1.8,3C532.7,108.4,532.6,109.4,532.5,110.9L532.5,110.9z"/>
		<path class="st0" d="M563,103.8c1.2,1.2,1.9,2.9,1.9,4.9v13c0,0.3-0.1,0.4-0.4,0.4h-1.3c-0.3,0-0.4-0.1-0.4-0.4v-12.6
			c0-1.6-0.5-2.8-1.4-3.8s-2.2-1.5-3.7-1.5s-2.9,0.5-3.8,1.4c-1,1-1.5,2.2-1.5,3.8v12.7c0,0.3-0.1,0.4-0.4,0.4h-1.3
			c-0.3,0-0.4-0.1-0.4-0.4v-19.1c0-0.3,0.1-0.4,0.4-0.4h1.3c0.3,0,0.4,0.1,0.4,0.4v1.9c0,0.1,0,0.1,0.1,0.1c0,0,0.1,0,0.1-0.1
			c0.6-0.9,1.3-1.5,2.3-2s2-0.7,3.3-0.7C560.2,102,561.8,102.6,563,103.8L563,103.8z"/>
		<path class="st0" d="M577.7,104H573c-0.1,0-0.2,0.1-0.2,0.2v12.5c0,1.3,0.3,2.3,0.9,2.8c0.6,0.5,1.6,0.8,2.9,0.8h0.9
			c0.3,0,0.4,0.1,0.4,0.4v1.1c0,0.3-0.1,0.4-0.4,0.4h-1.2c-1.8,0-3.2-0.4-4.2-1.1s-1.4-2-1.4-3.9v-13c0-0.1,0-0.2-0.2-0.2h-2.4
			c-0.3,0-0.4-0.1-0.4-0.4v-1c0-0.3,0.1-0.4,0.4-0.4h2.4c0.1,0,0.2-0.1,0.2-0.2v-4.5c0-0.3,0.1-0.4,0.4-0.4h1.3
			c0.3,0,0.4,0.1,0.4,0.4v4.5c0,0.1,0,0.2,0.2,0.2h4.6c0.3,0,0.4,0.1,0.4,0.4v1C578.1,103.8,577.9,104,577.7,104L577.7,104z"/>
	</g>
</g>
<g>
	<path class="st1" d="M128.5,68.6l-16.9-50.2c-1.3-4-4.8-7-8.9-7.8L49.9,0.2c-4-0.8-8.3,0.6-11.1,3.7L3,44.1
		c-2.8,3.2-3.7,7.6-2.4,11.6l16.9,50.2c1.3,4,4.8,7,8.9,7.8L79.2,124c0.7,0.1,1.5,0.2,2.2,0.2c3.4,0,6.6-1.4,8.8-3.9L126,80.2
		C128.9,77,129.8,72.6,128.5,68.6 M121.7,76.2l-35.8,40.1c-1.4,1.5-3.5,2.2-5.5,1.8l-52.8-10.3c-2-0.4-3.7-1.9-4.4-3.8L6.3,53.8
		c-0.7-2-0.2-4.2,1.2-5.7L43.3,7.9C44.4,6.7,46,6,47.6,6c0.4,0,0.7,0,1.1,0.1l52.8,10.3c2.1,0.4,3.7,1.9,4.4,3.9l16.9,50.2
		C123.5,72.4,123.1,74.6,121.7,76.2"/>
	<g>
		<path class="st1" d="M176.6,35.4c-0.2,0.2-0.5,0.4-0.9,0.4h-10.4c-0.3,0-0.5,0.2-0.5,0.5v24.5c0,2.6,0.6,4.5,1.7,5.6
			s2.9,1.7,5.4,1.7h3.1c0.3,0,0.6,0.1,0.9,0.4c0.2,0.2,0.4,0.5,0.4,0.9V77c0,0.8-0.4,1.2-1.2,1.3l-5.3,0.1c-5.4,0-9.4-0.9-12-2.8
			c-2.6-1.8-4-5.3-4.1-10.4v-29c0-0.3-0.2-0.5-0.5-0.5h-5.8c-0.3,0-0.6-0.1-0.9-0.4c-0.2-0.2-0.4-0.5-0.4-0.9v-7.1
			c0-0.3,0.1-0.6,0.4-0.9c0.2-0.2,0.5-0.4,0.9-0.4h5.8c0.3,0,0.5-0.2,0.5-0.5V13.7c0-0.3,0.1-0.6,0.4-0.9c0.2-0.2,0.5-0.4,0.9-0.4
			h8.9c0.3,0,0.6,0.1,0.9,0.4c0.2,0.2,0.4,0.5,0.4,0.9v11.9c0,0.3,0.2,0.5,0.5,0.5h10.4c0.3,0,0.6,0.1,0.9,0.4
			c0.2,0.2,0.4,0.5,0.4,0.9v7.1C177,34.8,176.8,35.1,176.6,35.4L176.6,35.4z"/>
		<path class="st1" d="M227.4,52l-0.1,3.2c0,0.8-0.4,1.2-1.2,1.2h-31.9c-0.3,0-0.5,0.2-0.5,0.5c0.2,2.2,0.5,3.8,0.9,4.6
			c1.6,4.9,5.6,7.4,11.9,7.4c4.6,0,8.3-1.9,11-5.7c0.3-0.4,0.6-0.6,1-0.6c0.3,0,0.5,0.1,0.7,0.3l6.3,5.2c0.6,0.5,0.7,1,0.3,1.6
			c-2.1,3-4.9,5.3-8.4,6.9S210,79,205.7,79c-5.3,0-9.8-1.2-13.5-3.6s-6.4-5.7-8.1-10c-1.6-3.7-2.3-8.8-2.3-15.3
			c0-3.9,0.4-7.1,1.2-9.6c1.4-4.8,3.9-8.5,7.7-11.2s8.3-4.1,13.6-4.1c13.4,0,20.9,7,22.6,21C227.2,48,227.4,49.9,227.4,52L227.4,52z
			 M198.1,37.4c-1.7,1.3-2.8,3-3.5,5.2c-0.4,1.2-0.7,2.6-0.8,4.5c-0.1,0.3,0,0.5,0.4,0.5h20.7c0.3,0,0.5-0.2,0.5-0.5
			c-0.1-1.7-0.3-3-0.6-3.9c-0.6-2.4-1.8-4.3-3.6-5.7s-4.1-2-6.8-2C201.9,35.5,199.8,36.1,198.1,37.4L198.1,37.4z"/>
		<path class="st1" d="M271.9,30.2c3.3,3.3,4.9,7.7,4.9,13.3V77c0,0.3-0.1,0.6-0.4,0.9c-0.2,0.2-0.5,0.4-0.9,0.4h-9.4
			c-0.3,0-0.6-0.1-0.9-0.4S265,77.3,265,77V46c0-3.1-0.9-5.7-2.6-7.6s-4.1-2.9-7-2.9s-5.3,1-7.1,2.8c-1.8,1.9-2.7,4.4-2.7,7.5V77
			c0,0.3-0.1,0.6-0.4,0.9c-0.2,0.2-0.5,0.4-0.9,0.4H235c-0.3,0-0.6-0.1-0.9-0.4c-0.2-0.2-0.4-0.5-0.4-0.9V27.4
			c0-0.3,0.1-0.6,0.4-0.9s0.5-0.4,0.9-0.4h9.4c0.3,0,0.6,0.1,0.9,0.4s0.4,0.5,0.4,0.9v3.3c0,0.2,0.1,0.3,0.2,0.4
			c0.1,0.1,0.2,0,0.3-0.2c2.8-3.7,7-5.5,12.6-5.5C264.4,25.3,268.6,27,271.9,30.2L271.9,30.2z"/>
		<path class="st1" d="M316,27.6c3.3,1.5,5.8,3.5,7.5,6.2c1.8,2.6,2.6,5.6,2.6,8.9V77c0,0.3-0.1,0.6-0.4,0.9
			c-0.2,0.2-0.5,0.4-0.9,0.4h-9.4c-0.3,0-0.6-0.1-0.9-0.4s-0.4-0.5-0.4-0.9v-3.3c0-0.2-0.1-0.3-0.2-0.4c-0.1,0-0.3,0-0.4,0.2
			c-3.3,3.7-8.1,5.5-14.5,5.5c-5.1,0-9.3-1.3-12.6-3.9c-3.3-2.6-4.9-6.4-4.9-11.5s1.9-9.4,5.5-12.4c3.7-2.9,8.9-4.4,15.6-4.4h10.9
			c0.3,0,0.5-0.2,0.5-0.5v-2.5c0-2.7-0.8-4.7-2.3-6.2s-3.9-2.2-7-2.2c-2.6,0-4.7,0.5-6.3,1.4c-1.6,0.9-2.6,2.2-3,3.8
			c-0.2,0.8-0.7,1.2-1.4,1l-9.9-1.2c-0.3-0.1-0.6-0.2-0.9-0.4c-0.2-0.2-0.3-0.4-0.2-0.7c0.5-4.1,2.8-7.5,6.7-10.2
			c3.9-2.7,8.8-4,14.7-4C309,25.3,312.7,26.1,316,27.6L316,27.6z M310.8,67c2.4-1.8,3.6-4,3.6-6.7v-4.8c0-0.3-0.2-0.5-0.5-0.5h-8.6
			c-3.6,0-6.4,0.7-8.5,2c-2.1,1.4-3.1,3.3-3.1,5.8c0,2.2,0.8,3.9,2.4,5c1.6,1.2,3.6,1.8,6.2,1.8C305.5,69.6,308.4,68.8,310.8,67
			L310.8,67z"/>
		<path class="st1" d="M379.2,52c0,4.8-0.6,9.1-1.9,12.7c-1.5,4.5-3.9,8-7.2,10.5c-3.3,2.5-7.4,3.8-12.2,3.8s-8.7-1.8-11.7-5.4
			c-0.1-0.2-0.3-0.3-0.4-0.2s-0.2,0.2-0.2,0.4V77c0,0.3-0.1,0.6-0.4,0.9c-0.2,0.2-0.5,0.4-0.9,0.4h-9.4c-0.3,0-0.6-0.1-0.9-0.4
			s-0.4-0.5-0.4-0.9V8.1c0-0.3,0.1-0.6,0.4-0.9s0.5-0.4,0.9-0.4h9.4c0.3,0,0.6,0.1,0.9,0.4s0.4,0.5,0.4,0.9v22.1
			c0,0.2,0.1,0.3,0.2,0.4s0.3,0,0.4-0.1c2.9-3.5,6.8-5.2,11.6-5.2s9.2,1.3,12.5,3.8s5.7,6,7.3,10.5C378.6,43.4,379.2,47.5,379.2,52
			L379.2,52z M367.1,52.2c0-5.3-1-9.4-3.1-12.4c-1.8-2.8-4.5-4.3-8.1-4.3c-3.3,0-5.9,1.5-7.6,4.5c-1.7,2.8-2.5,6.8-2.5,12.1
			s0.8,9.2,2.3,11.8c1.8,3.3,4.4,4.9,7.9,4.9c1.9,0,3.6-0.4,5.1-1.3s2.7-2.1,3.6-3.6C366.3,61.1,367.1,57.2,367.1,52.2L367.1,52.2z"
			/>
		<path class="st1" d="M386.5,77.8c-0.2-0.2-0.4-0.5-0.4-0.9V8.1c0-0.3,0.1-0.6,0.4-0.9c0.2-0.2,0.5-0.4,0.9-0.4h9.4
			c0.3,0,0.6,0.1,0.9,0.4s0.4,0.5,0.4,0.9V77c0,0.3-0.1,0.6-0.4,0.9c-0.2,0.2-0.5,0.4-0.9,0.4h-9.4C387,78.2,386.8,78.1,386.5,77.8z
			"/>
		<path class="st1" d="M450.4,52l-0.1,3.2c0,0.8-0.4,1.2-1.2,1.2h-31.9c-0.3,0-0.5,0.2-0.5,0.5c0.2,2.2,0.5,3.8,0.9,4.6
			c1.6,4.9,5.6,7.4,11.9,7.4c4.6,0,8.3-1.9,11-5.7c0.3-0.4,0.6-0.6,1-0.6c0.3,0,0.5,0.1,0.7,0.3l6.3,5.2c0.6,0.5,0.7,1,0.3,1.6
			c-2.1,3-4.9,5.3-8.4,6.9S433,79,428.7,79c-5.3,0-9.8-1.2-13.5-3.6s-6.4-5.7-8.1-10c-1.6-3.7-2.3-8.8-2.3-15.3
			c0-3.9,0.4-7.1,1.2-9.6c1.4-4.8,3.9-8.5,7.7-11.2s8.3-4.1,13.6-4.1c13.4,0,20.9,7,22.6,21C450.3,48,450.4,49.9,450.4,52L450.4,52z
			 M421.1,37.4c-1.7,1.3-2.8,3-3.5,5.2c-0.4,1.2-0.7,2.6-0.8,4.5c-0.1,0.3,0,0.5,0.4,0.5h20.7c0.3,0,0.5-0.2,0.5-0.5
			c-0.1-1.7-0.3-3-0.6-3.9c-0.6-2.4-1.8-4.3-3.6-5.7s-4.1-2-6.8-2C424.9,35.5,422.8,36.1,421.1,37.4L421.1,37.4z"/>
		<path class="st1" d="M458.9,76.4c-1.4-1.4-2-3.1-2-5.2s0.7-3.8,2-5.2s3.1-2,5.2-2s3.8,0.7,5.1,2s2,3.1,2,5.2s-0.7,3.8-2,5.2
			c-1.4,1.4-3.1,2-5.1,2S460.2,77.7,458.9,76.4z"/>
		<path class="st1" d="M511.4,27.6c3.3,1.5,5.8,3.5,7.5,6.2c1.8,2.6,2.7,5.6,2.7,8.9V77c0,0.3-0.1,0.6-0.4,0.9
			c-0.2,0.2-0.5,0.4-0.9,0.4H511c-0.3,0-0.6-0.1-0.9-0.4s-0.4-0.5-0.4-0.9v-3.3c0-0.2-0.1-0.3-0.2-0.4c-0.1,0-0.3,0-0.4,0.2
			c-3.3,3.7-8.2,5.5-14.5,5.5c-5.1,0-9.3-1.3-12.6-3.9c-3.3-2.6-4.9-6.4-4.9-11.5s1.9-9.4,5.5-12.4c3.7-2.9,8.9-4.4,15.6-4.4h10.9
			c0.3,0,0.5-0.2,0.5-0.5v-2.5c0-2.7-0.8-4.7-2.3-6.2s-3.9-2.2-7-2.2c-2.6,0-4.7,0.5-6.3,1.4c-1.6,0.9-2.6,2.2-3,3.8
			c-0.2,0.8-0.7,1.2-1.4,1l-9.9-1.2c-0.3-0.1-0.6-0.2-0.9-0.4c-0.2-0.2-0.3-0.4-0.2-0.7c0.5-4.1,2.8-7.5,6.7-10.2
			c3.9-2.7,8.8-4,14.7-4C504.4,25.3,508.2,26.1,511.4,27.6L511.4,27.6z M506.2,67c2.4-1.8,3.6-4,3.6-6.7v-4.8c0-0.3-0.2-0.5-0.5-0.5
			h-8.6c-3.6,0-6.4,0.7-8.5,2c-2.1,1.4-3.1,3.3-3.1,5.8c0,2.2,0.8,3.9,2.4,5c1.6,1.2,3.6,1.8,6.2,1.8C501,69.6,503.8,68.8,506.2,67
			L506.2,67z"/>
		<path class="st1" d="M537.2,76.9c-3.2-1.3-5.7-3-7.5-5.2S527,67,527,64.3v-0.9c0-0.3,0.1-0.6,0.4-0.9c0.2-0.2,0.5-0.4,0.9-0.4h9
			c0.3,0,0.6,0.1,0.9,0.4s0.4,0.5,0.4,0.9v0.2c0,1.7,0.9,3.2,2.8,4.4s4.2,1.9,7.1,1.9s4.9-0.6,6.6-1.7s2.5-2.5,2.5-4.2
			c0-1.6-0.7-2.7-2.1-3.5s-3.7-1.6-6.8-2.5l-3.9-1.2c-3.5-1-6.4-2.1-8.8-3.3c-2.4-1.2-4.4-2.7-6-4.7s-2.4-4.6-2.4-7.7
			c0-4.8,1.9-8.5,5.6-11.4s8.7-4.2,14.8-4.2c4.1,0,7.8,0.7,10.9,2c3.1,1.3,5.5,3.2,7.2,5.5s2.5,5,2.5,8c0,0.3-0.1,0.6-0.4,0.9
			c-0.2,0.2-0.5,0.4-0.9,0.4h-8.7c-0.3,0-0.6-0.1-0.9-0.4s-0.4-0.5-0.4-0.9c0-1.8-0.9-3.2-2.6-4.4s-4.1-1.8-7.1-1.8
			c-2.7,0-4.8,0.5-6.5,1.5s-2.5,2.4-2.5,4.1c0,1.6,0.8,2.9,2.4,3.7s4.3,1.8,8,2.8l2.2,0.6c3.6,1.1,6.6,2.2,9.1,3.3
			c2.4,1.1,4.5,2.7,6.2,4.7s2.5,4.6,2.5,7.8c0,4.8-1.9,8.6-5.7,11.4s-8.9,4.1-15.2,4.1C544.1,78.8,540.4,78.2,537.2,76.9z"/>
		<path class="st1" d="M642.9,30.1c3,3.2,4.4,7.5,4.4,13.2V77c0,0.3-0.1,0.6-0.4,0.9c-0.2,0.2-0.5,0.4-0.9,0.4h-9.3
			c-0.3,0-0.6-0.1-0.9-0.4s-0.4-0.5-0.4-0.9V45.7c0-3.1-0.8-5.6-2.5-7.4c-1.7-1.8-3.9-2.8-6.7-2.8s-5.1,0.9-6.8,2.8
			c-1.8,1.8-2.7,4.3-2.7,7.3V77c0,0.3-0.1,0.6-0.4,0.9c-0.2,0.2-0.5,0.4-0.9,0.4h-9.3c-0.3,0-0.6-0.1-0.9-0.4s-0.4-0.5-0.4-0.9V45.7
			c0-3.1-0.8-5.6-2.5-7.4c-1.7-1.8-3.9-2.8-6.7-2.8c-2.6,0-4.7,0.8-6.4,2.2c-1.7,1.5-2.6,3.5-2.9,6.1v33.1c0,0.3-0.1,0.6-0.4,0.9
			c-0.2,0.2-0.5,0.4-0.9,0.4h-9.4c-0.3,0-0.6-0.1-0.9-0.4s-0.4-0.5-0.4-0.9V27.4c0-0.3,0.1-0.6,0.4-0.9s0.5-0.4,0.9-0.4h9.4
			c0.3,0,0.6,0.1,0.9,0.4s0.4,0.5,0.4,0.9v3.4c0,0.2,0.1,0.3,0.2,0.4c0.1,0.1,0.3,0,0.4-0.2c1.5-1.9,3.3-3.3,5.5-4.2
			s4.7-1.4,7.4-1.4c3.3,0,6.2,0.7,8.8,2s4.5,3.3,5.8,5.9c0.2,0.3,0.4,0.3,0.7,0c1.5-2.7,3.6-4.7,6.2-6s5.6-1.9,8.9-1.9
			C635.8,25.3,639.9,26.9,642.9,30.1L642.9,30.1z"/>
	</g>
	<g>
		<path class="st1" d="M159.6,103.7c1.2,1.2,1.8,2.8,1.8,4.8v13.2c0,0.3-0.1,0.4-0.4,0.4h-1.3c-0.3,0-0.4-0.1-0.4-0.4v-1.9
			c0-0.1,0-0.1-0.1-0.1s-0.1,0-0.1,0c-0.7,0.9-1.6,1.5-2.7,2c-1.1,0.4-2.3,0.7-3.6,0.7c-1.8,0-3.4-0.5-4.6-1.4s-1.9-2.3-1.9-4.2
			s0.7-3.5,2.2-4.6s3.4-1.7,6-1.7h4.7c0.1,0,0.2-0.1,0.2-0.2v-1.8c0-1.5-0.4-2.7-1.2-3.5c-0.8-0.9-2.1-1.3-3.8-1.3
			c-1.3,0-2.4,0.3-3.3,0.8c-0.9,0.6-1.4,1.3-1.6,2.2c-0.1,0.3-0.2,0.4-0.5,0.4l-1.4-0.2c-0.3-0.1-0.4-0.2-0.4-0.3
			c0.2-1.4,1-2.6,2.3-3.4s2.9-1.3,4.9-1.3C156.7,101.9,158.4,102.5,159.6,103.7L159.6,103.7z M157.5,119.4c1.2-0.8,1.8-1.9,1.8-3.4
			v-3.6c0-0.1-0.1-0.2-0.2-0.2h-4.5c-1.9,0-3.4,0.4-4.5,1.2c-1.1,0.8-1.7,1.9-1.7,3.3c0,1.3,0.4,2.3,1.3,2.9s2,1,3.4,1
			C154.9,120.6,156.3,120.2,157.5,119.4L157.5,119.4z"/>
		<path class="st1" d="M173.9,104h-4.6c-0.1,0-0.2,0.1-0.2,0.2v12.5c0,1.3,0.3,2.3,0.9,2.8c0.6,0.5,1.6,0.8,2.9,0.8h0.9
			c0.3,0,0.4,0.1,0.4,0.4v1.1c0,0.3-0.1,0.4-0.4,0.4h-1.2c-1.8,0-3.2-0.4-4.2-1.1s-1.4-2-1.4-3.9v-13c0-0.1-0.1-0.2-0.2-0.2h-2.4
			c-0.3,0-0.4-0.1-0.4-0.4v-1c0-0.3,0.1-0.4,0.4-0.4h2.4c0.1,0,0.2-0.1,0.2-0.2v-4.5c0-0.3,0.1-0.4,0.4-0.4h1.3
			c0.3,0,0.4,0.1,0.4,0.4v4.5c0,0.1,0.1,0.2,0.2,0.2h4.6c0.3,0,0.4,0.1,0.4,0.4v1C174.3,103.8,174.2,104,173.9,104L173.9,104z"/>
		<path class="st1" d="M186.3,104h-4.6c-0.1,0-0.2,0.1-0.2,0.2v12.5c0,1.3,0.3,2.3,0.9,2.8c0.6,0.5,1.6,0.8,2.9,0.8h0.9
			c0.3,0,0.4,0.1,0.4,0.4v1.1c0,0.3-0.1,0.4-0.4,0.4H185c-1.8,0-3.2-0.4-4.2-1.1c-0.9-0.7-1.4-2-1.4-3.9v-13c0-0.1-0.1-0.2-0.2-0.2
			H177c-0.3,0-0.4-0.1-0.4-0.4v-1c0-0.3,0.1-0.4,0.4-0.4h2.4c0.1,0,0.2-0.1,0.2-0.2v-4.5c0-0.3,0.1-0.4,0.4-0.4h1.3
			c0.3,0,0.4,0.1,0.4,0.4v4.5c0,0.1,0.1,0.2,0.2,0.2h4.6c0.3,0,0.4,0.1,0.4,0.4v1C186.7,103.8,186.6,104,186.3,104L186.3,104z"/>
		<path class="st1" d="M202.8,103.7c1.2,1.2,1.8,2.8,1.8,4.8v13.2c0,0.3-0.1,0.4-0.4,0.4h-1.3c-0.3,0-0.4-0.1-0.4-0.4v-1.9
			c0-0.1,0-0.1-0.1-0.1s-0.1,0-0.1,0c-0.7,0.9-1.6,1.5-2.7,2s-2.3,0.7-3.6,0.7c-1.8,0-3.4-0.5-4.6-1.4s-1.9-2.3-1.9-4.2
			s0.7-3.5,2.2-4.6c1.4-1.1,3.4-1.7,6-1.7h4.7c0.1,0,0.2-0.1,0.2-0.2v-1.8c0-1.5-0.4-2.7-1.2-3.5c-0.8-0.9-2.1-1.3-3.8-1.3
			c-1.3,0-2.4,0.3-3.3,0.8s-1.4,1.3-1.6,2.2c-0.1,0.3-0.2,0.4-0.5,0.4l-1.4-0.2c-0.3-0.1-0.4-0.2-0.4-0.3c0.2-1.4,1-2.6,2.3-3.4
			s2.9-1.3,4.9-1.3C199.8,101.9,201.6,102.5,202.8,103.7L202.8,103.7z M200.7,119.4c1.2-0.8,1.8-1.9,1.8-3.4v-3.6
			c0-0.1-0.1-0.2-0.2-0.2h-4.5c-1.9,0-3.4,0.4-4.5,1.2c-1.1,0.8-1.7,1.9-1.7,3.3c0,1.3,0.4,2.3,1.3,2.9s2,1,3.4,1
			C198,120.6,199.4,120.2,200.7,119.4L200.7,119.4z"/>
		<path class="st1" d="M211.6,121c-1.3-1-2.2-2.3-2.6-3.9c-0.3-1.3-0.5-2.9-0.5-4.9s0.2-3.6,0.5-4.9c0.4-1.6,1.3-2.9,2.6-3.9
			s2.9-1.5,4.8-1.5s3.5,0.5,4.8,1.4s2.2,2.1,2.6,3.6c0.1,0.4,0.2,0.7,0.2,1.1v0.1c0,0.2-0.1,0.3-0.4,0.4l-1.3,0.2h-0.1
			c-0.2,0-0.3-0.1-0.4-0.4l-0.1-0.6c-0.2-1.1-0.9-2-1.9-2.8s-2.2-1.1-3.6-1.1s-2.6,0.4-3.6,1.2c-1,0.8-1.6,1.8-1.8,3
			c-0.2,1-0.4,2.4-0.4,4.2s0.1,3.2,0.4,4.2c0.3,1.3,0.9,2.3,1.8,3.1c1,0.8,2.2,1.1,3.6,1.1s2.6-0.4,3.6-1.1s1.6-1.7,1.8-2.8v-0.2
			c0.1-0.3,0.2-0.4,0.5-0.4l1.2,0.2c0.3,0.1,0.4,0.2,0.4,0.4l-0.2,0.7c-0.4,1.5-1.2,2.7-2.6,3.6c-1.4,0.9-3,1.4-4.8,1.4
			S212.9,122,211.6,121L211.6,121z"/>
		<path class="st1" d="M227.8,121.7V94.9c0-0.3,0.1-0.4,0.4-0.4h1.3c0.3,0,0.4,0.1,0.4,0.4v16.9c0,0.1,0,0.1,0.1,0.1s0.1,0,0.1,0
			l9.1-9.4c0.1-0.1,0.3-0.2,0.5-0.2h1.6c0.2,0,0.3,0.1,0.3,0.1c0,0.1,0,0.2-0.1,0.3l-5,5.4c-0.1,0.1-0.1,0.1,0,0.2l6.1,13.4v0.2
			c0,0.2-0.1,0.3-0.4,0.3h-1.4c-0.2,0-0.4-0.1-0.4-0.3l-5.4-12.1c-0.1-0.1-0.1-0.1-0.2,0l-4.8,5c-0.1,0.1-0.1,0.1-0.1,0.2v6.9
			c0,0.3-0.1,0.4-0.4,0.4h-1.3C227.9,122.1,227.8,122,227.8,121.7L227.8,121.7z"/>
		<path class="st1" d="M254.1,121.6c-1.1-0.5-1.9-1.1-2.5-1.9s-0.9-1.7-0.9-2.6v-0.5c0-0.3,0.1-0.4,0.4-0.4h1.2
			c0.3,0,0.4,0.1,0.4,0.4v0.4c0,1,0.5,1.8,1.5,2.5s2.2,1.1,3.7,1.1s2.7-0.4,3.6-1.1s1.4-1.6,1.4-2.6c0-0.7-0.2-1.3-0.7-1.8
			s-1-0.8-1.7-1.1c-0.6-0.2-1.6-0.6-2.9-1c-1.5-0.4-2.7-0.9-3.6-1.3c-0.9-0.4-1.6-1-2.3-1.7c-0.6-0.7-0.9-1.6-0.9-2.8
			c0-1.6,0.6-2.9,1.9-3.8s3-1.4,5-1.4c1.4,0,2.6,0.2,3.7,0.7s1.9,1.1,2.5,1.9s0.9,1.7,0.9,2.7v0.1c0,0.3-0.1,0.4-0.4,0.4h-1.2
			c-0.3,0-0.4-0.1-0.4-0.4v-0.1c0-1-0.5-1.8-1.4-2.5s-2.2-1-3.7-1s-2.7,0.3-3.6,0.9c-0.9,0.6-1.3,1.5-1.3,2.5s0.4,1.8,1.2,2.2
			s2.1,1,3.9,1.5c1.5,0.4,2.8,0.9,3.6,1.3c0.9,0.4,1.7,1,2.4,1.7s1,1.7,1,2.8c0,1.7-0.6,3-1.9,4s-3,1.5-5.1,1.5
			C256.4,122.3,255.2,122.1,254.1,121.6L254.1,121.6z"/>
		<path class="st1" d="M281.3,102.2h1.3c0.3,0,0.4,0.1,0.4,0.4v19.1c0,0.3-0.1,0.4-0.4,0.4h-1.3c-0.3,0-0.4-0.1-0.4-0.4v-1.9
			c0-0.1,0-0.1-0.1-0.1c0,0-0.1,0-0.1,0.1c-0.5,0.9-1.3,1.5-2.2,2c-0.9,0.4-2,0.7-3.3,0.7c-2,0-3.6-0.6-4.9-1.7s-1.9-2.8-1.9-4.8
			v-13.3c0-0.3,0.1-0.4,0.4-0.4h1.3c0.3,0,0.4,0.1,0.4,0.4v12.7c0,1.6,0.5,2.8,1.4,3.8s2.2,1.4,3.7,1.4s2.9-0.5,3.9-1.4
			s1.5-2.2,1.5-3.8v-12.7C280.9,102.3,281.1,102.2,281.3,102.2L281.3,102.2z"/>
		<path class="st1" d="M297.9,102.5c0.2,0.1,0.3,0.2,0.2,0.5l-0.4,1.3c-0.1,0.3-0.2,0.3-0.5,0.2c-0.5-0.2-1.2-0.3-2-0.3
			c-1.5,0-2.7,0.6-3.6,1.7c-1,1.1-1.4,2.4-1.4,4v11.8c0,0.3-0.1,0.4-0.4,0.4h-1.3c-0.3,0-0.4-0.1-0.4-0.4v-19.1
			c0-0.3,0.1-0.4,0.4-0.4h1.3c0.3,0,0.4,0.1,0.4,0.4v2.7c0,0.1,0,0.1,0.1,0.1c0,0,0.1,0,0.1-0.1c0.5-1,1.3-1.8,2.1-2.4
			s1.9-0.9,3.1-0.9C296.5,102,297.3,102.2,297.9,102.5L297.9,102.5z"/>
		<path class="st1" d="M304.7,97.4c-0.6,0.7-0.9,1.9-0.9,3.6v1c0,0.1,0,0.2,0.2,0.2h4.6c0.3,0,0.4,0.1,0.4,0.4v1.1
			c0,0.3-0.1,0.4-0.4,0.4H304c-0.1,0-0.2,0.1-0.2,0.2v17.4c0,0.3-0.1,0.4-0.4,0.4h-1.3c-0.3,0-0.4-0.1-0.4-0.4v-17.4
			c0-0.1,0-0.2-0.2-0.2H299c-0.3,0-0.4-0.1-0.4-0.4v-1.1c0-0.3,0.1-0.4,0.4-0.4h2.6c0.1,0,0.2-0.1,0.2-0.2v-1c0-1.6,0.2-2.8,0.5-3.7
			s1-1.6,1.8-2.1c0.9-0.5,2.1-0.7,3.6-0.7h1c0.3,0,0.4,0.1,0.4,0.4V96c0,0.3-0.1,0.4-0.4,0.4h-0.9C306.3,96.3,305.2,96.7,304.7,97.4
			L304.7,97.4z"/>
		<path class="st1" d="M324.5,103.7c1.2,1.2,1.8,2.8,1.8,4.8v13.2c0,0.3-0.1,0.4-0.4,0.4h-1.3c-0.3,0-0.4-0.1-0.4-0.4v-1.9
			c0-0.1,0-0.1-0.1-0.1s-0.1,0-0.1,0c-0.7,0.9-1.6,1.5-2.7,2s-2.3,0.7-3.6,0.7c-1.8,0-3.4-0.5-4.6-1.4s-1.9-2.3-1.9-4.2
			s0.7-3.5,2.2-4.6s3.4-1.7,6-1.7h4.7c0.1,0,0.2-0.1,0.2-0.2v-1.8c0-1.5-0.4-2.7-1.2-3.5c-0.8-0.9-2.1-1.3-3.8-1.3
			c-1.3,0-2.5,0.3-3.3,0.8s-1.4,1.3-1.6,2.2c-0.1,0.3-0.2,0.4-0.5,0.4l-1.4-0.2c-0.3-0.1-0.4-0.2-0.4-0.3c0.2-1.4,1-2.6,2.3-3.4
			s2.9-1.3,4.9-1.3C321.6,101.9,323.3,102.5,324.5,103.7L324.5,103.7z M322.4,119.4c1.2-0.8,1.8-1.9,1.8-3.4v-3.6
			c0-0.1,0-0.2-0.2-0.2h-4.5c-1.9,0-3.4,0.4-4.5,1.2c-1.1,0.8-1.7,1.9-1.7,3.3c0,1.3,0.5,2.3,1.3,2.9c0.9,0.7,2,1,3.4,1
			C319.7,120.6,321.2,120.2,322.4,119.4L322.4,119.4z"/>
		<path class="st1" d="M333.3,121c-1.3-1-2.2-2.3-2.6-3.9c-0.3-1.3-0.5-2.9-0.5-4.9s0.2-3.6,0.5-4.9c0.4-1.6,1.3-2.9,2.6-3.9
			c1.3-1,2.9-1.5,4.8-1.5s3.5,0.5,4.8,1.4s2.2,2.1,2.6,3.6c0.1,0.4,0.2,0.7,0.2,1.1v0.1c0,0.2-0.1,0.3-0.4,0.4l-1.3,0.2h-0.1
			c-0.2,0-0.3-0.1-0.4-0.4l-0.1-0.6c-0.2-1.1-0.9-2-1.9-2.8s-2.2-1.1-3.6-1.1s-2.6,0.4-3.6,1.2c-1,0.8-1.6,1.8-1.8,3
			c-0.2,1-0.4,2.4-0.4,4.2s0.1,3.2,0.4,4.2c0.3,1.3,0.9,2.3,1.8,3.1s2.2,1.1,3.6,1.1s2.6-0.4,3.6-1.1s1.6-1.7,1.8-2.8v-0.2
			c0-0.3,0.2-0.4,0.5-0.4l1.2,0.2c0.3,0.1,0.4,0.2,0.4,0.4l-0.2,0.7c-0.4,1.5-1.2,2.7-2.6,3.6s-3,1.4-4.8,1.4S334.6,122,333.3,121
			L333.3,121z"/>
		<path class="st1" d="M360.1,119.7c0.9-0.6,1.6-1.4,2.1-2.4c0.1-0.2,0.3-0.3,0.5-0.2l1,0.5c0.2,0.1,0.3,0.3,0.2,0.5
			c-0.6,1.3-1.5,2.3-2.8,3.1s-2.7,1.1-4.4,1.1c-1.8,0-3.4-0.4-4.7-1.3s-2.2-2.1-2.6-3.7c-0.2-0.7-0.4-1.4-0.4-2.2s-0.1-1.8-0.1-3.1
			s0-2.3,0.1-2.9c0-0.7,0.1-1.3,0.3-1.8c0.4-1.7,1.3-3,2.6-4c1.3-1,2.9-1.5,4.8-1.5c2.2,0,3.9,0.6,5.2,1.7s2.1,2.7,2.4,4.6
			c0.1,0.5,0.1,1.1,0.2,1.8s0,1.5,0,2.5c0,0.3-0.1,0.4-0.4,0.4h-12.9c-0.1,0-0.2,0.1-0.2,0.2c0,1.7,0.1,2.8,0.2,3.4
			c0.3,1.3,0.9,2.3,2,3.1c1,0.8,2.3,1.1,3.9,1.1C358.2,120.6,359.2,120.3,360.1,119.7L360.1,119.7z M350.9,110.9
			c0,0.1,0,0.2,0.2,0.2h11c0.1,0,0.2-0.1,0.2-0.2c0-1.3-0.1-2.3-0.2-3c-0.3-1.3-0.9-2.3-1.9-3.1c-1-0.8-2.2-1.2-3.6-1.2
			s-2.6,0.4-3.5,1.1c-1,0.8-1.5,1.8-1.8,3C351.1,108.4,351,109.4,350.9,110.9L350.9,110.9z"/>
		<path class="st1" d="M399.2,103.7c1.2,1.2,1.7,2.8,1.7,4.8v13.3c0,0.3-0.1,0.4-0.4,0.4h-1.3c-0.3,0-0.4-0.1-0.4-0.4v-12.9
			c0-1.6-0.5-2.8-1.4-3.7c-0.9-0.9-2.1-1.4-3.5-1.4c-1.5,0-2.8,0.4-3.7,1.3s-1.4,2.1-1.4,3.6v13c0,0.3-0.1,0.4-0.4,0.4h-1.3
			c-0.3,0-0.4-0.1-0.4-0.4v-12.9c0-1.6-0.5-2.8-1.3-3.7c-0.9-0.9-2.1-1.4-3.5-1.4c-1.5,0-2.8,0.4-3.7,1.3s-1.4,2.1-1.4,3.6v13
			c0,0.3-0.1,0.4-0.4,0.4h-1.3c-0.3,0-0.4-0.1-0.4-0.4v-19.1c0-0.3,0.1-0.4,0.4-0.4h1.3c0.3,0,0.4,0.1,0.4,0.4v1.8
			c0,0.1,0,0.1,0.1,0.1h0.1c0.5-0.8,1.3-1.5,2.2-1.9c0.9-0.4,2-0.6,3.2-0.6c1.4,0,2.5,0.3,3.5,0.9s1.7,1.4,2.2,2.5
			c0,0.1,0.1,0.1,0.2,0c0.5-1.1,1.4-2,2.4-2.6s2.3-0.9,3.7-0.9C396.6,101.9,398.1,102.5,399.2,103.7L399.2,103.7z"/>
		<path class="st1" d="M417.7,103.7c1.2,1.2,1.8,2.8,1.8,4.8v13.2c0,0.3-0.1,0.4-0.4,0.4h-1.3c-0.3,0-0.4-0.1-0.4-0.4v-1.9
			c0-0.1,0-0.1-0.1-0.1s-0.1,0-0.1,0c-0.7,0.9-1.6,1.5-2.7,2s-2.3,0.7-3.6,0.7c-1.8,0-3.4-0.5-4.6-1.4s-1.9-2.3-1.9-4.2
			s0.7-3.5,2.2-4.6s3.4-1.7,6-1.7h4.7c0.1,0,0.2-0.1,0.2-0.2v-1.8c0-1.5-0.4-2.7-1.2-3.5c-0.8-0.9-2.1-1.3-3.8-1.3
			c-1.3,0-2.5,0.3-3.3,0.8s-1.4,1.3-1.6,2.2c-0.1,0.3-0.2,0.4-0.5,0.4l-1.4-0.2c-0.3-0.1-0.4-0.2-0.4-0.3c0.2-1.4,1-2.6,2.3-3.4
			s2.9-1.3,4.9-1.3C414.7,101.9,416.5,102.5,417.7,103.7L417.7,103.7z M415.6,119.4c1.2-0.8,1.8-1.9,1.8-3.4v-3.6
			c0-0.1,0-0.2-0.2-0.2h-4.5c-1.9,0-3.4,0.4-4.5,1.2c-1.1,0.8-1.7,1.9-1.7,3.3c0,1.3,0.5,2.3,1.3,2.9c0.9,0.7,2,1,3.4,1
			C412.9,120.6,414.4,120.2,415.6,119.4L415.6,119.4z"/>
		<path class="st1" d="M436.8,103.8c1.2,1.2,1.9,2.9,1.9,4.9v13c0,0.3-0.1,0.4-0.4,0.4H437c-0.3,0-0.4-0.1-0.4-0.4v-12.6
			c0-1.6-0.5-2.8-1.4-3.8s-2.2-1.5-3.7-1.5s-2.9,0.5-3.8,1.4s-1.5,2.2-1.5,3.8v12.7c0,0.3-0.1,0.4-0.4,0.4h-1.3
			c-0.3,0-0.4-0.1-0.4-0.4v-19.1c0-0.3,0.1-0.4,0.4-0.4h1.3c0.3,0,0.4,0.1,0.4,0.4v1.9c0,0.1,0,0.1,0.1,0.1c0,0,0.1,0,0.1-0.1
			c0.6-0.9,1.3-1.5,2.3-2s2-0.7,3.3-0.7C433.9,102,435.6,102.6,436.8,103.8L436.8,103.8z"/>
		<path class="st1" d="M455.4,103.7c1.2,1.2,1.8,2.8,1.8,4.8v13.2c0,0.3-0.1,0.4-0.4,0.4h-1.3c-0.3,0-0.4-0.1-0.4-0.4v-1.9
			c0-0.1,0-0.1-0.1-0.1s-0.1,0-0.1,0c-0.7,0.9-1.6,1.5-2.7,2s-2.3,0.7-3.6,0.7c-1.8,0-3.4-0.5-4.6-1.4s-1.9-2.3-1.9-4.2
			s0.7-3.5,2.2-4.6s3.4-1.7,6-1.7h4.7c0.1,0,0.2-0.1,0.2-0.2v-1.8c0-1.5-0.4-2.7-1.2-3.5c-0.8-0.9-2.1-1.3-3.8-1.3
			c-1.3,0-2.5,0.3-3.3,0.8s-1.4,1.3-1.6,2.2c-0.1,0.3-0.2,0.4-0.5,0.4l-1.4-0.2c-0.3-0.1-0.4-0.2-0.4-0.3c0.2-1.4,1-2.6,2.3-3.4
			s2.9-1.3,4.9-1.3C452.5,101.9,454.2,102.5,455.4,103.7L455.4,103.7z M453.3,119.4c1.2-0.8,1.8-1.9,1.8-3.4v-3.6
			c0-0.1,0-0.2-0.2-0.2h-4.5c-1.9,0-3.4,0.4-4.5,1.2c-1.1,0.8-1.7,1.9-1.7,3.3c0,1.3,0.5,2.3,1.3,2.9c0.9,0.7,2,1,3.4,1
			C450.6,120.6,452.1,120.2,453.3,119.4L453.3,119.4z"/>
		<path class="st1" d="M474.5,102.2h1.3c0.3,0,0.4,0.1,0.4,0.4v19.1c0,3-0.9,5.1-2.7,6.5c-1.8,1.3-4.3,1.9-7.6,1.8
			c-0.3,0-0.4-0.2-0.4-0.4v-1.1c0-0.3,0.1-0.4,0.4-0.4c2.8,0.1,4.9-0.4,6.2-1.4s2-2.7,2-5v-2c0-0.1,0-0.1-0.1-0.1c0,0-0.1,0-0.1,0.1
			c-1.2,1.8-3,2.7-5.4,2.7c-1.7,0-3.2-0.5-4.5-1.4s-2.1-2.2-2.6-3.9c-0.3-1.1-0.4-2.7-0.4-4.9c0-2.3,0.2-4,0.5-5.1
			c0.4-1.6,1.2-2.8,2.5-3.8s2.7-1.4,4.5-1.4c2.4,0,4.2,0.9,5.5,2.7c0,0.1,0.1,0.1,0.1,0s0.1-0.1,0.1-0.1v-1.9
			C474.1,102.4,474.2,102.2,474.5,102.2L474.5,102.2z M474.1,114.9c0-0.6,0-1.5,0-2.7s0-2.1,0-2.7s-0.1-1.1-0.2-1.5
			c-0.2-1.2-0.8-2.2-1.7-3s-2-1.2-3.4-1.2s-2.5,0.4-3.5,1.2c-0.9,0.8-1.6,1.8-1.9,3c-0.2,0.8-0.4,2.2-0.4,4.2s0.1,3.3,0.4,4.2
			c0.3,1.2,0.9,2.2,1.9,3s2.1,1.2,3.5,1.2s2.6-0.4,3.5-1.2c0.9-0.8,1.4-1.8,1.6-3C474,115.9,474,115.4,474.1,114.9L474.1,114.9z"/>
		<path class="st1" d="M491.6,119.7c0.9-0.6,1.6-1.4,2.1-2.4c0.1-0.2,0.3-0.3,0.5-0.2l1,0.5c0.2,0.1,0.3,0.3,0.2,0.5
			c-0.6,1.3-1.5,2.3-2.8,3.1s-2.7,1.1-4.4,1.1c-1.8,0-3.4-0.4-4.7-1.3s-2.2-2.1-2.6-3.7c-0.2-0.7-0.4-1.4-0.4-2.2s-0.1-1.8-0.1-3.1
			s0-2.3,0.1-2.9c0-0.7,0.1-1.3,0.3-1.8c0.4-1.7,1.3-3,2.6-4c1.3-1,2.9-1.5,4.8-1.5c2.2,0,3.9,0.6,5.2,1.7s2.1,2.7,2.4,4.6
			c0.1,0.5,0.1,1.1,0.2,1.8s0,1.5,0,2.5c0,0.3-0.1,0.4-0.4,0.4h-12.9c-0.1,0-0.2,0.1-0.2,0.2c0,1.7,0.1,2.8,0.2,3.4
			c0.3,1.3,0.9,2.3,2,3.1c1,0.8,2.3,1.1,3.9,1.1C489.6,120.6,490.7,120.3,491.6,119.7L491.6,119.7z M482.4,110.9
			c0,0.1,0,0.2,0.2,0.2h11c0.1,0,0.2-0.1,0.2-0.2c0-1.3-0.1-2.3-0.2-3c-0.3-1.3-0.9-2.3-1.9-3.1c-1-0.8-2.2-1.2-3.6-1.2
			s-2.6,0.4-3.5,1.1c-1,0.8-1.5,1.8-1.8,3C482.5,108.4,482.5,109.4,482.4,110.9L482.4,110.9z"/>
		<path class="st1" d="M524.5,103.7c1.2,1.2,1.7,2.8,1.7,4.8v13.3c0,0.3-0.1,0.4-0.4,0.4h-1.3c-0.3,0-0.4-0.1-0.4-0.4v-12.9
			c0-1.6-0.5-2.8-1.4-3.7c-0.9-0.9-2.1-1.4-3.5-1.4c-1.5,0-2.8,0.4-3.7,1.3s-1.4,2.1-1.4,3.6v13c0,0.3-0.1,0.4-0.4,0.4h-1.3
			c-0.3,0-0.4-0.1-0.4-0.4v-12.9c0-1.6-0.5-2.8-1.3-3.7c-0.9-0.9-2.1-1.4-3.5-1.4c-1.5,0-2.8,0.4-3.7,1.3s-1.4,2.1-1.4,3.6v13
			c0,0.3-0.1,0.4-0.4,0.4h-1.3c-0.3,0-0.4-0.1-0.4-0.4v-19.1c0-0.3,0.1-0.4,0.4-0.4h1.3c0.3,0,0.4,0.1,0.4,0.4v1.8
			c0,0.1,0,0.1,0.1,0.1h0.1c0.5-0.8,1.3-1.5,2.2-1.9c0.9-0.4,2-0.6,3.2-0.6c1.4,0,2.5,0.3,3.5,0.9s1.7,1.4,2.2,2.5
			c0,0.1,0.1,0.1,0.2,0c0.5-1.1,1.4-2,2.4-2.6s2.3-0.9,3.7-0.9C521.9,101.9,523.4,102.5,524.5,103.7L524.5,103.7z"/>
		<path class="st1" d="M541.7,119.7c0.9-0.6,1.6-1.4,2.1-2.4c0.1-0.2,0.3-0.3,0.5-0.2l1,0.5c0.2,0.1,0.3,0.3,0.2,0.5
			c-0.6,1.3-1.5,2.3-2.8,3.1s-2.7,1.1-4.4,1.1c-1.8,0-3.4-0.4-4.7-1.3s-2.2-2.1-2.7-3.7c-0.2-0.7-0.4-1.4-0.4-2.2s-0.1-1.8-0.1-3.1
			s0-2.3,0.1-2.9c0-0.7,0.1-1.3,0.3-1.8c0.4-1.7,1.3-3,2.6-4s2.9-1.5,4.8-1.5c2.2,0,3.9,0.6,5.2,1.7s2.1,2.7,2.4,4.6
			c0.1,0.5,0.1,1.1,0.2,1.8c0,0.7,0,1.5,0,2.5c0,0.3-0.1,0.4-0.4,0.4h-12.9c-0.1,0-0.2,0.1-0.2,0.2c0,1.7,0.1,2.8,0.2,3.4
			c0.3,1.3,0.9,2.3,2,3.1c1,0.8,2.3,1.1,3.8,1.1C539.8,120.6,540.8,120.3,541.7,119.7L541.7,119.7z M532.5,110.9
			c0,0.1,0,0.2,0.2,0.2h11c0.1,0,0.2-0.1,0.2-0.2c0-1.3-0.1-2.3-0.2-3c-0.3-1.3-0.9-2.3-1.9-3.1c-1-0.8-2.2-1.2-3.6-1.2
			s-2.6,0.4-3.5,1.1c-1,0.8-1.5,1.8-1.8,3C532.7,108.4,532.6,109.4,532.5,110.9L532.5,110.9z"/>
		<path class="st1" d="M563,103.8c1.2,1.2,1.9,2.9,1.9,4.9v13c0,0.3-0.1,0.4-0.4,0.4h-1.3c-0.3,0-0.4-0.1-0.4-0.4v-12.6
			c0-1.6-0.5-2.8-1.4-3.8s-2.2-1.5-3.7-1.5s-2.9,0.5-3.8,1.4c-1,1-1.5,2.2-1.5,3.8v12.7c0,0.3-0.1,0.4-0.4,0.4h-1.3
			c-0.3,0-0.4-0.1-0.4-0.4v-19.1c0-0.3,0.1-0.4,0.4-0.4h1.3c0.3,0,0.4,0.1,0.4,0.4v1.9c0,0.1,0,0.1,0.1,0.1c0,0,0.1,0,0.1-0.1
			c0.6-0.9,1.3-1.5,2.3-2s2-0.7,3.3-0.7C560.2,102,561.8,102.6,563,103.8L563,103.8z"/>
		<path class="st1" d="M577.7,104H573c-0.1,0-0.2,0.1-0.2,0.2v12.5c0,1.3,0.3,2.3,0.9,2.8c0.6,0.5,1.6,0.8,2.9,0.8h0.9
			c0.3,0,0.4,0.1,0.4,0.4v1.1c0,0.3-0.1,0.4-0.4,0.4h-1.2c-1.8,0-3.2-0.4-4.2-1.1s-1.4-2-1.4-3.9v-13c0-0.1,0-0.2-0.2-0.2h-2.4
			c-0.3,0-0.4-0.1-0.4-0.4v-1c0-0.3,0.1-0.4,0.4-0.4h2.4c0.1,0,0.2-0.1,0.2-0.2v-4.5c0-0.3,0.1-0.4,0.4-0.4h1.3
			c0.3,0,0.4,0.1,0.4,0.4v4.5c0,0.1,0,0.2,0.2,0.2h4.6c0.3,0,0.4,0.1,0.4,0.4v1C578.1,103.8,577.9,104,577.7,104L577.7,104z"/>
	</g>
</g>
</svg>
