<?xml version="1.0" encoding="utf-8"?>
<!-- Generator: Adobe Illustrator 25.4.1, SVG Export Plug-In . SVG Version: 6.00 Build 0)  -->
<svg version="1.1" id="Outlined" xmlns="http://www.w3.org/2000/svg" xmlns:xlink="http://www.w3.org/1999/xlink" x="0px" y="0px"
	 viewBox="0 0 551.8 130.1" style="enable-background:new 0 0 551.8 130.1;" xml:space="preserve">
<style type="text/css">
	.st0{fill:#041E42;}
</style>
<path class="st0" d="M128.5,68.5l-16.9-50.2c-1.4-4-4.8-7-8.9-7.8L49.9,0.2c-4.1-0.8-8.3,0.7-11.1,3.7L3,44.1
	c-2.8,3.2-3.7,7.6-2.4,11.6l16.9,50.2c1.3,4,4.8,7,8.9,7.8L79.2,124c0.7,0.1,1.5,0.2,2.2,0.2c3.4,0,6.6-1.4,8.8-3.9L126,80.2
	C129,77,129.9,72.6,128.5,68.5 M121.7,76.2l-35.8,40.1c-1.4,1.5-3.5,2.2-5.5,1.8l-52.8-10.3c-2-0.4-3.7-1.9-4.4-3.8L6.3,53.8
	c-0.7-2-0.2-4.2,1.2-5.8L43.3,7.9C44.4,6.7,46,6,47.7,6c0.4,0,0.7,0,1.1,0.1l52.8,10.3c2.1,0.4,3.7,1.9,4.4,3.9l16.9,50.2
	C123.5,72.4,123.1,74.6,121.7,76.2"/>
<path class="st0" d="M175.6,35.3c-0.2,0.2-0.5,0.4-0.9,0.4h-10.4c-0.2,0-0.5,0.1-0.5,0.4v0.1v24.5c0,2.6,0.6,4.4,1.7,5.6
	s2.9,1.7,5.4,1.7h3c0.7,0,1.2,0.5,1.2,1.2l0,0v7.6c0,0.7-0.5,1.3-1.2,1.3c0,0,0,0-0.1,0l-5.3,0.1c-5.4,0-9.4-0.9-12-2.8
	c-2.6-1.8-4-5.3-4.1-10.4V36c0-0.2-0.1-0.5-0.4-0.5h-0.1h-5.8c-0.3,0-0.6-0.1-0.9-0.4c-0.2-0.2-0.4-0.5-0.4-0.9V27
	c0-0.7,0.6-1.2,1.2-1.2h5.8c0.2,0,0.5-0.1,0.5-0.4v-0.1V13.7c0-0.3,0.1-0.6,0.4-0.9c0.2-0.2,0.5-0.4,0.9-0.4h8.9
	c0.7,0,1.2,0.6,1.2,1.2v12c0,0.2,0.1,0.5,0.4,0.5h0.1h10.6c0.3,0,0.6,0.1,0.9,0.4c0.2,0.2,0.4,0.5,0.4,0.9v7.1
	C176,34.8,175.9,35.1,175.6,35.3z"/>
<path class="st0" d="M226.4,52l-0.1,3.2c0.1,0.6-0.3,1.1-0.9,1.2c-0.1,0-0.2,0-0.3,0h-31.9c-0.2,0-0.5,0.1-0.5,0.4v0.1
	c0.1,1.6,0.4,3.1,0.9,4.6c1.6,4.9,5.6,7.4,11.9,7.4c4.4,0.1,8.6-2,11-5.7c0.2-0.4,0.6-0.6,1-0.6c0.3,0,0.5,0.1,0.7,0.3l6.3,5.2
	c0.5,0.3,0.7,1,0.4,1.5c0,0.1-0.1,0.1-0.1,0.2c-2.1,3-5,5.4-8.4,6.9c-3.7,1.7-7.6,2.5-11.6,2.4c-4.7,0.1-9.4-1.1-13.5-3.6
	c-3.7-2.4-6.5-5.9-8.1-10c-1.6-3.7-2.3-8.8-2.3-15.3c-0.1-3.2,0.3-6.5,1.2-9.6c1.2-4.5,3.9-8.5,7.7-11.2c4-2.8,8.7-4.3,13.6-4.1
	c13.4,0,20.9,7,22.6,21C226.3,48.2,226.4,50.1,226.4,52z M197.1,37.4c-1.7,1.3-2.9,3.1-3.5,5.2c-0.5,1.5-0.7,3-0.8,4.5
	c-0.1,0.3,0,0.5,0.4,0.5h20.7c0.2,0,0.5-0.1,0.5-0.4v-0.1c-0.1-1.3-0.3-2.6-0.6-3.9c-0.5-2.3-1.8-4.3-3.6-5.7c-2-1.4-4.4-2.1-6.8-2
	C201.1,35.4,198.9,36.1,197.1,37.4z"/>
<path class="st0" d="M270.9,30.2c3.3,3.3,4.9,7.7,4.9,13.3v33.4c0,0.7-0.5,1.2-1.2,1.2l0,0h-9.4c-0.3,0-0.6-0.1-0.9-0.3
	c-0.2-0.2-0.4-0.5-0.4-0.9v-31c0.1-2.8-0.8-5.5-2.6-7.6c-1.8-1.9-4.4-3-7-2.9c-2.7-0.1-5.2,0.9-7.1,2.9c-1.9,2.1-2.8,4.8-2.7,7.5
	v31.1c0,0.7-0.5,1.2-1.2,1.2l0,0h-9.4c-0.3,0-0.6-0.1-0.9-0.3c-0.2-0.2-0.4-0.5-0.4-0.9V27.4c0-0.7,0.6-1.2,1.2-1.2h9.4
	c0.3,0,0.6,0.1,0.9,0.4c0.2,0.2,0.4,0.5,0.4,0.9v3.1c0,0.2,0.1,0.3,0.2,0.4c0.1,0.1,0.2,0,0.3-0.2c2.8-3.7,7-5.5,12.6-5.5
	C263.3,25.3,267.7,26.9,270.9,30.2z"/>
<path class="st0" d="M315,27.6c3,1.3,5.6,3.4,7.5,6.2c1.8,2.6,2.7,5.7,2.6,8.8v34.3c0,0.3-0.1,0.6-0.4,0.9c-0.2,0.2-0.5,0.4-0.9,0.3
	h-9.4c-0.7,0-1.2-0.5-1.2-1.2l0,0v-3.3c0-0.2-0.1-0.3-0.2-0.4c-0.2,0-0.3,0-0.4,0.2c-3.3,3.7-8.2,5.5-14.5,5.5
	c-5.1,0-9.3-1.3-12.6-3.9s-4.7-6.3-4.7-11.4c0-5.3,1.9-9.5,5.5-12.4s8.9-4.4,15.6-4.4h10.9c0.2,0,0.5-0.1,0.5-0.4v-0.1v-2.4
	c0.1-2.3-0.7-4.5-2.3-6.2c-1.6-1.5-3.9-2.2-7-2.2c-2.2-0.1-4.3,0.4-6.3,1.4c-1.5,0.8-2.6,2.2-3,3.8c-0.1,0.6-0.6,1.1-1.3,1
	c-0.1,0-0.1,0-0.2,0l-9.9-1.2c-0.3-0.1-0.6-0.2-0.9-0.4c-0.2-0.1-0.3-0.4-0.2-0.7c0.5-4.1,2.8-7.5,6.7-10.2s8.8-4,14.7-4
	C307.6,25.2,311.5,26,315,27.6z M309.8,67c2.2-1.5,3.6-4,3.6-6.7v-4.8c0-0.2-0.1-0.5-0.4-0.5h-0.1h-8.5c-3.6,0-6.4,0.7-8.5,2
	c-2,1.2-3.2,3.4-3.1,5.8c-0.1,2,0.8,3.8,2.4,5c1.8,1.3,4,1.9,6.2,1.8C304.3,69.7,307.3,68.8,309.8,67z"/>
<path class="st0" d="M378.3,52c0.1,4.3-0.6,8.6-1.9,12.7c-1.3,4.2-3.8,7.8-7.2,10.5c-3.5,2.6-7.8,3.9-12.2,3.8
	c-4.5,0.1-8.8-1.9-11.7-5.4c-0.1-0.2-0.3-0.3-0.4-0.2c-0.1,0.1-0.2,0.2-0.2,0.4V77c0,0.7-0.5,1.2-1.2,1.2l0,0h-9.4
	c-0.3,0-0.6-0.1-0.9-0.3c-0.2-0.2-0.4-0.5-0.4-0.9V8.1c0-0.7,0.6-1.2,1.2-1.2h9.4c0.3,0,0.6,0.1,0.9,0.4c0.2,0.2,0.4,0.5,0.4,0.9
	v22.1c0,0.2,0.1,0.3,0.2,0.4c0.1,0.1,0.3,0,0.4-0.1c2.9-3.4,7.2-5.4,11.6-5.2c5,0,9.2,1.3,12.5,3.8c3.4,2.7,5.9,6.4,7.2,10.5
	C377.7,43.6,378.3,47.8,378.3,52z M366.1,52.2c0-5.3-1-9.5-3-12.4c-1.7-2.8-4.9-4.4-8.1-4.3c-3.2-0.1-6.2,1.7-7.6,4.5
	c-1.7,2.8-2.5,6.8-2.5,12.1s0.8,9.2,2.4,11.8c1.4,3.1,4.6,5,7.9,4.9c1.8,0,3.5-0.4,5.1-1.3c1.5-0.9,2.7-2.1,3.6-3.6
	C365.3,61,366.1,57.1,366.1,52.2L366.1,52.2z"/>
<path class="st0" d="M385.5,77.8c-0.2-0.2-0.4-0.5-0.4-0.9V8.1c0-0.3,0.1-0.6,0.4-0.9c0.2-0.2,0.5-0.4,0.9-0.4h9.4
	c0.7,0,1.2,0.5,1.2,1.2v68.9c0,0.3-0.1,0.6-0.4,0.9c-0.2,0.2-0.5,0.4-0.9,0.3h-9.4C386.1,78.2,385.8,78,385.5,77.8z"/>
<path class="st0" d="M449.4,52l-0.1,3.2c0.1,0.6-0.3,1.1-0.9,1.2c-0.1,0-0.2,0-0.3,0h-31.9c-0.2,0-0.5,0.1-0.5,0.4v0.1
	c0.1,1.6,0.4,3.1,0.9,4.6c1.6,4.9,5.6,7.4,11.9,7.4c4.4,0.1,8.6-2,11-5.7c0.2-0.4,0.6-0.6,1-0.6c0.3,0,0.5,0.1,0.7,0.3l6.3,5.2
	c0.5,0.3,0.7,1,0.4,1.5c0,0.1-0.1,0.1-0.1,0.2c-2.1,3-5,5.4-8.4,6.9c-3.7,1.7-7.6,2.5-11.7,2.4c-4.8,0.1-9.4-1.1-13.5-3.6
	c-3.7-2.4-6.5-5.9-8.1-10c-1.6-3.7-2.3-8.8-2.3-15.3c-0.1-3.2,0.3-6.5,1.2-9.6c1.2-4.5,3.9-8.5,7.7-11.2c4-2.8,8.7-4.3,13.6-4.1
	c13.4,0,20.9,7,22.6,21C449.3,48.2,449.5,50.1,449.4,52z M420.2,37.4c-1.7,1.3-2.9,3.1-3.5,5.2c-0.5,1.5-0.7,3-0.8,4.5
	c-0.1,0.3,0,0.5,0.4,0.5H437c0.2,0,0.5-0.1,0.5-0.4v-0.1c-0.1-1.3-0.3-2.6-0.6-3.9c-0.5-2.3-1.8-4.3-3.6-5.7c-2-1.4-4.4-2.1-6.8-2
	C424.2,35.4,422,36.1,420.2,37.4z"/>
<path class="st0" d="M457.9,76.3c-2.9-2.8-2.9-7.4-0.1-10.2c1.4-1.4,3.3-2.2,5.3-2.2c1.9-0.1,3.8,0.6,5.1,2c1.3,1.4,2.1,3.3,2,5.2
	c0.1,1.9-0.6,3.8-2,5.2c-1.3,1.3-3.2,2.1-5.1,2C461.2,78.4,459.3,77.7,457.9,76.3z"/>
<path class="st0" d="M480.8,17c-1.4-1.4-2.1-3.3-2-5.2c-0.1-4,3-7.4,7-7.5s7.4,3,7.5,7c0,0.2,0,0.4,0,0.5c-0.1,4.1-3.4,7.3-7.5,7.3
	C483.9,19,482.1,18.3,480.8,17z M480.2,77.8c-0.2-0.2-0.4-0.5-0.4-0.9V27.2c0-0.3,0.1-0.6,0.4-0.9c0.2-0.2,0.5-0.4,0.9-0.4h9.4
	c0.3,0,0.6,0.1,0.9,0.4c0.2,0.2,0.4,0.5,0.4,0.9v49.7c0,0.7-0.5,1.2-1.2,1.2l0,0h-9.4C480.8,78.2,480.5,78,480.2,77.8L480.2,77.8z"
	/>
<path class="st0" d="M509.2,74.9c-3.9-2.8-6.7-6.7-8.1-11.3c-1.2-3.8-1.7-7.7-1.7-11.6c-0.1-3.9,0.5-7.8,1.6-11.6
	c1.4-4.5,4.3-8.4,8.2-11.1c4.1-2.7,9-4.1,14-4c4.8-0.1,9.5,1.3,13.4,4c3.8,2.7,6.6,6.6,8,11c1.3,3.7,1.9,7.7,1.8,11.6
	c0.1,3.9-0.5,7.9-1.7,11.6c-1.4,4.6-4.2,8.5-8,11.4c-4,2.8-8.7,4.2-13.5,4.1C518.1,79.1,513.3,77.7,509.2,74.9z M529.5,66.7
	c1.9-1.6,3.3-3.6,3.9-6c0.7-2.8,1.1-5.7,1-8.5c0.1-2.9-0.2-5.8-1-8.6c-0.6-2.4-2-4.5-3.9-6c-1.9-1.4-4.3-2.1-6.7-2.1
	c-2.4-0.1-4.7,0.7-6.5,2.1c-1.9,1.5-3.3,3.6-4,6c-0.7,2.8-1.1,5.7-1,8.6c-0.1,2.9,0.3,5.8,1,8.5c0.6,2.4,2,4.5,3.9,6
	c2,1.5,4.3,2.2,6.8,2.1C525.3,68.9,527.6,68.1,529.5,66.7L529.5,66.7z"/>
<path class="st0" d="M152.3,121.8l-6.6-19.2v-0.2c0-0.2,0.1-0.3,0.4-0.3h1.5c0.2,0,0.4,0.1,0.5,0.3l5.4,16.3c0,0.1,0.1,0.1,0.1,0.1
	c0.1,0,0.1,0,0.1-0.1l5.4-16.3c0.1-0.2,0.3-0.3,0.5-0.3h1.5c0.3,0,0.4,0.2,0.3,0.4l-6.5,19.1c-0.1,0.2-0.3,0.3-0.5,0.3h-1.6
	C152.6,122.1,152.4,122,152.3,121.8z"/>
<path class="st0" d="M177,102.2h1.3c0.2,0,0.4,0.1,0.4,0.3v0.1v19.1c0,0.2-0.1,0.4-0.3,0.4h-0.1H177c-0.2,0-0.4-0.1-0.4-0.3v-0.1
	v-1.9c0-0.1,0-0.1-0.1-0.1s-0.1,0-0.1,0.1c-0.5,0.9-1.3,1.6-2.2,2c-1,0.5-2.2,0.7-3.3,0.7c-1.8,0.1-3.5-0.6-4.9-1.7
	c-1.3-1.2-2-3-1.9-4.8v-13.4c0-0.2,0.1-0.4,0.3-0.4h0.1h1.3c0.2,0,0.4,0.1,0.4,0.3v0.1v12.7c-0.1,1.4,0.4,2.8,1.4,3.8
	s2.3,1.5,3.7,1.4c1.4,0.1,2.8-0.5,3.9-1.4c1-1,1.5-2.4,1.5-3.8v-12.7C176.7,102.4,176.8,102.2,177,102.2
	C176.9,102.2,176.9,102.2,177,102.2z"/>
<path class="st0" d="M183.8,121.7V94.8c0-0.2,0.1-0.4,0.3-0.4h0.1h1.3c0.2,0,0.4,0.1,0.4,0.3v0.1v26.9c0,0.2-0.1,0.4-0.3,0.4h-0.1
	h-1.3C184,122.1,183.8,122,183.8,121.7C183.8,121.8,183.8,121.7,183.8,121.7z"/>
<path class="st0" d="M203.7,103.8c1.3,1.3,2,3.1,1.9,4.9v13c0,0.2-0.1,0.4-0.3,0.4h-0.1h-1.3c-0.2,0-0.4-0.1-0.4-0.3v-0.1v-12.6
	c0.1-1.4-0.5-2.8-1.4-3.8c-1-1-2.3-1.5-3.7-1.5c-1.4-0.1-2.8,0.5-3.8,1.4c-1,1-1.5,2.4-1.5,3.8v12.7c0,0.2-0.1,0.4-0.3,0.4h-0.1
	h-1.3c-0.2,0-0.4-0.1-0.4-0.3v-0.1v-19.1c0-0.2,0.1-0.4,0.3-0.4h0.1h1.3c0.2,0,0.4,0.1,0.4,0.3v0.1v1.9c0,0.1,0,0.1,0.1,0.1
	s0.1,0,0.1-0.1c0.6-0.9,1.4-1.6,2.3-2c1-0.5,2.1-0.7,3.3-0.7C200.6,101.8,202.4,102.5,203.7,103.8z"/>
<path class="st0" d="M221,119.7c0.9-0.6,1.6-1.4,2.1-2.4c0.1-0.2,0.3-0.3,0.5-0.2l0,0l1,0.5c0.2,0.1,0.3,0.3,0.2,0.5
	c-0.6,1.3-1.5,2.4-2.8,3.1c-1.3,0.8-2.9,1.2-4.4,1.1c-1.7,0-3.3-0.4-4.7-1.3c-1.3-0.9-2.2-2.2-2.6-3.7c-0.2-0.7-0.4-1.5-0.4-2.2
	c-0.1-0.8-0.1-1.8-0.1-3.1s0-2.3,0.1-2.9c0-0.6,0.1-1.2,0.3-1.8c0.4-1.6,1.3-3,2.6-4c3-2.1,7-2,10,0.2c1.3,1.2,2.2,2.9,2.4,4.6
	c0.1,0.6,0.1,1.2,0.2,1.8c0,0.7,0,1.5,0,2.5c0,0.2-0.1,0.4-0.3,0.4H225h-12.9c-0.1,0-0.1,0-0.1,0.2c0,1.1,0,2.2,0.2,3.3
	c0.3,1.2,1,2.3,2,3.1c1.1,0.8,2.5,1.2,3.9,1.1C219,120.6,220.1,120.3,221,119.7z M211.8,110.9c0,0.1,0,0.2,0.1,0.2h11
	c0.1,0,0.1,0,0.2-0.1l0,0c0-1,0-2-0.2-3c-0.3-1.2-0.9-2.3-1.9-3.1c-2.1-1.5-5-1.5-7.1,0c-0.9,0.7-1.6,1.8-1.8,3
	C211.9,108.9,211.8,109.9,211.8,110.9L211.8,110.9z"/>
<path class="st0" d="M239.4,102.5c0.2,0.1,0.3,0.2,0.2,0.5l-0.4,1.3c-0.1,0.3-0.2,0.3-0.5,0.2c-0.6-0.2-1.3-0.3-2-0.3
	c-1.4,0-2.7,0.6-3.7,1.7s-1.5,2.5-1.4,4v11.8c0,0.2-0.1,0.4-0.3,0.4h-0.1h-1.3c-0.2,0-0.4-0.1-0.4-0.3v-0.1v-19.1
	c0-0.2,0.1-0.4,0.3-0.4h0.1h1.3c0.2,0,0.4,0.1,0.4,0.3v0.1v2.7c0,0.1,0,0.1,0.1,0.1s0.1,0,0.1-0.1c0.5-1,1.2-1.8,2.1-2.4
	c0.9-0.6,2-0.9,3.1-0.9C237.9,102,238.7,102.2,239.4,102.5z"/>
<path class="st0" d="M253.9,103.7c1.2,1.3,1.9,3,1.8,4.8v13.2c0,0.2-0.1,0.4-0.3,0.4h-0.1H254c-0.2,0-0.4-0.1-0.4-0.3v-0.1v-1.9
	c0,0,0-0.1-0.1-0.1h-0.1c-0.7,0.9-1.6,1.6-2.7,2c-1.2,0.5-2.4,0.7-3.6,0.7c-1.6,0.1-3.3-0.4-4.6-1.4c-1.3-1-2-2.6-1.9-4.2
	c-0.1-1.8,0.7-3.5,2.2-4.6c1.8-1.2,3.9-1.8,6-1.7h4.7c0.1,0,0.1,0,0.2-0.1l0,0v-1.8c0.1-1.3-0.4-2.6-1.2-3.5c-1-0.9-2.4-1.4-3.8-1.3
	c-1.2,0-2.3,0.2-3.3,0.8c-0.8,0.5-1.4,1.3-1.6,2.2c-0.1,0.3-0.2,0.4-0.5,0.3l-1.4-0.2c-0.3,0-0.4-0.2-0.4-0.3
	c0.2-1.4,1.1-2.7,2.3-3.4c1.5-0.9,3.2-1.4,4.9-1.3C250.6,101.8,252.5,102.4,253.9,103.7z M251.8,119.4c1.2-0.7,1.9-2,1.8-3.4v-3.6
	c0-0.1,0-0.1-0.1-0.2l0,0H249c-1.6-0.1-3.2,0.3-4.5,1.2c-1.1,0.7-1.8,2-1.7,3.3c-0.1,1.1,0.4,2.2,1.4,2.9s2.2,1,3.4,1
	C249,120.6,250.5,120.2,251.8,119.4z"/>
<path class="st0" d="M275.4,109.3c0,0.8,0.1,1.7,0.1,2.9c0.1,1.7-0.1,3.4-0.4,5c-0.4,1.5-1.3,2.9-2.5,3.8c-1.3,1-2.9,1.5-4.5,1.4
	c-1.1,0-2.2-0.2-3.1-0.7s-1.7-1.1-2.2-2l-0.1-0.1l-0.1,0.1v1.9c0,0.2-0.1,0.4-0.3,0.4h-0.1h-1.3c-0.2,0-0.4-0.1-0.4-0.3v-0.1V94.7
	c0-0.2,0.1-0.4,0.3-0.4h0.1h1.3c0.2,0,0.4,0.1,0.4,0.3v0.1v9.8c0,0.1,0,0.1,0.1,0.1s0.1,0,0.1-0.1c0.5-0.9,1.3-1.5,2.2-2
	c1-0.5,2-0.7,3.1-0.7c1.7-0.1,3.3,0.4,4.6,1.4c1.2,1,2.1,2.4,2.5,3.9C275.2,107.9,275.3,108.6,275.4,109.3z M273.2,115.1
	c0.1-1,0.1-2,0.1-3s0-2-0.1-3c-0.1-0.6-0.3-1.2-0.5-1.8c-0.3-1-0.9-1.9-1.8-2.6s-2.1-1-3.2-1s-2.2,0.3-3.1,1
	c-0.8,0.7-1.4,1.6-1.7,2.6c-0.2,0.6-0.3,1.2-0.4,1.8c-0.1,1-0.1,2-0.1,3.1c0,1.3,0,2.3,0.1,3c0.1,0.6,0.2,1.2,0.4,1.7
	c0.3,1.1,0.8,2,1.7,2.7c0.9,0.7,2,1,3.1,1c1.2,0,2.3-0.3,3.3-1c0.9-0.7,1.5-1.6,1.8-2.7C273,116.3,273.2,115.7,273.2,115.1z"/>
<path class="st0" d="M280.1,97.7c-0.9-0.8-0.9-2.1-0.1-3s2.1-0.9,3-0.1s0.9,2.1,0.1,3c-0.4,0.4-1,0.7-1.6,0.7
	C281,98.2,280.5,98,280.1,97.7z M280.4,121.7v-19.1c0-0.2,0.1-0.4,0.3-0.4h0.1h1.3c0.2,0,0.4,0.1,0.4,0.3v0.1v19.1
	c0,0.2-0.1,0.4-0.3,0.4h-0.1h-1.3C280.6,122.1,280.4,122,280.4,121.7L280.4,121.7L280.4,121.7z"/>
<path class="st0" d="M288.3,121.7V94.8c0-0.2,0.1-0.4,0.3-0.4h0.1h1.3c0.2,0,0.4,0.1,0.4,0.3v0.1v26.9c0,0.2-0.1,0.4-0.3,0.4H290
	h-1.3C288.5,122.1,288.3,122,288.3,121.7L288.3,121.7z"/>
<path class="st0" d="M295.7,97.7c-0.8-0.8-0.8-2.1,0-2.8c0.4-0.4,0.9-0.6,1.4-0.6c1.1-0.2,2.1,0.6,2.3,1.7s-0.6,2.1-1.7,2.3
	c-0.2,0-0.4,0-0.6,0C296.6,98.2,296.1,98,295.7,97.7z M296,121.7v-19.1c0-0.2,0.1-0.4,0.3-0.4h0.1h1.3c0.2,0,0.4,0.1,0.4,0.3v0.1
	v19.1c0,0.2-0.1,0.4-0.3,0.4h-0.1h-1.3C296.2,122.1,296,122,296,121.7L296,121.7L296,121.7z"/>
<path class="st0" d="M311.8,104h-4.6c-0.1,0-0.1,0-0.2,0.1l0,0v12.5c-0.1,1,0.2,2.1,0.9,2.8c0.8,0.6,1.9,0.9,2.9,0.8h0.9
	c0.2,0,0.4,0.1,0.4,0.3v0.1v1.1c0,0.2-0.1,0.4-0.3,0.4h-0.1h-1.2c-1.5,0.1-2.9-0.3-4.2-1.1c-0.9-0.7-1.4-2-1.4-3.9v-13
	c0-0.1-0.1-0.2-0.1-0.2l0,0h-2.4c-0.2,0-0.4-0.1-0.4-0.3v-0.1v-1c0-0.2,0.1-0.4,0.3-0.4h0.1h2.4c0.1,0,0.1,0,0.2-0.1l0,0v-4.5
	c0-0.2,0.1-0.4,0.3-0.4h0.1h1.3c0.2,0,0.4,0.1,0.4,0.3v0.1v4.5c0,0.1,0,0.2,0.2,0.2h4.6c0.2,0,0.4,0.1,0.4,0.3v0.1v1
	c0,0.2-0.1,0.4-0.3,0.4C311.9,104,311.8,104,311.8,104z"/>
<path class="st0" d="M314.9,129.6v-1c0-0.2,0.1-0.4,0.3-0.4h0.1h0.2c0.8,0,1.6-0.2,2.4-0.5c0.7-0.4,1.2-1,1.5-1.7
	c0.6-1.2,1.1-2.5,1.4-3.8c0.1-0.1,0.1-0.2,0-0.2l-6.8-19.4v-0.2c0-0.2,0.1-0.3,0.4-0.3h1.3c0.2,0,0.4,0.1,0.5,0.3l5.6,16.8
	c0,0.1,0.1,0.1,0.2,0.1c0,0,0.1,0,0.1-0.1l5.5-16.8c0.1-0.2,0.3-0.3,0.5-0.3h1.4c0.3,0,0.4,0.2,0.3,0.4l-7.5,21.5
	c-0.4,1.3-1,2.6-1.7,3.8c-0.4,0.7-1.1,1.3-1.9,1.7c-1,0.3-2,0.5-3,0.4h-0.3C315,130,314.9,129.9,314.9,129.6z"/>
<path class="st0" d="M362.8,103.7c1.2,1.3,1.8,3,1.7,4.8v13.3c0,0.2-0.1,0.4-0.3,0.4h-0.1h-1.3c-0.2,0-0.4-0.1-0.4-0.3v-0.1v-12.9
	c0.1-1.4-0.4-2.7-1.4-3.7c-0.9-0.9-2.2-1.4-3.5-1.4c-1.4-0.1-2.7,0.4-3.7,1.3c-1,1-1.5,2.3-1.4,3.6v13c0,0.2-0.1,0.4-0.3,0.4H352
	h-1.3c-0.2,0-0.4-0.1-0.4-0.3v-0.1v-12.9c0.1-1.4-0.4-2.7-1.3-3.7c-0.9-0.9-2.2-1.4-3.5-1.4c-1.4-0.1-2.7,0.4-3.7,1.3
	c-0.9,1-1.4,2.3-1.4,3.6v13c0,0.2-0.1,0.4-0.3,0.4H340h-1.3c-0.2,0-0.4-0.1-0.4-0.3v-0.1v-19c0-0.2,0.1-0.4,0.3-0.4h0.1h1.3
	c0.2,0,0.4,0.1,0.4,0.3v0.1v1.8c0,0.1,0,0.1,0.1,0.1h0.1c0.5-0.8,1.3-1.5,2.2-1.9c1-0.4,2.1-0.6,3.2-0.6c1.2,0,2.5,0.3,3.5,0.9
	s1.8,1.5,2.2,2.5c0,0.1,0.1,0.1,0.2,0c0.5-1.1,1.4-2,2.4-2.6c1.1-0.6,2.4-0.9,3.7-0.9C359.9,101.9,361.6,102.5,362.8,103.7z"/>
<path class="st0" d="M381.3,103.7c1.2,1.3,1.9,3,1.8,4.8v13.2c0,0.2-0.1,0.4-0.3,0.4h-0.1h-1.3c-0.2,0-0.4-0.1-0.4-0.3v-0.1v-1.9
	c0,0,0-0.1-0.1-0.1h-0.1c-0.7,0.9-1.6,1.6-2.7,2c-1.2,0.5-2.4,0.7-3.7,0.7c-1.6,0-3.3-0.4-4.6-1.4c-1.3-1-2-2.6-1.9-4.2
	c-0.1-1.8,0.7-3.5,2.2-4.6c1.8-1.2,3.9-1.8,6-1.7h4.7c0.1,0,0.1,0,0.2-0.1l0,0v-1.8c0.1-1.3-0.4-2.6-1.2-3.5c-1-1-2.4-1.4-3.8-1.3
	c-1.2,0-2.3,0.2-3.3,0.8c-0.8,0.5-1.4,1.3-1.6,2.2c0,0.2-0.3,0.4-0.5,0.4l0,0l-1.4-0.2c-0.3,0-0.4-0.2-0.4-0.3
	c0.2-1.4,1.1-2.7,2.3-3.4c1.5-0.9,3.2-1.4,4.9-1.3C378,101.8,379.8,102.4,381.3,103.7z M379.2,119.4c1.2-0.7,1.9-2,1.8-3.4v-3.6
	c0-0.1,0-0.1-0.1-0.2l0,0h-4.5c-1.6-0.1-3.2,0.3-4.5,1.2c-1.1,0.7-1.8,2-1.7,3.3c-0.1,1.1,0.4,2.2,1.3,2.9c1,0.7,2.2,1,3.4,1
	C376.4,120.6,377.9,120.2,379.2,119.4z"/>
<path class="st0" d="M400.4,103.8c1.3,1.3,2,3.1,1.9,4.9v13c0,0.2-0.1,0.4-0.3,0.4h-0.1h-1.3c-0.2,0-0.4-0.1-0.4-0.3v-0.1v-12.6
	c0.1-1.4-0.5-2.8-1.4-3.8c-1-1-2.3-1.5-3.7-1.5c-1.4-0.1-2.8,0.5-3.8,1.4c-1,1-1.5,2.4-1.5,3.8v12.7c0,0.2-0.1,0.4-0.3,0.4h-0.1
	h-1.3c-0.2,0-0.4-0.1-0.4-0.3v-0.1v-19.1c0-0.2,0.1-0.4,0.3-0.4h0.1h1.3c0.2,0,0.4,0.1,0.4,0.3v0.1v1.9c0,0.1,0,0.1,0.1,0.1
	s0.1,0,0.1-0.1c0.6-0.9,1.4-1.6,2.3-2c1-0.5,2.1-0.7,3.3-0.7C397.3,101.8,399.1,102.5,400.4,103.8z"/>
<path class="st0" d="M419,103.7c1.2,1.3,1.9,3,1.8,4.8v13.2c0,0.2-0.1,0.4-0.3,0.4h-0.1h-1.3c-0.2,0-0.4-0.1-0.4-0.3v-0.1v-1.9
	c0,0,0-0.1-0.1-0.1h-0.1c-0.7,0.9-1.6,1.6-2.7,2c-1.2,0.5-2.4,0.7-3.6,0.7c-1.7,0.1-3.3-0.4-4.6-1.4c-1.3-1-2-2.6-1.9-4.2
	c-0.1-1.8,0.7-3.5,2.2-4.6c1.8-1.2,3.9-1.8,6-1.7h4.7c0.1,0,0.1,0,0.2-0.1l0,0v-1.8c0.1-1.3-0.4-2.6-1.2-3.5c-1-0.9-2.4-1.4-3.8-1.3
	c-1.2,0-2.3,0.2-3.3,0.8c-0.8,0.5-1.4,1.3-1.6,2.2c-0.1,0.3-0.2,0.4-0.5,0.3l-1.4-0.2c-0.3,0-0.4-0.2-0.4-0.3
	c0.2-1.4,1.1-2.7,2.3-3.4c1.5-0.9,3.2-1.4,4.9-1.3C415.7,101.8,417.6,102.4,419,103.7z M416.9,119.4c1.2-0.7,1.9-2,1.8-3.4v-3.6
	c0-0.1,0-0.1-0.1-0.2l0,0h-4.5c-1.6-0.1-3.2,0.3-4.5,1.2c-1.1,0.7-1.8,2-1.7,3.3c-0.1,1.1,0.4,2.2,1.3,2.9c1,0.7,2.2,1,3.4,1
	C414.1,120.6,415.6,120.2,416.9,119.4L416.9,119.4z"/>
<path class="st0" d="M438.1,102.2h1.3c0.2,0,0.4,0.1,0.4,0.3v0.1v19.1c0,3-0.9,5.1-2.7,6.5c-1.8,1.4-4.3,2-7.6,1.8
	c-0.2,0-0.4-0.2-0.4-0.4c0,0,0,0,0-0.1v-1.1c0-0.2,0.1-0.4,0.3-0.4h0.1c2.8,0.1,4.9-0.4,6.2-1.4s2-2.7,2-5v-2c0-0.1,0-0.1-0.1-0.1
	s-0.1,0-0.1,0.1c-1.2,1.8-3.3,2.9-5.4,2.7c-1.6,0-3.2-0.5-4.5-1.4s-2.2-2.3-2.6-3.9c-0.3-1.6-0.5-3.2-0.4-4.9
	c-0.1-1.7,0.1-3.4,0.5-5.1c0.4-1.5,1.3-2.8,2.5-3.8c1.3-1,2.9-1.5,4.5-1.4c2.2-0.1,4.3,0.9,5.5,2.7c0,0.1,0.1,0.1,0.1,0l0.1-0.1
	v-1.8C437.8,102.4,437.9,102.2,438.1,102.2C438,102.2,438,102.2,438.1,102.2z M437.7,114.8c0-0.6,0-1.5,0-2.7s0-2.1,0-2.7
	c0-0.5-0.1-1-0.1-1.5c-0.4-2.5-2.6-4.3-5.1-4.2c-1.3,0-2.5,0.4-3.5,1.2c-0.9,0.8-1.6,1.8-1.9,3c-0.3,1.4-0.4,2.8-0.4,4.2
	c-0.1,1.4,0.1,2.8,0.4,4.2c0.3,1.2,0.9,2.2,1.9,3s2.2,1.2,3.5,1.2c1.3,0.1,2.5-0.4,3.5-1.2c0.9-0.8,1.5-1.8,1.6-3
	C437.6,115.8,437.6,115.3,437.7,114.8z"/>
<path class="st0" d="M455.2,119.7c0.9-0.6,1.6-1.4,2.1-2.4c0.1-0.2,0.3-0.3,0.5-0.2l1,0.5c0.2,0.1,0.3,0.3,0.2,0.5
	c-0.6,1.3-1.5,2.4-2.7,3.1c-1.3,0.8-2.9,1.2-4.4,1.1c-1.7,0-3.3-0.4-4.7-1.3c-1.3-0.9-2.2-2.2-2.6-3.7c-0.2-0.7-0.4-1.5-0.4-2.2
	c-0.1-0.8-0.1-1.8-0.1-3.1s0-2.3,0.1-2.9c0-0.6,0.1-1.2,0.3-1.8c0.4-1.6,1.3-3,2.6-4c3-2.1,7-2,10,0.2c1.3,1.2,2.2,2.9,2.4,4.6
	c0.1,0.6,0.1,1.2,0.2,1.8c0,0.7,0,1.5,0,2.5c0,0.2-0.1,0.4-0.3,0.4h-0.1h-12.8c-0.1,0-0.1,0-0.2,0.1l0,0c0,1.1,0,2.2,0.2,3.3
	c0.3,1.2,1,2.3,2,3.1c1.1,0.8,2.4,1.2,3.8,1.2C453.1,120.6,454.2,120.3,455.2,119.7z M446,110.9c0,0.1,0,0.1,0.1,0.2l0,0h11
	c0.1,0,0.1,0,0.1-0.2c0-1,0-2-0.2-3c-0.3-1.2-0.9-2.3-1.9-3.1c-2.1-1.5-5-1.5-7.1,0c-0.9,0.7-1.6,1.8-1.8,3
	C446.1,108.9,446,109.9,446,110.9z"/>
<path class="st0" d="M488.1,103.7c1.2,1.3,1.8,3,1.7,4.8v13.3c0,0.2-0.1,0.4-0.3,0.4h-0.1h-1.3c-0.2,0-0.4-0.1-0.4-0.3v-0.1v-12.9
	c0.1-1.4-0.4-2.7-1.4-3.7c-0.9-0.9-2.2-1.4-3.5-1.4c-1.4-0.1-2.7,0.4-3.7,1.3c-1,1-1.5,2.3-1.4,3.6v13c0,0.2-0.1,0.4-0.3,0.4h-0.1
	H476c-0.2,0-0.4-0.1-0.4-0.3v-0.1v-12.9c0.1-1.4-0.4-2.7-1.3-3.7c-0.9-0.9-2.2-1.4-3.5-1.4c-1.4-0.1-2.7,0.4-3.7,1.3
	c-0.9,1-1.4,2.3-1.4,3.6v13c0,0.2-0.1,0.4-0.3,0.4h-0.1H464c-0.2,0-0.4-0.1-0.4-0.3v-0.1v-19c0-0.2,0.1-0.4,0.3-0.4h0.1h1.3
	c0.2,0,0.4,0.1,0.4,0.3v0.1v1.8c0,0.1,0,0.1,0.1,0.1h0.1l0,0c0.5-0.8,1.3-1.5,2.2-1.9c1-0.4,2.1-0.6,3.2-0.6c1.2,0,2.5,0.3,3.5,0.9
	s1.8,1.5,2.2,2.5c0,0.1,0.1,0.1,0.2,0c0.5-1.1,1.4-2,2.4-2.6c1.1-0.6,2.4-0.9,3.7-0.9C485.2,101.9,486.9,102.5,488.1,103.7z"/>
<path class="st0" d="M505.3,119.7c0.9-0.6,1.6-1.4,2.1-2.4c0.1-0.2,0.3-0.3,0.5-0.2l1,0.5c0.2,0.1,0.3,0.3,0.2,0.5
	c-0.6,1.3-1.5,2.4-2.8,3.1c-1.3,0.8-2.9,1.2-4.4,1.1c-1.7,0-3.3-0.4-4.7-1.3c-1.3-0.9-2.2-2.2-2.6-3.7c-0.2-0.7-0.4-1.5-0.4-2.2
	c-0.1-0.8-0.1-1.8-0.1-3.1s0-2.3,0.1-2.9c0-0.6,0.1-1.2,0.2-1.8c0.4-1.6,1.3-3,2.6-4c3-2.1,7-2,10,0.2c1.3,1.2,2.2,2.9,2.4,4.6
	c0.1,0.6,0.1,1.2,0.2,1.8c0,0.7,0,1.5,0,2.5c0,0.2-0.1,0.4-0.3,0.4h-0.1h-12.8c-0.1,0-0.1,0-0.2,0.1l0,0c0,1.1,0,2.2,0.2,3.3
	c0.3,1.2,1,2.3,2,3.1c1.1,0.8,2.5,1.2,3.8,1.1C503.3,120.6,504.4,120.3,505.3,119.7z M496.1,110.9c0,0.1,0,0.1,0.1,0.2l0,0h11
	c0.1,0,0.1,0,0.2-0.1l0,0c0-1,0-2-0.2-3c-0.3-1.2-0.9-2.3-1.9-3.1c-1-0.8-2.3-1.2-3.6-1.2s-2.5,0.3-3.5,1.1c-0.9,0.7-1.6,1.8-1.8,3
	C496.2,108.8,496.1,109.9,496.1,110.9z"/>
<path class="st0" d="M526.6,103.8c1.3,1.3,2,3.1,1.9,4.9v13c0,0.2-0.1,0.4-0.3,0.4h-0.1h-1.3c-0.2,0-0.4-0.1-0.4-0.3v-0.1v-12.6
	c0.1-1.4-0.5-2.8-1.4-3.8c-1-1-2.3-1.5-3.7-1.5c-1.4-0.1-2.8,0.5-3.8,1.4c-1,1-1.5,2.4-1.5,3.8v12.7c0,0.2-0.1,0.4-0.3,0.4h-0.1
	h-1.3c-0.2,0-0.4-0.1-0.4-0.3v-0.1v-19.1c0-0.2,0.1-0.4,0.3-0.4h0.1h1.3c0.2,0,0.4,0.1,0.4,0.3v0.1v1.9c0,0.1,0,0.1,0.1,0.1
	s0.1,0,0.1-0.1c0.6-0.9,1.4-1.6,2.3-2c1-0.5,2.1-0.7,3.3-0.7C523.5,101.8,525.3,102.5,526.6,103.8z"/>
<path class="st0" d="M541.3,104h-4.6c-0.1,0-0.1,0-0.2,0.1l0,0v12.5c-0.1,1,0.2,2.1,0.9,2.8c0.8,0.6,1.9,0.9,2.9,0.8h0.9
	c0.2,0,0.4,0.1,0.4,0.3v0.1v1.1c0,0.2-0.1,0.4-0.3,0.4h-0.1H540c-1.5,0.1-2.9-0.3-4.2-1.1c-0.9-0.7-1.4-2-1.4-3.9v-13
	c0-0.1-0.1-0.2-0.1-0.2l0,0h-2.4c-0.2,0-0.4-0.1-0.4-0.3v-0.1v-1c0-0.2,0.1-0.4,0.3-0.4h0.1h2.4c0.1,0,0.1,0,0.2-0.1l0,0v-4.5
	c0-0.2,0.1-0.4,0.3-0.4h0.1h1.3c0.2,0,0.4,0.1,0.4,0.3v0.1v4.5c0,0.1,0,0.2,0.2,0.2h4.6c0.2,0,0.4,0.1,0.4,0.3v0.1v1
	c0,0.2-0.1,0.4-0.3,0.4C541.4,104,541.3,104,541.3,104z"/>
<path class="st0" d="M550,20.6c1.2,0.7,1.9,1.9,1.8,3.2c0,0.7-0.2,1.3-0.5,1.9c-0.7,1.1-1.9,1.8-3.2,1.8c-0.7,0-1.3-0.2-1.9-0.5
	c-0.6-0.3-1.1-0.8-1.4-1.4c-0.3-0.6-0.5-1.2-0.5-1.9s0.2-1.3,0.5-1.9c0.3-0.5,0.8-1,1.4-1.3C547.3,19.9,548.8,19.9,550,20.6
	L550,20.6z M549.6,26.5c0.5-0.3,0.9-0.6,1.1-1.1c0.3-0.5,0.4-1,0.4-1.6c0-0.5-0.1-1.1-0.4-1.5c-0.3-0.5-0.7-0.8-1.1-1.1
	c-1-0.5-2.1-0.5-3.1,0c-0.9,0.5-1.5,1.5-1.5,2.6c0,0.5,0.1,1.1,0.4,1.6c0.3,0.5,0.7,0.8,1.1,1.1C547.5,27.1,548.6,27.1,549.6,26.5z
	 M549.1,23.7c-0.1,0.2-0.2,0.3-0.4,0.3c-0.1,0-0.1,0.1-0.1,0.1l0.5,1.2v0.1c0,0.1-0.1,0.2-0.2,0.2h-0.1c-0.1,0-0.2-0.1-0.2-0.2
	l-0.5-1.2c0,0,0-0.1-0.1-0.1h-0.3c-0.1,0-0.1,0-0.1,0.1v1.2c0,0.1-0.1,0.2-0.1,0.2l0,0h-0.2c-0.1,0-0.2-0.1-0.2-0.1l0,0v-3.1
	c0-0.1,0.1-0.2,0.1-0.2l0,0h1c0.3,0,0.5,0.1,0.7,0.3C549.3,22.8,549.3,23.3,549.1,23.7L549.1,23.7z M547.6,22.7v0.9
	c0,0,0,0.1,0.1,0.1h0.4c0.1,0,0.3,0,0.4-0.2c0.1-0.1,0.1-0.2,0.1-0.4c0-0.1,0-0.3-0.1-0.4c-0.1-0.1-0.2-0.1-0.4-0.1L547.6,22.7
	C547.7,22.7,547.6,22.7,547.6,22.7L547.6,22.7z"/>
</svg>
