<?xml version="1.0" encoding="utf-8"?>
<!-- Generator: Adobe Illustrator 26.3.1, SVG Export Plug-In . SVG Version: 6.00 Build 0)  -->
<svg version="1.1" id="Editable" xmlns="http://www.w3.org/2000/svg" xmlns:xlink="http://www.w3.org/1999/xlink" x="0px" y="0px"
	 viewBox="0 0 591.7 130" style="enable-background:new 0 0 591.7 130;" xml:space="preserve">
<style type="text/css">
	.st0{fill:#041E42;}
</style>
<path class="st0" d="M580.3,6.8V6.5c0-0.1,0.1-0.2,0.2-0.2h4.5c0.1,0,0.2,0.1,0.2,0.2v0.4c0,0.1-0.1,0.2-0.2,0.2h-1.8
	c0,0-0.1,0-0.1,0.1v5.8c0,0.1-0.1,0.2-0.2,0.2h-0.5c-0.1,0-0.2-0.1-0.2-0.2V7.1c0,0,0-0.1-0.1-0.1h-1.7C580.4,7,580.3,7,580.3,6.8
	L580.3,6.8z M591,6.3h0.5c0.1,0,0.2,0.1,0.2,0.2v6.4c0,0.1-0.1,0.2-0.2,0.2H591c-0.1,0-0.2-0.1-0.2-0.2v-5c0,0,0-0.1,0-0.1
	c0,0,0,0-0.1,0l-1.3,2c0,0.1-0.1,0.1-0.2,0.1h-0.1c-0.1,0-0.2,0-0.2-0.1l-1.3-2c0,0,0,0-0.1,0c0,0,0,0,0,0.1v5
	c0,0.1-0.1,0.2-0.2,0.2h-0.5c-0.1,0-0.2-0.1-0.2-0.2V6.5c0-0.1,0.1-0.2,0.2-0.2h0.5c0.1,0,0.2,0,0.2,0.1l1.6,2.4c0,0,0,0,0.1,0
	s0,0,0.1,0l1.6-2.4C590.8,6.3,590.9,6.3,591,6.3z"/>
<path class="st0" d="M128.5,68.6l-16.9-50.2c-1.3-4-4.8-7-8.9-7.8L49.9,0.2c-4-0.8-8.3,0.6-11.1,3.7L3,44.1
	c-2.8,3.2-3.7,7.6-2.4,11.6l16.9,50.2c1.3,4,4.8,7,8.9,7.8l52.8,10.3c0.7,0.1,1.5,0.2,2.2,0.2c3.4,0,6.6-1.4,8.8-3.9l35.8-40.1
	C128.9,77,129.8,72.6,128.5,68.6 M121.7,76.2l-35.8,40.1c-1.4,1.5-3.5,2.2-5.5,1.8l-52.8-10.3c-2-0.4-3.7-1.9-4.4-3.8L6.3,53.8
	c-0.7-2-0.2-4.2,1.2-5.7L43.3,7.9C44.4,6.7,46,6,47.6,6c0.4,0,0.7,0,1.1,0.1l52.8,10.3c2.1,0.4,3.7,1.9,4.4,3.9l16.9,50.2
	C123.5,72.5,123.1,74.7,121.7,76.2"/>
<g>
	<path class="st0" d="M175.6,35.4c-0.2,0.2-0.5,0.4-0.9,0.4h-10.4c-0.3,0-0.5,0.2-0.5,0.5v24.5c0,2.6,0.6,4.5,1.7,5.6
		s2.9,1.7,5.4,1.7h3.1c0.3,0,0.6,0.1,0.9,0.4c0.2,0.2,0.4,0.5,0.4,0.9V77c0,0.8-0.4,1.2-1.2,1.3l-5.3,0.1c-5.4,0-9.4-0.9-12-2.8
		c-2.6-1.8-4-5.3-4.1-10.4v-29c0-0.3-0.2-0.5-0.5-0.5h-5.8c-0.3,0-0.6-0.1-0.9-0.4c-0.2-0.2-0.4-0.5-0.4-0.9v-7.1
		c0-0.3,0.1-0.6,0.4-0.9c0.2-0.2,0.5-0.4,0.9-0.4h5.8c0.3,0,0.5-0.2,0.5-0.5V13.7c0-0.3,0.1-0.6,0.4-0.9c0.2-0.2,0.5-0.4,0.9-0.4
		h8.9c0.3,0,0.6,0.1,0.9,0.4c0.2,0.2,0.4,0.5,0.4,0.9v11.9c0,0.3,0.2,0.5,0.5,0.5h10.4c0.3,0,0.6,0.1,0.9,0.4
		c0.2,0.2,0.4,0.5,0.4,0.9v7.1C176,34.8,175.9,35.1,175.6,35.4L175.6,35.4z"/>
	<path class="st0" d="M226.4,52l-0.1,3.2c0,0.8-0.4,1.2-1.2,1.2h-31.9c-0.3,0-0.5,0.2-0.5,0.5c0.2,2.2,0.5,3.8,0.9,4.6
		c1.6,4.9,5.6,7.4,11.9,7.4c4.6,0,8.3-1.9,11-5.7c0.3-0.4,0.6-0.6,1-0.6c0.3,0,0.5,0.1,0.7,0.3l6.3,5.2c0.6,0.5,0.7,1,0.3,1.6
		c-2.1,3-4.9,5.3-8.4,6.9c-3.5,1.6-7.4,2.4-11.7,2.4c-5.3,0-9.8-1.2-13.5-3.6s-6.4-5.7-8.1-10c-1.6-3.7-2.3-8.8-2.3-15.3
		c0-3.9,0.4-7.1,1.2-9.6c1.4-4.8,3.9-8.5,7.7-11.2s8.3-4.1,13.6-4.1c13.4,0,20.9,7,22.6,21C226.2,48,226.4,49.9,226.4,52L226.4,52z
		 M197.1,37.4c-1.7,1.3-2.8,3-3.5,5.2c-0.4,1.2-0.7,2.6-0.8,4.5c-0.1,0.3,0,0.5,0.4,0.5h20.7c0.3,0,0.5-0.2,0.5-0.5
		c-0.1-1.7-0.3-3-0.6-3.9c-0.6-2.4-1.8-4.3-3.6-5.7c-1.8-1.4-4.1-2-6.8-2C200.8,35.5,198.7,36.2,197.1,37.4L197.1,37.4z"/>
	<path class="st0" d="M270.9,30.2c3.3,3.3,4.9,7.7,4.9,13.3V77c0,0.3-0.1,0.6-0.4,0.9c-0.2,0.2-0.5,0.4-0.9,0.4h-9.4
		c-0.3,0-0.6-0.1-0.9-0.4S264,77.3,264,77V46c0-3.1-0.9-5.7-2.6-7.6s-4.1-2.9-7-2.9s-5.3,1-7.1,2.8c-1.8,1.9-2.7,4.4-2.7,7.5V77
		c0,0.3-0.1,0.6-0.4,0.9c-0.2,0.2-0.5,0.4-0.9,0.4H234c-0.3,0-0.6-0.1-0.9-0.4s-0.4-0.5-0.4-0.9V27.4c0-0.3,0.1-0.6,0.4-0.9
		s0.5-0.4,0.9-0.4h9.4c0.3,0,0.6,0.1,0.9,0.4s0.4,0.5,0.4,0.9v3.3c0,0.2,0.1,0.3,0.2,0.4c0.1,0.1,0.2,0,0.3-0.2
		c2.8-3.7,7-5.5,12.6-5.5S267.6,27,270.9,30.2L270.9,30.2z"/>
	<path class="st0" d="M315,27.6c3.3,1.5,5.8,3.5,7.5,6.2c1.8,2.6,2.6,5.6,2.6,8.9V77c0,0.3-0.1,0.6-0.4,0.9
		c-0.2,0.2-0.5,0.4-0.9,0.4h-9.4c-0.3,0-0.6-0.1-0.9-0.4s-0.4-0.5-0.4-0.9v-3.3c0-0.2-0.1-0.3-0.2-0.4c-0.1,0-0.3,0-0.4,0.2
		c-3.3,3.7-8.1,5.5-14.5,5.5c-5.1,0-9.3-1.3-12.6-3.9c-3.3-2.6-4.9-6.4-4.9-11.5s1.9-9.4,5.5-12.4c3.7-2.9,8.9-4.4,15.6-4.4h10.9
		c0.3,0,0.5-0.2,0.5-0.5v-2.5c0-2.7-0.8-4.7-2.3-6.2s-3.9-2.2-7-2.2c-2.6,0-4.7,0.5-6.3,1.4c-1.6,0.9-2.6,2.2-3,3.8
		c-0.2,0.8-0.7,1.2-1.4,1l-9.9-1.2c-0.3-0.1-0.6-0.2-0.9-0.4c-0.2-0.2-0.3-0.4-0.2-0.7c0.5-4.1,2.8-7.5,6.7-10.2
		c3.9-2.7,8.8-4,14.7-4C308,25.3,311.7,26.1,315,27.6L315,27.6z M309.8,67c2.4-1.8,3.6-4,3.6-6.7v-4.8c0-0.3-0.2-0.5-0.5-0.5h-8.6
		c-3.6,0-6.4,0.7-8.5,2c-2.1,1.4-3.1,3.3-3.1,5.8c0,2.2,0.8,3.9,2.4,5c1.6,1.2,3.6,1.8,6.2,1.8C304.5,69.6,307.4,68.8,309.8,67
		L309.8,67z"/>
	<path class="st0" d="M378.2,52c0,4.8-0.6,9.1-1.9,12.7c-1.5,4.5-3.9,8-7.2,10.5c-3.3,2.5-7.4,3.8-12.2,3.8s-8.7-1.8-11.7-5.4
		c-0.1-0.2-0.3-0.3-0.4-0.2s-0.2,0.2-0.2,0.4V77c0,0.3-0.1,0.6-0.4,0.9c-0.2,0.2-0.5,0.4-0.9,0.4h-9.4c-0.3,0-0.6-0.1-0.9-0.4
		s-0.4-0.5-0.4-0.9V8.1c0-0.3,0.1-0.6,0.4-0.9s0.5-0.4,0.9-0.4h9.4c0.3,0,0.6,0.1,0.9,0.4s0.4,0.5,0.4,0.9v22.1
		c0,0.2,0.1,0.3,0.2,0.4s0.3,0,0.4-0.1c2.9-3.5,6.8-5.2,11.6-5.2s9.2,1.3,12.5,3.8c3.3,2.5,5.7,6,7.3,10.5
		C377.6,43.4,378.2,47.5,378.2,52z M366.1,52.2c0-5.3-1-9.4-3.1-12.4c-1.8-2.8-4.5-4.3-8.1-4.3c-3.3,0-5.9,1.5-7.6,4.5
		c-1.7,2.8-2.5,6.8-2.5,12.1s0.8,9.2,2.3,11.8c1.8,3.3,4.4,4.9,7.9,4.9c1.9,0,3.6-0.4,5.1-1.3s2.7-2.1,3.6-3.6
		C365.3,61.1,366.1,57.2,366.1,52.2L366.1,52.2z"/>
	<path class="st0" d="M385.5,77.8c-0.2-0.2-0.4-0.5-0.4-0.9V8.1c0-0.3,0.1-0.6,0.4-0.9c0.2-0.2,0.5-0.4,0.9-0.4h9.4
		c0.3,0,0.6,0.1,0.9,0.4s0.4,0.5,0.4,0.9V77c0,0.3-0.1,0.6-0.4,0.9c-0.2,0.2-0.5,0.4-0.9,0.4h-9.4C386,78.2,385.7,78.1,385.5,77.8z"
		/>
	<path class="st0" d="M449.4,52l-0.1,3.2c0,0.8-0.4,1.2-1.2,1.2h-31.9c-0.3,0-0.5,0.2-0.5,0.5c0.2,2.2,0.5,3.8,0.9,4.6
		c1.6,4.9,5.6,7.4,11.9,7.4c4.6,0,8.3-1.9,11-5.7c0.3-0.4,0.6-0.6,1-0.6c0.3,0,0.5,0.1,0.7,0.3l6.3,5.2c0.6,0.5,0.7,1,0.3,1.6
		c-2.1,3-4.9,5.3-8.4,6.9c-3.5,1.6-7.4,2.4-11.7,2.4c-5.3,0-9.8-1.2-13.5-3.6s-6.4-5.7-8.1-10c-1.6-3.7-2.3-8.8-2.3-15.3
		c0-3.9,0.4-7.1,1.2-9.6c1.4-4.8,3.9-8.5,7.7-11.2s8.3-4.1,13.6-4.1c13.4,0,20.9,7,22.6,21C449.3,48,449.4,49.9,449.4,52L449.4,52z
		 M420.1,37.4c-1.7,1.3-2.8,3-3.5,5.2c-0.4,1.2-0.7,2.6-0.8,4.5c-0.1,0.3,0,0.5,0.4,0.5h20.7c0.3,0,0.5-0.2,0.5-0.5
		c-0.1-1.7-0.3-3-0.6-3.9c-0.6-2.4-1.8-4.3-3.6-5.7s-4.1-2-6.8-2C423.9,35.5,421.8,36.2,420.1,37.4L420.1,37.4z"/>
	<path class="st0" d="M457.9,76.4c-1.4-1.4-2-3.1-2-5.2s0.7-3.8,2-5.2s3.1-2,5.2-2s3.8,0.7,5.1,2s2,3.1,2,5.2s-0.7,3.8-2,5.2
		c-1.4,1.4-3.1,2-5.1,2S459.2,77.7,457.9,76.4z"/>
	<path class="st0" d="M510.4,27.6c3.3,1.5,5.8,3.5,7.5,6.2c1.8,2.6,2.7,5.6,2.7,8.9V77c0,0.3-0.1,0.6-0.4,0.9
		c-0.2,0.2-0.5,0.4-0.9,0.4H510c-0.3,0-0.6-0.1-0.9-0.4s-0.4-0.5-0.4-0.9v-3.3c0-0.2-0.1-0.3-0.2-0.4c-0.1,0-0.3,0-0.4,0.2
		c-3.3,3.7-8.2,5.5-14.5,5.5c-5.1,0-9.3-1.3-12.6-3.9c-3.3-2.6-4.9-6.4-4.9-11.5s1.8-9.4,5.5-12.4c3.7-2.9,8.9-4.4,15.6-4.4h10.9
		c0.3,0,0.5-0.2,0.5-0.5v-2.5c0-2.7-0.8-4.7-2.3-6.2s-3.9-2.2-7-2.2c-2.6,0-4.7,0.5-6.3,1.4c-1.6,0.9-2.6,2.2-3,3.8
		c-0.2,0.8-0.7,1.2-1.4,1l-9.9-1.2c-0.3-0.1-0.6-0.2-0.9-0.4c-0.2-0.2-0.3-0.4-0.2-0.7c0.5-4.1,2.8-7.5,6.7-10.2
		c3.9-2.7,8.8-4,14.7-4C503.4,25.3,507.2,26.1,510.4,27.6L510.4,27.6z M505.2,67c2.4-1.8,3.6-4,3.6-6.7v-4.8c0-0.3-0.2-0.5-0.5-0.5
		h-8.6c-3.6,0-6.4,0.7-8.5,2c-2.1,1.4-3.1,3.3-3.1,5.8c0,2.2,0.8,3.9,2.4,5s3.7,1.8,6.2,1.8C500,69.6,502.8,68.8,505.2,67L505.2,67z
		"/>
	<path class="st0" d="M560.7,7.3c0.2-0.2,0.5-0.4,0.9-0.4h9.4c0.3,0,0.6,0.1,0.9,0.4s0.4,0.5,0.4,0.9V77c0,0.3-0.1,0.6-0.4,0.9
		c-0.2,0.2-0.5,0.4-0.9,0.4h-9.4c-0.3,0-0.6-0.1-0.9-0.4s-0.4-0.5-0.4-0.9v-3.1c0-0.2-0.1-0.3-0.2-0.4c-0.1-0.1-0.3,0-0.4,0.2
		c-3,3.5-6.9,5.3-11.7,5.3s-8.9-1.2-12.2-3.8c-3.3-2.5-5.7-6-7.2-10.5c-1.2-3.8-1.8-8.1-1.8-12.7s0.6-9,1.7-12.4
		c1.5-4.5,3.9-8,7.2-10.5c3.3-2.5,7.5-3.8,12.5-3.8c4.7,0,8.5,1.7,11.5,5.1c0.1,0.1,0.3,0.2,0.4,0.2c0.1,0,0.2-0.2,0.2-0.4V8.1
		C560.3,7.8,560.5,7.5,560.7,7.3L560.7,7.3z M560.2,52.1c0-5.3-0.8-9.3-2.5-12.1c-1.8-3-4.4-4.5-7.7-4.5s-6.2,1.4-8.2,4.3
		c-2,3-3.1,7.1-3.1,12.4c0,4.8,0.8,8.7,2.4,11.7c1.9,3.3,4.8,4.9,8.7,4.9c3.5,0,6.2-1.6,8-4.9C559.4,61.2,560.2,57.2,560.2,52.1
		L560.2,52.1z"/>
</g>
<g>
	<path class="st0" d="M159.6,103.7c1.2,1.2,1.8,2.8,1.8,4.8v13.2c0,0.3-0.1,0.4-0.4,0.4h-1.3c-0.3,0-0.4-0.1-0.4-0.4v-1.9
		c0-0.1,0-0.1-0.1-0.1s-0.1,0-0.1,0c-0.7,0.9-1.6,1.5-2.7,2s-2.3,0.7-3.6,0.7c-1.8,0-3.4-0.5-4.6-1.4s-1.9-2.3-1.9-4.2
		s0.7-3.5,2.2-4.6s3.4-1.7,6-1.7h4.7c0.1,0,0.2-0.1,0.2-0.2v-1.8c0-1.5-0.4-2.7-1.2-3.5c-0.8-0.9-2.1-1.3-3.8-1.3
		c-1.3,0-2.4,0.3-3.3,0.8c-0.9,0.6-1.4,1.3-1.6,2.2c-0.1,0.3-0.2,0.4-0.5,0.4l-1.4-0.2c-0.3-0.1-0.4-0.2-0.4-0.3
		c0.2-1.4,1-2.6,2.3-3.4s2.9-1.3,4.9-1.3C156.7,101.9,158.4,102.5,159.6,103.7L159.6,103.7z M157.5,119.4c1.2-0.8,1.8-1.9,1.8-3.4
		v-3.6c0-0.1-0.1-0.2-0.2-0.2h-4.5c-1.9,0-3.4,0.4-4.5,1.2c-1.1,0.8-1.7,1.9-1.7,3.3c0,1.3,0.4,2.3,1.3,2.9s2,1,3.4,1
		C154.9,120.6,156.3,120.2,157.5,119.4L157.5,119.4z"/>
	<path class="st0" d="M168.5,121c-1.3-1-2.2-2.3-2.6-3.9c-0.3-1.3-0.5-2.9-0.5-4.9s0.2-3.6,0.5-4.9c0.4-1.6,1.3-2.9,2.6-3.9
		s2.9-1.5,4.8-1.5s3.5,0.5,4.8,1.4s2.2,2.1,2.6,3.6c0.1,0.4,0.2,0.7,0.2,1.1v0.1c0,0.2-0.1,0.3-0.4,0.4l-1.3,0.2h-0.1
		c-0.2,0-0.3-0.1-0.4-0.4l-0.1-0.6c-0.2-1.1-0.9-2-1.9-2.8c-1-0.8-2.2-1.1-3.6-1.1s-2.6,0.4-3.6,1.2c-1,0.8-1.6,1.8-1.8,3
		c-0.2,1-0.4,2.4-0.4,4.2s0.1,3.2,0.4,4.2c0.3,1.3,0.9,2.3,1.8,3.1c1,0.8,2.2,1.1,3.6,1.1s2.6-0.4,3.6-1.1s1.6-1.7,1.8-2.8l0-0.2
		c0.1-0.3,0.2-0.4,0.5-0.4l1.2,0.2c0.3,0.1,0.4,0.2,0.4,0.4l-0.2,0.7c-0.4,1.5-1.2,2.7-2.6,3.6c-1.4,0.9-3,1.4-4.8,1.4
		S169.8,122,168.5,121L168.5,121z"/>
	<path class="st0" d="M192.5,104h-4.6c-0.1,0-0.2,0.1-0.2,0.2v12.5c0,1.3,0.3,2.3,0.9,2.8c0.6,0.5,1.6,0.8,2.9,0.8h0.9
		c0.3,0,0.4,0.1,0.4,0.4v1.1c0,0.3-0.1,0.4-0.4,0.4l-1.2,0c-1.8,0-3.2-0.4-4.2-1.1s-1.4-2-1.4-3.9v-13c0-0.1-0.1-0.2-0.2-0.2h-2.4
		c-0.3,0-0.4-0.1-0.4-0.4v-1c0-0.3,0.1-0.4,0.4-0.4h2.4c0.1,0,0.2-0.1,0.2-0.2v-4.5c0-0.3,0.1-0.4,0.4-0.4h1.3
		c0.3,0,0.4,0.1,0.4,0.4v4.5c0,0.1,0.1,0.2,0.2,0.2h4.6c0.3,0,0.4,0.1,0.4,0.4v1C192.9,103.8,192.8,104,192.5,104L192.5,104z"/>
	<path class="st0" d="M197.3,97.7c-0.4-0.4-0.6-0.8-0.6-1.4s0.2-1.1,0.6-1.4c0.4-0.4,0.8-0.6,1.4-0.6s1.1,0.2,1.4,0.6
		c0.4,0.4,0.6,0.8,0.6,1.4s-0.2,1.1-0.6,1.4s-0.8,0.6-1.4,0.6S197.7,98,197.3,97.7z M197.6,121.7v-19.1c0-0.3,0.1-0.4,0.4-0.4h1.3
		c0.3,0,0.4,0.1,0.4,0.4v19.1c0,0.3-0.1,0.4-0.4,0.4H198C197.7,122.1,197.6,122,197.6,121.7z"/>
	<path class="st0" d="M210,121.8l-6.6-19.2l0-0.2c0-0.2,0.1-0.3,0.4-0.3h1.5c0.2,0,0.4,0.1,0.5,0.3l5.4,16.3c0,0.1,0.1,0.1,0.1,0.1
		s0.1,0,0.1-0.1l5.4-16.3c0.1-0.2,0.2-0.3,0.5-0.3l1.5,0c0.3,0,0.4,0.1,0.3,0.4l-6.5,19.1c-0.1,0.2-0.2,0.3-0.5,0.3h-1.5
		C210.2,122.1,210,122,210,121.8L210,121.8z"/>
	<path class="st0" d="M232.7,119.7c0.9-0.6,1.6-1.4,2.1-2.4c0.1-0.2,0.3-0.3,0.5-0.2l1,0.5c0.2,0.1,0.3,0.3,0.2,0.5
		c-0.6,1.3-1.5,2.3-2.8,3.1s-2.7,1.1-4.4,1.1c-1.8,0-3.4-0.4-4.7-1.3s-2.2-2.1-2.6-3.7c-0.2-0.7-0.4-1.4-0.4-2.2s-0.1-1.8-0.1-3.1
		s0-2.3,0.1-2.9c0-0.7,0.1-1.3,0.3-1.8c0.4-1.7,1.3-3,2.6-4c1.3-1,2.9-1.5,4.8-1.5c2.2,0,3.9,0.6,5.2,1.7s2.1,2.7,2.4,4.6
		c0.1,0.5,0.1,1.1,0.2,1.8s0,1.5,0,2.5c0,0.3-0.1,0.4-0.4,0.4h-12.9c-0.1,0-0.2,0.1-0.2,0.2c0,1.7,0.1,2.8,0.2,3.4
		c0.3,1.3,0.9,2.3,2,3.1c1,0.8,2.3,1.1,3.9,1.1C230.7,120.6,231.8,120.3,232.7,119.7L232.7,119.7z M223.5,110.9c0,0.1,0,0.2,0.2,0.2
		h11c0.1,0,0.2-0.1,0.2-0.2c0-1.3-0.1-2.3-0.2-3c-0.3-1.3-0.9-2.3-1.9-3.1c-1-0.8-2.2-1.2-3.6-1.2s-2.6,0.4-3.5,1.1
		c-1,0.8-1.5,1.8-1.8,3C223.6,108.4,223.5,109.4,223.5,110.9L223.5,110.9z"/>
	<path class="st0" d="M260.2,94.5h1.3c0.3,0,0.4,0.1,0.4,0.4v26.9c0,0.3-0.1,0.4-0.4,0.4h-1.3c-0.3,0-0.4-0.1-0.4-0.4v-1.9
		c0-0.1,0-0.1-0.1-0.1c0,0-0.1,0-0.1,0.1c-0.5,0.9-1.3,1.5-2.2,2s-2,0.7-3.1,0.7c-1.8,0-3.3-0.5-4.5-1.4c-1.2-0.9-2.1-2.2-2.5-3.8
		c-0.2-0.6-0.3-1.3-0.4-2c0-0.8-0.1-1.7-0.1-2.9s0-2.2,0.1-2.9c0-0.8,0.2-1.4,0.3-2.1c0.4-1.6,1.2-2.9,2.5-3.9s2.8-1.4,4.6-1.4
		c1.2,0,2.2,0.2,3.1,0.7c0.9,0.5,1.7,1.1,2.2,2c0,0.1,0.1,0.1,0.1,0.1s0.1-0.1,0.1-0.1v-9.7C259.8,94.6,259.9,94.5,260.2,94.5z
		 M259.7,115.2c0.1-0.6,0.1-1.6,0.1-3s0-2.4-0.1-3.1c-0.1-0.7-0.2-1.2-0.4-1.8c-0.3-1.1-0.9-2-1.7-2.6s-1.9-1-3.1-1s-2.3,0.3-3.2,1
		s-1.5,1.5-1.8,2.6c-0.2,0.5-0.4,1.1-0.5,1.7c-0.1,0.6-0.1,1.7-0.1,3.1s0,2.4,0.1,3s0.2,1.2,0.4,1.7c0.3,1.1,0.9,2,1.8,2.7
		c0.9,0.7,2,1,3.3,1s2.3-0.3,3.1-1c0.8-0.7,1.4-1.6,1.7-2.7C259.5,116.4,259.6,115.8,259.7,115.2L259.7,115.2z"/>
	<path class="st0" d="M267.2,97.7c-0.4-0.4-0.5-0.8-0.5-1.4s0.2-1.1,0.5-1.4c0.4-0.4,0.8-0.6,1.4-0.6s1,0.2,1.4,0.6
		c0.4,0.4,0.5,0.8,0.5,1.4s-0.2,1.1-0.5,1.4c-0.4,0.4-0.8,0.6-1.4,0.6S267.6,98,267.2,97.7z M267.5,121.7v-19.1
		c0-0.3,0.1-0.4,0.4-0.4h1.3c0.3,0,0.4,0.1,0.4,0.4v19.1c0,0.3-0.1,0.4-0.4,0.4h-1.3C267.7,122.1,267.5,122,267.5,121.7z"/>
	<path class="st0" d="M285.2,102.5c0.2,0.1,0.3,0.2,0.2,0.5l-0.4,1.3c-0.1,0.3-0.2,0.3-0.5,0.2c-0.5-0.2-1.2-0.3-2-0.3
		c-1.5,0-2.7,0.6-3.6,1.7c-1,1.1-1.4,2.4-1.4,4v11.8c0,0.3-0.1,0.4-0.4,0.4h-1.3c-0.3,0-0.4-0.1-0.4-0.4v-19.1
		c0-0.3,0.1-0.4,0.4-0.4h1.3c0.3,0,0.4,0.1,0.4,0.4v2.7c0,0.1,0,0.1,0.1,0.1c0,0,0.1,0,0.1-0.1c0.5-1,1.3-1.8,2.1-2.4
		s1.9-0.9,3.1-0.9C283.8,102.1,284.6,102.2,285.2,102.5L285.2,102.5z"/>
	<path class="st0" d="M298.5,119.7c0.9-0.6,1.6-1.4,2.1-2.4c0.1-0.2,0.3-0.3,0.5-0.2l1,0.5c0.2,0.1,0.3,0.3,0.2,0.5
		c-0.6,1.3-1.5,2.3-2.8,3.1s-2.7,1.1-4.4,1.1c-1.8,0-3.4-0.4-4.7-1.3s-2.2-2.1-2.6-3.7c-0.2-0.7-0.4-1.4-0.4-2.2s-0.1-1.8-0.1-3.1
		s0-2.3,0.1-2.9c0-0.7,0.1-1.3,0.3-1.8c0.4-1.7,1.3-3,2.6-4c1.3-1,2.9-1.5,4.8-1.5c2.2,0,3.9,0.6,5.2,1.7s2.1,2.7,2.4,4.6
		c0.1,0.5,0.1,1.1,0.2,1.8s0,1.5,0,2.5c0,0.3-0.1,0.4-0.4,0.4h-12.9c-0.1,0-0.2,0.1-0.2,0.2c0,1.7,0.1,2.8,0.2,3.4
		c0.3,1.3,0.9,2.3,2,3.1c1,0.8,2.3,1.1,3.9,1.1C296.5,120.6,297.6,120.3,298.5,119.7L298.5,119.7z M289.3,110.9c0,0.1,0,0.2,0.2,0.2
		h11c0.1,0,0.2-0.1,0.2-0.2c0-1.3-0.1-2.3-0.2-3c-0.3-1.3-0.9-2.3-1.9-3.1c-1-0.8-2.2-1.2-3.6-1.2s-2.6,0.4-3.5,1.1
		c-1,0.8-1.5,1.8-1.8,3C289.4,108.4,289.3,109.4,289.3,110.9L289.3,110.9z"/>
	<path class="st0" d="M309.5,121c-1.3-1-2.2-2.3-2.6-3.9c-0.3-1.3-0.5-2.9-0.5-4.9s0.2-3.6,0.5-4.9c0.4-1.6,1.3-2.9,2.6-3.9
		c1.3-1,2.9-1.5,4.8-1.5s3.5,0.5,4.8,1.4s2.2,2.1,2.6,3.6c0.1,0.4,0.2,0.7,0.2,1.1v0.1c0,0.2-0.1,0.3-0.4,0.4l-1.3,0.2h-0.1
		c-0.2,0-0.3-0.1-0.4-0.4l-0.1-0.6c-0.2-1.1-0.9-2-1.9-2.8c-1-0.8-2.2-1.1-3.6-1.1s-2.6,0.4-3.6,1.2c-1,0.8-1.6,1.8-1.8,3
		c-0.2,1-0.4,2.4-0.4,4.2s0.1,3.2,0.4,4.2c0.3,1.3,0.9,2.3,1.8,3.1s2.2,1.1,3.6,1.1s2.6-0.4,3.6-1.1s1.6-1.7,1.8-2.8l0-0.2
		c0-0.3,0.2-0.4,0.5-0.4l1.2,0.2c0.3,0.1,0.4,0.2,0.4,0.4l-0.2,0.7c-0.4,1.5-1.2,2.7-2.6,3.6c-1.4,0.9-3,1.4-4.8,1.4
		S310.8,122,309.5,121L309.5,121z"/>
	<path class="st0" d="M333.6,104H329c-0.1,0-0.2,0.1-0.2,0.2v12.5c0,1.3,0.3,2.3,0.9,2.8c0.6,0.5,1.6,0.8,2.9,0.8h0.9
		c0.3,0,0.4,0.1,0.4,0.4v1.1c0,0.3-0.1,0.4-0.4,0.4l-1.2,0c-1.8,0-3.2-0.4-4.2-1.1s-1.4-2-1.4-3.9v-13c0-0.1,0-0.2-0.2-0.2h-2.4
		c-0.3,0-0.4-0.1-0.4-0.4v-1c0-0.3,0.1-0.4,0.4-0.4h2.4c0.1,0,0.2-0.1,0.2-0.2v-4.5c0-0.3,0.1-0.4,0.4-0.4h1.3
		c0.3,0,0.4,0.1,0.4,0.4v4.5c0,0.1,0,0.2,0.2,0.2h4.6c0.3,0,0.4,0.1,0.4,0.4v1C334,103.8,333.9,104,333.6,104L333.6,104z"/>
	<path class="st0" d="M340.6,121c-1.3-1-2.2-2.3-2.7-3.9c-0.3-1.1-0.4-2.7-0.4-4.9s0.1-3.9,0.4-4.9c0.5-1.6,1.4-2.9,2.7-3.9
		c1.3-1,2.9-1.4,4.8-1.4s3.4,0.5,4.8,1.5c1.3,1,2.2,2.3,2.7,3.9c0.2,0.6,0.3,1.3,0.3,2c0,0.8,0.1,1.7,0.1,2.9s0,2.2-0.1,2.9
		c0,0.7-0.2,1.4-0.3,2c-0.5,1.6-1.3,2.9-2.7,3.9c-1.3,1-2.9,1.5-4.8,1.5S341.9,122,340.6,121L340.6,121z M348.9,119.4
		c1-0.8,1.6-1.8,1.9-3.1c0.2-0.7,0.3-2.1,0.3-4.2s-0.1-3.5-0.2-4.2c-0.3-1.3-0.9-2.3-1.9-3.1c-1-0.8-2.2-1.2-3.6-1.2
		s-2.6,0.4-3.6,1.2c-1,0.8-1.6,1.8-1.9,3.1c-0.2,0.8-0.3,2.2-0.3,4.2s0.1,3.4,0.3,4.2c0.3,1.3,0.9,2.3,1.9,3.1
		c1,0.8,2.2,1.1,3.6,1.1S347.9,120.2,348.9,119.4L348.9,119.4z"/>
	<path class="st0" d="M367.5,102.5c0.2,0.1,0.3,0.2,0.2,0.5l-0.4,1.3c-0.1,0.3-0.2,0.3-0.5,0.2c-0.5-0.2-1.2-0.3-2-0.3
		c-1.5,0-2.7,0.6-3.6,1.7c-1,1.1-1.4,2.4-1.4,4v11.8c0,0.3-0.1,0.4-0.4,0.4h-1.3c-0.3,0-0.4-0.1-0.4-0.4v-19.1
		c0-0.3,0.1-0.4,0.4-0.4h1.3c0.3,0,0.4,0.1,0.4,0.4v2.7c0,0.1,0,0.1,0.1,0.1c0,0,0.1,0,0.1-0.1c0.5-1,1.3-1.8,2.1-2.4
		s1.9-0.9,3.1-0.9C366.1,102.1,366.9,102.2,367.5,102.5L367.5,102.5z"/>
	<path class="st0" d="M368.7,129.6v-1c0-0.3,0.1-0.4,0.4-0.4h0.2c1,0,1.8-0.2,2.4-0.5s1-0.9,1.5-1.7c0.4-0.8,0.9-2.1,1.4-3.8
		c0-0.1,0-0.2,0-0.2l-6.8-19.4l0-0.2c0-0.2,0.1-0.3,0.4-0.3h1.3c0.2,0,0.4,0.1,0.5,0.3l5.6,16.7c0,0.1,0.1,0.1,0.1,0.1
		s0.1,0,0.1-0.1l5.5-16.8c0.1-0.2,0.2-0.3,0.5-0.3h1.3c0.3,0,0.4,0.2,0.3,0.4l-7.5,21.5c-0.6,1.7-1.2,3-1.7,3.8
		c-0.5,0.8-1.1,1.4-1.9,1.7c-0.7,0.3-1.7,0.4-3,0.4H369C368.8,130,368.7,129.9,368.7,129.6L368.7,129.6z"/>
</g>
</svg>
