<svg id="Layer_1" xmlns="http://www.w3.org/2000/svg" viewBox="0 0 1024 1024"><style>.st0{fill:#226db4}.st1{opacity:.9}</style><g class="st1"><path class="st0" d="M511.95 1023.82H411.83c-66.77 0-129.55-26-176.77-73.22s-73.22-110-73.22-176.77V401.75c0-66.77 26-129.55 73.22-176.77s110-73.22 176.77-73.22h100.12c16.57 0 30 13.43 30 30s-13.43 30-30 30H411.83c-104.76 0-189.99 85.23-189.99 189.99v1c0 104.76 85.23 189.99 189.99 189.99h100.22c7.96 0 15.59 3.16 21.22 8.79a29.952 29.952 0 0 1 8.78 21.22l-.1 371.07c0 16.57-13.44 30-30 30zM221.84 565.26v208.57c0 104.76 85.23 189.99 189.99 189.99h70.13l.08-311.07h-70.21c-66.77 0-129.55-26-176.77-73.22-4.61-4.62-9.02-9.37-13.22-14.27z"/></g><g class="st1"><path class="st0" d="M612.17 872.24H512.05c-16.57 0-30-13.43-30-30s13.43-30 30-30h100.02c104.76 0 189.99-85.23 189.99-189.99s-85.23-189.99-189.99-189.99H512.05c-16.57 0-30-13.43-30-30V30.18c0-16.57 13.43-30 30-30h100.12c66.78 0 129.55 26 176.77 73.22s73.22 110 73.22 176.77v372.07c0 66.78-26 129.55-73.22 176.77s-110 73.23-176.77 73.23zm-70.12-499.99h70.02c66.78 0 129.55 26 176.77 73.22 4.65 4.65 9.09 9.44 13.32 14.38V250.18c0-104.76-85.23-189.99-189.99-189.99h-70.12v312.06z"/></g></svg>