<svg width="81" height="80" xmlns="http://www.w3.org/2000/svg" xmlns:xlink="http://www.w3.org/1999/xlink" overflow="hidden"><defs><clipPath id="clip0"><rect x="549" y="124" width="81" height="80"/></clipPath><clipPath id="clip1"><rect x="550" y="124" width="80" height="80"/></clipPath><clipPath id="clip2"><rect x="550" y="124" width="80" height="80"/></clipPath><clipPath id="clip3"><rect x="550" y="124" width="80" height="80"/></clipPath><linearGradient x1="550" y1="204" x2="630" y2="124" gradientUnits="userSpaceOnUse" spreadMethod="pad" id="fill4"><stop offset="0" stop-color="#055F4E" stop-opacity="1"/><stop offset="1" stop-color="#56C0A7" stop-opacity="1"/></linearGradient></defs><g clip-path="url(#clip0)" transform="translate(-549 -124)"><g clip-path="url(#clip1)"><g clip-path="url(#clip2)"><g clip-path="url(#clip3)"><path d="M550 124 630 124 630 204 550 204Z" fill="url(#fill4)" fill-rule="evenodd"/><path d="M609 172 611 172 611 166 609 166 609 172ZM616 181 612 181C611.447 181 611 180.552 611 180L611 176 607 176 607 180C607 180.552 606.553 181 606 181L602 181 602 185 606 185C606.553 185 607 185.448 607 186L607 190 611 190 611 186C611 185.448 611.447 185 612 185L616 185 616 181ZM618 180 618 186C618 186.552 617.553 187 617 187L613 187 613 191C613 191.552 612.553 192 612 192L606 192C605.447 192 605 191.552 605 191L605 187 601 187C600.447 187 600 186.552 600 186L600 180C600 179.448 600.447 179 601 179L605 179 605 175C605 174.448 605.447 174 606 174L612 174C612.553 174 613 174.448 613 175L613 179 617 179C617.553 179 618 179.448 618 180ZM583 143 597 143 597 138 583 138 583 143ZM581 144 581 137C581 136.448 581.447 136 582 136L598 136C598.553 136 599 136.448 599 137L599 144C599 144.552 598.553 145 598 145L582 145C581.447 145 581 144.552 581 144ZM571 141.545C571 140.693 571.693 140 572.546 140L579 140 579 138 572.546 138C570.591 138 569 139.59 569 141.545L569 157 571 157 571 141.545ZM609 141.545 609 157 611 157 611 141.545C611 139.59 609.409 138 607.454 138L601 138 601 140 607.454 140C608.307 140 609 140.693 609 141.545ZM571 188.455 571 166 569 166 569 188.455C569 190.41 570.591 192 572.546 192L602 192 602 190 572.546 190C571.693 190 571 189.307 571 188.455ZM601.618 161 596.895 151.553C596.723 151.209 596.4 151.011 595.984 151 595.6 151.006 595.253 151.232 595.092 151.581L589.841 162.958 584.832 155.445C584.461 154.889 583.539 154.889 583.168 155.445L579.465 161 562 161 562 163 580 163C580.334 163 580.646 162.833 580.832 162.555L584 157.803 589.168 165.555C589.354 165.834 589.667 166 590 166 590.025 166 590.052 165.999 590.078 165.997 590.438 165.969 590.756 165.748 590.908 165.419L596.036 154.308 600.105 162.447C600.275 162.786 600.621 163 601 163L618 163 618 161 601.618 161ZM575 178 593 178 593 176 575 176 575 178ZM575 184 593 184 593 182 575 182 575 184Z" fill="#FFFFFF" fill-rule="evenodd" fill-opacity="1"/></g></g></g></g></svg>