<svg xmlns="http://www.w3.org/2000/svg" xmlns:xlink="http://www.w3.org/1999/xlink" viewBox="0 0 81 76" fill="#fff" fill-rule="evenodd" stroke="#000" stroke-linecap="round" stroke-linejoin="round"><style><![CDATA[.B{fill:#aecbfa}.C{fill-rule:nonzero}.D{fill:#4285f4}.E{fill:#669df6}]]></style><use xlink:href="#A" x=".5" y=".5"/><symbol id="A" overflow="visible"><g stroke="none"><use xlink:href="#C" class="B C"/><path d="M22.32 26H47.8l2.96-2.8-2.96-2.8H22.32V26z" class="D"/><g class="C"><path d="M14.28 23.2a4.91 4.91 0 0 1 4.92-4.92 4.91 4.91 0 1 1 0 9.84 4.91 4.91 0 0 1-4.92-4.92z" class="E"/><use xlink:href="#C" x="20.8" y="-14" class="B"/></g><path d="M29.44 51.2L32.4 54h25.12v-5.6H32.4l-2.96 2.8z" class="D"/><g class="C"><use xlink:href="#C" x="-20.8" y="14" class="B"/><path d="M55.88 51.2a4.91 4.91 0 1 1 9.84 0 4.91 4.91 0 1 1-9.84 0z" class="E"/></g><path d="M8.72 9.2h50.72l2.96-2.8-2.96-2.8H8.72v5.6z" class="D"/><g class="C"><path d="M1.48 6.4A4.91 4.91 0 0 1 6.4 1.48a4.91 4.91 0 0 1 4.92 4.92 4.91 4.91 0 0 1-4.92 4.92A4.91 4.91 0 0 1 1.48 6.4z" class="E"/><path d="M67.2 6.4c0-3.546 2.854-6.4 6.4-6.4S80 2.854 80 6.4s-2.854 6.4-6.4 6.4-6.4-2.854-6.4-6.4z" class="B"/></g><path d="M17.6 68l2.96 2.8h50.8v-5.6h-50.8L17.6 68z" class="D"/><g class="C"><path d="M0 68c0-3.546 2.854-6.4 6.4-6.4s6.4 2.854 6.4 6.4-2.854 6.4-6.4 6.4S0 71.546 0 68z" class="B"/><path d="M68.68 68a4.91 4.91 0 1 1 9.84 0 4.91 4.91 0 1 1-9.84 0z" class="E"/></g></g></symbol><defs ><path id="C" d="M33.6 37.2c0-3.546 2.854-6.4 6.4-6.4s6.4 2.854 6.4 6.4-2.854 6.4-6.4 6.4-6.4-2.854-6.4-6.4z"/></defs></svg>