<svg width="81" height="80" xmlns="http://www.w3.org/2000/svg" xmlns:xlink="http://www.w3.org/1999/xlink" overflow="hidden"><defs><clipPath id="clip0"><rect x="313" y="124" width="81" height="80"/></clipPath><clipPath id="clip1"><rect x="314" y="124" width="80" height="80"/></clipPath><clipPath id="clip2"><rect x="314" y="124" width="80" height="80"/></clipPath><clipPath id="clip3"><rect x="314" y="124" width="80" height="80"/></clipPath><linearGradient x1="314" y1="204" x2="394" y2="124" gradientUnits="userSpaceOnUse" spreadMethod="pad" id="fill4"><stop offset="0" stop-color="#B0084D" stop-opacity="1"/><stop offset="1" stop-color="#FF4F8B" stop-opacity="1"/></linearGradient></defs><g clip-path="url(#clip0)" transform="translate(-313 -124)"><g clip-path="url(#clip1)"><g clip-path="url(#clip2)"><g clip-path="url(#clip3)"><path d="M314 124 394 124 394 204 314 204Z" fill="url(#fill4)" fill-rule="evenodd"/><path d="M344.003 161C345.657 161 347.003 162.346 347.003 164L349.003 164C349.003 161.243 346.76 159 344.003 159 341.246 159 339.003 161.243 339.003 164L341.003 164C341.003 162.346 342.349 161 344.003 161ZM359.71 164.71 362.503 161.916 365.296 164.71 366.71 163.296 363.917 160.501 366.71 157.707 365.296 156.293 362.503 159.087 359.71 156.293 358.296 157.707 361.089 160.501 358.296 163.296 359.71 164.71ZM351.003 149.5C351.003 148.122 349.882 147 348.503 147 347.124 147 346.003 148.122 346.003 149.5 346.003 150.878 347.124 152 348.503 152 349.882 152 351.003 150.878 351.003 149.5ZM353.003 149.5C353.003 151.981 350.984 154 348.503 154 346.022 154 344.003 151.981 344.003 149.5 344.003 147.019 346.022 145 348.503 145 350.984 145 353.003 147.019 353.003 149.5ZM347.003 168 341.003 168 341.003 180.894C344.06 180.309 347.003 177.235 347.003 175L347.003 168ZM347.003 179.511C345.508 181.229 343.332 182.607 341.003 182.925L341.003 187C341.003 188.369 341.524 190 344.003 190 346.482 190 347.003 188.369 347.003 187L347.003 179.511ZM349.003 166 351.003 166 351.003 168 349.003 168 349.003 187C349.003 189.417 347.69 192 344.003 192 340.316 192 339.003 189.417 339.003 187L339.003 168 337.003 168 337.003 166 339.003 166 341.003 166 347.003 166 349.003 166ZM381.959 162.3C381.959 172.152 372.176 172.99 372.077 172.997L353.003 173 353.003 171 372.003 171C372.255 170.977 379.959 170.278 379.959 162.3 379.959 155.435 373.821 153.843 371.94 153.519 371.406 153.427 371.043 152.927 371.119 152.391L371.125 152.354C371.106 149.372 369.855 147.256 367.685 146.543 365.754 145.909 363.626 146.609 362.389 148.287 362.169 148.584 361.798 148.735 361.437 148.683 361.07 148.628 360.764 148.375 360.641 148.026 359.823 145.706 358.639 143.755 357.121 142.227 355.258 140.353 350.144 136.323 342.924 139.387 338.752 141.159 335.483 146.265 335.483 151.01L335.582 152.647C335.61 153.125 335.296 153.556 334.833 153.675 332.363 154.309 328.22 156.261 328.22 162.217 328.22 166.682 330.637 169.144 332.663 170.423 333.277 170.811 334.053 170.999 335.037 171L335.035 173C333.662 172.999 332.537 172.709 331.596 172.114 329.588 170.848 326.22 167.877 326.22 162.217 326.22 155.377 330.844 152.857 333.539 151.971L333.485 151.069C333.483 145.431 337.206 139.643 342.143 137.546 347.926 135.088 354.059 136.311 358.539 140.817 359.929 142.215 361.067 143.911 361.938 145.873 363.698 144.413 366.093 143.915 368.31 144.643 371.139 145.573 372.899 148.191 373.105 151.717 375.961 152.392 381.959 154.716 381.959 162.3Z" fill="#FFFFFF" fill-rule="evenodd" fill-opacity="1"/></g></g></g></g></svg>