<svg width="82" height="80" xmlns="http://www.w3.org/2000/svg" xmlns:xlink="http://www.w3.org/1999/xlink" overflow="hidden"><defs><clipPath id="clip0"><rect x="790" y="124" width="82" height="80"/></clipPath><clipPath id="clip1"><rect x="791" y="124" width="80" height="80"/></clipPath><clipPath id="clip2"><rect x="791" y="124" width="80" height="80"/></clipPath><clipPath id="clip3"><rect x="791" y="124" width="80" height="80"/></clipPath><linearGradient x1="791" y1="204" x2="871" y2="124" gradientUnits="userSpaceOnUse" spreadMethod="pad" id="fill4"><stop offset="0" stop-color="#055F4E" stop-opacity="1"/><stop offset="1" stop-color="#56C0A7" stop-opacity="1"/></linearGradient></defs><g clip-path="url(#clip0)" transform="translate(-790 -124)"><g clip-path="url(#clip1)"><g clip-path="url(#clip2)"><g clip-path="url(#clip3)"><path d="M791 124 871 124 871 204 791 204Z" fill="url(#fill4)" fill-rule="evenodd"/><path d="M810.095 145.664C810.095 144.248 811.245 143.097 812.66 143.097 814.075 143.097 815.227 144.248 815.227 145.664 815.227 147.08 814.075 148.231 812.66 148.231 811.245 148.231 810.095 147.08 810.095 145.664ZM817.227 145.664C817.227 143.145 815.178 141.097 812.66 141.097 810.143 141.097 808.095 143.145 808.095 145.664 808.095 148.183 810.143 150.231 812.66 150.231 815.178 150.231 817.227 148.183 817.227 145.664ZM850.878 188C848.053 188 845.755 185.702 845.755 182.875 845.755 180.049 848.053 177.75 850.878 177.75 853.702 177.75 856 180.049 856 182.875 856 185.702 853.702 188 850.878 188ZM832.529 161.443C834.224 161.443 835.604 162.823 835.604 164.519 835.604 166.216 834.224 167.597 832.529 167.597 830.833 167.597 829.453 166.216 829.453 164.519 829.453 162.823 830.833 161.443 832.529 161.443ZM828.29 161.741C827.764 162.54 827.453 163.493 827.453 164.519 827.453 167.319 829.73 169.597 832.529 169.597 835.327 169.597 837.604 167.319 837.604 164.519 837.604 161.72 835.327 159.443 832.529 159.443 831.479 159.443 830.502 159.764 829.692 160.312L825.08 156.139C827.065 154.372 829.669 153.289 832.529 153.289 838.719 153.289 843.755 158.327 843.755 164.519 843.755 170.712 838.719 175.75 832.529 175.75 826.338 175.75 821.302 170.712 821.302 164.519 821.302 161.906 822.206 159.504 823.708 157.594L828.29 161.741ZM832.529 189C819.034 189 808.057 178.018 808.057 164.519 808.057 161.188 808.718 157.974 810.007 154.948 810.851 155.19 811.74 155.328 812.66 155.328 814.981 155.328 817.113 154.503 818.781 153.134L822.222 156.248C820.399 158.516 819.302 161.39 819.302 164.519 819.302 171.815 825.236 177.75 832.529 177.75 839.822 177.75 845.755 171.815 845.755 164.519 845.755 157.224 839.822 151.289 832.529 151.289 829.082 151.289 825.949 152.625 823.593 154.793L820.186 151.708C821.518 150.052 822.321 147.951 822.321 145.664 822.321 144.565 822.127 143.513 821.788 142.528 825.143 140.882 828.751 140.039 832.529 140.039 836.575 140.039 840.553 141.053 844.092 142.954 844.04 143.296 844.005 143.644 844.005 144 844.005 147.86 847.144 151 851.002 151 851.61 151 852.197 150.914 852.759 150.768 855.528 154.832 857 159.571 857 164.519 857 168.707 855.921 172.802 853.897 176.432 852.979 175.999 851.958 175.75 850.878 175.75 846.95 175.75 843.755 178.947 843.755 182.875 843.755 183.956 844.004 184.977 844.436 185.895 840.808 187.921 836.715 189 832.529 189ZM805 145.664C805 141.438 808.437 138 812.66 138 816.884 138 820.321 141.438 820.321 145.664 820.321 149.89 816.884 153.328 812.66 153.328 808.437 153.328 805 149.89 805 145.664ZM851.002 139.001C853.758 139.001 856 141.244 856 144 856 146.757 853.758 149 851.002 149 848.246 149 846.005 146.757 846.005 144 846.005 141.244 848.246 139.001 851.002 139.001ZM855.572 177.531C857.809 173.573 859 169.097 859 164.519 859 159.3 857.481 154.298 854.63 149.975 856.647 148.745 858 146.531 858 144 858 140.141 854.861 137.001 851.002 137.001 848.216 137.001 845.813 138.642 844.688 141.005 840.946 139.068 836.772 138.039 832.529 138.039 828.516 138.039 824.528 138.97 820.944 140.717 819.254 137.897 816.178 136 812.66 136 807.334 136 803 140.335 803 145.664 803 149.363 805.091 152.58 808.151 154.204 806.767 157.467 806.057 160.931 806.057 164.519 806.057 179.121 817.932 191 832.529 191 837.105 191 841.578 189.808 845.534 187.571 846.84 189.057 848.749 190 850.878 190 854.805 190 858 186.804 858 182.875 858 180.746 857.057 178.837 855.572 177.531Z" fill="#FFFFFF" fill-rule="evenodd" fill-opacity="1"/></g></g></g></g></svg>