<?xml version="1.0" encoding="utf-8"?>
<!-- Generator: Adobe Illustrator 24.1.2, SVG Export Plug-In . SVG Version: 6.00 Build 0)  -->
<svg version="1.1" id="Layer_1" xmlns="http://www.w3.org/2000/svg" xmlns:xlink="http://www.w3.org/1999/xlink" x="0px" y="0px"
	 viewBox="0 0 972.1 882.4" style="enable-background:new 0 0 972.1 882.4;" xml:space="preserve">
<style type="text/css">
	.st0{fill:url(#SVGID_1_);}
</style>
<radialGradient id="SVGID_1_" cx="-157.052" cy="1336.8119" r="0.6626" gradientTransform="matrix(944.8934 0 0 -873.3772 148884.2812 1168018.375)" gradientUnits="userSpaceOnUse">
	<stop  offset="0" style="stop-color:#FFB900"/>
	<stop  offset="0.6" style="stop-color:#F95D8F"/>
	<stop  offset="0.9991" style="stop-color:#F95353"/>
</radialGradient>
<path class="st0" d="M753.9,462.4c-113.5,0-205.5,92-205.5,205.5c0,113.5,92,205.5,205.5,205.5c113.5,0,205.5-92,205.5-205.5
	C959.3,554.4,867.3,462.4,753.9,462.4L753.9,462.4z M220,462.4c-113.5,0-205.5,92-205.5,205.5c0,113.5,92,205.5,205.5,205.5
	c113.5,0,205.5-92,205.5-205.5C425.5,554.4,333.5,462.4,220,462.4L220,462.4z M692.4,205.5c0,113.5-92,205.5-205.5,205.5
	c-113.5,0-205.5-92-205.5-205.5S373.4,0,486.9,0C600.4,0,692.4,92,692.4,205.5L692.4,205.5z"/>
</svg>
