<svg width="81" height="80" xmlns="http://www.w3.org/2000/svg" xmlns:xlink="http://www.w3.org/1999/xlink" overflow="hidden"><defs><clipPath id="clip0"><rect x="788" y="124" width="81" height="80"/></clipPath><clipPath id="clip1"><rect x="789" y="124" width="80" height="80"/></clipPath><clipPath id="clip2"><rect x="789" y="124" width="80" height="80"/></clipPath><clipPath id="clip3"><rect x="789" y="124" width="80" height="80"/></clipPath><linearGradient x1="789" y1="204" x2="869" y2="124" gradientUnits="userSpaceOnUse" spreadMethod="pad" id="fill4"><stop offset="0" stop-color="#BD0816" stop-opacity="1"/><stop offset="1" stop-color="#FF5252" stop-opacity="1"/></linearGradient></defs><g clip-path="url(#clip0)" transform="translate(-788 -124)"><g clip-path="url(#clip1)"><g clip-path="url(#clip2)"><g clip-path="url(#clip3)"><path d="M789 124 869 124 869 204 789 204Z" fill="url(#fill4)" fill-rule="evenodd"/><path d="M832.086 145.594C832.006 145.776 831.981 145.977 832.015 146.173L832.861 151 825.181 151 825.986 146.165C826.019 145.971 825.993 145.773 825.914 145.594L822.539 138 835.461 138 832.086 145.594ZM837.839 136.455C837.654 136.172 837.339 136 837 136L821 136C820.661 136 820.346 136.172 820.161 136.455 819.977 136.739 819.948 137.097 820.086 137.406L823.964 146.132 823.014 151.836C822.965 152.126 823.047 152.422 823.237 152.647 823.427 152.871 823.706 153 824 153L828 153 828 163 830 163 830 153 834.052 153C834.348 153 834.628 152.869 834.817 152.643 835.008 152.417 835.088 152.118 835.037 151.827L834.038 146.128 837.914 137.406C838.052 137.097 838.023 136.739 837.839 136.455ZM845.85 172.78 843.41 173.95 829 180.89 814.59 173.95 812.15 172.78 804.46 169.08 812.1 165.97 828.57 173.9C828.7 173.97 828.85 174 829 174 829.15 174 829.3 173.97 829.43 173.9L845.9 165.97 853.54 169.08 845.85 172.78ZM853.54 178.08 829 189.89 804.46 178.08 812.1 174.97 828.57 182.9C828.7 182.97 828.85 183 829 183 829.15 183 829.3 182.97 829.43 182.9L845.9 174.97 853.54 178.08ZM857.001 168.97C856.99 168.57 856.74 168.22 856.38 168.07L848.34 164.79 856.43 160.9C856.79 160.73 857.01 160.36 857.001 159.97 856.99 159.57 856.74 159.22 856.38 159.07L836.95 151.16 837.01 151.48C837.11 152.09 837.02 152.7 836.77 153.24L853.54 160.08 845.85 163.78 843.41 164.95 829 171.89 814.59 164.95 812.15 163.78 804.46 160.08 821.28 153.23C821.04 152.69 820.94 152.1 821.04 151.51L821.1 151.14 801.62 159.07C801.26 159.22 801.01 159.57 801 159.97 800.99 160.36 801.21 160.73 801.57 160.9L809.66 164.79 801.62 168.07C801.26 168.22 801.01 168.57 801 168.97 800.99 169.36 801.21 169.73 801.57 169.9L809.66 173.79 801.62 177.07C801.26 177.22 801.01 177.57 801 177.97 800.99 178.36 801.21 178.73 801.57 178.9L828.57 191.9C828.7 191.97 828.85 192 829 192 829.15 192 829.3 191.97 829.43 191.9L856.43 178.9C856.79 178.73 857.01 178.36 857.001 177.97 856.99 177.57 856.74 177.22 856.38 177.07L848.34 173.79 856.43 169.9C856.79 169.73 857.01 169.36 857.001 168.97Z" fill="#FFFFFF" fill-rule="evenodd" fill-opacity="1"/></g></g></g></g></svg>