<svg id="Layer_1" data-name="Layer 1" xmlns="http://www.w3.org/2000/svg" viewBox="0 0 512 512"><title>files-glyph</title><path d="M363.75,218.59,218.18,91.93a17,17,0,0,0-10.12-3.65H37.67A30.2,30.2,0,0,0,28.27,90a5.1,5.1,0,0,0-1.51.9l-6.49,5.66a4.62,4.62,0,0,0-1,1.29,20.56,20.56,0,0,0-2,8.2V494.23a20.55,20.55,0,0,0,2,8.19,4.27,4.27,0,0,0,1,1.29l6.48,5.65a5.41,5.41,0,0,0,1.48.9A30.14,30.14,0,0,0,37.67,512H347.51a30,30,0,0,0,9.42-1.75,5.3,5.3,0,0,0,1.5-.9l6.48-5.65a4.09,4.09,0,0,0,1-1.29,20.91,20.91,0,0,0,2-8.19V227.37A12.76,12.76,0,0,0,363.75,218.59ZM204,235.13H348.57v259l-1.21,1-309.54,0-1.21-1V106.19l1.2-1.05H199.07V230.81C199.07,233.2,201.29,235.13,204,235.13Z" fill="#212121"/><path d="M490.58,130.31,345,3.66A17,17,0,0,0,334.89,0H164.49a29.91,29.91,0,0,0-9.4,1.74,5.13,5.13,0,0,0-1.51.9L147.1,8.29a4.43,4.43,0,0,0-1,1.28,20.6,20.6,0,0,0-2,8.2V79.9h19.37v-62l1.2-1H325.9V142.52c0,2.4,2.22,4.32,5,4.32H475.4v259l-1.22,1h-98.1v16.88h98.26a30.14,30.14,0,0,0,9.42-1.75,5.36,5.36,0,0,0,1.48-.9l6.48-5.65a4,4,0,0,0,1-1.31,20.52,20.52,0,0,0,2-8.17V139.09A12.76,12.76,0,0,0,490.58,130.31Z" fill="#212121"/></svg>