<?xml version="1.0" encoding="utf-8"?>
<!-- Generator: Adobe Illustrator 26.3.1, SVG Export Plug-In . SVG Version: 6.00 Build 0)  -->
<svg version="1.1" id="Editable" xmlns="http://www.w3.org/2000/svg" xmlns:xlink="http://www.w3.org/1999/xlink" x="0px" y="0px"
	 viewBox="0 0 579.6 130" style="enable-background:new 0 0 579.6 130;" xml:space="preserve">
<style type="text/css">
	.st0{fill:#041E42;}
</style>
<g>
	<path class="st0" d="M128.5,68.6l-16.9-50.2c-1.3-4-4.8-7-8.9-7.8L49.9,0.2c-4-0.8-8.3,0.6-11.1,3.7L3,44.1
		c-2.8,3.2-3.7,7.6-2.4,11.6l16.9,50.2c1.3,4,4.8,7,8.9,7.8l52.8,10.3c0.7,0.1,1.5,0.2,2.2,0.2c3.4,0,6.6-1.4,8.8-3.9l35.8-40.1
		C128.9,77,129.8,72.6,128.5,68.6 M121.7,76.2l-35.8,40.1c-1.4,1.5-3.5,2.2-5.5,1.8l-52.8-10.3c-2.1-0.4-3.7-1.9-4.4-3.8L6.3,53.8
		c-0.7-2-0.2-4.2,1.2-5.7L43.3,7.9C44.4,6.7,46,6,47.6,6c0.4,0,0.7,0,1.1,0.1l52.8,10.3c2.1,0.4,3.7,1.9,4.4,3.9l16.9,50.2
		C123.5,72.4,123.1,74.6,121.7,76.2"/>
	<g>
		<path class="st0" d="M175.6,35.4c-0.2,0.2-0.5,0.4-0.9,0.4h-10.4c-0.3,0-0.5,0.2-0.5,0.5v24.5c0,2.6,0.6,4.5,1.7,5.6
			c1.1,1.2,2.9,1.7,5.4,1.7h3.1c0.3,0,0.6,0.1,0.9,0.4c0.2,0.2,0.4,0.5,0.4,0.9V77c0,0.8-0.4,1.2-1.2,1.3l-5.3,0.1
			c-5.4,0-9.4-0.9-12-2.8c-2.6-1.8-4-5.3-4.1-10.4v-29c0-0.3-0.2-0.5-0.5-0.5h-5.8c-0.3,0-0.6-0.1-0.9-0.4c-0.2-0.2-0.4-0.5-0.4-0.9
			v-7.1c0-0.3,0.1-0.6,0.4-0.9c0.2-0.2,0.5-0.4,0.9-0.4h5.8c0.3,0,0.5-0.2,0.5-0.5V13.7c0-0.3,0.1-0.6,0.4-0.9s0.5-0.4,0.9-0.4h8.9
			c0.3,0,0.6,0.1,0.9,0.4c0.2,0.2,0.4,0.5,0.4,0.9v11.9c0,0.3,0.2,0.5,0.5,0.5h10.4c0.3,0,0.6,0.1,0.9,0.4c0.2,0.2,0.4,0.5,0.4,0.9
			v7.1C176,34.8,175.9,35.1,175.6,35.4L175.6,35.4z"/>
		<path class="st0" d="M226.4,52l-0.1,3.2c0,0.8-0.4,1.2-1.2,1.2h-31.9c-0.3,0-0.5,0.2-0.5,0.5c0.2,2.2,0.5,3.8,0.9,4.6
			c1.6,4.9,5.6,7.4,11.9,7.4c4.6,0,8.3-1.9,11-5.7c0.3-0.4,0.6-0.6,1-0.6c0.3,0,0.5,0.1,0.7,0.3l6.3,5.2c0.6,0.5,0.7,1,0.3,1.6
			c-2.1,3-4.9,5.3-8.4,6.9c-3.5,1.6-7.4,2.4-11.7,2.4c-5.3,0-9.8-1.2-13.5-3.6s-6.4-5.7-8.1-10c-1.6-3.7-2.3-8.8-2.3-15.3
			c0-3.9,0.4-7.1,1.2-9.6c1.4-4.8,3.9-8.5,7.7-11.3s8.3-4.1,13.6-4.1c13.4,0,20.9,7,22.6,21C226.2,48,226.4,49.9,226.4,52L226.4,52z
			 M197.1,37.4c-1.7,1.3-2.8,3-3.5,5.2c-0.4,1.2-0.7,2.7-0.8,4.5c-0.1,0.3,0,0.5,0.4,0.5h20.7c0.3,0,0.5-0.2,0.5-0.5
			c-0.1-1.7-0.3-3-0.6-3.9c-0.6-2.5-1.8-4.3-3.6-5.7c-1.8-1.4-4.1-2-6.8-2C200.8,35.5,198.8,36.1,197.1,37.4L197.1,37.4z"/>
		<path class="st0" d="M270.9,30.2c3.3,3.3,4.9,7.7,4.9,13.3V77c0,0.3-0.1,0.6-0.4,0.9c-0.2,0.2-0.5,0.4-0.9,0.4h-9.4
			c-0.3,0-0.6-0.1-0.9-0.4S264,77.3,264,77V46c0-3.1-0.9-5.7-2.6-7.6s-4.1-2.9-7-2.9c-2.9,0-5.3,1-7.1,2.8c-1.8,1.9-2.7,4.4-2.7,7.5
			V77c0,0.3-0.1,0.6-0.4,0.9c-0.2,0.2-0.5,0.4-0.9,0.4H234c-0.3,0-0.6-0.1-0.9-0.4s-0.4-0.5-0.4-0.9V27.4c0-0.3,0.1-0.6,0.4-0.9
			c0.2-0.2,0.5-0.4,0.9-0.4h9.4c0.3,0,0.6,0.1,0.9,0.4s0.4,0.5,0.4,0.9v3.3c0,0.2,0.1,0.3,0.2,0.4c0.1,0.1,0.2,0,0.3-0.2
			c2.8-3.7,7-5.5,12.6-5.5C263.3,25.3,267.6,27,270.9,30.2L270.9,30.2z"/>
		<path class="st0" d="M315,27.6c3.3,1.5,5.8,3.5,7.5,6.2c1.8,2.6,2.6,5.6,2.6,8.9V77c0,0.3-0.1,0.6-0.4,0.9s-0.5,0.4-0.9,0.4h-9.4
			c-0.3,0-0.6-0.1-0.9-0.4s-0.4-0.5-0.4-0.9v-3.3c0-0.2-0.1-0.3-0.2-0.4c-0.1,0-0.3,0-0.4,0.2c-3.3,3.7-8.1,5.5-14.5,5.5
			c-5.1,0-9.3-1.3-12.6-3.9c-3.3-2.6-4.9-6.4-4.9-11.5s1.9-9.4,5.5-12.4c3.7-2.9,8.9-4.4,15.6-4.4h10.9c0.3,0,0.5-0.2,0.5-0.5v-2.4
			c0-2.7-0.8-4.7-2.3-6.2s-3.9-2.2-7-2.2c-2.6,0-4.7,0.5-6.3,1.4c-1.6,0.9-2.6,2.2-3,3.8c-0.2,0.8-0.7,1.2-1.4,1l-9.9-1.2
			c-0.3-0.1-0.6-0.2-0.9-0.4c-0.2-0.2-0.3-0.4-0.2-0.7c0.5-4.1,2.8-7.5,6.7-10.2c3.9-2.7,8.8-4,14.7-4C308,25.3,311.7,26.1,315,27.6
			L315,27.6z M309.8,67c2.4-1.8,3.6-4,3.6-6.7v-4.8c0-0.3-0.2-0.5-0.5-0.5h-8.6c-3.6,0-6.4,0.7-8.5,2c-2.1,1.4-3.1,3.3-3.1,5.8
			c0,2.2,0.8,3.9,2.4,5c1.6,1.2,3.6,1.8,6.2,1.8C304.5,69.6,307.4,68.8,309.8,67L309.8,67z"/>
		<path class="st0" d="M378.2,52c0,4.8-0.6,9.1-1.9,12.7c-1.5,4.5-3.9,8-7.2,10.5c-3.3,2.5-7.4,3.8-12.2,3.8s-8.7-1.8-11.7-5.4
			c-0.1-0.2-0.3-0.3-0.4-0.2s-0.2,0.2-0.2,0.4V77c0,0.3-0.1,0.6-0.4,0.9s-0.5,0.4-0.9,0.4h-9.4c-0.3,0-0.6-0.1-0.9-0.4
			s-0.4-0.5-0.4-0.9V8.1c0-0.3,0.1-0.6,0.4-0.9c0.2-0.2,0.5-0.4,0.9-0.4h9.4c0.3,0,0.6,0.1,0.9,0.4s0.4,0.5,0.4,0.9v22.1
			c0,0.2,0.1,0.3,0.2,0.4s0.3,0,0.4-0.1c2.9-3.5,6.8-5.2,11.6-5.2s9.2,1.3,12.5,3.8c3.3,2.5,5.7,6,7.3,10.5
			C377.6,43.4,378.2,47.5,378.2,52z M366.1,52.2c0-5.3-1-9.4-3.1-12.4c-1.8-2.8-4.5-4.3-8.1-4.3c-3.3,0-5.9,1.5-7.6,4.5
			c-1.7,2.8-2.5,6.8-2.5,12.1s0.8,9.2,2.3,11.8c1.8,3.3,4.4,4.9,7.9,4.9c1.9,0,3.6-0.4,5.1-1.3s2.7-2.1,3.6-3.6
			C365.3,61.1,366.1,57.2,366.1,52.2L366.1,52.2z"/>
		<path class="st0" d="M385.5,77.8c-0.2-0.2-0.4-0.5-0.4-0.9V8.1c0-0.3,0.1-0.6,0.4-0.9c0.2-0.2,0.5-0.4,0.9-0.4h9.4
			c0.3,0,0.6,0.1,0.9,0.4s0.4,0.5,0.4,0.9V77c0,0.3-0.1,0.6-0.4,0.9c-0.2,0.2-0.5,0.4-0.9,0.4h-9.4C386,78.2,385.7,78.1,385.5,77.8z
			"/>
		<path class="st0" d="M449.4,52l-0.1,3.2c0,0.8-0.4,1.2-1.2,1.2h-31.9c-0.3,0-0.5,0.2-0.5,0.5c0.2,2.2,0.5,3.8,0.9,4.6
			c1.6,4.9,5.6,7.4,11.9,7.4c4.6,0,8.3-1.9,11-5.7c0.3-0.4,0.6-0.6,1-0.6c0.3,0,0.5,0.1,0.7,0.3l6.3,5.2c0.6,0.5,0.7,1,0.3,1.6
			c-2.1,3-4.9,5.3-8.4,6.9c-3.5,1.6-7.4,2.4-11.7,2.4c-5.3,0-9.8-1.2-13.5-3.6s-6.4-5.7-8.1-10c-1.6-3.7-2.3-8.8-2.3-15.3
			c0-3.9,0.4-7.1,1.2-9.6c1.4-4.8,3.9-8.5,7.7-11.3s8.3-4.1,13.6-4.1c13.4,0,20.9,7,22.6,21C449.3,48,449.4,49.9,449.4,52L449.4,52z
			 M420.1,37.4c-1.7,1.3-2.8,3-3.5,5.2c-0.4,1.2-0.7,2.7-0.8,4.5c-0.1,0.3,0,0.5,0.4,0.5h20.7c0.3,0,0.5-0.2,0.5-0.5
			c-0.1-1.7-0.3-3-0.6-3.9c-0.6-2.5-1.8-4.3-3.6-5.7s-4.1-2-6.8-2C423.9,35.5,421.8,36.1,420.1,37.4L420.1,37.4z"/>
		<path class="st0" d="M457.9,76.4c-1.4-1.4-2-3.1-2-5.2s0.7-3.8,2-5.2s3.1-2,5.2-2s3.8,0.7,5.1,2s2,3.1,2,5.2s-0.7,3.8-2,5.2
			c-1.4,1.4-3.1,2-5.1,2S459.2,77.7,457.9,76.4z"/>
		<path class="st0" d="M487.4,76.9c-3.2-1.3-5.7-3-7.5-5.2c-1.8-2.2-2.7-4.7-2.7-7.4v-0.9c0-0.3,0.1-0.6,0.4-0.9
			c0.2-0.2,0.5-0.4,0.9-0.4h9c0.3,0,0.6,0.1,0.9,0.4s0.4,0.5,0.4,0.9v0.2c0,1.7,0.9,3.2,2.8,4.4s4.2,1.9,7.1,1.9s4.9-0.6,6.6-1.7
			s2.5-2.5,2.5-4.2c0-1.6-0.7-2.7-2.1-3.5s-3.7-1.6-6.8-2.5l-3.9-1.2c-3.5-1-6.4-2.1-8.8-3.3c-2.4-1.2-4.4-2.7-6-4.7
			c-1.6-2-2.4-4.6-2.4-7.7c0-4.8,1.9-8.5,5.6-11.4s8.7-4.2,14.8-4.2c4.1,0,7.8,0.7,10.9,2c3.1,1.3,5.5,3.2,7.2,5.5
			c1.7,2.3,2.5,5,2.5,8c0,0.3-0.1,0.6-0.4,0.9c-0.2,0.2-0.5,0.4-0.9,0.4h-8.7c-0.3,0-0.6-0.1-0.9-0.4s-0.4-0.5-0.4-0.9
			c0-1.8-0.9-3.2-2.6-4.4s-4.1-1.8-7.1-1.8c-2.7,0-4.8,0.5-6.5,1.5c-1.7,1-2.5,2.4-2.5,4.1c0,1.6,0.8,2.9,2.4,3.7s4.3,1.8,8,2.8
			l2.2,0.6c3.6,1.1,6.6,2.2,9.1,3.3c2.4,1.1,4.5,2.7,6.2,4.7c1.7,2,2.5,4.6,2.5,7.8c0,4.8-1.9,8.6-5.7,11.4
			c-3.8,2.8-8.9,4.1-15.2,4.1C494.3,78.8,490.6,78.2,487.4,76.9L487.4,76.9z"/>
		<path class="st0" d="M533.2,75c-3.8-2.7-6.5-6.3-8-10.8c-1.1-3.1-1.6-7.1-1.6-12.2s0.5-8.9,1.6-12c1.4-4.5,4.1-8,7.9-10.6
			s8.4-3.9,13.6-3.9s9.9,1.3,13.8,4s6.5,6,7.8,10c0.3,1.1,0.6,2.2,0.7,3.3v0.2c0,0.7-0.4,1.1-1.1,1.2l-9.2,1.3h-0.2
			c-0.6,0-1-0.3-1.2-1c0-0.3,0-0.6-0.1-0.8c-0.1-0.5-0.3-1-0.4-1.4c-0.6-1.9-1.8-3.5-3.7-4.7c-1.8-1.2-4-1.8-6.5-1.8s-4.8,0.7-6.6,2
			c-1.8,1.3-3,3.1-3.6,5.4c-0.7,2.2-1,5.2-1,9.1s0.3,6.8,0.9,9.1c0.7,2.4,1.9,4.3,3.7,5.7c1.8,1.4,4,2.1,6.6,2.1s4.8-0.7,6.7-2
			c1.9-1.3,3.1-3.1,3.6-5.4c0.1-0.1,0.1-0.3,0.1-0.5c0.1-0.1,0.1-0.2,0.1-0.3c0.2-0.8,0.7-1.2,1.4-1l9.2,1.4
			c0.3,0.1,0.6,0.2,0.9,0.5s0.3,0.6,0.2,1c-0.2,1.1-0.4,1.9-0.5,2.3c-1.3,4.3-3.9,7.8-7.8,10.3c-3.9,2.6-8.6,3.8-13.8,3.8
			S537,77.7,533.2,75L533.2,75z"/>
	</g>
	<g>
		<path class="st0" d="M150.2,121.6c-1.1-0.5-1.9-1.1-2.6-1.9c-0.6-0.8-0.9-1.7-0.9-2.6v-0.5c0-0.3,0.1-0.4,0.4-0.4h1.2
			c0.3,0,0.4,0.1,0.4,0.4v0.4c0,1,0.5,1.8,1.5,2.5s2.2,1.1,3.7,1.1s2.7-0.4,3.6-1.1s1.4-1.6,1.4-2.6c0-0.7-0.2-1.3-0.7-1.8
			s-1-0.8-1.7-1.1c-0.6-0.2-1.6-0.6-2.9-1c-1.5-0.4-2.7-0.9-3.6-1.3c-0.9-0.4-1.6-0.9-2.3-1.7c-0.6-0.7-0.9-1.6-0.9-2.8
			c0-1.6,0.6-2.9,1.9-3.8s3-1.4,5-1.4c1.4,0,2.6,0.2,3.7,0.7c1.1,0.5,1.9,1.1,2.5,1.9c0.6,0.8,0.9,1.7,0.9,2.7v0.1
			c0,0.3-0.1,0.4-0.4,0.4h-1.2c-0.3,0-0.4-0.1-0.4-0.4v-0.1c0-1-0.5-1.8-1.4-2.5c-0.9-0.7-2.2-1-3.7-1s-2.7,0.3-3.6,0.9
			c-0.9,0.6-1.3,1.5-1.3,2.5s0.4,1.8,1.2,2.2s2.1,1,3.9,1.5c1.5,0.4,2.8,0.9,3.6,1.3c0.9,0.4,1.7,1,2.4,1.7c0.7,0.7,1,1.7,1,2.8
			c0,1.7-0.6,3-1.9,4s-3,1.5-5.1,1.5C152.5,122.3,151.2,122.1,150.2,121.6L150.2,121.6z"/>
		<path class="st0" d="M175.5,119.7c0.9-0.6,1.6-1.4,2.1-2.4c0.1-0.2,0.3-0.3,0.5-0.2l1,0.5c0.2,0.1,0.3,0.3,0.2,0.5
			c-0.6,1.3-1.5,2.3-2.8,3.1s-2.7,1.1-4.4,1.1c-1.8,0-3.4-0.4-4.7-1.3s-2.2-2.1-2.6-3.7c-0.2-0.7-0.4-1.4-0.4-2.2s-0.1-1.8-0.1-3.1
			s0-2.3,0.1-2.9s0.1-1.3,0.3-1.8c0.4-1.7,1.3-3,2.6-4c1.3-1,2.9-1.5,4.8-1.5c2.2,0,3.9,0.6,5.2,1.7s2.1,2.7,2.4,4.6
			c0.1,0.5,0.1,1.1,0.2,1.8s0,1.5,0,2.5c0,0.3-0.1,0.4-0.4,0.4h-12.9c-0.1,0-0.2,0.1-0.2,0.2c0,1.7,0.1,2.8,0.2,3.4
			c0.3,1.3,0.9,2.3,2,3.1c1,0.8,2.3,1.1,3.9,1.1C173.5,120.6,174.6,120.3,175.5,119.7L175.5,119.7z M166.3,110.9
			c0,0.1,0.1,0.2,0.2,0.2h11c0.1,0,0.2-0.1,0.2-0.2c0-1.3-0.1-2.3-0.2-3c-0.3-1.3-0.9-2.3-1.9-3.1c-1-0.8-2.2-1.2-3.6-1.2
			s-2.6,0.4-3.6,1.1c-0.9,0.8-1.6,1.7-1.8,3C166.4,108.4,166.3,109.4,166.3,110.9L166.3,110.9z"/>
		<path class="st0" d="M186.5,121c-1.3-1-2.2-2.3-2.6-3.9c-0.3-1.3-0.5-2.9-0.5-4.9s0.2-3.6,0.5-4.9c0.4-1.6,1.3-2.9,2.6-3.9
			s2.9-1.5,4.8-1.5s3.5,0.5,4.8,1.4s2.2,2.1,2.6,3.6c0.1,0.4,0.2,0.7,0.2,1.1v0.1c0,0.2-0.1,0.3-0.4,0.4l-1.3,0.2h-0.1
			c-0.2,0-0.3-0.1-0.4-0.4l-0.1-0.6c-0.2-1.1-0.9-2-1.9-2.8c-1-0.8-2.2-1.1-3.6-1.1s-2.6,0.4-3.6,1.2s-1.6,1.8-1.8,3
			c-0.2,1-0.4,2.4-0.4,4.2s0.1,3.2,0.4,4.2c0.3,1.3,0.9,2.3,1.8,3.1s2.2,1.1,3.6,1.1s2.6-0.4,3.6-1.1s1.6-1.7,1.8-2.8l0-0.2
			c0.1-0.3,0.2-0.4,0.5-0.4l1.2,0.2c0.3,0.1,0.4,0.2,0.4,0.4l-0.2,0.7c-0.4,1.5-1.2,2.7-2.6,3.6s-3,1.4-4.8,1.4
			S187.8,121.9,186.5,121L186.5,121z"/>
		<path class="st0" d="M215.3,102.2h1.3c0.3,0,0.4,0.1,0.4,0.4v19.1c0,0.3-0.1,0.4-0.4,0.4h-1.3c-0.3,0-0.4-0.1-0.4-0.4v-1.9
			c0-0.1,0-0.1-0.1-0.1c0,0-0.1,0-0.1,0.1c-0.5,0.9-1.3,1.5-2.2,2c-0.9,0.4-2,0.7-3.3,0.7c-1.9,0-3.6-0.6-4.9-1.7s-1.9-2.8-1.9-4.8
			v-13.3c0-0.3,0.1-0.4,0.4-0.4h1.3c0.3,0,0.4,0.1,0.4,0.4v12.7c0,1.6,0.5,2.8,1.4,3.8s2.2,1.4,3.7,1.4s2.9-0.5,3.9-1.4
			s1.5-2.2,1.5-3.8v-12.7C214.9,102.4,215,102.2,215.3,102.2L215.3,102.2z"/>
		<path class="st0" d="M231.9,102.5c0.2,0.1,0.3,0.2,0.2,0.5l-0.4,1.3c-0.1,0.3-0.2,0.3-0.5,0.2c-0.5-0.2-1.2-0.3-2-0.3
			c-1.5,0-2.7,0.6-3.6,1.7c-1,1.1-1.4,2.4-1.4,4v11.8c0,0.3-0.1,0.4-0.4,0.4h-1.3c-0.3,0-0.4-0.1-0.4-0.4v-19.1
			c0-0.3,0.1-0.4,0.4-0.4h1.3c0.3,0,0.4,0.1,0.4,0.4v2.7c0,0.1,0,0.1,0.1,0.1s0.1,0,0.1-0.1c0.5-1,1.3-1.8,2.1-2.4s1.9-0.9,3.1-0.9
			C230.5,102,231.3,102.2,231.9,102.5L231.9,102.5z"/>
		<path class="st0" d="M234.7,97.7c-0.4-0.4-0.5-0.8-0.5-1.4s0.2-1.1,0.5-1.4c0.4-0.4,0.8-0.6,1.4-0.6s1,0.2,1.4,0.6
			s0.5,0.8,0.5,1.4s-0.2,1.1-0.5,1.4c-0.4,0.4-0.8,0.6-1.4,0.6S235.1,98,234.7,97.7z M235,121.7v-19.1c0-0.3,0.1-0.4,0.4-0.4h1.3
			c0.3,0,0.4,0.1,0.4,0.4v19.1c0,0.3-0.1,0.4-0.4,0.4h-1.3C235.1,122.1,235,122,235,121.7z"/>
		<path class="st0" d="M250.8,104h-4.6c-0.1,0-0.2,0.1-0.2,0.2v12.5c0,1.3,0.3,2.3,0.9,2.8c0.6,0.5,1.6,0.8,2.9,0.8h0.9
			c0.3,0,0.4,0.1,0.4,0.4v1.1c0,0.3-0.1,0.4-0.4,0.4l-1.2,0c-1.8,0-3.2-0.4-4.2-1.1s-1.4-2-1.4-3.9v-13c0-0.1,0-0.2-0.2-0.2h-2.4
			c-0.3,0-0.4-0.1-0.4-0.4v-1c0-0.3,0.1-0.4,0.4-0.4h2.4c0.1,0,0.2-0.1,0.2-0.2v-4.5c0-0.3,0.1-0.4,0.4-0.4h1.3
			c0.3,0,0.4,0.1,0.4,0.4v4.5c0,0.1,0,0.2,0.2,0.2h4.6c0.3,0,0.4,0.1,0.4,0.4v1C251.2,103.8,251.1,104,250.8,104L250.8,104z"/>
		<path class="st0" d="M254,129.6v-1c0-0.3,0.1-0.4,0.4-0.4h0.2c1,0,1.8-0.2,2.3-0.5s1-0.9,1.5-1.7c0.4-0.8,0.9-2.1,1.4-3.8
			c0-0.1,0-0.2,0-0.2l-6.7-19.4l0-0.2c0-0.2,0.1-0.3,0.4-0.3h1.3c0.2,0,0.4,0.1,0.5,0.3l5.6,16.7c0,0.1,0.1,0.1,0.1,0.1
			s0.1,0,0.1-0.1l5.5-16.8c0.1-0.2,0.2-0.3,0.5-0.3h1.3c0.3,0,0.4,0.2,0.3,0.4l-7.5,21.5c-0.6,1.7-1.2,3-1.7,3.8
			c-0.5,0.8-1.1,1.4-1.9,1.7c-0.7,0.3-1.7,0.4-3,0.4h-0.3C254.1,130,254,129.9,254,129.6L254,129.6z"/>
		<path class="st0" d="M280,121c-1.3-1-2.2-2.3-2.6-3.9c-0.3-1.3-0.5-2.9-0.5-4.9s0.2-3.6,0.5-4.9c0.4-1.6,1.3-2.9,2.6-3.9
			c1.3-1,2.9-1.5,4.8-1.5s3.5,0.5,4.8,1.4s2.2,2.1,2.6,3.6c0.1,0.4,0.2,0.7,0.2,1.1v0.1c0,0.2-0.1,0.3-0.4,0.4l-1.3,0.2h-0.1
			c-0.2,0-0.3-0.1-0.4-0.4l-0.1-0.6c-0.2-1.1-0.9-2-1.9-2.8c-1-0.8-2.2-1.1-3.6-1.1s-2.6,0.4-3.6,1.2c-1,0.8-1.6,1.8-1.8,3
			c-0.2,1-0.4,2.4-0.4,4.2s0.1,3.2,0.4,4.2c0.3,1.3,0.9,2.3,1.8,3.1s2.2,1.1,3.6,1.1s2.6-0.4,3.6-1.1c1-0.8,1.6-1.7,1.8-2.8l0-0.2
			c0-0.3,0.2-0.4,0.5-0.4l1.2,0.2c0.3,0.1,0.4,0.2,0.4,0.4l-0.2,0.7c-0.4,1.5-1.2,2.7-2.6,3.6c-1.4,0.9-3,1.4-4.8,1.4
			S281.3,121.9,280,121L280,121z"/>
		<path class="st0" d="M306.8,119.7c0.9-0.6,1.6-1.4,2.1-2.4c0.1-0.2,0.3-0.3,0.5-0.2l1,0.5c0.2,0.1,0.3,0.3,0.2,0.5
			c-0.6,1.3-1.5,2.3-2.8,3.1s-2.7,1.1-4.4,1.1c-1.8,0-3.4-0.4-4.7-1.3s-2.2-2.1-2.6-3.7c-0.2-0.7-0.4-1.4-0.4-2.2s-0.1-1.8-0.1-3.1
			s0-2.3,0.1-2.9s0.1-1.3,0.3-1.8c0.4-1.7,1.3-3,2.6-4s2.9-1.5,4.8-1.5c2.2,0,3.9,0.6,5.2,1.7s2.1,2.7,2.4,4.6
			c0.1,0.5,0.1,1.1,0.2,1.8s0,1.5,0,2.5c0,0.3-0.1,0.4-0.4,0.4h-12.9c-0.1,0-0.2,0.1-0.2,0.2c0,1.7,0.1,2.8,0.2,3.4
			c0.3,1.3,0.9,2.3,2,3.1c1,0.8,2.3,1.1,3.9,1.1C304.8,120.6,305.9,120.3,306.8,119.7L306.8,119.7z M297.6,110.9
			c0,0.1,0,0.2,0.2,0.2h11c0.1,0,0.2-0.1,0.2-0.2c0-1.3-0.1-2.3-0.2-3c-0.3-1.3-0.9-2.3-1.9-3.1c-1-0.8-2.2-1.2-3.6-1.2
			s-2.6,0.4-3.5,1.1c-1,0.8-1.5,1.7-1.8,3C297.7,108.4,297.6,109.4,297.6,110.9L297.6,110.9z"/>
		<path class="st0" d="M328.1,103.8c1.2,1.2,1.9,2.9,1.9,4.9v13c0,0.3-0.1,0.4-0.4,0.4h-1.3c-0.3,0-0.4-0.1-0.4-0.4v-12.6
			c0-1.6-0.5-2.8-1.4-3.8s-2.2-1.5-3.7-1.5s-2.9,0.5-3.8,1.4s-1.5,2.2-1.5,3.8v12.7c0,0.3-0.1,0.4-0.4,0.4h-1.3
			c-0.3,0-0.4-0.1-0.4-0.4v-19.1c0-0.3,0.1-0.4,0.4-0.4h1.3c0.3,0,0.4,0.1,0.4,0.4v1.9c0,0.1,0,0.1,0.1,0.1c0,0,0.1,0,0.1-0.1
			c0.6-0.9,1.3-1.5,2.3-2c1-0.5,2-0.7,3.3-0.7C325.2,101.9,326.9,102.6,328.1,103.8L328.1,103.8z"/>
		<path class="st0" d="M342.7,104h-4.6c-0.1,0-0.2,0.1-0.2,0.2v12.5c0,1.3,0.3,2.3,0.9,2.8c0.6,0.5,1.6,0.8,2.9,0.8h0.9
			c0.3,0,0.4,0.1,0.4,0.4v1.1c0,0.3-0.1,0.4-0.4,0.4l-1.2,0c-1.8,0-3.2-0.4-4.2-1.1s-1.4-2-1.4-3.9v-13c0-0.1,0-0.2-0.2-0.2h-2.4
			c-0.3,0-0.4-0.1-0.4-0.4v-1c0-0.3,0.1-0.4,0.4-0.4h2.4c0.1,0,0.2-0.1,0.2-0.2v-4.5c0-0.3,0.1-0.4,0.4-0.4h1.3
			c0.3,0,0.4,0.1,0.4,0.4v4.5c0,0.1,0,0.2,0.2,0.2h4.6c0.3,0,0.4,0.1,0.4,0.4v1C343.1,103.8,343,104,342.7,104L342.7,104z"/>
		<path class="st0" d="M357.9,119.7c0.9-0.6,1.6-1.4,2.1-2.4c0.1-0.2,0.3-0.3,0.5-0.2l1,0.5c0.2,0.1,0.3,0.3,0.2,0.5
			c-0.6,1.3-1.5,2.3-2.8,3.1s-2.7,1.1-4.4,1.1c-1.8,0-3.4-0.4-4.7-1.3s-2.2-2.1-2.6-3.7c-0.2-0.7-0.4-1.4-0.4-2.2s-0.1-1.8-0.1-3.1
			s0-2.3,0.1-2.9s0.1-1.3,0.3-1.8c0.4-1.7,1.3-3,2.6-4s2.9-1.5,4.8-1.5c2.2,0,3.9,0.6,5.2,1.7s2.1,2.7,2.4,4.6
			c0.1,0.5,0.1,1.1,0.2,1.8s0,1.5,0,2.5c0,0.3-0.1,0.4-0.4,0.4h-12.9c-0.1,0-0.2,0.1-0.2,0.2c0,1.7,0.1,2.8,0.2,3.4
			c0.3,1.3,0.9,2.3,2,3.1c1,0.8,2.3,1.1,3.9,1.1C355.9,120.6,357,120.3,357.9,119.7L357.9,119.7z M348.7,110.9c0,0.1,0,0.2,0.2,0.2
			h11c0.1,0,0.2-0.1,0.2-0.2c0-1.3-0.1-2.3-0.2-3c-0.3-1.3-0.9-2.3-1.9-3.1c-1-0.8-2.2-1.2-3.6-1.2s-2.6,0.4-3.5,1.1
			c-1,0.8-1.5,1.7-1.8,3C348.8,108.4,348.7,109.4,348.7,110.9L348.7,110.9z"/>
		<path class="st0" d="M376.3,102.5c0.2,0.1,0.3,0.2,0.2,0.5l-0.4,1.3c-0.1,0.3-0.2,0.3-0.5,0.2c-0.5-0.2-1.2-0.3-2-0.3
			c-1.5,0-2.7,0.6-3.6,1.7c-1,1.1-1.4,2.4-1.4,4v11.8c0,0.3-0.1,0.4-0.4,0.4h-1.3c-0.3,0-0.4-0.1-0.4-0.4v-19.1
			c0-0.3,0.1-0.4,0.4-0.4h1.3c0.3,0,0.4,0.1,0.4,0.4v2.7c0,0.1,0,0.1,0.1,0.1c0,0,0.1,0,0.1-0.1c0.5-1,1.3-1.8,2.1-2.4
			s1.9-0.9,3.1-0.9C374.9,102,375.6,102.2,376.3,102.5L376.3,102.5z"/>
	</g>
</g>
<path class="st0" d="M568.2,19.3v-0.4c0-0.1,0.1-0.2,0.2-0.2h4.5c0.1,0,0.2,0.1,0.2,0.2v0.4c0,0.1-0.1,0.2-0.2,0.2h-1.8
	c0,0-0.1,0-0.1,0.1v5.8c0,0.1-0.1,0.2-0.2,0.2h-0.5c-0.1,0-0.2-0.1-0.2-0.2v-5.8c0,0,0-0.1-0.1-0.1h-1.7
	C568.3,19.5,568.2,19.4,568.2,19.3L568.2,19.3z M578.9,18.7h0.5c0.1,0,0.2,0.1,0.2,0.2v6.4c0,0.1-0.1,0.2-0.2,0.2h-0.5
	c-0.1,0-0.2-0.1-0.2-0.2v-5c0,0,0-0.1,0-0.1c0,0,0,0-0.1,0l-1.3,2c0,0.1-0.1,0.1-0.2,0.1H577c-0.1,0-0.2,0-0.2-0.1l-1.3-2
	c0,0,0,0-0.1,0c0,0,0,0,0,0.1v5c0,0.1-0.1,0.2-0.2,0.2h-0.5c-0.1,0-0.2-0.1-0.2-0.2v-6.4c0-0.1,0.1-0.2,0.2-0.2h0.5
	c0.1,0,0.2,0,0.2,0.1l1.6,2.4c0,0,0,0,0.1,0s0,0,0.1,0l1.6-2.4C578.7,18.7,578.8,18.7,578.9,18.7z"/>
<path class="st0" d="M568.2,19.3v-0.4c0-0.1,0.1-0.2,0.2-0.2h4.5c0.1,0,0.2,0.1,0.2,0.2v0.4c0,0.1-0.1,0.2-0.2,0.2h-1.8
	c0,0-0.1,0-0.1,0.1v5.8c0,0.1-0.1,0.2-0.2,0.2h-0.5c-0.1,0-0.2-0.1-0.2-0.2v-5.8c0,0,0-0.1-0.1-0.1h-1.7
	C568.3,19.5,568.2,19.4,568.2,19.3L568.2,19.3z M578.9,18.7h0.5c0.1,0,0.2,0.1,0.2,0.2v6.4c0,0.1-0.1,0.2-0.2,0.2h-0.5
	c-0.1,0-0.2-0.1-0.2-0.2v-5c0,0,0-0.1,0-0.1c0,0,0,0-0.1,0l-1.3,2c0,0.1-0.1,0.1-0.2,0.1H577c-0.1,0-0.2,0-0.2-0.1l-1.3-2
	c0,0,0,0-0.1,0c0,0,0,0,0,0.1v5c0,0.1-0.1,0.2-0.2,0.2h-0.5c-0.1,0-0.2-0.1-0.2-0.2v-6.4c0-0.1,0.1-0.2,0.2-0.2h0.5
	c0.1,0,0.2,0,0.2,0.1l1.6,2.4c0,0,0,0,0.1,0s0,0,0.1,0l1.6-2.4C578.7,18.7,578.8,18.7,578.9,18.7z"/>
</svg>
