<svg width="82" height="80" xmlns="http://www.w3.org/2000/svg" xmlns:xlink="http://www.w3.org/1999/xlink" overflow="hidden"><defs><clipPath id="clip0"><rect x="790" y="124" width="82" height="80"/></clipPath><clipPath id="clip1"><rect x="791" y="124" width="80" height="80"/></clipPath><clipPath id="clip2"><rect x="791" y="124" width="80" height="80"/></clipPath><clipPath id="clip3"><rect x="791" y="124" width="80" height="80"/></clipPath><linearGradient x1="791" y1="204" x2="871" y2="124" gradientUnits="userSpaceOnUse" spreadMethod="pad" id="fill4"><stop offset="0" stop-color="#4D27A8" stop-opacity="1"/><stop offset="1" stop-color="#A166FF" stop-opacity="1"/></linearGradient></defs><g clip-path="url(#clip0)" transform="translate(-790 -124)"><g clip-path="url(#clip1)"><g clip-path="url(#clip2)"><g clip-path="url(#clip3)"><path d="M791 124 871 124 871 204 791 204Z" fill="url(#fill4)" fill-rule="evenodd"/><path d="M809 164C809 165.103 808.103 166 807 166 805.897 166 805 165.103 805 164 805 162.897 805.897 162 807 162 808.103 162 809 162.897 809 164ZM803 164C803 166.206 804.794 168 807 168 809.206 168 811 166.206 811 164 811 161.794 809.206 160 807 160 804.794 160 803 161.794 803 164ZM859 139.945 859 188.055C859 190.23 857.23 192 855.056 192L806.944 192C804.77 192 803 190.23 803 188.055L803 170 805 170 805 188.055C805 189.127 805.872 190 806.944 190L855.056 190C856.128 190 857 189.127 857 188.055L857 139.945C857 138.873 856.128 138 855.056 138L806.944 138C805.872 138 805 138.873 805 139.945L805 158 803 158 803 139.945C803 137.77 804.77 136 806.944 136L855.056 136C857.23 136 859 137.77 859 139.945ZM812.389 180C818.098 180 824.646 176.251 827.299 171.466L829.049 172.436C826.026 177.888 818.864 182 812.389 182L808 182 808 180 812.389 180ZM847.129 145 851.66 145 849.177 142.517 850.591 141.103 854.723 145.234C854.91 145.421 855.016 145.676 855.016 145.941 855.016 146.206 854.91 146.46 854.723 146.648L850.591 150.779 849.177 149.365 851.542 147 847.129 147C842.091 147 835.534 149.758 832.244 155.919L830.48 154.977C833.667 149.009 840.357 145 847.129 145ZM825.401 150.428C828.857 153.918 830.761 158.559 830.759 163.495 830.758 167.903 832.474 172.048 835.591 175.166 838.708 178.283 842.854 180 847.263 180L851.54 180 849.149 177.61 850.563 176.196 854.695 180.327C854.883 180.515 854.988 180.769 854.988 181.034 854.988 181.299 854.883 181.554 854.695 181.741L850.563 185.873 849.149 184.458 851.608 182 847.263 182C842.319 182 837.672 180.075 834.177 176.58 830.682 173.084 828.757 168.437 828.759 163.494 828.76 159.089 827.063 154.948 823.98 151.835 820.893 148.717 816.776 147 812.39 147L808 147 808 145 812.39 145C817.314 145 821.936 146.928 825.401 150.428ZM817 157C815.897 157 815 156.103 815 155 815 153.897 815.897 153 817 153 818.103 153 819 153.897 819 155 819 156.103 818.103 157 817 157ZM817 151C814.794 151 813 152.794 813 155 813 157.206 814.794 159 817 159 819.206 159 821 157.206 821 155 821 152.794 819.206 151 817 151ZM821.301 167.974 819.979 170.883 817.069 169.56 818.392 166.651 821.301 167.974ZM814.421 170.553 820.971 173.531 823.949 166.981 817.399 164.003 814.421 170.553ZM848.999 155 853.03 155 853.002 169 848.986 169 848.999 155ZM846.984 171 854.998 171 855.034 153 847.001 153 846.984 171ZM836.999 157 841.03 157 841.002 169 836.986 169 836.999 157ZM834.984 171 842.998 171 843.034 155 835.001 155 834.984 171Z" fill="#FFFFFF" fill-rule="evenodd" fill-opacity="1"/></g></g></g></g></svg>