<?xml version="1.0" encoding="utf-8"?>
<!-- Generator: Adobe Illustrator 23.0.1, SVG Export Plug-In . SVG Version: 6.00 Build 0)  -->
<svg version="1.1" id="Layer_1" xmlns="http://www.w3.org/2000/svg" xmlns:xlink="http://www.w3.org/1999/xlink" x="0px" y="0px"
	 viewBox="0 0 1920 1080" style="enable-background:new 0 0 1920 1080;" xml:space="preserve">
<style type="text/css">
	.st0{fill:#00AAF2;}
</style>
<g>
	<path class="st0" d="M1059.2,405.7c41.4,0,82.8,0,124.1,0c2.7,0,5.4-0.1,8,0.1c8,0.5,12,4.1,13.4,12c0.4,2.4,0.5,4.9,0.4,7.4
		c-0.3,13.2-0.8,26.3-0.9,39.5c-0.2,21.6-0.1,43.2,0,64.8c0,5.5,1,11.1,0.7,16.6c-1.3,21-0.6,42-0.7,63c0,13.2,0.6,26.3,0.8,39.5
		c0,2.9-0.3,5.8-0.9,8.6c-1,4.6-3.4,6.6-8.2,6.9c-3.1,0.2-6.2,0.1-9.2-0.4c-27.7-4-55.3-8.1-83-12.1c-30.7-4.4-61.5-8.9-92.2-13.2
		c-25.3-3.5-50.5-6.8-75.8-10.3c-3.4-0.5-6.9-1.3-10.2-2.3c-5.7-1.8-9.5-5.7-10.7-11.7c-0.6-2.8-1-5.7-1.1-8.5
		c-0.1-12.1-0.3-24.3,0.2-36.4c1.5-35.8,0.5-71.6,0.7-107.4c0.1-12.5-0.6-25.1-0.8-37.6c0-2.9,0.2-5.8,0.8-8.6
		c1.3-5.9,4.5-8.8,10.6-9.5c2.9-0.3,5.8-0.3,8.6-0.3C975.7,405.7,1017.5,405.7,1059.2,405.7z"/>
	<path class="st0" d="M1053.2,383.7c-40.1,0-80.3,0-120.4,0c-2.5,0-5,0.1-7.4-0.2c-6.7-0.7-10.5-4.2-11.5-10.9
		c-0.4-2.6-0.3-5.3-0.3-8c0-53.7,0-107.5,0.1-161.2c0-6.8,0-13.6,0-20.4c0-1.6,0-3.3,0.2-4.9c0.7-6.4,4-10.8,10.6-12
		c7.9-1.4,15.8-2.6,23.8-3.7c16.3-2.4,32.6-4.7,48.9-7c18.5-2.7,37.1-5.3,55.6-8c18.3-2.7,36.6-5.5,54.9-8.1
		c18.3-2.7,36.6-5.3,55-7.9c9.4-1.4,18.7-2.8,28.1-4.2c2.2-0.3,4.5-0.6,6.7-0.3c4.4,0.5,6.5,3,6.9,7.4c0.1,1.4,0.1,2.9,0.1,4.3
		c0,33.6-0.5,67.1,0.2,100.7c0.5,21.4,0.5,42.8,0.6,64.2c0,15.2-0.6,30.4-0.7,45.7c0,6,0.7,11.9,0.8,17.9c0,2.8-0.4,5.7-0.9,8.6
		c-0.7,4.1-3.4,6.7-7.2,7.6c-3.6,0.8-7.3,1.4-11,1.3c-10.9-0.1-21.8-0.7-32.7-0.7C1119.9,383.6,1086.6,383.7,1053.2,383.7
		C1053.2,383.7,1053.2,383.7,1053.2,383.7z"/>
	<path class="st0" d="M777.5,405.8c30.9,0,61.7,0,92.6,0c1.9,0,3.7,0,5.6,0c8,0.4,11.7,4,12.1,11.8c0.1,1.2,0.1,2.5,0.1,3.7
		c0,61.7,0,123.5,0,185.2c0,1.8,0,3.7-0.2,5.5c-0.6,4.6-3.1,7.1-7.7,7.4c-2.8,0.2-5.8,0-8.6-0.4c-21.6-3.1-43.1-6.3-64.7-9.5
		c-21.6-3.2-43.1-6.3-64.7-9.4c-18.9-2.7-37.9-5.2-56.8-7.9c-2.8-0.4-5.7-1-8.4-1.8c-5.2-1.5-8.5-5-9.5-10.3c-0.5-2.6-0.7-5.3-0.7-8
		c0-50,0-100,0-150c0-1.4,0-2.9,0.1-4.3c0.6-7.8,4.2-11.4,12.2-12c1.6-0.1,3.3-0.1,4.9-0.1C714.9,405.8,746.2,405.8,777.5,405.8z"/>
	<path class="st0" d="M776.9,383.7c-30.9,0-61.8,0-92.7,0c-2.1,0-4.1,0.1-6.2-0.1c-6-0.5-9.1-2.9-10.4-8.7c-0.7-3-1-6.1-1-9.2
		c0.1-9.5,0.7-18.9,0.8-28.4c0.1-20.4,0.1-40.8,0.1-61.2c0-0.8,0-1.6,0-2.5c-0.3-16.9-0.6-33.7-0.9-50.6c0-2.7-0.1-5.4,0.2-8
		c0.9-8.1,4-11.7,11.9-13.7c3.4-0.8,6.9-1.3,10.3-1.8c17.7-2.4,35.5-4.8,53.2-7.3c19.2-2.6,38.3-5.2,57.5-8
		c13.8-2,27.7-4.2,41.5-6.4c11.2-1.7,22.3-3.6,33.5-5.3c1.8-0.3,3.7-0.3,5.5,0c4.6,0.8,6.8,3.1,7.4,7.8c1.3,10.4,1.3,20.9,0.6,31.4
		c-0.2,2.5-0.4,4.9-0.4,7.4c0,30.9-0.1,61.8,0,92.7c0.1,17.7,0.6,35.4,0.8,53.1c0,3.1-0.4,6.1-0.9,9.2c-0.7,4.9-3.7,7.7-8.5,8.6
		c-2.8,0.5-5.7,0.7-8.6,0.7c-31.3,0-62.6,0-93.9,0C776.9,383.6,776.9,383.7,776.9,383.7z"/>
	<path class="st0" d="M840.8,866.1c0-24.5,0-49,0-73.5c0-7.1,0-7.2,6.9-8.2c5.9-0.8,11.9-1.3,17.8-1.7c5.3-0.4,10.7-0.9,16-0.9
		c17.5,0.2,35,1,51.5,8c18.2,7.7,30.9,20.9,37.8,39.4c5.2,13.9,6.7,28.3,5,43.1c-0.9,8.2-2.3,16.3-5.1,24.1
		c-8.3,23.9-24.7,39.4-48.7,47c-13.1,4.1-26.5,6.2-40.1,6c-11.3-0.1-22.6-0.8-33.9-1.3c-1.2-0.1-2.5-0.3-3.7-0.6
		c-2.8-0.7-3.3-1.4-3.5-4.3c-0.1-1.8-0.1-3.7-0.1-5.6C840.8,913.9,840.8,890,840.8,866.1z M863,866.1c0,18.5,0,37,0,55.6
		c0,1.6-0.1,3.3,0.1,4.9c0.2,3.4,0.7,3.9,3.9,4.4c14.4,2,28.8,1.4,42.8-2.5c19.7-5.4,33.1-17.6,39.9-37c2.4-6.9,3.6-14,4.2-21.1
		c1.3-13.3-0.1-26.4-5.5-38.7c-7.5-17-21.2-26.3-38.8-30.3c-13-2.9-26.1-3.2-39.2-1.2c-6.9,1-7.4,1.3-7.4,8.6
		C863,827.8,863,847,863,866.1z"/>
	<path class="st0" d="M213.7,782.9c2.9,0,5.8,0,8.6,0c2.3,0,3.9,1.1,4.7,3.3c0.5,1.4,1,2.7,1.5,4.1c7.7,22.6,15.4,45.2,23.1,67.8
		c9.2,26.9,18.4,53.8,27.6,80.6c0.7,1.9,1.3,3.9,1.8,5.9c0.4,1.5-0.4,2.5-1.9,2.5c-5.8,0.1-11.5,0-17.3,0c-1.9,0-3-1.1-3.7-2.8
		c-0.7-1.7-1.3-3.5-1.9-5.2c-3.9-11.7-7.9-23.4-11.8-35.1c-0.5-1.6-1.1-3.1-1.6-4.7c-0.7-2-2-3-4.1-3.1c-1.2,0-2.5-0.1-3.7-0.1
		c-14.8,0-29.7,0-44.5,0c-0.6,0-1.2,0-1.9,0c-4.8,0.2-5.1,0.3-6.7,4.8c-1.4,3.9-2.6,7.8-3.9,11.7c-3,9.4-6.1,18.8-9.1,28.2
		c-0.4,1.2-0.8,2.3-1.2,3.5c-0.6,1.7-1.8,2.7-3.7,2.8c-5.4,0-10.7,0.1-16.1,0c-2.2-0.1-2.9-1.1-2.3-3.3c0.4-1.8,1.1-3.5,1.7-5.3
		c10.8-31.8,21.7-63.5,32.5-95.3c6-17.5,12-35.1,18-52.6c0.4-1.2,0.9-2.3,1.2-3.5c0.9-2.9,2.8-4.4,5.9-4.3
		C207.9,782.9,210.8,782.8,213.7,782.9C213.7,782.9,213.7,782.9,213.7,782.9z M212.4,803.4c-0.7,1.7-1.3,2.8-1.5,3.9
		c-4.3,18.2-10.3,35.9-16.6,53.6c-1.6,4.7-3.2,9.3-4.7,14c-1,3.3-0.5,4,3.1,4.1c13.2,0.1,26.3,0,39.5,0c0.4,0,0.8,0,1.2-0.1
		c2.3-0.3,2.9-1.1,2.3-3.3c-0.8-3-1.9-5.9-2.8-8.8c-6.6-20.1-14.2-39.9-19.3-60.5C213.5,805.5,213,804.8,212.4,803.4z"/>
	<path class="st0" d="M1557.5,888.1c0.5,9.4-1,18.3-4.5,26.8c-8.2,19.7-23.4,30.7-44.1,34.6c-13.1,2.4-25.4,0.4-37.1-5.7
		c-11.2-5.9-19.3-14.8-24-26.4c-6.9-17-7.5-34.5-1.8-52c6-18.4,18.7-30.3,37.1-35.8c14-4.2,28-3.7,41.7,2
		c13.3,5.5,22.3,15.3,27.7,28.4C1556.2,869,1558.1,878.5,1557.5,888.1z M1464.7,888.1c-0.4,9.4,1.2,18,5.1,26.2
		c10.7,22.5,35.7,23.4,48.9,13.7c5.9-4.3,10.4-9.9,13-16.8c3.5-9.4,4.8-19,3.8-29c-0.8-8.1-2.9-15.8-7-22.8
		c-9.6-16.5-27.4-19.4-41.1-14c-9.2,3.6-14.9,10.7-18.5,19.6C1465.8,872.6,1464.1,880.4,1464.7,888.1z"/>
	<path class="st0" d="M1191.1,892.6c-11.5,0-23.1,0-34.6,0c-5.6,0-7.9-0.5-6.3,7.6c0.9,4.6,2.2,9.3,4.2,13.5
		c5,10.4,13.8,16.1,24.9,18.4c12.8,2.6,25.4,0.8,37.8-2.9c1-0.3,1.9-0.7,2.9-1c1.4-0.4,2.6,0,3,1.4c1,3.8,2,7.6,2.7,11.4
		c0.1,0.8-1,2.3-1.9,2.7c-2.2,1.1-4.6,1.9-6.9,2.5c-7.5,2.2-15.3,3.1-23.1,3.7c-7.7,0.6-15.2,0.1-22.7-1.5
		c-24-5.3-37.9-23.6-41.3-46.1c-2.3-14.9-0.5-29.2,5.3-42.9c7.3-17.1,20-28.1,38.4-31.5c10.8-2,21.7-1.6,32.1,3.1
		c11.2,5.1,18.1,13.9,22.6,25c3.4,8.3,4.4,17.1,5.2,25.9c0,0.2,0,0.4,0,0.6c-0.2,9.3-0.9,10.1-10.2,10.1
		C1212.5,892.6,1201.8,892.6,1191.1,892.6z M1180.8,876.6c3.3,0,6.6,0,9.8,0c6,0,11.9,0.1,17.8-0.1c3.1-0.1,3.4-0.6,3.3-3.8
		c-0.2-5.2-1.4-10.2-3.7-14.8c-5.6-11.6-15.1-15.6-25.9-15.4c-16,0.3-30.9,15.4-31.7,31.4c-0.1,1.5,0.5,2.4,2,2.5
		c1.2,0.1,2.5,0.1,3.7,0.1C1164.3,876.6,1172.5,876.6,1180.8,876.6z"/>
	<path class="st0" d="M720,892.6c-10.9,0-21.8,0-32.7,0c-9,0-8.9,0-7.3,9.1c1.4,8.4,4.8,15.6,11.1,21.5c5,4.6,10.8,7.5,17.4,8.8
		c12.8,2.7,25.5,1.2,37.7-2.9c6.1-2,6.2-1.1,7.4,4c0.5,2.2,1.1,4.4,1.5,6.6c0.4,1.9-0.3,3.2-2.1,4c-0.6,0.3-1.1,0.5-1.7,0.7
		c-16.3,5.5-32.9,7.4-49.8,4.1c-25.4-5-40.1-24.7-42.6-49.5c-1.1-10.6-0.2-20.9,2.5-31.1c2.4-8.9,6.6-16.9,12.6-23.8
		c8.9-10.2,20.4-15.9,33.9-16.9c5.3-0.4,10.8-0.4,16,0.5c15.9,2.6,26.8,11.9,33.2,26.5c4.1,9.4,5.8,19.2,5.7,29.5
		c0,0.8,0,1.6-0.1,2.5c-0.6,5.5-1.4,6.4-6.9,6.4C743.9,892.6,732,892.6,720,892.6z M711,876.6c6,0,11.9,0,17.9,0
		c2.9,0,5.8,0.1,8.6-0.1c3.6-0.2,4.5-1.1,4-4.5c-0.7-5.3-1.9-10.5-4.5-15.3c-5.6-10.5-14.8-14.7-26-14.2
		c-15.5,0.7-28.9,14.1-30.7,29.7c0,0.4-0.1,0.8-0.1,1.2c0,1.7,0.8,2.8,2.5,2.9c1.6,0.2,3.3,0.2,4.9,0.2
		C695.4,876.6,703.2,876.6,711,876.6z"/>
	<path class="st0" d="M1712.6,921c0.5-1.5,1-3.1,1.5-4.6c8.9-26.9,17.9-53.9,26.8-80.8c0.4-1.2,0.8-2.3,1.3-3.5
		c0.6-1.4,1.8-2.3,3.4-2.3c5.6,0,11.1-0.1,16.7,0c2.1,0.1,2.8,1.3,2.1,3.5c-1.9,5.2-3.9,10.4-5.9,15.6
		c-11.8,30.5-23.5,61.1-35.6,91.5c-4.5,11.3-10,22.1-16.6,32.4c-6.1,9.5-14,17.2-23.9,22.7c-3.7,2.1-7.8,3.6-11.9,5.1
		c-3,1.1-3.8,0.7-4.7-2.1c-1.4-4.1-2.5-8.3-3.8-12.4c-0.5-1.7,0.2-2.7,1.7-3.4c4-2.1,8.1-4,11.9-6.5c10.8-6.9,17.7-17,22.9-28.4
		c1.5-3.4,0.7-6.4-0.6-9.5c-4.4-10.9-8.7-21.8-13.1-32.7c-9.2-22.9-18.4-45.8-27.6-68.8c-2.8-6.9-2.6-7.1,4.9-7.1
		c4.1,0,8.2,0.1,12.3,0c2.9-0.1,4.5,1.3,5.5,4c2.7,7.6,5.6,15.1,8.4,22.6c5.1,13.9,10.4,27.7,15.4,41.7c2.3,6.4,4.2,12.9,6.2,19.4
		c0.4,1.3,0.9,2.6,1.4,3.9C1711.8,921.1,1712.2,921,1712.6,921z"/>
	<path class="st0" d="M593.6,924.7c0.9-2.1,1.6-3.3,2-4.5c8.8-25.5,17.5-51,26.3-76.5c1.1-3.3,2.4-6.6,3.5-9.9
		c0.9-2.7,2.4-4.2,5.3-4.1c4.9,0.1,9.9-0.1,14.8,0.1c2.8,0.1,3.4,1,2.5,3.5c-1,2.9-2.1,5.8-3.2,8.7c-12.9,32.8-25.8,65.5-38.8,98.3
		c-0.4,1-0.8,1.9-1.1,2.9c-1,3.2-3.2,4.5-6.6,4.3c-3.9-0.2-7.8-0.2-11.7,0c-3.5,0.2-5.1-1.5-6.3-4.6c-3.9-10.6-8-21.2-12.1-31.8
		c-9.4-24.8-18.9-49.7-28.3-74.5c-0.1-0.4-0.3-0.8-0.5-1.1c-1.8-5-1.5-5.6,4-5.7c3.9-0.1,7.8-0.1,11.7,0c5,0.1,5.5,0.4,7.2,5.1
		c2.9,8.1,5.8,16.3,8.6,24.5c5.8,16.7,11.6,33.5,17.3,50.2c1.2,3.5,2.1,7.1,3.2,10.6C592,921.3,592.6,922.5,593.6,924.7z"/>
	<path class="st0" d="M1397.9,883.3c0,9.9-0.1,19.7,0.1,29.6c0.1,3.2,0.6,6.6,1.6,9.7c1.9,5.9,6.3,9.1,12.4,9.4
		c3.5,0.2,6.9-0.4,10.4-0.7c2.6-0.2,3.5,0.4,3.8,2.8c0.2,2,0.2,4.1,0.3,6.2c0.1,6.9-0.3,7.9-7.3,8.7c-6.3,0.7-12.8,1-19,0.1
		c-11.5-1.6-19-8.8-21.6-20.1c-1.6-7-2.3-14.2-2.5-21.4c-0.3-17.9-0.1-35.8-0.1-53.7c0-8.2,0-8.3-8.1-8.3c-10.2,0-9.6,0.5-9.6-9.9
		c0-1,0.1-2.1,0.1-3.1c0.2-2,1.3-3,3.2-3c3.3-0.1,6.6,0,9.9-0.2c3.6-0.2,4.3-0.8,4.4-4.5c0.1-5.3,0-10.7,0.1-16c0-1.6,0-3.3,0.1-4.9
		c0.1-2.1,1.1-3.5,3.2-4c4.6-1.2,9.1-2.4,13.8-3.5c3.5-0.8,4.6,0.1,4.7,3.6c0.2,6.2,0.1,12.3,0.1,18.5c0,2.3-0.1,4.5,0.1,6.8
		c0.2,3.2,0.9,3.9,4.2,4c5.8,0.1,11.5,0.1,17.3,0.1c9.3,0,9.4,0.1,9.3,9.2c0,0.4,0,0.8,0,1.2c-0.2,5.3-0.5,5.7-5.6,5.8
		c-6.2,0.1-12.3,0-18.5,0c-6.4,0.1-6.6,0.3-6.7,6.6C1397.8,862.7,1397.9,873,1397.9,883.3C1397.9,883.3,1397.9,883.3,1397.9,883.3z"
		/>
	<path class="st0" d="M1314.3,826.6c7.6,0.1,14.8,1.5,22,3.4c1.6,0.4,3.1,1,4.6,1.7c1.7,0.7,2.7,1.9,2.1,3.9
		c-1.1,3.8-2.2,7.5-3.3,11.2c-0.5,1.6-1.7,2.2-3.4,1.7c-1.6-0.5-3.1-1.1-4.7-1.6c-8.8-3-17.9-3.5-26.8-1.8
		c-16.9,3.3-26.9,14.3-31,30.7c-3.1,12.2-2.1,24.2,3.7,35.4c6.7,13.3,18.1,19.8,32.7,21c7.9,0.6,15.6-0.5,23.1-3.2
		c1.2-0.4,2.3-0.8,3.5-1.2c1.3-0.4,2.6-0.1,3,1.3c1.2,4.1,2.3,8.3,3.2,12.5c0.1,0.7-0.8,1.8-1.5,2.4c-0.6,0.5-1.5,0.7-2.2,1
		c-14.9,5.4-30.1,6.9-45.5,3.3c-21.6-5-35.4-18.7-40.7-40.2c-4.1-16.4-3.3-32.7,4.3-48.2c8.4-17.1,22.3-27.1,40.5-31.3
		C1303.2,827.3,1308.8,827.2,1314.3,826.6z"/>
	<path class="st0" d="M356.9,827.1c7.4-0.4,14.5,0.6,21.5,2.7c1.4,0.4,2.8,0.8,4.1,1.4c3.3,1.4,3.8,2.2,3.1,5.6
		c-0.3,1.4-0.6,2.8-1.1,4.2c-0.9,2.5-1.2,5.8-3,7.2c-2.2,1.8-4.9-1-7.4-1.7c-9.7-2.8-19.5-3.2-29.3-0.8
		c-11.7,2.9-20.3,10.1-24.9,21.2c-6.5,15.6-6.8,31.3,1.7,46.4c6.8,12.1,17.8,17.8,31.4,18.9c8.5,0.6,16.8-0.8,24.8-3.8
		c4-1.5,4.7-1.1,5.8,2.7c0.7,2.6,1.4,5.2,1.9,7.8c0.8,3.7,0.4,4.9-3.3,6.1c-4.9,1.6-9.9,3-14.9,3.9c-10.2,1.7-20.5,2-30.6-0.5
		c-23.2-5.7-36.7-20.8-41.8-43.8c-2.5-11.2-2.1-22.5,1.1-33.6c6.2-21.5,19.9-35.5,41.6-41.6C343.9,827.5,350.4,826.7,356.9,827.1z"
		/>
	<path class="st0" d="M440.5,812.5c0,4.3-0.1,8.6,0,13c0.1,3.2,0.8,3.9,4.2,4c6.6,0.1,13.2,0,19.8,0.1c6.5,0.1,6.7,0.3,6.8,6.5
		c0.1,10.5,0.5,9.7-9.7,9.7c-5.1,0-10.3-0.1-15.4,0c-5.1,0.1-5.5,0.5-5.6,5.8c-0.1,4.7,0,9.5,0,14.2c0,14.6-0.1,29.2,0.1,43.8
		c0.1,4.1,0.6,8.2,1.7,12.1c1.9,6.8,6.6,10.1,13.7,10.3c3.1,0.1,6.1-0.5,9.2-0.7c2.6-0.2,3.4,0.3,3.7,2.9c0.4,2.9,0.7,5.7,0.9,8.6
		c0.2,3.1-0.4,4.1-3.3,5.1c-0.8,0.3-1.6,0.5-2.4,0.6c-9,1.5-18,2.1-26.8-1.1c-7-2.5-11.9-7.2-14.5-14.2c-2.2-5.8-3.5-11.8-3.5-18.1
		c0-20.4,0-40.8-0.1-61.1c0-8.4,0-8.4-8.5-8.4c-1.2,0-2.5,0-3.7,0c-5.8-0.1-6.1-0.4-6.2-6.5c-0.1-10.1-0.5-9.7,9.2-9.7
		c9.8,0,9.2,0.5,9.2-9.6c0-5.1-0.1-10.3,0.1-15.4c0.1-3.3,0.4-3.8,3.7-4.7c4.4-1.2,8.7-2.4,13.2-3.4c3.5-0.8,4.1-0.3,4.2,3.1
		C440.5,803.9,440.4,808.2,440.5,812.5C440.4,812.5,440.4,812.5,440.5,812.5z"/>
	<path class="st0" d="M1604.4,850.1c1.7-2.8,3.2-5.7,5.2-8.3c6.9-9.3,16-14.6,27.8-14.6c4.6,0,5.2,0.7,5.3,5.5c0.1,3.5,0.1,7,0,10.5
		c-0.1,4.4-0.3,4.5-4.6,4.3c-5.5-0.3-10.6,0.8-15.4,3.4c-6.9,3.8-11,9.8-13.5,17c-2.5,7.1-3.3,14.4-3.4,21.8c-0.1,16.7,0,33.3,0,50
		c0,8.5,0,8.5-8.5,8.6c-2.9,0-5.8,0.1-8.6-0.1c-3.2-0.2-3.8-0.8-4-4.2c-0.1-1.8,0-3.7-0.1-5.6c-0.1-28-0.1-55.9-0.2-83.9
		c0-5.9-0.7-11.9-0.9-17.8c-0.3-6.6,0.1-6.9,6.8-6.9c2.7,0,5.4-0.1,8,0.1c3.4,0.2,4.3,1,4.5,4.5c0.2,3.9,0.2,7.8,0.3,11.7
		c0,1.4,0.2,2.8,0.3,4.1C1603.8,850.1,1604.1,850.1,1604.4,850.1z"/>
	<path class="st0" d="M1079.3,850c3.7-5.9,7.5-10.9,12.4-15.1c6-5.1,12.9-8,20.9-7.8c5,0.1,5.8,0.8,6,5.6c0.1,3.5,0.1,7,0,10.5
		c-0.1,4.3-0.5,4.5-4.7,4.3c-1.6-0.1-3.3-0.2-4.9,0c-10.8,1.1-18.2,7-22.9,16.6c-3.1,6.4-4.5,13.2-4.4,20.3c0,18.3,0,36.6,0,55
		c0,1.6,0.1,3.3-0.1,4.9c-0.2,2.9-0.9,3.6-3.9,3.7c-4.3,0.2-8.6,0.2-13,0c-3.3-0.1-4-0.9-4.2-4c-0.1-1.4-0.1-2.9-0.1-4.3
		c0-10.7,0.1-21.4,0-32.1c-0.3-23-0.7-46.1-1.1-69.1c-0.1-8.9-0.1-8.9,8.6-8.9c2.3,0,4.5,0,6.8,0.1c2,0.1,3,1.2,3.1,3.1
		c0.1,2.5,0.1,4.9,0.2,7.4c0.1,2.1,0.2,4.1,0.4,6.2C1078.6,847.6,1079,848.8,1079.3,850z"/>
	<path class="st0" d="M1024.7,888.3c0,17.1,0,34.2,0,51.2c0,7.6-0.1,7.6-7.5,7.7c-3.5,0-7,0.1-10.5-0.1c-2.9-0.1-3.6-0.9-3.9-3.7
		c-0.1-1.4-0.1-2.9-0.1-4.3c0-33.7,0-67.5,0-101.2c0-8.2,0-8.2,8.1-8.2c3.5,0,7,0,10.5,0.1c1.9,0.1,3.1,1.1,3.2,3.1
		c0.1,1.8,0.1,3.7,0.1,5.5C1024.7,855,1024.7,871.7,1024.7,888.3z"/>
	<path class="st0" d="M516.8,888.8c0,16.2,0,32.5,0,48.7c0,1.4,0,2.9,0,4.3c-0.2,4.7-0.7,5.2-5.5,5.3c-4.1,0.1-8.2,0.1-12.3-0.1
		c-3.2-0.1-3.8-0.9-4.1-4.2c-0.1-1.4-0.1-2.9-0.1-4.3c0-33.5,0-67,0-100.6c0-8.5,0-8.5,8.5-8.5c2.9,0,5.8-0.1,8.6,0.1
		c3.8,0.2,4.5,0.9,4.8,4.9c0.1,1.6,0.1,3.3,0.1,4.9C516.8,855.9,516.8,872.4,516.8,888.8z"/>
	<path class="st0" d="M505.8,782.8c7.4-0.1,13.4,5.6,13.6,13.1c0.3,7.5-5.9,13.8-13.5,13.8c-7.2,0-13.3-6.1-13.3-13.4
		C492.5,789,498.5,782.9,505.8,782.8z"/>
	<path class="st0" d="M1027.4,796.2c0.1,7.4-5.8,13.4-13.1,13.5c-7.6,0.1-13.3-5.4-13.5-13c-0.2-7.5,5.4-13.6,12.7-13.8
		C1021.1,782.5,1027.3,788.5,1027.4,796.2z"/>
</g>
</svg>
