<?xml version="1.0" encoding="utf-8"?>
<!-- Generator: Adobe Illustrator 26.0.1, SVG Export Plug-In . SVG Version: 6.00 Build 0)  -->
<svg version="1.1" id="b731f684-7cb9-4db7-b2c1-15068abf133d"
	 xmlns="http://www.w3.org/2000/svg" xmlns:xlink="http://www.w3.org/1999/xlink" x="0px" y="0px" viewBox="0 0 18 18"
	 style="enable-background:new 0 0 18 18;" xml:space="preserve">
<style type="text/css">
	.st0{fill:#258277;}
	.st1{fill:#FFCA00;}
	.st2{fill:url(#SVGID_1_);}
	.st3{fill:#CCCCCC;}
	.st4{fill:#999999;}
</style>
<g>
	<path class="st0" d="M10.2,10.5c0,0.3-0.1,0.6-0.3,0.8c-0.3,0.2-0.6,0.3-0.9,0.4v0.6H8.5v-0.6c-0.4,0-0.8-0.1-1.2-0.3v-0.9
		c0.2,0.1,0.3,0.2,0.5,0.3c0.2,0.1,0.4,0.1,0.6,0.1v-1C8.1,9.7,7.8,9.5,7.5,9.3C7.1,8.8,7.1,8.1,7.6,7.7c0.2-0.2,0.6-0.3,0.9-0.4
		V6.7h0.4v0.6c0.3,0,0.6,0.1,0.9,0.2v0.8C9.6,8.1,9.2,8,8.9,8v1.2c0.3,0.1,0.7,0.3,0.9,0.6C10.1,9.9,10.2,10.2,10.2,10.5z M8.5,8.9
		V8C8.3,8,8.1,8.2,8.1,8.4C8.1,8.6,8.3,8.8,8.5,8.9L8.5,8.9z M9.4,10.5c0-0.2-0.1-0.3-0.4-0.5V11C9.2,10.9,9.4,10.8,9.4,10.5z"/>
	<path class="st1" d="M17.1,9.7h-3.8c0,1.3-0.6,2.5-1.6,3.4l2.5,2.8C16,14.3,17.1,12.1,17.1,9.7"/>
	
		<radialGradient id="SVGID_1_" cx="-551.5927" cy="759.7339" r="7.3625" gradientTransform="matrix(1.046 0 0 1.041 584.2162 -781.2279)" gradientUnits="userSpaceOnUse">
		<stop  offset="0" style="stop-color:#76BC2D"/>
		<stop  offset="0.41" style="stop-color:#74B92C"/>
		<stop  offset="0.66" style="stop-color:#6FB12A"/>
		<stop  offset="0.88" style="stop-color:#66A227"/>
		<stop  offset="1" style="stop-color:#5E9624"/>
	</radialGradient>
	<path class="st2" d="M8.6,14.3C6.1,14.3,4,12.2,4,9.7s2.1-4.6,4.6-4.6V1.4C4,1.3,0.3,5.1,0.3,9.7l0,0C0.3,14.3,4,18,8.6,18l0,0
		c2.1,0,4.1-0.7,5.6-2.1l-2.5-2.8C10.9,13.9,9.8,14.3,8.6,14.3z"/>
	<path class="st3" d="M8.3,0.3L8.3,0.3v4.3l0,0c2.9,0,5.3,2.3,5.4,5.2c0,0,0,0.1,0,0.2H18C18,4.6,13.7,0.3,8.3,0.3L8.3,0.3z"/>
	<path class="st4" d="M13.7,10c0-3-2.3-5.4-5.3-5.4H8.3l0.3,0.6c2.4,0.1,4.3,2,4.4,4.4L13.7,10z"/>
</g>
</svg>
