<svg width="82" height="80" xmlns="http://www.w3.org/2000/svg" xmlns:xlink="http://www.w3.org/1999/xlink" overflow="hidden"><defs><clipPath id="clip0"><rect x="1030" y="124" width="82" height="80"/></clipPath><clipPath id="clip1"><rect x="1031" y="124" width="80" height="80"/></clipPath><clipPath id="clip2"><rect x="1031" y="124" width="80" height="80"/></clipPath><clipPath id="clip3"><rect x="1031" y="124" width="80" height="80"/></clipPath><linearGradient x1="1031" y1="204" x2="1111" y2="124" gradientUnits="userSpaceOnUse" spreadMethod="pad" id="fill4"><stop offset="0" stop-color="#BD0816" stop-opacity="1"/><stop offset="1" stop-color="#FF5252" stop-opacity="1"/></linearGradient></defs><g clip-path="url(#clip0)" transform="translate(-1030 -124)"><g clip-path="url(#clip1)"><g clip-path="url(#clip2)"><g clip-path="url(#clip3)"><path d="M1031 124 1111 124 1111 204 1031 204Z" fill="url(#fill4)" fill-rule="evenodd"/><path d="M1047 149.916 1047 177.74 1071 191.655 1095 177.74 1095 149.916 1071 136 1047 149.916ZM1049 168.753 1049 151.068 1071 138.312 1093 151.068 1093 176.588 1088 179.486 1088 153.756 1071 144.051 1054 153.756 1054 171.58 1049 168.753ZM1081 158.034 1065.91 149.26 1071 146.354 1086 154.917 1086 164.609 1081 167.444 1081 158.034ZM1056 172.71 1056 154.917 1063.9 150.407 1069.02 153.383 1061 158.033 1061 175.536 1056 172.71ZM1063 168.47 1063 159.186 1071.01 154.54 1079 159.184 1079 168.578 1071.01 173.112 1063 168.47ZM1086 166.908 1086 172.752 1071 181.189 1063 176.667 1063 170.783 1070.99 175.418 1086 166.908ZM1049 176.588 1049 171.051 1071 183.485 1086 175.047 1086 180.646 1071 189.344 1049 176.588Z" fill="#FFFFFF" fill-rule="evenodd" fill-opacity="1"/></g></g></g></g></svg>