<svg xmlns="http://www.w3.org/2000/svg" xmlns:xlink="http://www.w3.org/1999/xlink" viewBox="0 0 81 81" fill="#fff" fill-rule="evenodd" stroke="#000" stroke-linecap="round" stroke-linejoin="round"><use xlink:href="#A" x=".5" y=".5"/><symbol id="A" overflow="visible"><g stroke="none" fill-rule="nonzero"><path d="M28 28h24v24H28z" fill="#aecbfa"/><path d="M36 0h8v16h-8zM20 0h8v16h-8zm32 0h8v16h-8z" fill="#669df6"/><path d="M36 64h8v16h-8zm-16 0h8v16h-8zm32 0h8v16h-8zm12-20v-8h16v8zm0 16v-8h16v8zm0-32v-8h16v8z" fill="#4285f4"/><path d="M0 44v-8h16v8zm0 16v-8h16v8zm0-32v-8h16v8z" fill="#669df6"/><path d="M12 12v56h56V12zm48 48H20V20h40z" fill="#aecbfa"/><path d="M28 52h24L40 40 28 52z" fill="#669df6"/><path d="M40 40l12 12V28L40 40z" fill="#4285f4"/></g></symbol></svg>