<svg width="81" height="80" xmlns="http://www.w3.org/2000/svg" xmlns:xlink="http://www.w3.org/1999/xlink" overflow="hidden"><defs><clipPath id="clip0"><rect x="549" y="124" width="81" height="80"/></clipPath><clipPath id="clip1"><rect x="550" y="124" width="80" height="80"/></clipPath><clipPath id="clip2"><rect x="550" y="124" width="80" height="80"/></clipPath><clipPath id="clip3"><rect x="550" y="124" width="80" height="80"/></clipPath><linearGradient x1="550" y1="204" x2="630" y2="124" gradientUnits="userSpaceOnUse" spreadMethod="pad" id="fill4"><stop offset="0" stop-color="#B0084D" stop-opacity="1"/><stop offset="1" stop-color="#FF4F8B" stop-opacity="1"/></linearGradient></defs><g clip-path="url(#clip0)" transform="translate(-549 -124)"><g clip-path="url(#clip1)"><g clip-path="url(#clip2)"><g clip-path="url(#clip3)"><path d="M550 124 630 124 630 204 550 204Z" fill="url(#fill4)" fill-rule="evenodd"/><path d="M611.084 184C608.374 184 606.169 181.795 606.169 179.084 606.169 176.374 608.374 174.168 611.084 174.168 613.795 174.168 616 176.374 616 179.084 616 181.795 613.795 184 611.084 184ZM611.084 172.168C607.271 172.168 604.169 175.271 604.169 179.084 604.169 182.897 607.271 186 611.084 186 614.897 186 618 182.897 618 179.084 618 175.271 614.897 172.168 611.084 172.168ZM611.084 169C608.374 169 606.169 166.795 606.169 164.084 606.169 161.374 608.374 159.168 611.084 159.168 613.795 159.168 616 161.374 616 164.084 616 166.795 613.795 169 611.084 169ZM611.084 157.168C607.271 157.168 604.169 160.271 604.169 164.084 604.169 167.897 607.271 171 611.084 171 614.897 171 618 167.897 618 164.084 618 160.271 614.897 157.168 611.084 157.168ZM611.084 153.832C608.374 153.832 606.169 151.626 606.169 148.916 606.169 146.205 608.374 144 611.084 144 613.795 144 616 146.205 616 148.916 616 151.626 613.795 153.832 611.084 153.832ZM611.084 142C607.271 142 604.169 145.103 604.169 148.916 604.169 152.729 607.271 155.832 611.084 155.832 614.897 155.832 618 152.729 618 148.916 618 145.103 614.897 142 611.084 142ZM618 136 618 138 600 138 600 190 618 190 618 192 599 192C598.447 192 598 191.552 598 191L598 165 582.105 165 582.105 163 598 163 598 137C598 136.448 598.447 136 599 136L618 136ZM564 170.333 564 157.667 575.875 164 564 170.333ZM578.471 163.118 563.471 155.118C563.159 154.951 562.786 154.962 562.485 155.143 562.185 155.323 562 155.649 562 156L562 172C562 172.351 562.185 172.677 562.485 172.857 562.644 172.952 562.821 173 563 173 563.161 173 563.323 172.961 563.471 172.882L578.471 164.882C578.797 164.708 579 164.369 579 164 579 163.631 578.797 163.292 578.471 163.118ZM564 150 576 150 576 138 564 138 564 150ZM563 152 577 152C577.553 152 578 151.552 578 151L578 137C578 136.448 577.553 136 577 136L563 136C562.447 136 562 136.448 562 137L562 151C562 151.552 562.447 152 563 152ZM570.258 190C566.808 190 564 187.192 564 183.742 564 180.291 566.808 177.484 570.258 177.484 573.709 177.484 576.517 180.291 576.517 183.742 576.517 187.192 573.709 190 570.258 190ZM570.258 175.484C565.704 175.484 562 179.188 562 183.742 562 188.295 565.704 192 570.258 192 574.812 192 578.517 188.295 578.517 183.742 578.517 179.188 574.812 175.484 570.258 175.484Z" fill="#FFFFFF" fill-rule="evenodd" fill-opacity="1"/></g></g></g></g></svg>