<?xml version="1.0" encoding="utf-8"?>
<!-- Generator: Adobe Illustrator 26.0.1, SVG Export Plug-In . SVG Version: 6.00 Build 0)  -->
<svg version="1.1" id="Layer_1" xmlns="http://www.w3.org/2000/svg" xmlns:xlink="http://www.w3.org/1999/xlink" x="0px" y="0px"
	 viewBox="0 0 584.6 127.1" style="enable-background:new 0 0 584.6 127.1;" xml:space="preserve">
<style type="text/css">
	.st0{fill:#001446;}
	.st1{display:none;}
</style>
<g id="Editable">
	<path class="st0" d="M128.5,68.5l-16.9-50.2c-1.3-4-4.8-7-8.9-7.8L49.9,0.2c-4-0.8-8.3,0.6-11.1,3.7L3,44.1
		c-2.8,3.2-3.7,7.6-2.4,11.6l16.9,50.2c1.3,4,4.8,7,8.9,7.8L79.2,124c0.7,0.1,1.5,0.2,2.2,0.2c3.4,0,6.6-1.4,8.8-3.9L126,80.2
		C129,77,129.9,72.6,128.5,68.5 M121.7,76.2l-35.8,40.1c-1.4,1.5-3.5,2.2-5.5,1.8l-52.8-10.3c-2-0.4-3.7-1.9-4.4-3.9L6.3,53.8
		c-0.7-2-0.2-4.2,1.2-5.7L43.3,8c1.1-1.2,2.7-1.9,4.4-1.9c0.4,0,0.7,0,1.1,0.1l52.8,10.3c2,0.4,3.7,1.9,4.4,3.9l16.9,50.2
		C123.5,72.4,123.1,74.6,121.7,76.2"/>
	<g>
		<path class="st0" d="M174.6,35.3c-0.2,0.2-0.5,0.4-0.9,0.4h-10.4c-0.3,0-0.5,0.2-0.5,0.5v24.5c0,2.6,0.6,4.4,1.7,5.6
			c1.1,1.2,2.9,1.7,5.3,1.7h3.1c0.3,0,0.6,0.1,0.9,0.4c0.2,0.2,0.4,0.5,0.4,0.9v7.6c0,0.7-0.4,1.2-1.2,1.3l-5.3,0.1
			c-5.4,0-9.4-0.9-12-2.8c-2.6-1.8-4-5.3-4.1-10.4v-29c0-0.3-0.2-0.5-0.5-0.5h-5.8c-0.3,0-0.6-0.1-0.9-0.4c-0.2-0.2-0.4-0.5-0.4-0.9
			v-7.1c0-0.3,0.1-0.6,0.4-0.9c0.2-0.2,0.5-0.4,0.9-0.4h5.8c0.3,0,0.5-0.2,0.5-0.5V13.7c0-0.3,0.1-0.6,0.4-0.9
			c0.2-0.2,0.5-0.4,0.9-0.4h8.9c0.3,0,0.6,0.1,0.9,0.4c0.2,0.2,0.4,0.5,0.4,0.9v11.9c0,0.3,0.2,0.5,0.5,0.5H174
			c0.3,0,0.6,0.1,0.9,0.4c0.2,0.2,0.4,0.5,0.4,0.9v7.1C175,34.8,174.8,35.1,174.6,35.3z"/>
		<path class="st0" d="M225.4,52l-0.1,3.2c0,0.8-0.4,1.2-1.2,1.2h-31.9c-0.3,0-0.5,0.2-0.5,0.5c0.2,2.2,0.5,3.8,0.9,4.6
			c1.6,4.9,5.6,7.4,11.9,7.4c4.6,0,8.3-1.9,11-5.7c0.3-0.4,0.6-0.6,1-0.6c0.3,0,0.5,0.1,0.7,0.3l6.3,5.2c0.6,0.5,0.7,1,0.3,1.6
			c-2.1,3-4.9,5.3-8.4,6.9S208,79,203.7,79c-5.3,0-9.8-1.2-13.5-3.6s-6.4-5.7-8.1-10c-1.6-3.7-2.3-8.8-2.3-15.3
			c0-3.9,0.4-7.1,1.2-9.6c1.4-4.8,3.9-8.5,7.7-11.3s8.3-4.1,13.6-4.1c13.4,0,20.9,7,22.6,21C225.2,48,225.4,49.9,225.4,52z
			 M196.1,37.4c-1.7,1.3-2.8,3-3.5,5.2c-0.4,1.2-0.7,2.6-0.8,4.5c-0.1,0.3,0,0.5,0.4,0.5h20.7c0.3,0,0.5-0.2,0.5-0.5
			c-0.1-1.7-0.3-3-0.6-3.9c-0.6-2.4-1.8-4.3-3.6-5.7s-4.1-2-6.8-2C199.8,35.5,197.8,36.1,196.1,37.4z"/>
		<path class="st0" d="M269.9,30.2c3.3,3.3,4.9,7.7,4.9,13.3v33.4c0,0.3-0.1,0.6-0.4,0.9c-0.2,0.2-0.5,0.4-0.9,0.4h-9.4
			c-0.3,0-0.6-0.1-0.9-0.4c-0.2-0.2-0.4-0.5-0.4-0.9v-31c0-3.1-0.9-5.7-2.6-7.6c-1.8-1.9-4.1-2.9-7-2.9c-2.9,0-5.3,1-7.1,2.9
			c-1.8,1.9-2.7,4.4-2.7,7.5v31.1c0,0.3-0.1,0.6-0.4,0.9c-0.2,0.2-0.5,0.4-0.9,0.4h-9.4c-0.3,0-0.6-0.1-0.9-0.4
			c-0.2-0.2-0.4-0.5-0.4-0.9V27.3c0-0.3,0.1-0.6,0.4-0.9c0.2-0.2,0.5-0.4,0.9-0.4h9.4c0.3,0,0.6,0.1,0.9,0.4
			c0.2,0.2,0.4,0.5,0.4,0.9v3.3c0,0.2,0.1,0.3,0.2,0.4c0.1,0.1,0.2,0,0.3-0.2c2.8-3.7,7-5.5,12.6-5.5
			C262.3,25.3,266.6,26.9,269.9,30.2z"/>
		<path class="st0" d="M314,27.5c3.3,1.5,5.8,3.5,7.5,6.2c1.8,2.6,2.6,5.6,2.6,8.9v34.3c0,0.3-0.1,0.6-0.4,0.9
			c-0.2,0.2-0.5,0.4-0.9,0.4h-9.4c-0.3,0-0.6-0.1-0.9-0.4c-0.2-0.2-0.4-0.5-0.4-0.9v-3.3c0-0.2-0.1-0.3-0.2-0.4
			c-0.1,0-0.3,0-0.4,0.2c-3.3,3.7-8.1,5.5-14.5,5.5c-5.1,0-9.3-1.3-12.6-3.9c-3.3-2.6-4.9-6.4-4.9-11.5c0-5.3,1.8-9.4,5.6-12.4
			c3.7-3,8.9-4.4,15.6-4.4h10.9c0.3,0,0.5-0.2,0.5-0.5v-2.4c0-2.6-0.8-4.7-2.3-6.2c-1.6-1.5-3.9-2.2-7-2.2c-2.6,0-4.7,0.5-6.3,1.4
			c-1.6,0.9-2.6,2.2-3,3.8c-0.2,0.8-0.7,1.2-1.4,1l-9.9-1.2c-0.3-0.1-0.6-0.2-0.9-0.4c-0.2-0.2-0.3-0.4-0.3-0.7
			c0.5-4.1,2.8-7.5,6.7-10.2c3.9-2.6,8.8-4,14.7-4C307,25.3,310.7,26.1,314,27.5z M308.8,67c2.4-1.8,3.6-4,3.6-6.7v-4.8
			c0-0.3-0.2-0.5-0.5-0.5h-8.6c-3.6,0-6.4,0.7-8.5,2c-2.1,1.4-3.1,3.3-3.1,5.8c0,2.2,0.8,3.9,2.4,5c1.6,1.2,3.6,1.8,6.2,1.8
			C303.6,69.6,306.4,68.7,308.8,67z"/>
		<path class="st0" d="M377.2,52c0,4.8-0.6,9.1-1.9,12.7c-1.5,4.5-3.9,8-7.2,10.5c-3.3,2.5-7.4,3.8-12.2,3.8
			c-4.8,0-8.7-1.8-11.7-5.4c-0.1-0.2-0.3-0.3-0.4-0.2c-0.1,0.1-0.2,0.2-0.2,0.4V77c0,0.3-0.1,0.6-0.4,0.9c-0.2,0.2-0.5,0.4-0.9,0.4
			h-9.4c-0.3,0-0.6-0.1-0.9-0.4c-0.2-0.2-0.4-0.5-0.4-0.9V8.1c0-0.3,0.1-0.6,0.4-0.9c0.2-0.2,0.5-0.4,0.9-0.4h9.4
			c0.3,0,0.6,0.1,0.9,0.4c0.2,0.2,0.4,0.5,0.4,0.9v22.1c0,0.2,0.1,0.3,0.2,0.4c0.1,0.1,0.3,0,0.4-0.1c2.9-3.5,6.8-5.2,11.6-5.2
			c5,0,9.2,1.3,12.5,3.8s5.7,6,7.3,10.5C376.7,43.4,377.2,47.5,377.2,52z M365.1,52.2c0-5.3-1-9.4-3.1-12.4
			c-1.8-2.9-4.5-4.3-8.1-4.3c-3.3,0-5.9,1.5-7.6,4.5c-1.7,2.8-2.5,6.8-2.5,12.1c0,5.2,0.8,9.2,2.3,11.8c1.8,3.3,4.4,4.9,7.9,4.9
			c1.9,0,3.6-0.4,5.1-1.3c1.5-0.8,2.7-2.1,3.6-3.6C364.3,61.1,365.1,57.2,365.1,52.2z"/>
		<path class="st0" d="M384.5,77.8c-0.2-0.2-0.4-0.5-0.4-0.9V8.1c0-0.3,0.1-0.6,0.4-0.9c0.2-0.2,0.5-0.4,0.9-0.4h9.4
			c0.3,0,0.6,0.1,0.9,0.4c0.2,0.2,0.4,0.5,0.4,0.9V77c0,0.3-0.1,0.6-0.4,0.9c-0.2,0.2-0.5,0.4-0.9,0.4h-9.4
			C385.1,78.2,384.8,78.1,384.5,77.8z"/>
		<path class="st0" d="M448.4,52l-0.1,3.2c0,0.8-0.4,1.2-1.2,1.2h-31.9c-0.3,0-0.5,0.2-0.5,0.5c0.2,2.2,0.5,3.8,0.9,4.6
			c1.6,4.9,5.6,7.4,11.9,7.4c4.6,0,8.3-1.9,11-5.7c0.3-0.4,0.6-0.6,1-0.6c0.3,0,0.5,0.1,0.7,0.3l6.3,5.2c0.6,0.5,0.7,1,0.3,1.6
			c-2.1,3-4.9,5.3-8.4,6.9S431,79,426.7,79c-5.3,0-9.8-1.2-13.5-3.6s-6.4-5.7-8.1-10c-1.6-3.7-2.3-8.8-2.3-15.3
			c0-3.9,0.4-7.1,1.2-9.6c1.4-4.8,3.9-8.5,7.7-11.3c3.8-2.8,8.3-4.1,13.6-4.1c13.4,0,20.9,7,22.6,21C448.3,48,448.4,49.9,448.4,52z
			 M419.2,37.4c-1.7,1.3-2.8,3-3.5,5.2c-0.4,1.2-0.7,2.6-0.8,4.5c-0.1,0.3,0,0.5,0.4,0.5H436c0.3,0,0.5-0.2,0.5-0.5
			c-0.1-1.7-0.3-3-0.6-3.9c-0.6-2.4-1.8-4.3-3.6-5.7c-1.8-1.4-4.1-2-6.8-2C422.9,35.5,420.8,36.1,419.2,37.4z"/>
		<path class="st0" d="M456.9,76.3c-1.4-1.4-2-3.1-2-5.2s0.7-3.8,2-5.2c1.4-1.4,3.1-2,5.2-2s3.8,0.7,5.1,2c1.3,1.4,2,3.1,2,5.2
			s-0.7,3.8-2,5.2c-1.4,1.4-3.1,2-5.1,2C460,78.4,458.3,77.7,456.9,76.3z"/>
		<path class="st0" d="M486.4,75c-3.8-2.7-6.5-6.3-7.9-10.8c-1.1-3.1-1.6-7.1-1.6-12.2c0-4.9,0.5-8.9,1.6-12c1.4-4.5,4.1-8,7.9-10.6
			c3.8-2.6,8.4-3.9,13.6-3.9c5.3,0,9.9,1.3,13.9,4c3.9,2.6,6.6,6,7.8,10c0.3,1.1,0.6,2.2,0.7,3.3V43c0,0.7-0.4,1.1-1.1,1.2l-9.2,1.3
			h-0.2c-0.6,0-1-0.3-1.2-1c0-0.3,0-0.6-0.1-0.8c-0.1-0.5-0.3-1-0.4-1.4c-0.6-1.9-1.8-3.5-3.7-4.7c-1.8-1.2-4-1.8-6.5-1.8
			c-2.6,0-4.8,0.7-6.6,2c-1.8,1.3-3,3.1-3.6,5.4c-0.7,2.2-1,5.2-1,9.1c0,3.7,0.3,6.8,0.9,9.1c0.7,2.4,1.9,4.3,3.7,5.7
			c1.8,1.4,4,2.1,6.6,2.1c2.6,0,4.8-0.7,6.7-2s3.1-3.1,3.6-5.3c0.1-0.1,0.1-0.3,0.1-0.5c0.1-0.1,0.1-0.2,0.1-0.3
			c0.2-0.8,0.7-1.2,1.4-1l9.2,1.4c0.3,0.1,0.6,0.2,0.9,0.5c0.2,0.2,0.3,0.6,0.3,1c-0.2,1.1-0.4,1.9-0.5,2.3
			c-1.3,4.3-3.9,7.8-7.8,10.3c-3.9,2.5-8.6,3.8-13.9,3.8C494.8,79,490.2,77.6,486.4,75z"/>
		<path class="st0" d="M536.1,76.9c-3.2-1.3-5.7-3-7.5-5.2S526,67,526,64.3v-0.9c0-0.3,0.1-0.6,0.4-0.9c0.2-0.2,0.5-0.4,0.9-0.4h9
			c0.3,0,0.6,0.1,0.9,0.4c0.2,0.2,0.4,0.5,0.4,0.9v0.2c0,1.7,0.9,3.2,2.8,4.4c1.9,1.3,4.2,1.9,7.1,1.9c2.7,0,4.9-0.6,6.6-1.7
			c1.7-1.1,2.5-2.5,2.5-4.2c0-1.6-0.7-2.7-2.1-3.5c-1.4-0.8-3.7-1.6-6.8-2.5l-3.9-1.2c-3.5-1-6.4-2.1-8.8-3.3
			c-2.4-1.2-4.4-2.7-6-4.7s-2.4-4.6-2.4-7.7c0-4.8,1.9-8.5,5.6-11.4c3.7-2.8,8.7-4.2,14.8-4.2c4.1,0,7.8,0.7,10.9,2
			c3.1,1.3,5.5,3.2,7.2,5.5s2.5,5,2.5,8c0,0.3-0.1,0.6-0.4,0.9c-0.2,0.2-0.5,0.4-0.9,0.4h-8.7c-0.3,0-0.6-0.1-0.9-0.4
			c-0.2-0.2-0.4-0.5-0.4-0.9c0-1.8-0.9-3.2-2.6-4.4c-1.7-1.2-4.1-1.8-7.1-1.8c-2.6,0-4.8,0.5-6.5,1.5s-2.5,2.4-2.5,4.1
			c0,1.6,0.8,2.9,2.4,3.7c1.6,0.8,4.3,1.8,8,2.8l2.2,0.6c3.6,1.1,6.6,2.2,9.1,3.3c2.4,1.1,4.5,2.7,6.2,4.7s2.5,4.6,2.5,7.8
			c0,4.8-1.9,8.6-5.7,11.4s-8.9,4.1-15.2,4.1C543.1,78.8,539.3,78.2,536.1,76.9z"/>
	</g>
	<g>
		<g>
			<path class="st0" d="M149.3,117.9c-1.3-1-2.2-2.3-2.7-4c-0.3-1.3-0.5-2.9-0.5-5c0-2,0.2-3.6,0.5-5c0.4-1.6,1.3-2.9,2.6-3.9
				s2.9-1.5,4.8-1.5c1.9,0,3.5,0.5,4.9,1.4c1.4,1,2.2,2.2,2.6,3.6c0.1,0.4,0.2,0.7,0.2,1.1v0.1c0,0.2-0.1,0.3-0.4,0.4l-1.3,0.2h-0.1
				c-0.2,0-0.3-0.1-0.4-0.4l-0.1-0.6c-0.2-1.1-0.9-2.1-1.9-2.8s-2.2-1.1-3.7-1.1s-2.7,0.4-3.7,1.2c-1,0.8-1.6,1.8-1.9,3.1
				c-0.2,1-0.4,2.4-0.4,4.3s0.1,3.3,0.4,4.2c0.3,1.3,0.9,2.3,1.9,3.1s2.2,1.2,3.7,1.2c1.4,0,2.7-0.4,3.7-1.1c1-0.8,1.6-1.7,1.9-2.9
				v-0.2c0.1-0.3,0.2-0.4,0.5-0.4l1.2,0.2c0.3,0.1,0.4,0.2,0.4,0.4l-0.2,0.7c-0.4,1.5-1.2,2.7-2.6,3.7c-1.4,0.9-3,1.4-4.9,1.4
				C152.2,119.4,150.6,118.9,149.3,117.9z"/>
			<path class="st0" d="M165.7,118.7V91.5c0-0.3,0.1-0.4,0.4-0.4h1.3c0.3,0,0.4,0.1,0.4,0.4v27.2c0,0.3-0.1,0.4-0.4,0.4h-1.3
				C165.8,119.1,165.7,119,165.7,118.7z"/>
			<path class="st0" d="M175.5,117.9c-1.3-1-2.2-2.3-2.7-4c-0.3-1.1-0.4-2.7-0.4-5s0.1-3.9,0.4-5c0.5-1.7,1.4-3,2.7-3.9
				c1.3-1,2.9-1.5,4.9-1.5c1.9,0,3.5,0.5,4.8,1.5s2.2,2.3,2.7,3.9c0.2,0.6,0.3,1.3,0.3,2.1c0.1,0.8,0.1,1.7,0.1,2.9
				c0,1.2,0,2.2-0.1,3c-0.1,0.7-0.2,1.4-0.3,2c-0.5,1.7-1.4,3-2.7,4s-3,1.5-4.9,1.5C178.4,119.4,176.8,118.9,175.5,117.9z
				 M183.9,116.4c1-0.8,1.6-1.8,1.9-3.1c0.2-0.7,0.3-2.1,0.3-4.2s-0.1-3.5-0.2-4.2c-0.3-1.3-0.9-2.3-1.9-3.1s-2.2-1.2-3.7-1.2
				c-1.4,0-2.7,0.4-3.6,1.2c-1,0.8-1.6,1.8-1.9,3.1c-0.2,0.8-0.3,2.2-0.3,4.2s0.1,3.4,0.3,4.2c0.3,1.3,0.9,2.3,1.9,3.1
				c1,0.8,2.2,1.2,3.6,1.2C181.7,117.5,182.9,117.1,183.9,116.4z"/>
			<path class="st0" d="M205.5,98.9h1.3c0.3,0,0.4,0.1,0.4,0.4v19.4c0,0.3-0.1,0.4-0.4,0.4h-1.3c-0.3,0-0.4-0.1-0.4-0.4v-2
				c0-0.1,0-0.1-0.1-0.1s-0.1,0-0.1,0.1c-0.6,0.9-1.3,1.5-2.3,2c-0.9,0.5-2.1,0.7-3.3,0.7c-2,0-3.6-0.6-4.9-1.8
				c-1.3-1.2-2-2.8-2-4.8V99.4c0-0.3,0.1-0.4,0.4-0.4h1.3c0.3,0,0.4,0.1,0.4,0.4v12.9c0,1.6,0.5,2.9,1.4,3.8c0.9,1,2.2,1.4,3.8,1.4
				s2.9-0.5,3.9-1.5s1.5-2.2,1.5-3.8V99.3C205.1,99.1,205.3,98.9,205.5,98.9z"/>
			<path class="st0" d="M225.4,91.1h1.3c0.3,0,0.4,0.1,0.4,0.4v27.2c0,0.3-0.1,0.4-0.4,0.4h-1.3c-0.3,0-0.4-0.1-0.4-0.4v-2
				c0-0.1,0-0.1-0.1-0.1c0,0-0.1,0-0.1,0.1c-0.6,0.9-1.3,1.6-2.2,2c-0.9,0.5-2,0.7-3.2,0.7c-1.8,0-3.3-0.5-4.6-1.4
				c-1.3-1-2.1-2.3-2.6-3.9c-0.2-0.6-0.3-1.3-0.4-2.1c-0.1-0.8-0.1-1.8-0.1-3s0-2.2,0.1-3s0.2-1.5,0.3-2.1c0.4-1.7,1.2-3,2.5-3.9
				c1.3-1,2.8-1.5,4.7-1.5c1.2,0,2.2,0.2,3.2,0.7s1.7,1.2,2.2,2c0,0.1,0.1,0.1,0.1,0.1l0.1-0.1v-9.8C225,91.2,225.1,91.1,225.4,91.1
				z M224.8,112.1c0.1-0.6,0.1-1.6,0.1-3s0-2.4-0.1-3.1s-0.2-1.2-0.4-1.8c-0.3-1.1-0.9-2-1.7-2.7s-1.9-1-3.1-1c-1.3,0-2.3,0.3-3.2,1
				s-1.5,1.6-1.8,2.6c-0.2,0.5-0.4,1.1-0.5,1.7c-0.1,0.7-0.1,1.7-0.1,3.1s0,2.4,0.1,3s0.2,1.2,0.4,1.7c0.3,1.1,0.9,2,1.8,2.7
				c0.9,0.7,2.1,1,3.4,1c1.3,0,2.3-0.3,3.1-1s1.4-1.6,1.7-2.7C224.6,113.3,224.8,112.7,224.8,112.1z"/>
			<path class="st0" d="M241,118.6c-1.1-0.5-2-1.1-2.6-1.9c-0.6-0.8-0.9-1.7-0.9-2.6v-0.5c0-0.3,0.1-0.4,0.4-0.4h1.2
				c0.3,0,0.4,0.1,0.4,0.4v0.4c0,1,0.5,1.8,1.5,2.5s2.2,1.1,3.8,1.1c1.5,0,2.7-0.4,3.6-1.1c0.9-0.7,1.4-1.6,1.4-2.7
				c0-0.7-0.2-1.4-0.7-1.8c-0.5-0.5-1-0.8-1.7-1.1s-1.6-0.6-2.9-1c-1.5-0.5-2.7-0.9-3.6-1.3c-0.9-0.4-1.7-1-2.3-1.7
				s-0.9-1.7-0.9-2.8c0-1.6,0.6-2.9,1.9-3.9c1.3-1,3-1.5,5.1-1.5c1.4,0,2.7,0.2,3.7,0.7s1.9,1.1,2.5,1.9s0.9,1.7,0.9,2.7v0.1
				c0,0.3-0.1,0.4-0.4,0.4h-1.2c-0.3,0-0.4-0.1-0.4-0.4V104c0-1-0.5-1.9-1.4-2.5s-2.2-1-3.7-1s-2.7,0.3-3.6,0.9
				c-0.9,0.6-1.4,1.5-1.4,2.5s0.4,1.8,1.3,2.3c0.8,0.5,2.2,1,3.9,1.6c1.5,0.5,2.8,0.9,3.7,1.3s1.7,1,2.4,1.7c0.7,0.7,1,1.7,1,2.9
				c0,1.7-0.6,3-1.9,4.1c-1.3,1-3,1.5-5.2,1.5C243.4,119.3,242.1,119.1,241,118.6z"/>
			<path class="st0" d="M266.6,116.7c0.9-0.6,1.6-1.4,2.1-2.4c0.1-0.2,0.3-0.3,0.5-0.2l1,0.5c0.2,0.1,0.3,0.3,0.2,0.5
				c-0.6,1.3-1.5,2.3-2.8,3.1s-2.8,1.2-4.5,1.2c-1.9,0-3.5-0.5-4.8-1.4s-2.2-2.1-2.7-3.7c-0.2-0.7-0.4-1.4-0.4-2.2
				c-0.1-0.8-0.1-1.9-0.1-3.1c0-1.3,0-2.3,0.1-3c0-0.7,0.1-1.3,0.3-1.8c0.4-1.7,1.3-3,2.6-4c1.3-1,2.9-1.5,4.9-1.5
				c2.2,0,3.9,0.6,5.2,1.7s2.1,2.7,2.4,4.7c0.1,0.5,0.1,1.1,0.2,1.8c0,0.7,0,1.5,0,2.5c0,0.3-0.1,0.4-0.4,0.4h-13
				c-0.1,0-0.2,0.1-0.2,0.2c0,1.7,0.1,2.8,0.2,3.4c0.3,1.3,1,2.3,2,3.1c1,0.8,2.3,1.1,3.9,1.1C264.6,117.5,265.7,117.3,266.6,116.7z
				 M257.3,107.8c0,0.1,0.1,0.2,0.2,0.2h11.2c0.1,0,0.2-0.1,0.2-0.2c0-1.3-0.1-2.3-0.2-3c-0.3-1.3-0.9-2.3-1.9-3.1
				c-1-0.8-2.2-1.2-3.6-1.2s-2.6,0.4-3.6,1.1s-1.6,1.8-1.8,3C257.4,105.2,257.3,106.2,257.3,107.8z"/>
			<path class="st0" d="M277.8,117.9c-1.3-1-2.2-2.3-2.7-4c-0.3-1.3-0.5-2.9-0.5-5c0-2,0.2-3.6,0.5-5c0.4-1.6,1.3-2.9,2.6-3.9
				c1.3-1,2.9-1.5,4.8-1.5s3.5,0.5,4.9,1.4c1.4,1,2.2,2.2,2.6,3.6c0.1,0.4,0.2,0.7,0.2,1.1v0.1c0,0.2-0.1,0.3-0.4,0.4l-1.3,0.2h-0.1
				c-0.2,0-0.3-0.1-0.4-0.4l-0.1-0.6c-0.2-1.1-0.9-2.1-1.9-2.8c-1-0.8-2.2-1.1-3.7-1.1s-2.7,0.4-3.7,1.2s-1.6,1.8-1.9,3.1
				c-0.2,1-0.4,2.4-0.4,4.3s0.1,3.3,0.4,4.2c0.3,1.3,0.9,2.3,1.9,3.1s2.2,1.2,3.7,1.2c1.4,0,2.7-0.4,3.7-1.1c1-0.8,1.6-1.7,1.9-2.9
				v-0.2c0.1-0.3,0.2-0.4,0.5-0.4l1.2,0.2c0.3,0.1,0.4,0.2,0.4,0.4l-0.2,0.7c-0.4,1.5-1.2,2.7-2.6,3.7c-1.4,0.9-3,1.4-4.9,1.4
				S279.1,118.9,277.8,117.9z"/>
			<path class="st0" d="M306.9,98.9h1.3c0.3,0,0.4,0.1,0.4,0.4v19.4c0,0.3-0.1,0.4-0.4,0.4h-1.3c-0.3,0-0.4-0.1-0.4-0.4v-2
				c0-0.1,0-0.1-0.1-0.1s-0.1,0-0.1,0.1c-0.6,0.9-1.3,1.5-2.3,2s-2.1,0.7-3.3,0.7c-2,0-3.6-0.6-4.9-1.8s-2-2.8-2-4.8V99.4
				c0-0.3,0.1-0.4,0.4-0.4h1.3c0.3,0,0.4,0.1,0.4,0.4v12.9c0,1.6,0.5,2.9,1.4,3.8c0.9,1,2.2,1.4,3.8,1.4c1.6,0,2.9-0.5,3.9-1.5
				s1.5-2.2,1.5-3.8V99.3C306.5,99.1,306.7,98.9,306.9,98.9z"/>
			<path class="st0" d="M323.7,99.3c0.2,0.1,0.3,0.3,0.2,0.5l-0.4,1.3c-0.1,0.3-0.3,0.3-0.5,0.2c-0.5-0.2-1.2-0.3-2-0.3
				c-1.5,0-2.7,0.6-3.7,1.7s-1.5,2.5-1.5,4.1v11.9c0,0.3-0.1,0.4-0.4,0.4h-1.3c-0.3,0-0.4-0.1-0.4-0.4V99.3c0-0.3,0.1-0.4,0.4-0.4
				h1.3c0.3,0,0.4,0.1,0.4,0.4v2.7c0,0.1,0,0.1,0.1,0.1c0,0,0.1,0,0.1-0.1c0.6-1,1.3-1.9,2.2-2.4c0.9-0.6,1.9-0.9,3.1-0.9
				C322.3,98.8,323.1,98.9,323.7,99.3z"/>
			<path class="st0" d="M326.6,94.3c-0.4-0.4-0.6-0.9-0.6-1.4s0.2-1.1,0.6-1.4s0.9-0.6,1.4-0.6c0.6,0,1.1,0.2,1.4,0.6
				c0.4,0.4,0.6,0.9,0.6,1.4s-0.2,1.1-0.6,1.4c-0.4,0.4-0.9,0.6-1.4,0.6C327.5,94.9,327,94.7,326.6,94.3z M326.9,118.7V99.3
				c0-0.3,0.1-0.4,0.4-0.4h1.3c0.3,0,0.4,0.1,0.4,0.4v19.4c0,0.3-0.1,0.4-0.4,0.4h-1.3C327,119.1,326.9,118.9,326.9,118.7z"/>
			<path class="st0" d="M342.9,100.7h-4.7c-0.1,0-0.2,0.1-0.2,0.2v12.6c0,1.4,0.3,2.3,0.9,2.9c0.6,0.5,1.6,0.8,3,0.8h0.9
				c0.3,0,0.4,0.1,0.4,0.4v1.1c0,0.3-0.1,0.4-0.4,0.4h-1.2c-1.9,0-3.3-0.4-4.2-1.1c-0.9-0.7-1.4-2-1.5-4v-13.2
				c0-0.1-0.1-0.2-0.2-0.2h-2.4c-0.3,0-0.4-0.1-0.4-0.4v-1c0-0.3,0.1-0.4,0.4-0.4h2.4c0.1,0,0.2-0.1,0.2-0.2V94
				c0-0.3,0.1-0.4,0.4-0.4h1.3c0.3,0,0.4,0.1,0.4,0.4v4.6c0,0.1,0.1,0.2,0.2,0.2h4.7c0.3,0,0.4,0.1,0.4,0.4v1
				C343.3,100.6,343.2,100.7,342.9,100.7z"/>
			<path class="st0" d="M346.1,126.7v-1c0-0.3,0.1-0.4,0.4-0.4h0.2c1,0,1.8-0.2,2.4-0.5s1.1-0.9,1.5-1.7s0.9-2.1,1.5-3.8
				c0.1-0.1,0.1-0.2,0-0.2l-6.8-19.6v-0.2c0-0.2,0.1-0.3,0.4-0.3h1.4c0.2,0,0.4,0.1,0.5,0.3l5.7,17c0,0.1,0.1,0.1,0.1,0.1
				c0.1,0,0.1,0,0.1-0.1l5.5-17c0.1-0.2,0.2-0.3,0.5-0.3h1.4c0.3,0,0.4,0.1,0.3,0.4l-7.6,21.8c-0.6,1.7-1.2,3-1.7,3.8
				s-1.2,1.4-1.9,1.7c-0.7,0.3-1.8,0.4-3.1,0.4h-0.3C346.2,127.1,346.1,127,346.1,126.7z"/>
		</g>
	</g>
	<g>
		<path class="st0" d="M573.2,19.3v-0.4c0-0.1,0.1-0.2,0.2-0.2h4.5c0.1,0,0.2,0.1,0.2,0.2v0.4c0,0.1-0.1,0.2-0.2,0.2h-1.8
			c-0.1,0-0.1,0-0.1,0.1v5.8c0,0.1-0.1,0.2-0.2,0.2h-0.5c-0.1,0-0.2-0.1-0.2-0.2v-5.8c0-0.1,0-0.1-0.1-0.1h-1.7
			C573.3,19.4,573.2,19.4,573.2,19.3z M583.9,18.7h0.5c0.1,0,0.2,0.1,0.2,0.2v6.4c0,0.1-0.1,0.2-0.2,0.2h-0.5
			c-0.1,0-0.2-0.1-0.2-0.2v-5v-0.1c0,0,0,0-0.1,0l-1.3,2c-0.1,0.1-0.1,0.1-0.2,0.1H582c-0.1,0-0.2,0-0.2-0.1l-1.3-2c0,0,0-0.1-0.1,0
			c0,0,0,0,0,0.1v5c0,0.1-0.1,0.2-0.2,0.2h-0.5c-0.1,0-0.2-0.1-0.2-0.2v-6.4c0-0.1,0.1-0.2,0.2-0.2h0.5c0.1,0,0.2,0,0.2,0.1l1.6,2.4
			c0,0,0,0,0.1,0c0,0,0,0,0.1,0l1.6-2.4C583.8,18.7,583.8,18.7,583.9,18.7z"/>
	</g>
</g>
<g id="Outlined" class="st1">
</g>
</svg>
