<svg width="81" height="80" xmlns="http://www.w3.org/2000/svg" xmlns:xlink="http://www.w3.org/1999/xlink" overflow="hidden"><defs><clipPath id="clip0"><rect x="313" y="124" width="81" height="80"/></clipPath><clipPath id="clip1"><rect x="314" y="124" width="80" height="80"/></clipPath><clipPath id="clip2"><rect x="314" y="124" width="80" height="80"/></clipPath><clipPath id="clip3"><rect x="314" y="124" width="80" height="80"/></clipPath><linearGradient x1="314" y1="204" x2="394" y2="124" gradientUnits="userSpaceOnUse" spreadMethod="pad" id="fill4"><stop offset="0" stop-color="#055F4E" stop-opacity="1"/><stop offset="1" stop-color="#56C0A7" stop-opacity="1"/></linearGradient></defs><g clip-path="url(#clip0)" transform="translate(-313 -124)"><g clip-path="url(#clip1)"><g clip-path="url(#clip2)"><g clip-path="url(#clip3)"><path d="M314 124 394 124 394 204 314 204Z" fill="url(#fill4)" fill-rule="evenodd"/><path d="M368 152C368 146.486 363.514 142 358 142 352.486 142 348 146.486 348 152 348 153.021 348.153 154.027 348.454 154.99L346.546 155.587C346.184 154.431 346 153.224 346 152 346 145.383 351.383 140 358 140 364.617 140 370 145.383 370 152 370 157.793 365.87 162.757 360.181 163.802L359.819 161.835C364.56 160.964 368 156.828 368 152ZM332 186 336 186 336 183 332 183 332 186ZM337 181 331 181C330.447 181 330 181.448 330 182L330 187C330 187.552 330.447 188 331 188L337 188C337.553 188 338 187.552 338 187L338 182C338 181.448 337.553 181 337 181ZM342 186 346 186 346 183 342 183 342 186ZM347 181 341 181C340.447 181 340 181.448 340 182L340 187C340 187.552 340.447 188 341 188L347 188C347.553 188 348 187.552 348 187L348 182C348 181.448 347.553 181 347 181ZM376 190 328 190 328 143 335 143 335 160 335 174 335 176 337 176 337 174 337 162.261 346 170.442 346 176 348 176 348 162.135 358 170.468 358 178C358 178.552 358.447 179 359 179L376 179 376 190ZM328 141 335 141 335 138 328 138 328 141ZM377 177 360 177 360 170C360 169.703 359.868 169.422 359.641 169.232L347.641 159.232C347.342 158.983 346.926 158.931 346.576 159.094 346.225 159.259 346 159.612 346 160L346 167.739 337 159.558 337 137C337 136.448 336.553 136 336 136L327 136C326.447 136 326 136.448 326 137L326 191C326 191.552 326.447 192 327 192L377 192C377.553 192 378 191.552 378 191L378 178C378 177.448 377.553 177 377 177ZM379.285 172.577C378.608 173.349 377.522 173.869 376.749 173.19L367.484 164.874C368.566 164.075 369.539 163.147 370.382 162.114L379.571 169.954C379.884 170.228 380.026 170.593 379.996 171.039 379.962 171.547 379.71 172.093 379.285 172.577ZM380.88 168.441 371.555 160.484C373.109 158.001 374 155.083 374 152 374 143.178 366.822 136 358 136 349.178 136 342 143.178 342 152 342 153.448 342.193 154.884 342.575 156.266L344.503 155.734C344.169 154.525 344 153.269 344 152 344 144.28 350.28 138 358 138 365.72 138 372 144.28 372 152 372 158.345 367.723 163.91 361.598 165.534L362.109 167.467C363.4 167.125 364.618 166.627 365.748 166.002L375.422 174.686C376.052 175.238 376.805 175.507 377.582 175.507 378.695 175.507 379.859 174.956 380.789 173.896 381.501 173.084 381.928 172.117 381.992 171.173 382.063 170.103 381.673 169.136 380.88 168.441Z" fill="#FFFFFF" fill-rule="evenodd" fill-opacity="1"/></g></g></g></g></svg>